<svg width="24" height="24" viewBox="0 0 24 24" fill="none" xmlns="http://www.w3.org/2000/svg">
  <path d="M 12.546346,17.949811 21.703264,6.3970908 20.281884,4.6038281 11.124966,16.156507 Z M 5.4121451,20.950072 C 3.589869,20.835124 2.2322769,20.352258 1.3393689,19.501613 0.44645676,18.650968 0,17.420938 0,15.811662 0,14.317292 0.48745822,13.104546 1.4623719,12.173437 2.4372911,11.242328 3.7903239,10.684801 5.5214842,10.500884 6.2321742,10.431915 6.765178,10.288216 7.120523,10.069814 7.475868,9.8513982 7.6535405,9.5467713 7.6535405,9.1559333 7.6535405,8.5581882 7.3847521,8.109876 6.8471892,7.8109965 6.3096124,7.5121171 5.4212636,7.2937153 4.1821153,7.1557773 L 4.3734517,4.3969211 c 1.8769457,0.1839173 3.2573064,0.6609666 4.1411097,1.431148 0.8838033,0.7701813 1.325705,1.879474 1.325705,3.3278642 0,1.2184937 -0.3507858,2.1726057 -1.0523573,2.8623097 -0.7015854,0.689718 -1.7357196,1.103545 -3.1024163,1.241497 -1.1662557,0.114948 -2.0409543,0.385077 -2.6240821,0.8104 -0.5831278,0.425336 -0.8746848,1.005839 -0.8746848,1.741522 0,0.804638 0.2551244,1.385182 0.7653595,1.741494 0.5102352,0.356451 1.3666968,0.569077 2.5693988,0.638019 z M 13.065686,21.191436 8.555567,15.501357 18.997143,2.3277783 c 0.364463,-0.4598084 0.797316,-0.6897134 1.298419,-0.6897134 0.501102,0 0.933955,0.229905 1.298418,0.6897134 l 1.913364,2.4140016 c 0.364464,0.459807 0.546696,1.0058253 0.546696,1.6380687 0,0.6322295 -0.182232,1.1782617 -0.546696,1.6380687 z M 8.7195618,22.329452 C 8.4097816,22.421466 8.1364478,22.317985 7.8995465,22.019147 7.6626452,21.720171 7.5806478,21.375326 7.6535405,20.984474 l 0.9020265,-5.483117 4.510119,5.690079 z" fill="currentColor" id="path1549" style="stroke-width:1" />
</svg>
