<svg xmlns="http://www.w3.org/2000/svg" width="20" height="20" viewBox="0 0 20 20" fill="none">
  <path d="M10 20C8.61667 20 7.31667 19.7375 6.1 19.2125C4.88333 18.6875 3.825 17.975 2.925 17.075C2.025 16.175 1.3125 15.1167 0.7875 13.9C0.2625 12.6833 0 11.3833 0 10C0 8.61667 0.2625 7.31667 0.7875 6.1C1.3125 4.88333 2.025 3.825 2.925 2.925C3.825 2.025 4.88333 1.3125 6.1 0.7875C7.31667 0.2625 8.61667 0 10 0C11.3833 0 12.6833 0.2625 13.9 0.7875C15.1167 1.3125 16.175 2.025 17.075 2.925C17.975 3.825 18.6875 4.88333 19.2125 6.1C19.7375 7.31667 20 8.61667 20 10C20 11.3833 19.7375 12.6833 19.2125 13.9C18.6875 15.1167 17.975 16.175 17.075 17.075C16.175 17.975 15.1167 18.6875 13.9 19.2125C12.6833 19.7375 11.3833 20 10 20ZM9 17.95V16C8.45 16 7.97917 15.8042 7.5875 15.4125C7.19583 15.0208 7 14.55 7 14V13L2.2 8.2C2.15 8.5 2.10417 8.8 2.0625 9.1C2.02083 9.4 2 9.7 2 10C2 12.0167 2.6625 13.7833 3.9875 15.3C5.3125 16.8167 6.98333 17.7 9 17.95ZM15.9 15.4C16.2333 15.0333 16.5333 14.6375 16.8 14.2125C17.0667 13.7875 17.2875 13.3458 17.4625 12.8875C17.6375 12.4292 17.7708 11.9583 17.8625 11.475C17.9542 10.9917 18 10.5 18 10C18 8.36667 17.5458 6.875 16.6375 5.525C15.7292 4.175 14.5167 3.2 13 2.6V3C13 3.55 12.8042 4.02083 12.4125 4.4125C12.0208 4.80417 11.55 5 11 5H9V7C9 7.28333 8.90417 7.52083 8.7125 7.7125C8.52083 7.90417 8.28333 8 8 8H6V10H12C12.2833 10 12.5208 10.0958 12.7125 10.2875C12.9042 10.4792 13 10.7167 13 11V14H14C14.4333 14 14.825 14.1292 15.175 14.3875C15.525 14.6458 15.7667 14.9833 15.9 15.4Z" fill="currentColor"/>
</svg>
