<svg width="20" height="20" viewBox="0 0 20 20" fill="none" xmlns="http://www.w3.org/2000/svg">
<path id="Instagram" d="M5.55556 0C2.48778 0 0 2.48778 0 5.55556V14.4444C0 17.5122 2.48778 20 5.55556 20H14.4444C17.5122 20 20 17.5122 20 14.4444V5.55556C20 2.48778 17.5122 0 14.4444 0H5.55556ZM16.6667 2.22222C17.28 2.22222 17.7778 2.72 17.7778 3.33333C17.7778 3.94667 17.28 4.44444 16.6667 4.44444C16.0533 4.44444 15.5556 3.94667 15.5556 3.33333C15.5556 2.72 16.0533 2.22222 16.6667 2.22222ZM10 4.44444C13.0678 4.44444 15.5556 6.93222 15.5556 10C15.5556 13.0678 13.0678 15.5556 10 15.5556C6.93222 15.5556 4.44444 13.0678 4.44444 10C4.44444 6.93222 6.93222 4.44444 10 4.44444ZM10 6.66667C9.11595 6.66667 8.2681 7.01786 7.64298 7.64298C7.01786 8.2681 6.66667 9.11595 6.66667 10C6.66667 10.8841 7.01786 11.7319 7.64298 12.357C8.2681 12.9821 9.11595 13.3333 10 13.3333C10.8841 13.3333 11.7319 12.9821 12.357 12.357C12.9821 11.7319 13.3333 10.8841 13.3333 10C13.3333 9.11595 12.9821 8.2681 12.357 7.64298C11.7319 7.01786 10.8841 6.66667 10 6.66667Z" fill="currentColor"/>
</svg>
