<svg width="19" height="20" viewBox="0 0 19 20" fill="none" xmlns="http://www.w3.org/2000/svg">
<path id="Linked in" d="M16.1889 17.0413H13.3737V12.4004C13.3737 11.2937 13.3549 9.86912 11.9095 9.86912C10.4432 9.86912 10.2189 11.0749 10.2189 12.3199V17.041H7.4037V7.49741H10.1063V8.80165H10.1441C10.4146 8.31485 10.8054 7.91439 11.275 7.64291C11.7446 7.37143 12.2753 7.23911 12.8107 7.26003C15.664 7.26003 16.1901 9.23568 16.1901 11.8059L16.1889 17.0413ZM4.22721 6.19287C3.90409 6.19293 3.58822 6.09213 3.31952 5.90321C3.05083 5.71429 2.84139 5.44574 2.71769 5.13153C2.59398 4.81731 2.56157 4.47153 2.62455 4.13792C2.68753 3.80431 2.84307 3.49785 3.07151 3.2573C3.29994 3.01675 3.59101 2.8529 3.90791 2.78649C4.2248 2.72007 4.55329 2.75406 4.85183 2.88417C5.15037 3.01428 5.40556 3.23465 5.58512 3.51743C5.76468 3.80021 5.86056 4.13268 5.86061 4.47281C5.86065 4.69865 5.81843 4.92229 5.73637 5.13095C5.6543 5.33962 5.534 5.52923 5.38232 5.68895C5.23065 5.84867 5.05057 5.97538 4.85237 6.06184C4.65418 6.1483 4.44175 6.19282 4.22721 6.19287ZM5.63481 17.0413H2.81667V7.49741H5.63481V17.0413ZM17.5924 0.00136213H1.40203C1.03456 -0.00300324 0.680466 0.146386 0.417571 0.416701C0.154676 0.687017 0.00448484 1.05614 0 1.44297V18.5567C0.00433134 18.9437 0.154427 19.3131 0.417313 19.5837C0.680198 19.8543 1.03437 20.004 1.40203 19.9999H17.5924C17.9608 20.0047 18.3159 19.8555 18.5799 19.5849C18.8438 19.3143 18.9949 18.9445 19 18.5567V1.44173C18.9947 1.05414 18.8435 0.684596 18.5796 0.414287C18.3157 0.143978 17.9606 -0.00498453 17.5924 0.000127351" fill="currentColor"/>
</svg>
