<svg width="271" height="166" viewBox="0 0 271 166" fill="none" xmlns="http://www.w3.org/2000/svg">
<g clip-path="url(#clip0_932_129)">
<path d="M207.87 82.61C207.87 89.81 202.03 95.66 194.83 95.66C187.63 95.66 181.78 89.82 181.78 82.61C181.78 80.35 179.95 78.51 177.68 78.51C175.41 78.51 173.58 80.35 173.58 82.61C173.58 99.45 159.93 113.11 143.08 113.11C126.23 113.11 112.58 99.46 112.58 82.61C112.58 78.69 109.4 75.52 105.49 75.52C101.58 75.52 98.4 78.7 98.4 82.61C98.4 92.4 90.47 100.34 80.67 100.34C70.87 100.34 63.2 92.65 62.95 83.08C63.2 122.88 95.54 155.07 135.41 155.07C175.28 155.07 207.87 122.63 207.87 82.61Z" fill="url(#paint0_linear_932_129)"/>
<path d="M207.87 82.61C207.87 89.81 202.03 95.66 194.83 95.66C187.63 95.66 181.78 89.82 181.78 82.61C181.78 80.35 179.95 78.51 177.68 78.51C175.41 78.51 173.58 80.35 173.58 82.61C173.58 99.45 159.93 113.11 143.08 113.11C126.23 113.11 112.58 99.46 112.58 82.61C112.58 78.69 109.4 75.52 105.49 75.52C101.58 75.52 98.4 78.7 98.4 82.61C98.4 92.4 90.47 100.34 80.67 100.34C70.87 100.34 63.2 92.65 62.95 83.08C62.98 87.96 63.5 92.72 64.44 97.33C67.18 103.55 73.4 107.91 80.67 107.91C90.46 107.91 98.4 99.97 98.4 90.18C98.4 86.26 101.58 83.09 105.49 83.09C109.4 83.09 112.58 86.26 112.58 90.18C112.58 107.02 126.23 120.68 143.08 120.68C159.93 120.68 173.58 107.02 173.58 90.18C173.58 87.92 175.42 86.08 177.68 86.08C179.94 86.08 181.78 87.92 181.78 90.18C181.78 97.39 187.62 103.23 194.83 103.23C200.12 103.23 204.67 100.08 206.72 95.55C207.48 91.35 207.87 87.03 207.87 82.61Z" fill="url(#paint1_linear_932_129)"/>
<path d="M135.41 10.15C175.43 10.15 207.87 42.59 207.87 82.61C207.87 89.81 202.03 95.66 194.83 95.66C187.63 95.66 181.78 89.82 181.78 82.61C181.78 80.35 179.95 78.51 177.68 78.51C175.41 78.51 173.58 80.35 173.58 82.61C173.58 99.45 159.93 113.11 143.08 113.11C126.23 113.11 112.58 99.46 112.58 82.61C112.58 78.69 109.4 75.52 105.49 75.52C101.58 75.52 98.4 78.7 98.4 82.61C98.4 92.4 90.47 100.34 80.67 100.34C70.87 100.34 62.94 92.38 62.94 82.61C62.94 42.59 95.38 10.15 135.4 10.15H135.41Z" fill="url(#paint2_linear_932_129)"/>
<path d="M177.94 23.94C226.12 2.16002 263.29 -6.28998 269.81 5.01002C278.83 20.63 225.96 68.03 151.73 110.89C77.5 153.75 10.02 175.83 0.999997 160.21C-5.53 148.9 20.38 120.94 63.33 90.11C63.68 93.46 64.25 96.75 65.04 99.95C41.67 118.67 28.68 134.65 32.83 141.83C39.71 153.75 91.22 136.9 147.87 104.18C204.52 71.47 244.88 35.29 237.99 23.37C233.84 16.19 213.5 19.45 185.6 30.33C183.2 28.02 180.64 25.88 177.94 23.92V23.94Z" fill="url(#paint3_linear_932_129)"/>
<path d="M36.27 111.03C44.23 104.33 53.32 97.3 63.33 90.11C63.68 93.46 64.25 96.75 65.04 99.95C56.19 107.04 48.83 113.73 43.32 119.71L36.27 111.03Z" fill="url(#paint4_linear_932_129)"/>
<path d="M254.09 14.09C261.91 27.63 215.11 69.29 149.56 107.13C84.01 144.97 24.54 164.67 16.72 151.13C11.47 142.03 30.88 120.23 64.08 95.43C63.77 93.68 63.52 91.91 63.33 90.11C20.38 120.95 -5.52 148.91 0.999995 160.21C10.02 175.83 77.5 153.75 151.73 110.89C225.96 68.03 278.83 20.63 269.81 5.00997C263.28 -6.30003 226.12 2.15997 177.94 23.94C179.39 24.99 180.79 26.09 182.16 27.25C220.24 10.9 248.83 4.98997 254.09 14.09Z" fill="url(#paint5_linear_932_129)"/>
<path d="M227.11 141.41C237.703 141.41 246.29 132.823 246.29 122.23C246.29 111.637 237.703 103.05 227.11 103.05C216.517 103.05 207.93 111.637 207.93 122.23C207.93 132.823 216.517 141.41 227.11 141.41Z" fill="url(#paint6_linear_932_129)"/>
<path d="M246.02 119.02C246.2 120.07 246.29 121.14 246.29 122.23C246.29 132.82 237.7 141.41 227.11 141.41C216.52 141.41 207.93 132.82 207.93 122.23C207.93 121.14 208.02 120.07 208.2 119.02C209.73 128.09 217.62 134.99 227.11 134.99C236.6 134.99 244.5 128.08 246.02 119.02Z" fill="url(#paint7_linear_932_129)"/>
<path d="M50.71 58.65C55.7303 58.65 59.8 54.5802 59.8 49.56C59.8 44.5397 55.7303 40.47 50.71 40.47C45.6897 40.47 41.62 44.5397 41.62 49.56C41.62 54.5802 45.6897 58.65 50.71 58.65Z" fill="url(#paint8_linear_932_129)"/>
<path d="M59.68 48.05C59.76 48.54 59.81 49.05 59.81 49.56C59.81 54.58 55.74 58.65 50.72 58.65C45.7 58.65 41.63 54.58 41.63 49.56C41.63 49.04 41.67 48.54 41.76 48.05C42.48 52.35 46.22 55.63 50.73 55.63C55.24 55.63 58.98 52.35 59.7 48.05H59.68Z" fill="url(#paint9_linear_932_129)"/>
<path d="M80.88 130.3C89.32 127.09 97.6 123.49 105.75 119.67C113.08 116.24 114 115.17 121.15 111.37C122.76 113.01 124.44 114.49 126.59 115.83C108.98 125.35 99.87 129.13 85.2 134.85C83.69 133.4 82.23 131.87 80.85 130.3H80.87H80.88Z" fill="url(#paint10_linear_932_129)"/>
<path d="M127.48 108.82C133.36 105.7 139.18 102.47 144.94 99.14C154.73 93.49 164.37 87.55 173.78 81.29C173.65 81.7 173.57 82.13 173.57 82.58C173.57 84.71 173.35 86.79 172.94 88.79C165.05 93.93 156.64 99.09 147.85 104.17C143.27 106.82 138.72 109.36 134.23 111.79C131.84 111.07 129.58 110.07 127.49 108.82H127.48ZM177.93 78.49C179.4 77.49 180.86 76.48 182.32 75.46C189.7 70.31 196.98 64.92 203.99 59.2C204.66 61.17 205.25 63.19 205.76 65.24C198.65 70.94 190.61 76.87 181.77 82.9C181.77 82.79 181.77 82.68 181.77 82.57C181.77 80.39 180.07 78.61 177.93 78.48V78.49Z" fill="url(#paint11_linear_932_129)"/>
</g>
<defs>
<linearGradient id="paint0_linear_932_129" x1="135.41" y1="67.56" x2="135.41" y2="204.05" gradientUnits="userSpaceOnUse">
<stop stop-color="#1C2A39"/>
<stop offset="1" stop-color="#7C8A99"/>
</linearGradient>
<linearGradient id="paint1_linear_932_129" x1="62.95" y1="98.1" x2="199.8" y2="98.1" gradientUnits="userSpaceOnUse">
<stop stop-color="#E6EAED"/>
<stop offset="1" stop-color="#828F9E"/>
</linearGradient>
<linearGradient id="paint2_linear_932_129" x1="135.41" y1="117.45" x2="135.41" y2="-10.23" gradientUnits="userSpaceOnUse">
<stop stop-color="#7C8A99"/>
<stop offset="1" stop-color="#FEFEFE"/>
</linearGradient>
<linearGradient id="paint3_linear_932_129" x1="106.87" y1="33.18" x2="179.26" y2="158.57" gradientUnits="userSpaceOnUse">
<stop stop-color="#7C8A99"/>
<stop offset="1" stop-color="#FEFEFE"/>
</linearGradient>
<linearGradient id="paint4_linear_932_129" x1="36.27" y1="104.91" x2="65.04" y2="104.91" gradientUnits="userSpaceOnUse">
<stop stop-color="#7C8A99"/>
<stop offset="1" stop-color="#FEFEFE"/>
</linearGradient>
<linearGradient id="paint5_linear_932_129" x1="-4.67246e-06" y1="82.61" x2="270.82" y2="82.61" gradientUnits="userSpaceOnUse">
<stop stop-color="#7C8A99"/>
<stop offset="1" stop-color="#D4D8DC"/>
</linearGradient>
<linearGradient id="paint6_linear_932_129" x1="154.83" y1="122.23" x2="290.65" y2="122.23" gradientUnits="userSpaceOnUse">
<stop stop-color="#1C2A39"/>
<stop offset="1" stop-color="#BCCAD9"/>
</linearGradient>
<linearGradient id="paint7_linear_932_129" x1="207.93" y1="130.22" x2="246.29" y2="130.22" gradientUnits="userSpaceOnUse">
<stop stop-color="#1C2A39"/>
<stop offset="1" stop-color="#7C8A99"/>
</linearGradient>
<linearGradient id="paint8_linear_932_129" x1="50.71" y1="117.46" x2="50.71" y2="-10.22" gradientUnits="userSpaceOnUse">
<stop stop-color="#1C2A39"/>
<stop offset="1" stop-color="#BCCAD9"/>
</linearGradient>
<linearGradient id="paint9_linear_932_129" x1="41.62" y1="53.35" x2="59.8" y2="53.35" gradientUnits="userSpaceOnUse">
<stop stop-color="#1C2A39"/>
<stop offset="1" stop-color="#7C8A99"/>
</linearGradient>
<linearGradient id="paint10_linear_932_129" x1="80.85" y1="123.12" x2="126.59" y2="123.12" gradientUnits="userSpaceOnUse">
<stop offset="0.28" stop-color="#1A1A1A"/>
<stop offset="1" stop-color="#4D4D4D"/>
</linearGradient>
<linearGradient id="paint11_linear_932_129" x1="127.48" y1="85.5" x2="205.76" y2="85.5" gradientUnits="userSpaceOnUse">
<stop stop-color="#1C2A39"/>
<stop offset="1" stop-color="#7C8A99"/>
</linearGradient>
<clipPath id="clip0_932_129">
<rect width="270.82" height="165.23" fill="white"/>
</clipPath>
</defs>
</svg>
