<svg width="18" height="21" viewBox="0 0 18 21" fill="none" xmlns="http://www.w3.org/2000/svg">
<g id="ic_Place">
<g id="Group 2">
<g id="Group 53">
<path id="Combined Shape" fill-rule="evenodd" clip-rule="evenodd" d="M0 8.87006C0 3.96756 4.03307 0 9 0C13.9669 0 18 3.96756 18 8.87006C18 11.2916 17.0094 13.5597 15.295 15.2093L9.70134 20.7128C9.31219 21.0957 8.68788 21.0957 8.29871 20.7129L2.69735 15.2024C0.984442 13.5459 0 11.2842 0 8.87006ZM13.9003 13.7759C15.2357 12.4909 16 10.7409 16 8.87006C16 5.07953 12.8696 2 9 2C5.13037 2 2 5.07953 2 8.87006C2 10.7352 2.75964 12.4804 4.09383 13.7707L8.99996 18.5972L13.9003 13.7759ZM9 13C11.2091 13 13 11.2091 13 9C13 6.79086 11.2091 5 9 5C6.79086 5 5 6.79086 5 9C5 11.2091 6.79086 13 9 13ZM9 11C7.89543 11 7 10.1046 7 9C7 7.89543 7.89543 7 9 7C10.1046 7 11 7.89543 11 9C11 10.1046 10.1046 11 9 11Z" fill="#BBBBBB"/>
</g>
</g>
</g>
</svg>
