<svg xmlns="http://www.w3.org/2000/svg" width="22" height="21" viewBox="0 0 22 21" fill="none">
  <path d="M9 20.5V18.5H22V20.5H9ZM10 17.5C10 16.15 10.425 14.9708 11.275 13.9625C12.125 12.9542 13.2 12.3333 14.5 12.1V11.475C14.5 11.1917 14.5958 10.9542 14.7875 10.7625C14.9792 10.5708 15.2167 10.475 15.5 10.475C15.7833 10.475 16.0208 10.5708 16.2125 10.7625C16.4042 10.9542 16.5 11.1917 16.5 11.475V12.1C17.7833 12.3333 18.8542 12.9542 19.7125 13.9625C20.5708 14.9708 21 16.15 21 17.5H10ZM12.625 15.475H18.325C18.0083 15.025 17.6042 14.6625 17.1125 14.3875C16.6208 14.1125 16.0833 13.975 15.5 13.975C14.9 13.975 14.35 14.1125 13.85 14.3875C13.35 14.6625 12.9417 15.025 12.625 15.475ZM0 11.5V0.5H6V1.95L13 0L21 2.5V3.5C21 4.33333 20.7083 5.04167 20.125 5.625C19.5417 6.20833 18.8333 6.5 18 6.5H16V7.1C16 7.51667 15.8792 7.89583 15.6375 8.2375C15.3958 8.57917 15.0833 8.825 14.7 8.975L7.95 11.5H0ZM2 9.5H4V2.5H2V9.5ZM6 9.5H7.6L13.4 7.375C13.5833 7.30833 13.7292 7.19583 13.8375 7.0375C13.9458 6.87917 14 6.7 14 6.5H12.225L9.3 7.45L8.7 5.55L11.825 4.5H18C18.15 4.5 18.3375 4.44583 18.5625 4.3375C18.7875 4.22917 18.9 4.1 18.9 3.95L12.95 2.1L6 4V9.5Z" fill="currentColor"/>
</svg>
