<svg width="24" height="24" viewBox="0 0 24 24" fill="none" xmlns="http://www.w3.org/2000/svg">
<g id="ic_Working">
<g id="Working at">
<g id="Group 25">
<path id="Combined Shape" fill-rule="evenodd" clip-rule="evenodd" d="M7 8H6.5V20H17.5V8H17H7ZM19.5 8V20H20C20.5523 20 21 19.5523 21 19V9C21 8.44772 20.5523 8 20 8H19.5ZM4 8H4.5V20H4C3.44772 20 3 19.5523 3 19V9C3 8.44772 3.44772 8 4 8ZM17 6H20C21.6569 6 23 7.34315 23 9V19C23 20.6569 21.6569 22 20 22H4C2.34315 22 1 20.6569 1 19V9C1 7.34315 2.34315 6 4 6H7C7 4.34315 8.34315 3 10 3H14C15.6569 3 17 4.34315 17 6ZM15 6C15 5.44772 14.5523 5 14 5H10C9.44772 5 9 5.44772 9 6H15Z" fill="#BBBBBB"/>
</g>
</g>
</g>
</svg>
