<svg width="21" height="21" viewBox="0 0 21 21" fill="none" xmlns="http://www.w3.org/2000/svg">
<g id="Twitter">
<path id="Vector" fill-rule="evenodd" clip-rule="evenodd" d="M18.6667 21H2.33333C1.04475 21 0 19.9552 0 18.6667V2.33333C0 1.04475 1.04475 0 2.33333 0H18.6667C19.9552 0 21 1.04475 21 2.33333V18.6667C21 19.9552 19.9552 21 18.6667 21Z" fill="#212121"/>
<path id="Vector_2" d="M16.4833 16.3334H12.7283L4.56693 4.66675H8.32184L16.4833 16.3334ZM13.1758 15.3441H14.6708L7.87442 5.65608H6.37934L13.1758 15.3441Z" fill="white"/>
<path id="Vector_3" d="M5.75518 16.3333L9.95693 11.466L9.40743 10.7374L4.56343 16.3333H5.75518Z" fill="white"/>
<path id="Vector_4" d="M10.7625 9.17066L11.2904 9.92258L15.8293 4.66675H14.6627L10.7625 9.17066Z" fill="white"/>
</g>
</svg>
