<svg width="21" height="21" viewBox="0 0 21 21" fill="none" xmlns="http://www.w3.org/2000/svg">
<path id="Xing" d="M19.0775 0H1.92752C0.876144 0 0 0.876582 0 1.92747V19.0771C0 20.1239 0.876144 21 1.92752 21H19.0775C20.1239 21 21 20.1239 21 19.0771V1.92747C21 0.876582 20.1239 0 19.0775 0ZM6.47752 14.1374H4.02523C3.66608 14.1255 3.58556 13.8217 3.76399 13.5609L6.30274 8.87608C6.38784 8.79099 6.38784 8.66517 6.30274 8.5755L4.62869 5.65158C4.53902 5.47635 4.62869 5.21603 4.80392 5.21603H7.32026C7.40993 5.21603 7.49641 5.2357 7.58516 5.39125L9.45183 8.66517C9.53693 8.75072 9.53693 8.83582 9.45183 8.92549L6.73784 13.9123C6.73784 13.9123 6.63399 14.1292 6.47752 14.1374ZM17.1509 3.06392L12.2386 12.0786C12.1535 12.1683 12.1535 12.2177 12.2386 12.3074L15.3986 17.9361C15.5729 18.2687 15.3986 18.4837 15.1383 18.4837H12.6906C12.6009 18.4837 12.5478 18.4229 12.4248 18.2019L9.10046 12.3074C9.03915 12.2388 9.04144 12.1564 9.10046 12.0745L14.1771 2.71301C14.28 2.51629 14.4365 2.47099 14.5261 2.47099H16.9281C17.2374 2.46276 17.2891 2.7853 17.1509 3.06392Z" fill="currentColor"/>
</svg>
