<svg width="18" height="20" viewBox="0 0 18 20" fill="none" xmlns="http://www.w3.org/2000/svg">
<path id="You tube" d="M2.67969 0L4.1582 5.34375V7.90625H5.43945V5.34375L6.9375 0H5.64648L5.10938 2.43164C4.95837 3.14164 4.86236 3.64627 4.81836 3.94727H4.7793C4.7163 3.52627 4.62028 3.01787 4.48828 2.42188L3.9707 0H2.67969ZM8.43164 2.01758C7.99764 2.01758 7.64786 2.10239 7.38086 2.27539C7.11386 2.44739 6.91702 2.72261 6.79102 3.09961C6.66602 3.47661 6.60352 3.97566 6.60352 4.59766V5.4375C6.60352 6.0525 6.65758 6.54502 6.76758 6.91602C6.87758 7.28702 7.06322 7.56033 7.32422 7.73633C7.58522 7.91233 7.94434 8 8.40234 8C8.84834 8 9.20289 7.91323 9.46289 7.74023C9.72289 7.56723 9.91134 7.29588 10.0273 6.92188C10.1433 6.54787 10.2012 6.0535 10.2012 5.4375V4.59766C10.2012 3.97666 10.1424 3.47947 10.0234 3.10547C9.90444 2.73247 9.71503 2.45725 9.45703 2.28125C9.19903 2.10525 8.85864 2.01758 8.43164 2.01758ZM10.8789 2.13086V6.44531C10.8789 6.97931 10.9684 7.37205 11.1504 7.62305C11.3324 7.87405 11.615 8 11.998 8C12.55 8 12.9662 7.73322 13.2422 7.19922H13.2695L13.3828 7.90625H14.4004V2.13086H13.1016V6.71875C13.0516 6.82575 12.9751 6.91342 12.8711 6.98242C12.7671 7.05242 12.6599 7.08594 12.5469 7.08594C12.4149 7.08594 12.3207 7.03188 12.2637 6.92188C12.2067 6.81187 12.1777 6.62714 12.1777 6.36914V2.13086H10.8789ZM8.40234 2.91211C8.58434 2.91211 8.71316 3.00722 8.78516 3.19922C8.85716 3.39022 8.89258 3.69438 8.89258 4.10938V5.9082C8.89258 6.3352 8.85716 6.64403 8.78516 6.83203C8.71316 7.02003 8.5853 7.11423 8.4043 7.11523C8.2223 7.11523 8.09634 7.02003 8.02734 6.83203C7.95734 6.64403 7.92383 6.3352 7.92383 5.9082V4.10938C7.92383 3.69537 7.95925 3.39122 8.03125 3.19922C8.10325 3.00822 8.22634 2.91211 8.40234 2.91211ZM2 9C0.9 9 0 9.9 0 11V18C0 19.1 0.9 20 2 20H16C17.1 20 18 19.1 18 18V11C18 9.9 17.1 9 16 9H2ZM9.04883 11H10.1055V13.5684H10.1133C10.2083 13.3824 10.3445 13.2331 10.5195 13.1191C10.6945 13.0051 10.8839 12.9492 11.0859 12.9492C11.3459 12.9492 11.5493 13.0183 11.6973 13.1562C11.8453 13.2942 11.9535 13.5172 12.0195 13.8242C12.0855 14.1322 12.1172 14.5595 12.1172 15.1055V15.877H12.1191C12.1191 16.604 12.0305 17.1365 11.8555 17.4785C11.6805 17.8205 11.4081 17.9922 11.0371 17.9922C10.8301 17.9922 10.6427 17.9446 10.4727 17.8496C10.3027 17.7546 10.1748 17.624 10.0898 17.459H10.0664L9.95508 17.9199H9.04883V11ZM2.48633 11.2461H5.73828V12.1309H4.64844V17.9199H3.57617V12.1309H2.48633V11.2461ZM14.0977 12.9512C14.4737 12.9512 14.7628 13.0202 14.9648 13.1582C15.1658 13.2962 15.3076 13.5117 15.3906 13.8027C15.4726 14.0947 15.5137 14.4977 15.5137 15.0117V15.8477H13.6777V16.0957C13.6777 16.4087 13.6861 16.6428 13.7051 16.7988C13.7241 16.9548 13.7623 17.0696 13.8203 17.1406C13.8783 17.2126 13.9678 17.248 14.0898 17.248C14.2538 17.248 14.3667 17.1836 14.4277 17.0566C14.4887 16.9296 14.5223 16.7189 14.5273 16.4219L15.4746 16.4766C15.4796 16.5186 15.4824 16.5783 15.4824 16.6523C15.4824 17.1033 15.3583 17.4401 15.1113 17.6621C14.8643 17.8851 14.5174 17.9961 14.0664 17.9961C13.5254 17.9961 13.1457 17.8253 12.9277 17.4863C12.7097 17.1473 12.6016 16.6231 12.6016 15.9121V15.0605C12.6016 14.3285 12.7145 13.794 12.9395 13.457C13.1645 13.12 13.5517 12.9512 14.0977 12.9512ZM5.41016 13.0449H6.50977V16.625C6.50977 16.842 6.53403 16.9978 6.58203 17.0898C6.63003 17.1828 6.70831 17.2285 6.82031 17.2285C6.91531 17.2285 7.0087 17.1996 7.0957 17.1406C7.1837 17.0826 7.24606 17.008 7.28906 16.918V13.0449H8.38867V17.9199H8.38672H7.52734L7.43359 17.3223H7.4082C7.1742 17.7743 6.82442 18 6.35742 18C6.03342 18 5.79658 17.8936 5.64258 17.6816C5.48858 17.4696 5.41016 17.1375 5.41016 16.6875V13.0449ZM14.0742 13.6934C13.9572 13.6934 13.8705 13.7289 13.8145 13.7969C13.7585 13.8659 13.7211 13.9788 13.7031 14.1348C13.6841 14.2908 13.6758 14.5277 13.6758 14.8457V15.1953H14.4785V14.8457C14.4785 14.5327 14.4683 14.2968 14.4473 14.1348C14.4273 13.9728 14.388 13.859 14.332 13.793C14.276 13.727 14.1912 13.6934 14.0742 13.6934ZM10.5918 13.7285C10.4858 13.7285 10.3888 13.7705 10.2988 13.8555C10.2088 13.9405 10.1444 14.0496 10.1074 14.1816V16.9492C10.1554 17.0342 10.2179 17.0976 10.2949 17.1406C10.3719 17.1826 10.4539 17.2051 10.5449 17.2051C10.6619 17.2051 10.7533 17.1631 10.8223 17.0781C10.8913 16.9931 10.9417 16.8504 10.9707 16.6484C10.9997 16.4474 11.0137 16.1675 11.0137 15.8125V15.1855C11.0137 14.8035 11.0025 14.5097 10.9785 14.3027C10.9545 14.0957 10.9116 13.9464 10.8516 13.8594C10.7906 13.7724 10.7038 13.7285 10.5918 13.7285Z" fill="currentColor"/>
</svg>
