<svg width="100" height="61" viewBox="0 0 100 61" fill="none" xmlns="http://www.w3.org/2000/svg">
<g clip-path="url(#clip0_570_4539)">
<path d="M76.7538 30.2996C76.7538 32.9444 74.5948 35.0823 71.9391 35.0823C69.2833 35.0823 67.1243 32.9376 67.1243 30.2996C67.1243 29.4705 66.4483 28.799 65.6136 28.799C64.7789 28.799 64.1029 29.4705 64.1029 30.2996C64.1029 36.4801 59.0605 41.4889 52.8385 41.4889C46.6166 41.4889 41.5741 36.4801 41.5741 30.2996C41.5741 28.8606 40.4015 27.6958 38.9529 27.6958C37.5043 27.6958 36.3317 28.8606 36.3317 30.2996C36.3317 33.89 33.4 36.8021 29.7855 36.8021C26.171 36.8021 23.3359 33.986 23.2393 30.4709C23.329 45.0725 35.2763 56.8785 49.9966 56.8785C64.7169 56.8785 76.7538 44.9766 76.7538 30.2996Z" fill="#3D4753"/>
<path d="M49.9966 3.7207C64.7721 3.7207 76.7538 15.6227 76.7538 30.2997C76.7538 32.9445 74.5948 35.0824 71.9391 35.0824C69.2833 35.0824 67.1243 32.9377 67.1243 30.2997C67.1243 29.4706 66.4483 28.7991 65.6136 28.7991C64.7789 28.7991 64.1029 29.4706 64.1029 30.2997C64.1029 36.4802 59.0605 41.489 52.8385 41.489C46.6166 41.489 41.5741 36.4802 41.5741 30.2997C41.5741 28.8607 40.4015 27.6959 38.9529 27.6959C37.5043 27.6959 36.3317 28.8607 36.3317 30.2997C36.3317 33.8901 33.4 36.8022 29.7855 36.8022C26.171 36.8022 23.2393 33.8833 23.2393 30.2997C23.2393 15.6227 35.2211 3.7207 49.9966 3.7207Z" fill="url(#paint0_radial_570_4539)"/>
<path d="M65.7032 8.78425C83.4931 0.794805 97.2201 -2.30916 99.6275 1.83631C102.959 7.56459 83.4379 24.9482 56.0254 40.6735C28.6197 56.392 3.69729 64.4911 0.372464 58.7628C-2.03493 54.6174 7.52567 44.3599 23.391 33.0541C23.5152 34.2874 23.729 35.4865 24.0187 36.6651C15.3894 43.5308 10.5953 49.3961 12.1266 52.0273C14.6651 56.3989 33.6897 50.2184 54.6044 38.2205C75.526 26.2226 90.4256 12.9503 87.8802 8.57869C86.3489 5.94752 78.837 7.13977 68.5314 11.1345C67.6485 10.2917 66.7034 9.50371 65.7032 8.78425Z" fill="url(#paint1_linear_570_4539)"/>
<path d="M13.3959 40.7283C16.3344 38.2685 19.6937 35.6921 23.391 33.0541C23.5152 34.2874 23.729 35.4865 24.0188 36.6651C20.7491 39.2689 18.0313 41.7219 16.0033 43.9145L13.3959 40.7283Z" fill="url(#paint2_linear_570_4539)"/>
<path d="M93.8194 5.16641C96.7028 10.1341 79.4233 25.4141 55.2252 39.2963C31.0202 53.1785 9.06393 60.4005 6.17368 55.4328C4.23535 52.0959 11.4023 44.0996 23.6601 35.0001C23.5428 34.356 23.4531 33.7051 23.3841 33.0473C7.52569 44.3599 -2.04181 54.6174 0.37248 58.7629C3.7042 64.4911 28.6197 56.3921 56.0323 40.6735C83.4379 24.955 102.959 7.57147 99.6275 1.83633C97.2201 -2.30914 83.4931 0.787975 65.7032 8.77742C66.2344 9.16114 66.7586 9.5654 67.2622 9.99023C81.3272 3.99472 91.8811 1.82263 93.8194 5.15956V5.16641Z" fill="#3D4753"/>
<path d="M83.8588 51.8697C87.7713 51.8697 90.943 48.7191 90.943 44.8327C90.943 40.9462 87.7713 37.7957 83.8588 37.7957C79.9462 37.7957 76.7745 40.9462 76.7745 44.8327C76.7745 48.7191 79.9462 51.8697 83.8588 51.8697Z" fill="#3D4753"/>
<path d="M90.8464 43.6542C90.9154 44.0379 90.943 44.4285 90.943 44.8327C90.943 48.7178 87.7699 51.8697 83.8588 51.8697C79.9476 51.8697 76.7745 48.7178 76.7745 44.8327C76.7745 44.4353 76.809 44.0379 76.8711 43.6542C77.4367 46.9774 80.3477 49.5126 83.8588 49.5126C87.3698 49.5126 90.2808 46.9774 90.8395 43.6542H90.8464Z" fill="url(#paint3_linear_570_4539)"/>
<path d="M18.7211 21.5153C20.5764 21.5153 22.0804 20.0213 22.0804 18.1784C22.0804 16.3354 20.5764 14.8414 18.7211 14.8414C16.8658 14.8414 15.3618 16.3354 15.3618 18.1784C15.3618 20.0213 16.8658 21.5153 18.7211 21.5153Z" fill="#3D4753"/>
<path d="M22.0322 17.6234C22.0598 17.8016 22.0804 17.9866 22.0804 18.1784C22.0804 20.0216 20.5767 21.5154 18.7211 21.5154C16.8656 21.5154 15.3618 20.0216 15.3618 18.1784C15.3618 17.9866 15.3756 17.8016 15.4101 17.6234C15.6791 19.1994 17.0587 20.4053 18.7211 20.4053C20.3835 20.4053 21.7631 19.2062 22.0322 17.6234Z" fill="url(#paint4_linear_570_4539)"/>
</g>
<defs>
<radialGradient id="paint0_radial_570_4539" cx="0" cy="0" r="1" gradientUnits="userSpaceOnUse" gradientTransform="translate(62.9855 27.4972) scale(21.0319 20.8918)">
<stop stop-color="#7C8A99"/>
<stop offset="0.81" stop-color="#495460"/>
<stop offset="1" stop-color="#3D4753"/>
</radialGradient>
<linearGradient id="paint1_linear_570_4539" x1="39.4633" y1="12.1691" x2="65.9258" y2="58.3131" gradientUnits="userSpaceOnUse">
<stop stop-color="#1C2A39"/>
<stop offset="1" stop-color="#7C8A99"/>
</linearGradient>
<linearGradient id="paint2_linear_570_4539" x1="13.3959" y1="38.4809" x2="24.0188" y2="38.4809" gradientUnits="userSpaceOnUse">
<stop stop-color="#7C8A99"/>
<stop offset="1" stop-color="#FEFEFE"/>
</linearGradient>
<linearGradient id="paint3_linear_570_4539" x1="76.7745" y1="47.7654" x2="90.943" y2="47.7654" gradientUnits="userSpaceOnUse">
<stop stop-color="#1C2A39"/>
<stop offset="1" stop-color="#BCCAD9"/>
</linearGradient>
<linearGradient id="paint4_linear_570_4539" x1="15.3687" y1="19.5694" x2="22.0804" y2="19.5694" gradientUnits="userSpaceOnUse">
<stop stop-color="#1C2A39"/>
<stop offset="1" stop-color="#BCCAD9"/>
</linearGradient>
<clipPath id="clip0_570_4539">
<rect width="100" height="60.6061" fill="white"/>
</clipPath>
</defs>
</svg>
