<svg width="25" height="26" viewBox="0 0 25 26" fill="none" xmlns="http://www.w3.org/2000/svg">
<g id="Logo_DreamMall">
<path id="Vector" d="M10.4589 7.26847H12.8033C16.0612 7.26847 18.7503 9.99627 18.7503 13.3024C18.7503 16.6086 16.0618 19.3364 12.8033 19.3364H10.4589H6.85634H4.77272H2.68909H0.605469V25.6781H12.8027C19.5115 25.6781 25 20.1088 25 13.3024C25 6.49551 19.5115 0.926758 12.8027 0.926758H0.605469V10.1974V11.4967H2.68909H4.77272H6.85634H8.93996H11.0236H12.8033C13.7616 11.4967 14.583 12.3301 14.583 13.3024C14.583 14.2748 13.7616 15.1082 12.8033 15.1082H11.0236H0.605469V17.2223H8.93937H12.8027C14.9111 17.2223 16.6661 15.4417 16.6661 13.3024C16.6661 11.1632 14.9111 9.38257 12.8027 9.38257H8.93937H6.85575H4.77272H2.68909V3.04026H4.77272H12.8027C18.3608 3.04026 22.9164 7.66243 22.9164 13.3018C22.9164 18.9418 18.3608 23.5634 12.8027 23.5634H2.68909V21.4493H4.77272H10.4589H12.8033C17.2113 21.4493 20.8339 17.7743 20.8339 13.3012C20.8339 8.82875 17.2119 5.15377 12.8033 5.15377H10.4589H5.38405V7.26727H10.4589V7.26847Z" fill="url(#paint0_linear_3627_35999)"/>
<path id="Vector_2" opacity="0.75" d="M5.22112 11.5228H12.1015H12.7002V9.35023H12.1015L7.74205 9.34961H5.22112H2.7002V11.5228H5.22112Z" fill="url(#paint1_linear_3627_35999)"/>
<path id="Vector_3" opacity="0.75" d="M5.22112 21.4732H12.1015H12.7002V19.3007H12.1015L7.74205 19.3H5.22112H2.7002V21.4732H5.22112Z" fill="url(#paint2_linear_3627_35999)"/>
</g>
<defs>
<linearGradient id="paint0_linear_3627_35999" x1="18.5952" y1="28.0212" x2="0.825036" y2="-2.31382" gradientUnits="userSpaceOnUse">
<stop offset="0.1721" stop-color="#2CA5B1"/>
<stop offset="0.804" stop-color="#F09630"/>
</linearGradient>
<linearGradient id="paint1_linear_3627_35999" x1="12.7003" y1="10.436" x2="2.70009" y2="10.436" gradientUnits="userSpaceOnUse">
<stop stop-color="white" stop-opacity="0"/>
<stop offset="0.0405" stop-color="#EEEFF0" stop-opacity="0.0405"/>
<stop offset="0.1632" stop-color="#BFC3C7" stop-opacity="0.1632"/>
<stop offset="0.29" stop-color="#979DA3" stop-opacity="0.29"/>
<stop offset="0.4195" stop-color="#777E86" stop-opacity="0.4195"/>
<stop offset="0.5522" stop-color="#5D6670" stop-opacity="0.5522"/>
<stop offset="0.6896" stop-color="#4B5460" stop-opacity="0.6896"/>
<stop offset="0.8346" stop-color="#404A56" stop-opacity="0.8346"/>
<stop offset="1" stop-color="#3D4753"/>
</linearGradient>
<linearGradient id="paint2_linear_3627_35999" x1="12.7003" y1="20.3865" x2="2.70009" y2="20.3865" gradientUnits="userSpaceOnUse">
<stop stop-color="white" stop-opacity="0"/>
<stop offset="0.0405" stop-color="#EEEFF0" stop-opacity="0.0405"/>
<stop offset="0.1632" stop-color="#BFC3C7" stop-opacity="0.1632"/>
<stop offset="0.29" stop-color="#979DA3" stop-opacity="0.29"/>
<stop offset="0.4195" stop-color="#777E86" stop-opacity="0.4195"/>
<stop offset="0.5522" stop-color="#5D6670" stop-opacity="0.5522"/>
<stop offset="0.6896" stop-color="#4B5460" stop-opacity="0.6896"/>
<stop offset="0.8346" stop-color="#404A56" stop-opacity="0.8346"/>
<stop offset="1" stop-color="#3D4753"/>
</linearGradient>
</defs>
</svg>
