<svg width="19" height="20" viewBox="0 0 19 20" fill="none" xmlns="http://www.w3.org/2000/svg">
<path d="M7.29709 5.62712H9.03331C11.446 5.62712 13.4374 7.64723 13.4374 10.0957C13.4374 12.5441 11.4464 14.5642 9.03331 14.5642H7.29709H4.62918H3.08612H1.54306H0V19.2607H9.03287C14.0012 19.2607 18.0657 15.1362 18.0657 10.0957C18.0657 5.05469 14.0012 0.930664 9.03287 0.930664H0V7.79621V8.75838H1.54306H3.08612H4.62918H6.17224H7.7153H9.03331C9.743 8.75838 10.3513 9.37559 10.3513 10.0957C10.3513 10.8157 9.743 11.433 9.03331 11.433H7.7153H0V12.9986H6.17181H9.03287C10.5943 12.9986 11.8939 11.6799 11.8939 10.0957C11.8939 8.51141 10.5943 7.19275 9.03287 7.19275H6.17181H4.62875H3.08612H1.54306V2.49585H3.08612H9.03287C13.149 2.49585 16.5227 5.91887 16.5227 10.0952C16.5227 14.272 13.149 17.6946 9.03287 17.6946H1.54306V16.129H3.08612H7.29709H9.03331C12.2977 16.129 14.9805 13.4074 14.9805 10.0948C14.9805 6.78261 12.2982 4.06104 9.03331 4.06104H7.29709H3.53886V5.62623H7.29709V5.62712Z" fill="url(#paint0_linear_3426_48596)"/>
<defs>
<linearGradient id="paint0_linear_3426_48596" x1="13.3226" y1="20.9959" x2="0.162603" y2="-1.4692" gradientUnits="userSpaceOnUse">
<stop offset="0.1721" stop-color="#2CA5B1"/>
<stop offset="0.804" stop-color="#F09630"/>
</linearGradient>
</defs>
</svg>
