<svg width="387" height="396" viewBox="0 0 387 396" fill="none" xmlns="http://www.w3.org/2000/svg">
<path d="M99.1022 235.828L99.1022 197.815C99.1022 144.971 141.731 101.365 193.391 101.365C245.059 101.365 287.679 144.971 287.679 197.815L287.679 235.836L287.679 294.264L287.679 328.047L287.679 361.838L287.679 395.629L386.782 395.629L386.782 197.815C386.782 89.0092 299.759 0.000314952 193.391 0.000322312C87.023 0.000329672 -1.45662e-05 89.0092 -9.39731e-06 197.815L0 395.629L144.869 395.629L165.17 395.629L165.17 361.838L165.17 328.047L165.17 294.256L165.17 260.464L165.17 226.673L165.17 197.815C165.17 182.273 178.198 168.948 193.391 168.948C208.584 168.948 221.611 182.273 221.611 197.815L221.611 226.682L221.611 395.629L254.645 395.629L254.645 260.464L254.645 197.815C254.645 163.622 226.825 135.156 193.391 135.156C159.964 135.156 132.136 163.622 132.136 197.815L132.136 260.473L132.136 294.264L132.136 328.047L132.136 361.838L33.0341 361.838L33.0341 328.047L33.0341 197.815C33.0341 107.669 105.264 33.7831 193.391 33.7831C281.525 33.7831 353.748 107.66 353.748 197.815L353.748 361.838L320.713 361.838L320.713 328.047L320.713 235.828L320.713 197.815C320.713 126.32 263.292 67.5742 193.391 67.5742C123.498 67.5742 66.0763 126.32 66.0763 197.815L66.0763 235.836L66.0763 318.148L99.1023 318.148L99.1022 235.828Z" fill="url(#paint0_linear_479_1036)"/>
<defs>
<linearGradient id="paint0_linear_479_1036" x1="423.396" y1="103.87" x2="-59.4728" y2="376.409" gradientUnits="userSpaceOnUse">
<stop offset="0.1721" stop-color="#2CA5B1"/>
<stop offset="0.804" stop-color="#F09630"/>
</linearGradient>
</defs>
</svg>
