<svg xmlns="http://www.w3.org/2000/svg" width="199" height="176" viewBox="0 0 199 176" fill="none">
  <g clip-path="url(#clip0_932_164)">
    <path fill-rule="evenodd" clip-rule="evenodd" d="M114.97 173.44C150.48 163.92 197.5 127.82 198.21 73.86C198.52 50.4 187.26 48.27 182.97 56.91C181.13 60.62 180.98 64.24 180.14 67.95C177.14 81.18 165.8 87 153.69 80.23C146.63 76.28 138.07 68.51 127.45 56.28C112.25 38.92 78 64.72 110.87 91.07C118 98.01 122.48 103.77 124.92 108.48C139.8 134.22 138.6 163.82 114.97 173.44ZM165.84 29.6C175.36 34.5 179.11 46.19 174.21 55.71C169.31 65.23 157.62 68.98 148.1 64.08C138.58 59.18 134.83 47.49 139.73 37.97C144.63 28.45 156.32 24.7 165.84 29.6Z" fill="#3D4753"/>
    <path fill-rule="evenodd" clip-rule="evenodd" d="M185.89 118.69C193.31 105.64 197.99 90.61 198.21 73.86C198.52 50.4 187.26 48.27 182.97 56.91C181.13 60.62 180.98 64.24 180.14 67.95C177.14 81.18 165.8 87 153.69 80.23C146.63 76.28 138.07 68.51 127.45 56.28C112.25 38.92 78 64.72 110.87 91.07C118 98.01 122.48 103.77 124.92 108.48C127.09 112.22 128.91 116.05 130.37 119.89C148.68 128.16 169.03 127.17 185.89 118.69ZM165.84 29.6C175.36 34.5 179.11 46.19 174.21 55.71C169.31 65.23 157.62 68.98 148.1 64.08C138.58 59.18 134.83 47.49 139.73 37.97C144.63 28.45 156.32 24.7 165.84 29.6Z" fill="url(#paint0_linear_932_164)"/>
    <path fill-rule="evenodd" clip-rule="evenodd" d="M164.66 83.03C161.24 83.23 157.51 82.35 153.7 80.22C146.64 76.27 138.08 68.5 127.46 56.27C112.26 38.91 78.01 64.71 110.88 91.06C118.01 98 122.49 103.76 124.93 108.47C139.81 134.21 138.61 163.81 114.98 173.43C152.26 161.24 170.74 117.56 164.67 83.03H164.66Z" fill="url(#paint1_linear_932_164)"/>
    <path fill-rule="evenodd" clip-rule="evenodd" d="M126.63 112.63C135.3 139.02 62.87 143.52 78.27 167.93C83.66 176.47 98 177.98 114.97 173.43C138.6 163.81 139.8 134.21 124.92 108.47C125.32 109.24 125.66 109.98 125.95 110.69C126.22 111.36 126.45 112 126.63 112.62V112.63Z" fill="#3D4753"/>
    <path fill-rule="evenodd" clip-rule="evenodd" d="M126.63 112.63C128.19 117.39 127.11 121.43 124.39 125.01C132.94 143.69 131.33 163.08 114.97 173.43C138.6 163.81 139.8 134.21 124.92 108.47C125.32 109.24 125.66 109.98 125.95 110.69C126.22 111.36 126.45 112 126.63 112.62V112.63Z" fill="#0E215E"/>
    <path fill-rule="evenodd" clip-rule="evenodd" d="M175.13 49.4501C176.21 41.9201 172.51 34.2001 165.36 30.5201C156.35 25.8801 145.29 29.4301 140.65 38.4401C136.41 46.6901 139.02 56.6501 146.4 61.8401C145.13 57.9801 145.35 53.6301 147.35 49.7401C151.32 42.0301 160.79 38.9901 168.5 42.9601C171.42 44.4701 173.68 46.7601 175.13 49.4501Z" fill="url(#paint2_linear_932_164)"/>
    <path fill-rule="evenodd" clip-rule="evenodd" d="M83.25 2.51001C47.74 12.04 0.710003 48.13 3.42075e-06 102.1C-0.309997 125.55 10.95 127.69 15.24 119.05C17.08 115.34 17.23 111.72 18.07 108.01C21.07 94.78 32.41 88.96 44.52 95.73C51.58 99.68 60.14 107.45 70.76 119.68C85.96 137.04 120.21 111.24 87.34 84.89C80.21 77.95 75.73 72.19 73.29 67.48C58.41 41.74 59.61 12.14 83.24 2.52001L83.25 2.51001ZM32.38 146.35C22.86 141.45 19.11 129.76 24.01 120.24C28.91 110.72 40.6 106.97 50.12 111.87C59.64 116.77 63.39 128.46 58.49 137.99C53.59 147.51 41.9 151.26 32.38 146.36V146.35Z" fill="url(#paint3_linear_932_164)"/>
    <path fill-rule="evenodd" clip-rule="evenodd" d="M12.33 57.27C4.91 70.31 0.230003 85.34 3.42075e-06 102.1C-0.309997 125.55 10.95 127.69 15.24 119.05C17.08 115.34 17.23 111.72 18.07 108.01C21.07 94.78 32.41 88.96 44.52 95.73C51.58 99.68 60.14 107.45 70.76 119.68C85.96 137.04 120.21 111.24 87.34 84.89C80.21 77.95 75.73 72.19 73.29 67.48C71.12 63.74 69.3 59.91 67.84 56.07C49.53 47.8 29.18 48.79 12.32 57.27H12.33ZM32.38 146.36C22.86 141.46 19.11 129.77 24.01 120.25C28.91 110.73 40.6 106.98 50.12 111.88C59.64 116.78 63.39 128.47 58.49 138C53.59 147.52 41.9 151.27 32.38 146.37V146.36Z" fill="url(#paint4_linear_932_164)"/>
    <path fill-rule="evenodd" clip-rule="evenodd" d="M33.56 92.92C36.98 92.72 40.71 93.6 44.52 95.73C51.58 99.68 60.14 107.45 70.76 119.68C85.96 137.04 120.21 111.24 87.34 84.89C80.21 77.95 75.73 72.19 73.29 67.48C58.41 41.74 59.61 12.14 83.24 2.52002C45.97 14.7 27.49 58.38 33.56 92.92Z" fill="url(#paint5_linear_932_164)"/>
    <path fill-rule="evenodd" clip-rule="evenodd" d="M71.58 63.32C62.91 36.93 135.34 32.43 119.94 8.02001C114.55 -0.519989 100.21 -2.02999 83.24 2.52001C59.61 12.14 58.41 41.74 73.29 67.48C72.89 66.71 72.55 65.97 72.26 65.26C71.99 64.59 71.76 63.95 71.58 63.33V63.32Z" fill="url(#paint6_linear_932_164)"/>
    <path fill-rule="evenodd" clip-rule="evenodd" d="M71.58 63.32C70.02 58.56 71.1 54.52 73.82 50.94C65.27 32.26 66.88 12.87 83.24 2.52002C59.61 12.14 58.41 41.74 73.29 67.48C72.89 66.71 72.55 65.97 72.26 65.26C71.99 64.59 71.76 63.95 71.58 63.33V63.32Z" fill="url(#paint7_linear_932_164)"/>
    <path fill-rule="evenodd" clip-rule="evenodd" d="M23.09 126.5C22.01 134.03 25.71 141.75 32.86 145.43C41.87 150.07 52.93 146.52 57.57 137.51C61.81 129.26 59.2 119.3 51.82 114.11C53.09 117.97 52.87 122.32 50.87 126.21C46.9 133.92 37.43 136.96 29.72 132.99C26.8 131.48 24.54 129.19 23.09 126.5Z" fill="url(#paint8_linear_932_164)"/>
  </g>
  <defs>
    <linearGradient id="paint0_linear_932_164" x1="97.08" y1="76.52" x2="198.22" y2="76.52" gradientUnits="userSpaceOnUse">
      <stop stop-color="#1C2A39"/>
      <stop offset="1" stop-color="#7C8A99"/>
    </linearGradient>
    <linearGradient id="paint1_linear_932_164" x1="97.08" y1="112.04" x2="165.79" y2="112.04" gradientUnits="userSpaceOnUse">
      <stop stop-color="#1C2A39"/>
      <stop offset="1" stop-color="#7C8A99"/>
    </linearGradient>
    <linearGradient id="paint2_linear_932_164" x1="138.61" y1="45.1601" x2="175.31" y2="45.1601" gradientUnits="userSpaceOnUse">
      <stop stop-color="#1C2A39"/>
      <stop offset="1" stop-color="#7C8A99"/>
    </linearGradient>
    <linearGradient id="paint3_linear_932_164" x1="-21.8556" y1="117.802" x2="51.1173" y2="16.8919" gradientUnits="userSpaceOnUse">
      <stop stop-color="#1C2A39"/>
      <stop offset="1" stop-color="#BCCAD9"/>
    </linearGradient>
    <linearGradient id="paint4_linear_932_164" x1="3.41999e-06" y1="99.43" x2="101.14" y2="99.43" gradientUnits="userSpaceOnUse">
      <stop stop-color="#7C8A99"/>
      <stop offset="1" stop-color="#FEFEFE"/>
    </linearGradient>
    <linearGradient id="paint5_linear_932_164" x1="32.42" y1="63.92" x2="1.00001" y2="63.92" gradientUnits="userSpaceOnUse">
      <stop stop-color="#7C8A99"/>
      <stop offset="1" stop-color="#FEFEFE"/>
    </linearGradient>
    <linearGradient id="paint6_linear_932_164" x1="34.9389" y1="8.56541" x2="87.84" y2="-25.5456" gradientUnits="userSpaceOnUse">
      <stop stop-color="#1C2A39"/>
      <stop offset="1" stop-color="#BCCAD9"/>
    </linearGradient>
    <linearGradient id="paint7_linear_932_164" x1="63.53" y1="34.99" x2="83.25" y2="34.99" gradientUnits="userSpaceOnUse">
      <stop stop-color="#7C8A99"/>
      <stop offset="1" stop-color="#FEFEFE"/>
    </linearGradient>
    <linearGradient id="paint8_linear_932_164" x1="22.9" y1="130.79" x2="59.61" y2="130.79" gradientUnits="userSpaceOnUse">
      <stop stop-color="#7C8A99"/>
      <stop offset="1" stop-color="#FEFEFE"/>
    </linearGradient>
    <clipPath id="clip0_932_164">
      <rect width="198.22" height="175.95" fill="white"/>
    </clipPath>
  </defs>
</svg>
