<svg width="153" height="190" viewBox="0 0 153 190" fill="none" xmlns="http://www.w3.org/2000/svg">
<g filter="url(#filter0_d_700_914)">
<rect x="26" y="5" width="100" height="100" rx="22" fill="url(#paint0_linear_700_914)"/>
</g>
<path d="M40.497 141.04C40.497 142.24 40.1037 143.207 39.317 143.94C38.5304 144.673 37.3504 145.04 35.777 145.04H32.957V151H31.557V137.02H35.777C37.337 137.02 38.5104 137.387 39.297 138.12C40.097 138.853 40.497 139.827 40.497 141.04ZM35.777 143.84C37.9637 143.84 39.057 142.907 39.057 141.04C39.057 140.107 38.797 139.4 38.277 138.92C37.757 138.44 36.9237 138.2 35.777 138.2H32.957V143.84H35.777ZM44.2461 142.02C44.5528 141.34 45.0194 140.813 45.6461 140.44C46.2861 140.067 47.0661 139.88 47.9861 139.88V141.34H47.6061C46.5928 141.34 45.7794 141.613 45.1661 142.16C44.5528 142.707 44.2461 143.62 44.2461 144.9V151H42.8461V140.08H44.2461V142.02ZM59.9722 144.98C59.9722 145.46 59.9589 145.827 59.9322 146.08H50.8722C50.9122 146.907 51.1122 147.613 51.4722 148.2C51.8322 148.787 52.3055 149.233 52.8922 149.54C53.4789 149.833 54.1189 149.98 54.8122 149.98C55.7189 149.98 56.4789 149.76 57.0922 149.32C57.7189 148.88 58.1322 148.287 58.3322 147.54H59.8122C59.5455 148.607 58.9722 149.48 58.0922 150.16C57.2255 150.827 56.1322 151.16 54.8122 151.16C53.7855 151.16 52.8655 150.933 52.0522 150.48C51.2389 150.013 50.5989 149.36 50.1322 148.52C49.6789 147.667 49.4522 146.673 49.4522 145.54C49.4522 144.407 49.6789 143.413 50.1322 142.56C50.5855 141.707 51.2189 141.053 52.0322 140.6C52.8455 140.147 53.7722 139.92 54.8122 139.92C55.8522 139.92 56.7589 140.147 57.5322 140.6C58.3189 141.053 58.9189 141.667 59.3322 142.44C59.7589 143.2 59.9722 144.047 59.9722 144.98ZM58.5522 144.94C58.5655 144.127 58.3989 143.433 58.0522 142.86C57.7189 142.287 57.2589 141.853 56.6722 141.56C56.0855 141.267 55.4455 141.12 54.7522 141.12C53.7122 141.12 52.8255 141.453 52.0922 142.12C51.3589 142.787 50.9522 143.727 50.8722 144.94H58.5522ZM66.2936 151.16C65.0403 151.16 64.0136 150.873 63.2136 150.3C62.4269 149.713 61.9869 148.92 61.8936 147.92H63.3336C63.4003 148.533 63.6869 149.033 64.1936 149.42C64.7136 149.793 65.4069 149.98 66.2736 149.98C67.0336 149.98 67.6269 149.8 68.0536 149.44C68.4936 149.08 68.7136 148.633 68.7136 148.1C68.7136 147.727 68.5936 147.42 68.3536 147.18C68.1136 146.94 67.8069 146.753 67.4336 146.62C67.0736 146.473 66.5803 146.32 65.9536 146.16C65.1403 145.947 64.4803 145.733 63.9736 145.52C63.4669 145.307 63.0336 144.993 62.6736 144.58C62.3269 144.153 62.1536 143.587 62.1536 142.88C62.1536 142.347 62.3136 141.853 62.6336 141.4C62.9536 140.947 63.4069 140.587 63.9936 140.32C64.5803 140.053 65.2469 139.92 65.9936 139.92C67.1669 139.92 68.1136 140.22 68.8336 140.82C69.5536 141.407 69.9403 142.22 69.9936 143.26H68.5936C68.5536 142.62 68.3003 142.107 67.8336 141.72C67.3803 141.32 66.7536 141.12 65.9536 141.12C65.2469 141.12 64.6736 141.287 64.2336 141.62C63.7936 141.953 63.5736 142.367 63.5736 142.86C63.5736 143.287 63.7003 143.64 63.9536 143.92C64.2203 144.187 64.5469 144.4 64.9336 144.56C65.3203 144.707 65.8403 144.873 66.4936 145.06C67.2803 145.273 67.9069 145.48 68.3736 145.68C68.8403 145.88 69.2403 146.173 69.5736 146.56C69.9069 146.947 70.0803 147.46 70.0936 148.1C70.0936 148.687 69.9336 149.213 69.6136 149.68C69.2936 150.133 68.8469 150.493 68.2736 150.76C67.7003 151.027 67.0403 151.16 66.2936 151.16ZM82.6089 144.98C82.6089 145.46 82.5956 145.827 82.5689 146.08H73.5089C73.5489 146.907 73.7489 147.613 74.1089 148.2C74.4689 148.787 74.9422 149.233 75.5289 149.54C76.1156 149.833 76.7556 149.98 77.4489 149.98C78.3556 149.98 79.1156 149.76 79.7289 149.32C80.3556 148.88 80.7689 148.287 80.9689 147.54H82.4489C82.1822 148.607 81.6089 149.48 80.7289 150.16C79.8622 150.827 78.7689 151.16 77.4489 151.16C76.4222 151.16 75.5022 150.933 74.6889 150.48C73.8756 150.013 73.2356 149.36 72.7689 148.52C72.3156 147.667 72.0889 146.673 72.0889 145.54C72.0889 144.407 72.3156 143.413 72.7689 142.56C73.2222 141.707 73.8556 141.053 74.6689 140.6C75.4822 140.147 76.4089 139.92 77.4489 139.92C78.4889 139.92 79.3956 140.147 80.1689 140.6C80.9556 141.053 81.5556 141.667 81.9689 142.44C82.3956 143.2 82.6089 144.047 82.6089 144.98ZM81.1889 144.94C81.2022 144.127 81.0356 143.433 80.6889 142.86C80.3556 142.287 79.8956 141.853 79.3089 141.56C78.7222 141.267 78.0822 141.12 77.3889 141.12C76.3489 141.12 75.4622 141.453 74.7289 142.12C73.9956 142.787 73.5889 143.727 73.5089 144.94H81.1889ZM90.2903 139.88C91.597 139.88 92.6636 140.287 93.4903 141.1C94.317 141.9 94.7303 143.067 94.7303 144.6V151H93.3503V144.76C93.3503 143.573 93.0503 142.667 92.4503 142.04C91.8636 141.413 91.057 141.1 90.0303 141.1C88.977 141.1 88.137 141.433 87.5103 142.1C86.8836 142.767 86.5703 143.747 86.5703 145.04V151H85.1703V140.08H86.5703V141.94C86.917 141.273 87.417 140.767 88.0703 140.42C88.7236 140.06 89.4636 139.88 90.2903 139.88ZM99.6466 141.26V148.04C99.6466 148.707 99.7732 149.167 100.027 149.42C100.28 149.673 100.727 149.8 101.367 149.8H102.647V151H101.147C100.16 151 99.4266 150.773 98.9466 150.32C98.4666 149.853 98.2266 149.093 98.2266 148.04V141.26H96.7066V140.08H98.2266V137.34H99.6466V140.08H102.647V141.26H99.6466ZM114.835 144.98C114.835 145.46 114.822 145.827 114.795 146.08H105.735C105.775 146.907 105.975 147.613 106.335 148.2C106.695 148.787 107.169 149.233 107.755 149.54C108.342 149.833 108.982 149.98 109.675 149.98C110.582 149.98 111.342 149.76 111.955 149.32C112.582 148.88 112.995 148.287 113.195 147.54H114.675C114.409 148.607 113.835 149.48 112.955 150.16C112.089 150.827 110.995 151.16 109.675 151.16C108.649 151.16 107.729 150.933 106.915 150.48C106.102 150.013 105.462 149.36 104.995 148.52C104.542 147.667 104.315 146.673 104.315 145.54C104.315 144.407 104.542 143.413 104.995 142.56C105.449 141.707 106.082 141.053 106.895 140.6C107.709 140.147 108.635 139.92 109.675 139.92C110.715 139.92 111.622 140.147 112.395 140.6C113.182 141.053 113.782 141.667 114.195 142.44C114.622 143.2 114.835 144.047 114.835 144.98ZM113.415 144.94C113.429 144.127 113.262 143.433 112.915 142.86C112.582 142.287 112.122 141.853 111.535 141.56C110.949 141.267 110.309 141.12 109.615 141.12C108.575 141.12 107.689 141.453 106.955 142.12C106.222 142.787 105.815 143.727 105.735 144.94H113.415ZM118.797 142.02C119.104 141.34 119.57 140.813 120.197 140.44C120.837 140.067 121.617 139.88 122.537 139.88V141.34H122.157C121.144 141.34 120.33 141.613 119.717 142.16C119.104 142.707 118.797 143.62 118.797 144.9V151H117.397V140.08H118.797V142.02Z" fill="#3D4753"/>
<path d="M103.995 27.1061H47.0051C44.7966 27.1061 43 28.9027 43 31.1112V75.8888C43 78.0973 44.7966 79.894 47.0051 79.894H103.995C106.203 79.894 108 78.0973 108 75.8888V31.1112C108 28.9027 106.203 27.1061 103.995 27.1061ZM103.995 77.9897H47.0051C45.8467 77.9897 44.9043 77.0473 44.9043 75.8888V37.1518H54.1288C54.6547 37.1518 55.081 36.7254 55.081 36.1996C55.081 35.6738 54.6547 35.2475 54.1288 35.2475H44.9043V31.1112C44.9043 29.9527 45.8467 29.0104 47.0051 29.0104H103.995C105.153 29.0104 106.096 29.9527 106.096 31.1112V35.2475H58.1996C57.6737 35.2475 57.2474 35.6738 57.2474 36.1996C57.2474 36.7254 57.6737 37.1518 58.1996 37.1518H106.096V75.8888C106.096 77.0473 105.153 77.9897 103.995 77.9897Z" fill="white"/>
<path d="M58.1996 33.0811H102.977C103.503 33.0811 103.929 32.6547 103.929 32.1289C103.929 31.6031 103.503 31.1768 102.977 31.1768H58.1996C57.6737 31.1768 57.2474 31.6031 57.2474 32.1289C57.2474 32.6547 57.6736 33.0811 58.1996 33.0811Z" fill="white"/>
<path d="M49.0405 31.1768H48.0229C47.497 31.1768 47.0707 31.6031 47.0707 32.1289C47.0707 32.6547 47.497 33.0811 48.0229 33.0811H49.0405C49.5664 33.0811 49.9927 32.6547 49.9927 32.1289C49.9927 31.6031 49.5664 31.1768 49.0405 31.1768Z" fill="white"/>
<path d="M54.1288 31.1768H53.1112C52.5853 31.1768 52.159 31.6031 52.159 32.1289C52.159 32.6547 52.5853 33.0811 53.1112 33.0811H54.1288C54.6547 33.0811 55.081 32.6547 55.081 32.1289C55.081 31.6031 54.6547 31.1768 54.1288 31.1768Z" fill="white"/>
<path d="M100.942 71.8838H97.8233V44.341C97.8233 43.2548 96.9397 42.3712 95.8535 42.3712H91.7829C90.6967 42.3712 89.813 43.2548 89.813 44.341V65.7121C89.813 66.2379 90.2393 66.6642 90.7651 66.6642C91.291 66.6642 91.7173 66.2379 91.7173 65.7121V44.341C91.7173 44.3048 91.7467 44.2755 91.7829 44.2755H95.8535C95.8897 44.2755 95.919 44.3048 95.919 44.341V71.8838H91.7173V69.7829C91.7173 69.2571 91.291 68.8308 90.7651 68.8308C90.2393 68.8308 89.813 69.2571 89.813 69.7829V71.8838H85.6112V59.6061C85.6112 58.5199 84.7276 57.6363 83.6414 57.6363H79.5708C78.4846 57.6363 77.601 58.5199 77.601 59.6061V71.8838H73.3992V69.7829C73.3992 68.6967 72.5156 67.813 71.4294 67.813H67.3588C66.2726 67.813 65.389 68.6967 65.389 69.7829V71.8838H61.1872V67.7475C61.1872 66.6613 60.3035 65.7777 59.2173 65.7777H55.1465C54.0603 65.7777 53.1767 66.6613 53.1767 67.7475V71.8838H50.0582C49.5324 71.8838 49.1061 72.3101 49.1061 72.8359C49.1061 73.3617 49.5324 73.788 50.0582 73.788H100.942C101.468 73.788 101.894 73.3617 101.894 72.8359C101.894 72.3101 101.468 71.8838 100.942 71.8838ZM79.5051 59.6061C79.5051 59.5699 79.5345 59.5406 79.5706 59.5406H83.6413C83.6775 59.5406 83.7068 59.5699 83.7068 59.6061V71.8838H79.505V59.6061H79.5051ZM67.2931 69.7828C67.2931 69.7466 67.3225 69.7172 67.3586 69.7172H71.4293C71.4654 69.7172 71.4948 69.7466 71.4948 69.7828V71.8836H67.293L67.2931 69.7828ZM55.081 67.7475C55.081 67.7113 55.1103 67.682 55.1465 67.682H59.2171C59.2533 67.682 59.2828 67.7113 59.2828 67.7475V71.8838H55.081V67.7475Z" fill="white"/>
<path d="M60.6162 52.3253C60.4335 52.3253 60.2508 52.2765 60.0874 52.1592C58.3375 50.9771 58.1548 50.0002 58.0105 48.5152C57.9913 48.3394 57.9721 48.144 57.9529 47.9388C57.8375 46.9912 57.7894 45.77 58.3471 44.6856C58.8374 43.7477 59.7028 43.0346 60.7796 42.6731C61.8084 42.3214 63.0391 42.3116 64.116 42.6731C65.2217 43.0639 66.0774 43.777 66.5485 44.6954C67.1062 45.7505 67.0581 46.9228 66.9427 47.9388C66.9235 48.1342 66.9043 48.3198 66.885 48.4957C66.7408 49.9904 66.5677 50.9674 64.7986 52.1592C64.3563 52.4621 63.7602 52.3351 63.4622 51.8857C63.1641 51.4363 63.2891 50.8306 63.7314 50.5277C64.8275 49.7853 64.8563 49.4726 64.9717 48.3003C64.9909 48.1147 65.0101 47.9193 65.0294 47.7044C65.1159 46.9521 65.1544 46.1901 64.8467 45.6039C64.5198 44.9591 63.8564 44.6465 63.491 44.5195C62.8276 44.2948 62.0295 44.2948 61.3854 44.5195C60.7796 44.7247 60.2893 45.1155 60.0393 45.5942C59.7316 46.1901 59.7701 46.9912 59.8566 47.6946C59.8854 47.9095 59.9047 48.1147 59.9239 48.3003C60.0393 49.4726 60.0777 49.7853 61.1546 50.518C61.5969 50.8208 61.7123 51.4265 61.4238 51.8759C61.2411 52.1592 60.9335 52.3155 60.6258 52.3155L60.6162 52.3253Z" fill="white"/>
<path d="M70.7846 58.5807C70.2625 58.5807 69.8353 58.1432 69.8353 57.6086C69.8353 56.7726 69.6075 56.2865 68.2406 55.5964L65.8105 54.3521C65.1745 54.5951 63.931 54.9742 62.3268 54.9742C60.7225 54.9742 59.479 54.5951 58.843 54.3521L56.4129 55.5964C55.0555 56.2963 54.8182 56.7823 54.8182 57.6183C54.8182 58.1529 54.391 58.5904 53.8689 58.5904C53.3468 58.5904 52.9197 58.1529 52.9197 57.6183C52.9197 55.5089 54.1917 54.566 55.5586 53.8661L58.3779 52.4274C58.6437 52.2913 58.9569 52.2913 59.2227 52.4274C59.2227 52.4274 60.4757 53.0398 62.3173 53.0398C64.1588 53.0398 65.4023 52.4274 65.4118 52.4274C65.6776 52.2913 65.9909 52.2913 66.2567 52.4274L69.0759 53.8661C70.4524 54.566 71.7149 55.4992 71.7149 57.6183C71.7149 58.1529 71.2877 58.5904 70.7656 58.5904L70.7846 58.5807Z" fill="white"/>
<defs>
<filter id="filter0_d_700_914" x="21" y="0" width="130" height="130" filterUnits="userSpaceOnUse" color-interpolation-filters="sRGB">
<feFlood flood-opacity="0" result="BackgroundImageFix"/>
<feColorMatrix in="SourceAlpha" type="matrix" values="0 0 0 0 0 0 0 0 0 0 0 0 0 0 0 0 0 0 127 0" result="hardAlpha"/>
<feOffset dx="10" dy="10"/>
<feGaussianBlur stdDeviation="7.5"/>
<feComposite in2="hardAlpha" operator="out"/>
<feColorMatrix type="matrix" values="0 0 0 0 0.239216 0 0 0 0 0.278431 0 0 0 0 0.32549 0 0 0 0.3 0"/>
<feBlend mode="normal" in2="BackgroundImageFix" result="effect1_dropShadow_700_914"/>
<feBlend mode="normal" in="SourceGraphic" in2="effect1_dropShadow_700_914" result="shape"/>
</filter>
<linearGradient id="paint0_linear_700_914" x1="11" y1="-16.5" x2="146" y2="128.5" gradientUnits="userSpaceOnUse">
<stop offset="0.120204" stop-color="#2CA5B1"/>
<stop offset="0.962154" stop-color="#3D4753"/>
</linearGradient>
</defs>
</svg>
