<svg width="153" height="190" viewBox="0 0 153 190" fill="none" xmlns="http://www.w3.org/2000/svg">
<g filter="url(#filter0_d_718_923)">
<rect x="26" y="5" width="100" height="100" rx="22" fill="url(#paint0_linear_718_923)"/>
</g>
<path d="M30.7598 138.16V143.38H36.0598V144.54H30.7598V149.84H36.6598V151H29.3598V137H36.6598V138.16H30.7598ZM44.5384 139.88C45.845 139.88 46.9117 140.287 47.7384 141.1C48.565 141.9 48.9784 143.067 48.9784 144.6V151H47.5984V144.76C47.5984 143.573 47.2984 142.667 46.6984 142.04C46.1117 141.413 45.305 141.1 44.2784 141.1C43.225 141.1 42.385 141.433 41.7584 142.1C41.1317 142.767 40.8184 143.747 40.8184 145.04V151H39.4184V140.08H40.8184V141.94C41.165 141.273 41.665 140.767 42.3184 140.42C42.9717 140.06 43.7117 139.88 44.5384 139.88ZM53.8946 141.26V148.04C53.8946 148.707 54.0213 149.167 54.2746 149.42C54.5279 149.673 54.9746 149.8 55.6146 149.8H56.8946V151H55.3946C54.4079 151 53.6746 150.773 53.1946 150.32C52.7146 149.853 52.4746 149.093 52.4746 148.04V141.26H50.9546V140.08H52.4746V137.34H53.8946V140.08H56.8946V141.26H53.8946ZM69.0835 144.98C69.0835 145.46 69.0702 145.827 69.0435 146.08H59.9835C60.0235 146.907 60.2235 147.613 60.5835 148.2C60.9435 148.787 61.4168 149.233 62.0035 149.54C62.5902 149.833 63.2302 149.98 63.9235 149.98C64.8302 149.98 65.5902 149.76 66.2035 149.32C66.8302 148.88 67.2435 148.287 67.4435 147.54H68.9235C68.6568 148.607 68.0835 149.48 67.2035 150.16C66.3368 150.827 65.2435 151.16 63.9235 151.16C62.8968 151.16 61.9768 150.933 61.1635 150.48C60.3502 150.013 59.7102 149.36 59.2435 148.52C58.7902 147.667 58.5635 146.673 58.5635 145.54C58.5635 144.407 58.7902 143.413 59.2435 142.56C59.6968 141.707 60.3302 141.053 61.1435 140.6C61.9568 140.147 62.8835 139.92 63.9235 139.92C64.9635 139.92 65.8702 140.147 66.6435 140.6C67.4302 141.053 68.0302 141.667 68.4435 142.44C68.8702 143.2 69.0835 144.047 69.0835 144.98ZM67.6635 144.94C67.6768 144.127 67.5102 143.433 67.1635 142.86C66.8302 142.287 66.3702 141.853 65.7835 141.56C65.1968 141.267 64.5568 141.12 63.8635 141.12C62.8235 141.12 61.9368 141.453 61.2035 142.12C60.4702 142.787 60.0635 143.727 59.9835 144.94H67.6635ZM73.0449 142.02C73.3516 141.34 73.8183 140.813 74.4449 140.44C75.0849 140.067 75.8649 139.88 76.7849 139.88V141.34H76.4049C75.3916 141.34 74.5783 141.613 73.9649 142.16C73.3516 142.707 73.0449 143.62 73.0449 144.9V151H71.6449V140.08H73.0449V142.02ZM80.271 142.48C80.6177 141.747 81.1643 141.14 81.911 140.66C82.671 140.167 83.571 139.92 84.611 139.92C85.5977 139.92 86.4843 140.153 87.271 140.62C88.071 141.073 88.691 141.727 89.131 142.58C89.5843 143.42 89.811 144.4 89.811 145.52C89.811 146.64 89.5843 147.627 89.131 148.48C88.691 149.333 88.071 149.993 87.271 150.46C86.4843 150.927 85.5977 151.16 84.611 151.16C83.5843 151.16 82.691 150.92 81.931 150.44C81.171 149.947 80.6177 149.333 80.271 148.6V156.16H78.891V140.08H80.271V142.48ZM88.391 145.52C88.391 144.613 88.211 143.833 87.851 143.18C87.5043 142.513 87.0243 142.007 86.411 141.66C85.7977 141.313 85.1043 141.14 84.331 141.14C83.5843 141.14 82.8977 141.32 82.271 141.68C81.6577 142.04 81.171 142.553 80.811 143.22C80.451 143.887 80.271 144.66 80.271 145.54C80.271 146.42 80.451 147.193 80.811 147.86C81.171 148.527 81.6577 149.04 82.271 149.4C82.8977 149.76 83.5843 149.94 84.331 149.94C85.1043 149.94 85.7977 149.767 86.411 149.42C87.0243 149.06 87.5043 148.547 87.851 147.88C88.211 147.2 88.391 146.413 88.391 145.52ZM93.7871 142.02C94.0938 141.34 94.5604 140.813 95.1871 140.44C95.8271 140.067 96.6071 139.88 97.5271 139.88V141.34H97.1471C96.1338 141.34 95.3204 141.613 94.7071 142.16C94.0938 142.707 93.7871 143.62 93.7871 144.9V151H92.3871V140.08H93.7871V142.02ZM100.333 138.02C100.053 138.02 99.8132 137.92 99.6132 137.72C99.4132 137.52 99.3132 137.273 99.3132 136.98C99.3132 136.687 99.4132 136.447 99.6132 136.26C99.8132 136.06 100.053 135.96 100.333 135.96C100.613 135.96 100.853 136.06 101.053 136.26C101.253 136.447 101.353 136.687 101.353 136.98C101.353 137.273 101.253 137.52 101.053 137.72C100.853 137.92 100.613 138.02 100.333 138.02ZM101.033 140.08V151H99.6332V140.08H101.033ZM107.964 151.16C106.71 151.16 105.684 150.873 104.884 150.3C104.097 149.713 103.657 148.92 103.564 147.92H105.004C105.07 148.533 105.357 149.033 105.864 149.42C106.384 149.793 107.077 149.98 107.944 149.98C108.704 149.98 109.297 149.8 109.724 149.44C110.164 149.08 110.384 148.633 110.384 148.1C110.384 147.727 110.264 147.42 110.024 147.18C109.784 146.94 109.477 146.753 109.104 146.62C108.744 146.473 108.25 146.32 107.624 146.16C106.81 145.947 106.15 145.733 105.644 145.52C105.137 145.307 104.704 144.993 104.344 144.58C103.997 144.153 103.824 143.587 103.824 142.88C103.824 142.347 103.984 141.853 104.304 141.4C104.624 140.947 105.077 140.587 105.664 140.32C106.25 140.053 106.917 139.92 107.664 139.92C108.837 139.92 109.784 140.22 110.504 140.82C111.224 141.407 111.61 142.22 111.664 143.26H110.264C110.224 142.62 109.97 142.107 109.504 141.72C109.05 141.32 108.424 141.12 107.624 141.12C106.917 141.12 106.344 141.287 105.904 141.62C105.464 141.953 105.244 142.367 105.244 142.86C105.244 143.287 105.37 143.64 105.624 143.92C105.89 144.187 106.217 144.4 106.604 144.56C106.99 144.707 107.51 144.873 108.164 145.06C108.95 145.273 109.577 145.48 110.044 145.68C110.51 145.88 110.91 146.173 111.244 146.56C111.577 146.947 111.75 147.46 111.764 148.1C111.764 148.687 111.604 149.213 111.284 149.68C110.964 150.133 110.517 150.493 109.944 150.76C109.37 151.027 108.71 151.16 107.964 151.16ZM124.279 144.98C124.279 145.46 124.265 145.827 124.239 146.08H115.179C115.219 146.907 115.419 147.613 115.779 148.2C116.139 148.787 116.612 149.233 117.199 149.54C117.785 149.833 118.425 149.98 119.119 149.98C120.025 149.98 120.785 149.76 121.399 149.32C122.025 148.88 122.439 148.287 122.639 147.54H124.119C123.852 148.607 123.279 149.48 122.399 150.16C121.532 150.827 120.439 151.16 119.119 151.16C118.092 151.16 117.172 150.933 116.359 150.48C115.545 150.013 114.905 149.36 114.439 148.52C113.985 147.667 113.759 146.673 113.759 145.54C113.759 144.407 113.985 143.413 114.439 142.56C114.892 141.707 115.525 141.053 116.339 140.6C117.152 140.147 118.079 139.92 119.119 139.92C120.159 139.92 121.065 140.147 121.839 140.6C122.625 141.053 123.225 141.667 123.639 142.44C124.065 143.2 124.279 144.047 124.279 144.98ZM122.859 144.94C122.872 144.127 122.705 143.433 122.359 142.86C122.025 142.287 121.565 141.853 120.979 141.56C120.392 141.267 119.752 141.12 119.059 141.12C118.019 141.12 117.132 141.453 116.399 142.12C115.665 142.787 115.259 143.727 115.179 144.94H122.859ZM47.5646 181.14C46.6446 181.14 45.8313 180.98 45.1246 180.66C44.4313 180.34 43.8846 179.893 43.4846 179.32C43.0846 178.747 42.8713 178.107 42.8446 177.4H44.3246C44.3913 178.08 44.6913 178.68 45.2246 179.2C45.7579 179.707 46.5379 179.96 47.5646 179.96C48.5113 179.96 49.2579 179.72 49.8046 179.24C50.3646 178.747 50.6446 178.127 50.6446 177.38C50.6446 176.78 50.4913 176.3 50.1846 175.94C49.8779 175.567 49.4979 175.293 49.0446 175.12C48.5913 174.933 47.9646 174.733 47.1646 174.52C46.2313 174.267 45.4913 174.02 44.9446 173.78C44.3979 173.54 43.9313 173.167 43.5446 172.66C43.1579 172.153 42.9646 171.467 42.9646 170.6C42.9646 169.88 43.1513 169.24 43.5246 168.68C43.8979 168.107 44.4246 167.66 45.1046 167.34C45.7846 167.02 46.5646 166.86 47.4446 166.86C48.7379 166.86 49.7779 167.18 50.5646 167.82C51.3646 168.447 51.8246 169.26 51.9446 170.26H50.4246C50.3313 169.687 50.0179 169.18 49.4846 168.74C48.9513 168.287 48.2313 168.06 47.3246 168.06C46.4846 168.06 45.7846 168.287 45.2246 168.74C44.6646 169.18 44.3846 169.787 44.3846 170.56C44.3846 171.147 44.5379 171.62 44.8446 171.98C45.1513 172.34 45.5313 172.613 45.9846 172.8C46.4513 172.987 47.0779 173.187 47.8646 173.4C48.7713 173.653 49.5046 173.907 50.0646 174.16C50.6246 174.4 51.0979 174.773 51.4846 175.28C51.8713 175.787 52.0646 176.467 52.0646 177.32C52.0646 177.973 51.8913 178.593 51.5446 179.18C51.1979 179.767 50.6846 180.24 50.0046 180.6C49.3246 180.96 48.5113 181.14 47.5646 181.14ZM64.6499 174.98C64.6499 175.46 64.6366 175.827 64.6099 176.08H55.5499C55.5899 176.907 55.7899 177.613 56.1499 178.2C56.5099 178.787 56.9833 179.233 57.5699 179.54C58.1566 179.833 58.7966 179.98 59.4899 179.98C60.3966 179.98 61.1566 179.76 61.7699 179.32C62.3966 178.88 62.8099 178.287 63.0099 177.54H64.4899C64.2233 178.607 63.6499 179.48 62.7699 180.16C61.9033 180.827 60.8099 181.16 59.4899 181.16C58.4633 181.16 57.5433 180.933 56.7299 180.48C55.9166 180.013 55.2766 179.36 54.8099 178.52C54.3566 177.667 54.1299 176.673 54.1299 175.54C54.1299 174.407 54.3566 173.413 54.8099 172.56C55.2633 171.707 55.8966 171.053 56.7099 170.6C57.5233 170.147 58.4499 169.92 59.4899 169.92C60.5299 169.92 61.4366 170.147 62.2099 170.6C62.9966 171.053 63.5966 171.667 64.0099 172.44C64.4366 173.2 64.6499 174.047 64.6499 174.98ZM63.2299 174.94C63.2433 174.127 63.0766 173.433 62.7299 172.86C62.3966 172.287 61.9366 171.853 61.3499 171.56C60.7633 171.267 60.1233 171.12 59.4299 171.12C58.3899 171.12 57.5033 171.453 56.7699 172.12C56.0366 172.787 55.6299 173.727 55.5499 174.94H63.2299ZM66.5713 175.52C66.5713 174.4 66.7913 173.42 67.2313 172.58C67.6847 171.727 68.3047 171.073 69.0913 170.62C69.8913 170.153 70.7913 169.92 71.7913 169.92C72.8313 169.92 73.7247 170.16 74.4713 170.64C75.2313 171.12 75.778 171.733 76.1113 172.48V170.08H77.5113V181H76.1113V178.58C75.7647 179.327 75.2113 179.947 74.4513 180.44C73.7047 180.92 72.8113 181.16 71.7713 181.16C70.7847 181.16 69.8913 180.927 69.0913 180.46C68.3047 179.993 67.6847 179.333 67.2313 178.48C66.7913 177.627 66.5713 176.64 66.5713 175.52ZM76.1113 175.54C76.1113 174.66 75.9313 173.887 75.5713 173.22C75.2113 172.553 74.718 172.04 74.0913 171.68C73.478 171.32 72.798 171.14 72.0513 171.14C71.278 171.14 70.5847 171.313 69.9713 171.66C69.358 172.007 68.8713 172.513 68.5113 173.18C68.1647 173.833 67.9913 174.613 67.9913 175.52C67.9913 176.413 68.1647 177.2 68.5113 177.88C68.8713 178.547 69.358 179.06 69.9713 179.42C70.5847 179.767 71.278 179.94 72.0513 179.94C72.798 179.94 73.478 179.76 74.0913 179.4C74.718 179.04 75.2113 178.527 75.5713 177.86C75.9313 177.193 76.1113 176.42 76.1113 175.54ZM82.1074 172.02C82.4141 171.34 82.8808 170.813 83.5074 170.44C84.1474 170.067 84.9274 169.88 85.8474 169.88V171.34H85.4674C84.4541 171.34 83.6408 171.613 83.0274 172.16C82.4141 172.707 82.1074 173.62 82.1074 174.9V181H80.7074V170.08H82.1074V172.02ZM87.3135 175.54C87.3135 174.407 87.5402 173.42 87.9935 172.58C88.4468 171.727 89.0735 171.073 89.8735 170.62C90.6735 170.153 91.5868 169.92 92.6135 169.92C93.9602 169.92 95.0668 170.253 95.9335 170.92C96.8135 171.587 97.3802 172.493 97.6335 173.64H96.1335C95.9468 172.853 95.5402 172.24 94.9135 171.8C94.3002 171.347 93.5335 171.12 92.6135 171.12C91.8802 171.12 91.2202 171.287 90.6335 171.62C90.0468 171.953 89.5802 172.453 89.2335 173.12C88.9002 173.773 88.7335 174.58 88.7335 175.54C88.7335 176.5 88.9002 177.313 89.2335 177.98C89.5802 178.647 90.0468 179.147 90.6335 179.48C91.2202 179.813 91.8802 179.98 92.6135 179.98C93.5335 179.98 94.3002 179.76 94.9135 179.32C95.5402 178.867 95.9468 178.24 96.1335 177.44H97.6335C97.3802 178.56 96.8135 179.46 95.9335 180.14C95.0535 180.82 93.9468 181.16 92.6135 181.16C91.5868 181.16 90.6735 180.933 89.8735 180.48C89.0735 180.013 88.4468 179.36 87.9935 178.52C87.5402 177.667 87.3135 176.673 87.3135 175.54ZM105.419 169.88C106.246 169.88 106.986 170.053 107.639 170.4C108.306 170.747 108.826 171.28 109.199 172C109.586 172.707 109.779 173.573 109.779 174.6V181H108.399V174.76C108.399 173.573 108.099 172.667 107.499 172.04C106.912 171.413 106.106 171.1 105.079 171.1C104.026 171.1 103.186 171.433 102.559 172.1C101.932 172.767 101.619 173.747 101.619 175.04V181H100.219V166.2H101.619V171.94C101.966 171.287 102.472 170.78 103.139 170.42C103.819 170.06 104.579 169.88 105.419 169.88Z" fill="#3D4753"/>
<g clip-path="url(#clip0_718_923)">
<path d="M67.49 29.32H59.12C57.73 29.32 56.6 30.45 56.6 31.84V77.1C56.6 78.49 57.73 79.61 59.12 79.61H90.14" stroke="#F5F5F5" stroke-width="2" stroke-miterlimit="10" stroke-linecap="round" stroke-linejoin="round"/>
<path d="M84.8099 29.32H93.1799C94.5699 29.32 95.6999 30.45 95.6999 31.84V77.1C95.6999 77.28 95.6799 77.46 95.6399 77.63" stroke="#F5F5F5" stroke-width="2" stroke-miterlimit="10" stroke-linecap="round" stroke-linejoin="round"/>
<path d="M84.81 26.27H67.49V32.37H84.81V26.27Z" stroke="#F5F5F5" stroke-width="2" stroke-miterlimit="10" stroke-linecap="round" stroke-linejoin="round"/>
<path d="M88.1799 50.02C91.8299 55.5 90.3399 62.91 84.8599 66.56C79.3799 70.21 71.9699 68.72 68.3199 63.24C64.6699 57.76 66.1599 50.35 71.6399 46.7C77.1199 43.05 84.5299 44.54 88.1799 50.02Z" stroke="#F5F5F5" stroke-width="2" stroke-miterlimit="10" stroke-linecap="round" stroke-linejoin="round"/>
<path d="M85.91 65.78L89.34 70.95L87.18 72.39L83.74 67.23" stroke="#F5F5F5" stroke-width="2" stroke-miterlimit="10" stroke-linecap="round" stroke-linejoin="round"/>
<path d="M96.7 82.07L94.6 83.47C93.88 83.95 92.9 83.76 92.41 83.03L86.77 74.55C86.29 73.83 86.48 72.85 87.21 72.36L89.31 70.96C90.03 70.48 91.01 70.67 91.5 71.4L97.14 79.88C97.62 80.61 97.43 81.59 96.7 82.07Z" stroke="#F5F5F5" stroke-width="2" stroke-miterlimit="10" stroke-linecap="round" stroke-linejoin="round"/>
<path d="M62.12 37.37H91.17" stroke="#F5F5F5" stroke-width="2" stroke-miterlimit="10" stroke-linecap="round" stroke-linejoin="round"/>
<path d="M62.12 41.87H74.21" stroke="#F5F5F5" stroke-width="2" stroke-miterlimit="10" stroke-linecap="round" stroke-linejoin="round"/>
<path d="M74.21 49.66H82.29" stroke="#F5F5F5" stroke-width="2" stroke-miterlimit="10" stroke-linecap="round" stroke-linejoin="round"/>
<path d="M70.45 54.03H85.9199" stroke="#F5F5F5" stroke-width="2" stroke-miterlimit="10" stroke-linecap="round" stroke-linejoin="round"/>
<path d="M71.98 58.66H84.39" stroke="#F5F5F5" stroke-width="2" stroke-miterlimit="10" stroke-linecap="round" stroke-linejoin="round"/>
<path d="M75.08 63.43H81.29" stroke="#F5F5F5" stroke-width="2" stroke-miterlimit="10" stroke-linecap="round" stroke-linejoin="round"/>
<path d="M82.95 41.87H91.1699" stroke="#F5F5F5" stroke-width="2" stroke-miterlimit="10" stroke-linecap="round" stroke-linejoin="round"/>
<path d="M62.12 46.73H66.32" stroke="#F5F5F5" stroke-width="2" stroke-miterlimit="10" stroke-linecap="round" stroke-linejoin="round"/>
<path d="M62.12 51.75H64.04" stroke="#F5F5F5" stroke-width="2" stroke-miterlimit="10" stroke-linecap="round" stroke-linejoin="round"/>
<path d="M62.12 74.71H82.29" stroke="#F5F5F5" stroke-width="2" stroke-miterlimit="10" stroke-linecap="round" stroke-linejoin="round"/>
<path d="M62.12 69.75H70.45" stroke="#F5F5F5" stroke-width="2" stroke-miterlimit="10" stroke-linecap="round" stroke-linejoin="round"/>
<path d="M62.12 64.22H64.85" stroke="#F5F5F5" stroke-width="2" stroke-miterlimit="10" stroke-linecap="round" stroke-linejoin="round"/>
<path d="M62.12 57.47H63.49" stroke="#F5F5F5" stroke-width="2" stroke-miterlimit="10" stroke-linecap="round" stroke-linejoin="round"/>
</g>
<defs>
<filter id="filter0_d_718_923" x="21" y="0" width="130" height="130" filterUnits="userSpaceOnUse" color-interpolation-filters="sRGB">
<feFlood flood-opacity="0" result="BackgroundImageFix"/>
<feColorMatrix in="SourceAlpha" type="matrix" values="0 0 0 0 0 0 0 0 0 0 0 0 0 0 0 0 0 0 127 0" result="hardAlpha"/>
<feOffset dx="10" dy="10"/>
<feGaussianBlur stdDeviation="7.5"/>
<feComposite in2="hardAlpha" operator="out"/>
<feColorMatrix type="matrix" values="0 0 0 0 0.239216 0 0 0 0 0.278431 0 0 0 0 0.32549 0 0 0 0.3 0"/>
<feBlend mode="normal" in2="BackgroundImageFix" result="effect1_dropShadow_718_923"/>
<feBlend mode="normal" in="SourceGraphic" in2="effect1_dropShadow_718_923" result="shape"/>
</filter>
<linearGradient id="paint0_linear_718_923" x1="13" y1="-13" x2="135" y2="128" gradientUnits="userSpaceOnUse">
<stop offset="0.0620713" stop-color="#ABABAB"/>
<stop offset="0.81383" stop-color="#3D4753"/>
</linearGradient>
<clipPath id="clip0_718_923">
<rect width="64" height="64" fill="white" transform="translate(45 23)"/>
</clipPath>
</defs>
</svg>
