<svg width="298" height="233" viewBox="0 0 298 233" fill="none" xmlns="http://www.w3.org/2000/svg">
<g filter="url(#filter0_d_553_4443)">
<rect x="87.4297" y="5.71069" width="123.14" height="123.14" rx="22" fill="url(#paint0_linear_553_4443)"/>
</g>
<path d="M22.4181 180.545C21.4981 180.545 20.6848 180.385 19.9781 180.065C19.2848 179.745 18.7381 179.298 18.3381 178.725C17.9381 178.151 17.7248 177.511 17.6981 176.805H19.1781C19.2448 177.485 19.5448 178.085 20.0781 178.605C20.6115 179.111 21.3915 179.365 22.4181 179.365C23.3648 179.365 24.1115 179.125 24.6581 178.645C25.2181 178.151 25.4981 177.531 25.4981 176.785C25.4981 176.185 25.3448 175.705 25.0381 175.345C24.7315 174.971 24.3515 174.698 23.8981 174.525C23.4448 174.338 22.8181 174.138 22.0181 173.925C21.0848 173.671 20.3448 173.425 19.7981 173.185C19.2515 172.945 18.7848 172.571 18.3981 172.065C18.0115 171.558 17.8181 170.871 17.8181 170.005C17.8181 169.285 18.0048 168.645 18.3781 168.085C18.7515 167.511 19.2781 167.065 19.9581 166.745C20.6381 166.425 21.4181 166.265 22.2981 166.265C23.5915 166.265 24.6315 166.585 25.4181 167.225C26.2181 167.851 26.6781 168.665 26.7981 169.665H25.2781C25.1848 169.091 24.8715 168.585 24.3381 168.145C23.8048 167.691 23.0848 167.465 22.1781 167.465C21.3381 167.465 20.6381 167.691 20.0781 168.145C19.5181 168.585 19.2381 169.191 19.2381 169.965C19.2381 170.551 19.3915 171.025 19.6981 171.385C20.0048 171.745 20.3848 172.018 20.8381 172.205C21.3048 172.391 21.9315 172.591 22.7181 172.805C23.6248 173.058 24.3581 173.311 24.9181 173.565C25.4781 173.805 25.9515 174.178 26.3381 174.685C26.7248 175.191 26.9181 175.871 26.9181 176.725C26.9181 177.378 26.7448 177.998 26.3981 178.585C26.0515 179.171 25.5381 179.645 24.8581 180.005C24.1781 180.365 23.3648 180.545 22.4181 180.545ZM34.8234 169.285C35.6501 169.285 36.3901 169.458 37.0434 169.805C37.7101 170.151 38.2301 170.685 38.6034 171.405C38.9901 172.111 39.1834 172.978 39.1834 174.005V180.405H37.8034V174.165C37.8034 172.978 37.5034 172.071 36.9034 171.445C36.3168 170.818 35.5101 170.505 34.4834 170.505C33.4301 170.505 32.5901 170.838 31.9634 171.505C31.3368 172.171 31.0234 173.151 31.0234 174.445V180.405H29.6234V165.605H31.0234V171.345C31.3701 170.691 31.8768 170.185 32.5434 169.825C33.2234 169.465 33.9834 169.285 34.8234 169.285ZM41.6397 174.925C41.6397 173.805 41.8597 172.825 42.2997 171.985C42.753 171.131 43.373 170.478 44.1597 170.025C44.9597 169.558 45.8597 169.325 46.8597 169.325C47.8997 169.325 48.793 169.565 49.5397 170.045C50.2997 170.525 50.8464 171.138 51.1797 171.885V169.485H52.5797V180.405H51.1797V177.985C50.833 178.731 50.2797 179.351 49.5197 179.845C48.773 180.325 47.8797 180.565 46.8397 180.565C45.853 180.565 44.9597 180.331 44.1597 179.865C43.373 179.398 42.753 178.738 42.2997 177.885C41.8597 177.031 41.6397 176.045 41.6397 174.925ZM51.1797 174.945C51.1797 174.065 50.9997 173.291 50.6397 172.625C50.2797 171.958 49.7864 171.445 49.1597 171.085C48.5464 170.725 47.8664 170.545 47.1197 170.545C46.3464 170.545 45.653 170.718 45.0397 171.065C44.4264 171.411 43.9397 171.918 43.5797 172.585C43.233 173.238 43.0597 174.018 43.0597 174.925C43.0597 175.818 43.233 176.605 43.5797 177.285C43.9397 177.951 44.4264 178.465 45.0397 178.825C45.653 179.171 46.3464 179.345 47.1197 179.345C47.8664 179.345 48.5464 179.165 49.1597 178.805C49.7864 178.445 50.2797 177.931 50.6397 177.265C50.9997 176.598 51.1797 175.825 51.1797 174.945ZM57.1758 171.425C57.4824 170.745 57.9491 170.218 58.5758 169.845C59.2158 169.471 59.9958 169.285 60.9158 169.285V170.745H60.5358C59.5224 170.745 58.7091 171.018 58.0958 171.565C57.4824 172.111 57.1758 173.025 57.1758 174.305V180.405H55.7758V169.485H57.1758V171.425ZM72.9019 174.385C72.9019 174.865 72.8885 175.231 72.8619 175.485H63.8019C63.8419 176.311 64.0419 177.018 64.4019 177.605C64.7619 178.191 65.2352 178.638 65.8219 178.945C66.4085 179.238 67.0485 179.385 67.7419 179.385C68.6485 179.385 69.4085 179.165 70.0219 178.725C70.6485 178.285 71.0619 177.691 71.2619 176.945H72.7419C72.4752 178.011 71.9019 178.885 71.0219 179.565C70.1552 180.231 69.0619 180.565 67.7419 180.565C66.7152 180.565 65.7952 180.338 64.9819 179.885C64.1685 179.418 63.5285 178.765 63.0619 177.925C62.6085 177.071 62.3819 176.078 62.3819 174.945C62.3819 173.811 62.6085 172.818 63.0619 171.965C63.5152 171.111 64.1485 170.458 64.9619 170.005C65.7752 169.551 66.7019 169.325 67.7419 169.325C68.7819 169.325 69.6885 169.551 70.4619 170.005C71.2485 170.458 71.8485 171.071 72.2619 171.845C72.6885 172.605 72.9019 173.451 72.9019 174.385ZM71.4819 174.345C71.4952 173.531 71.3285 172.838 70.9819 172.265C70.6485 171.691 70.1885 171.258 69.6019 170.965C69.0152 170.671 68.3752 170.525 67.6819 170.525C66.6419 170.525 65.7552 170.858 65.0219 171.525C64.2885 172.191 63.8819 173.131 63.8019 174.345H71.4819ZM74.8233 174.925C74.8233 173.805 75.0499 172.825 75.5033 171.985C75.9566 171.131 76.5766 170.478 77.3633 170.025C78.1633 169.558 79.0633 169.325 80.0633 169.325C81.0233 169.325 81.8899 169.558 82.6633 170.025C83.4366 170.491 84.0033 171.098 84.3633 171.845V165.605H85.7633V180.405H84.3633V177.965C84.0299 178.725 83.4833 179.351 82.7233 179.845C81.9633 180.325 81.0699 180.565 80.0433 180.565C79.0433 180.565 78.1433 180.331 77.3433 179.865C76.5566 179.398 75.9366 178.738 75.4833 177.885C75.0433 177.031 74.8233 176.045 74.8233 174.925ZM84.3633 174.945C84.3633 174.065 84.1833 173.291 83.8233 172.625C83.4633 171.958 82.9699 171.445 82.3433 171.085C81.7299 170.725 81.0499 170.545 80.3033 170.545C79.5299 170.545 78.8366 170.718 78.2233 171.065C77.6099 171.411 77.1233 171.918 76.7633 172.585C76.4166 173.238 76.2433 174.018 76.2433 174.925C76.2433 175.818 76.4166 176.605 76.7633 177.285C77.1233 177.951 77.6099 178.465 78.2233 178.825C78.8366 179.171 79.5299 179.345 80.3033 179.345C81.0499 179.345 81.7299 179.165 82.3433 178.805C82.9699 178.445 83.4633 177.931 83.8233 177.265C84.1833 176.598 84.3633 175.825 84.3633 174.945ZM103.388 170.445C103.388 171.645 102.994 172.611 102.208 173.345C101.421 174.078 100.241 174.445 98.6677 174.445H95.8477V180.405H94.4477V166.425H98.6677C100.228 166.425 101.401 166.791 102.188 167.525C102.988 168.258 103.388 169.231 103.388 170.445ZM98.6677 173.245C100.854 173.245 101.948 172.311 101.948 170.445C101.948 169.511 101.688 168.805 101.168 168.325C100.648 167.845 99.8143 167.605 98.6677 167.605H95.8477V173.245H98.6677ZM107.137 171.425C107.443 170.745 107.91 170.218 108.537 169.845C109.177 169.471 109.957 169.285 110.877 169.285V170.745H110.497C109.483 170.745 108.67 171.018 108.057 171.565C107.443 172.111 107.137 173.025 107.137 174.305V180.405H105.737V169.485H107.137V171.425ZM122.863 174.385C122.863 174.865 122.849 175.231 122.823 175.485H113.763C113.803 176.311 114.003 177.018 114.363 177.605C114.723 178.191 115.196 178.638 115.783 178.945C116.369 179.238 117.009 179.385 117.703 179.385C118.609 179.385 119.369 179.165 119.983 178.725C120.609 178.285 121.023 177.691 121.223 176.945H122.703C122.436 178.011 121.863 178.885 120.983 179.565C120.116 180.231 119.023 180.565 117.703 180.565C116.676 180.565 115.756 180.338 114.943 179.885C114.129 179.418 113.489 178.765 113.023 177.925C112.569 177.071 112.343 176.078 112.343 174.945C112.343 173.811 112.569 172.818 113.023 171.965C113.476 171.111 114.109 170.458 114.923 170.005C115.736 169.551 116.663 169.325 117.703 169.325C118.743 169.325 119.649 169.551 120.423 170.005C121.209 170.458 121.809 171.071 122.223 171.845C122.649 172.605 122.863 173.451 122.863 174.385ZM121.443 174.345C121.456 173.531 121.289 172.838 120.943 172.265C120.609 171.691 120.149 171.258 119.563 170.965C118.976 170.671 118.336 170.525 117.643 170.525C116.603 170.525 115.716 170.858 114.983 171.525C114.249 172.191 113.843 173.131 113.763 174.345H121.443ZM129.184 180.565C127.931 180.565 126.904 180.278 126.104 179.705C125.318 179.118 124.878 178.325 124.784 177.325H126.224C126.291 177.938 126.578 178.438 127.084 178.825C127.604 179.198 128.298 179.385 129.164 179.385C129.924 179.385 130.518 179.205 130.944 178.845C131.384 178.485 131.604 178.038 131.604 177.505C131.604 177.131 131.484 176.825 131.244 176.585C131.004 176.345 130.698 176.158 130.324 176.025C129.964 175.878 129.471 175.725 128.844 175.565C128.031 175.351 127.371 175.138 126.864 174.925C126.358 174.711 125.924 174.398 125.564 173.985C125.218 173.558 125.044 172.991 125.044 172.285C125.044 171.751 125.204 171.258 125.524 170.805C125.844 170.351 126.298 169.991 126.884 169.725C127.471 169.458 128.138 169.325 128.884 169.325C130.058 169.325 131.004 169.625 131.724 170.225C132.444 170.811 132.831 171.625 132.884 172.665H131.484C131.444 172.025 131.191 171.511 130.724 171.125C130.271 170.725 129.644 170.525 128.844 170.525C128.138 170.525 127.564 170.691 127.124 171.025C126.684 171.358 126.464 171.771 126.464 172.265C126.464 172.691 126.591 173.045 126.844 173.325C127.111 173.591 127.438 173.805 127.824 173.965C128.211 174.111 128.731 174.278 129.384 174.465C130.171 174.678 130.798 174.885 131.264 175.085C131.731 175.285 132.131 175.578 132.464 175.965C132.798 176.351 132.971 176.865 132.984 177.505C132.984 178.091 132.824 178.618 132.504 179.085C132.184 179.538 131.738 179.898 131.164 180.165C130.591 180.431 129.931 180.565 129.184 180.565ZM145.5 174.385C145.5 174.865 145.486 175.231 145.46 175.485H136.4C136.44 176.311 136.64 177.018 137 177.605C137.36 178.191 137.833 178.638 138.42 178.945C139.006 179.238 139.646 179.385 140.34 179.385C141.246 179.385 142.006 179.165 142.62 178.725C143.246 178.285 143.66 177.691 143.86 176.945H145.34C145.073 178.011 144.5 178.885 143.62 179.565C142.753 180.231 141.66 180.565 140.34 180.565C139.313 180.565 138.393 180.338 137.58 179.885C136.766 179.418 136.126 178.765 135.66 177.925C135.206 177.071 134.98 176.078 134.98 174.945C134.98 173.811 135.206 172.818 135.66 171.965C136.113 171.111 136.746 170.458 137.56 170.005C138.373 169.551 139.3 169.325 140.34 169.325C141.38 169.325 142.286 169.551 143.06 170.005C143.846 170.458 144.446 171.071 144.86 171.845C145.286 172.605 145.5 173.451 145.5 174.385ZM144.08 174.345C144.093 173.531 143.926 172.838 143.58 172.265C143.246 171.691 142.786 171.258 142.2 170.965C141.613 170.671 140.973 170.525 140.28 170.525C139.24 170.525 138.353 170.858 137.62 171.525C136.886 172.191 136.48 173.131 136.4 174.345H144.08ZM153.181 169.285C154.488 169.285 155.554 169.691 156.381 170.505C157.208 171.305 157.621 172.471 157.621 174.005V180.405H156.241V174.165C156.241 172.978 155.941 172.071 155.341 171.445C154.754 170.818 153.948 170.505 152.921 170.505C151.868 170.505 151.028 170.838 150.401 171.505C149.774 172.171 149.461 173.151 149.461 174.445V180.405H148.061V169.485H149.461V171.345C149.808 170.678 150.308 170.171 150.961 169.825C151.614 169.465 152.354 169.285 153.181 169.285ZM162.537 170.665V177.445C162.537 178.111 162.664 178.571 162.917 178.825C163.171 179.078 163.617 179.205 164.257 179.205H165.537V180.405H164.037C163.051 180.405 162.317 180.178 161.837 179.725C161.357 179.258 161.117 178.498 161.117 177.445V170.665H159.597V169.485H161.117V166.745H162.537V169.485H165.537V170.665H162.537ZM167.206 174.925C167.206 173.805 167.426 172.825 167.866 171.985C168.319 171.131 168.939 170.478 169.726 170.025C170.526 169.558 171.426 169.325 172.426 169.325C173.466 169.325 174.359 169.565 175.106 170.045C175.866 170.525 176.413 171.138 176.746 171.885V169.485H178.146V180.405H176.746V177.985C176.399 178.731 175.846 179.351 175.086 179.845C174.339 180.325 173.446 180.565 172.406 180.565C171.419 180.565 170.526 180.331 169.726 179.865C168.939 179.398 168.319 178.738 167.866 177.885C167.426 177.031 167.206 176.045 167.206 174.925ZM176.746 174.945C176.746 174.065 176.566 173.291 176.206 172.625C175.846 171.958 175.353 171.445 174.726 171.085C174.113 170.725 173.433 170.545 172.686 170.545C171.913 170.545 171.219 170.718 170.606 171.065C169.993 171.411 169.506 171.918 169.146 172.585C168.799 173.238 168.626 174.018 168.626 174.925C168.626 175.818 168.799 176.605 169.146 177.285C169.506 177.951 169.993 178.465 170.606 178.825C171.219 179.171 171.913 179.345 172.686 179.345C173.433 179.345 174.113 179.165 174.726 178.805C175.353 178.445 175.846 177.931 176.206 177.265C176.566 176.598 176.746 175.825 176.746 174.945ZM183.162 170.665V177.445C183.162 178.111 183.289 178.571 183.542 178.825C183.796 179.078 184.242 179.205 184.882 179.205H186.162V180.405H184.662C183.676 180.405 182.942 180.178 182.462 179.725C181.982 179.258 181.742 178.498 181.742 177.445V170.665H180.222V169.485H181.742V166.745H183.162V169.485H186.162V170.665H183.162ZM189.171 167.425C188.891 167.425 188.651 167.325 188.451 167.125C188.251 166.925 188.151 166.678 188.151 166.385C188.151 166.091 188.251 165.851 188.451 165.665C188.651 165.465 188.891 165.365 189.171 165.365C189.451 165.365 189.691 165.465 189.891 165.665C190.091 165.851 190.191 166.091 190.191 166.385C190.191 166.678 190.091 166.925 189.891 167.125C189.691 167.325 189.451 167.425 189.171 167.425ZM189.871 169.485V180.405H188.471V169.485H189.871ZM197.821 180.565C196.795 180.565 195.868 180.338 195.041 179.885C194.228 179.418 193.581 178.765 193.101 177.925C192.635 177.071 192.401 176.078 192.401 174.945C192.401 173.811 192.641 172.825 193.121 171.985C193.601 171.131 194.255 170.478 195.081 170.025C195.908 169.558 196.835 169.325 197.861 169.325C198.888 169.325 199.815 169.558 200.641 170.025C201.481 170.478 202.135 171.131 202.601 171.985C203.081 172.825 203.321 173.811 203.321 174.945C203.321 176.065 203.081 177.051 202.601 177.905C202.121 178.758 201.461 179.418 200.621 179.885C199.781 180.338 198.848 180.565 197.821 180.565ZM197.821 179.345C198.541 179.345 199.208 179.185 199.821 178.865C200.435 178.531 200.928 178.038 201.301 177.385C201.688 176.718 201.881 175.905 201.881 174.945C201.881 173.985 201.695 173.178 201.321 172.525C200.948 171.858 200.455 171.365 199.841 171.045C199.228 170.711 198.561 170.545 197.841 170.545C197.121 170.545 196.455 170.711 195.841 171.045C195.228 171.365 194.735 171.858 194.361 172.525C194.001 173.178 193.821 173.985 193.821 174.945C193.821 175.905 194.001 176.718 194.361 177.385C194.735 178.038 195.221 178.531 195.821 178.865C196.435 179.185 197.101 179.345 197.821 179.345ZM210.993 169.285C212.3 169.285 213.367 169.691 214.193 170.505C215.02 171.305 215.433 172.471 215.433 174.005V180.405H214.053V174.165C214.053 172.978 213.753 172.071 213.153 171.445C212.567 170.818 211.76 170.505 210.733 170.505C209.68 170.505 208.84 170.838 208.213 171.505C207.587 172.171 207.273 173.151 207.273 174.445V180.405H205.873V169.485H207.273V171.345C207.62 170.678 208.12 170.171 208.773 169.825C209.427 169.465 210.167 169.285 210.993 169.285ZM230.558 173.185C231.345 173.331 232.011 173.731 232.558 174.385C233.105 175.038 233.378 175.798 233.378 176.665C233.378 177.371 233.198 178.011 232.838 178.585C232.491 179.145 231.978 179.591 231.298 179.925C230.618 180.245 229.805 180.405 228.858 180.405H224.018V166.425H228.718C230.131 166.425 231.205 166.751 231.938 167.405C232.685 168.058 233.058 168.905 233.058 169.945C233.058 170.811 232.825 171.518 232.358 172.065C231.891 172.598 231.291 172.971 230.558 173.185ZM225.418 172.605H228.678C229.625 172.605 230.351 172.385 230.858 171.945C231.378 171.491 231.638 170.871 231.638 170.085C231.638 169.311 231.378 168.705 230.858 168.265C230.351 167.825 229.605 167.605 228.618 167.605H225.418V172.605ZM228.758 179.225C229.771 179.225 230.558 178.985 231.118 178.505C231.691 178.025 231.978 177.365 231.978 176.525C231.978 175.685 231.678 175.018 231.078 174.525C230.491 174.018 229.698 173.765 228.698 173.765H225.418V179.225H228.758ZM240.732 180.565C239.705 180.565 238.778 180.338 237.952 179.885C237.138 179.418 236.492 178.765 236.012 177.925C235.545 177.071 235.312 176.078 235.312 174.945C235.312 173.811 235.552 172.825 236.032 171.985C236.512 171.131 237.165 170.478 237.992 170.025C238.818 169.558 239.745 169.325 240.772 169.325C241.798 169.325 242.725 169.558 243.552 170.025C244.392 170.478 245.045 171.131 245.512 171.985C245.992 172.825 246.232 173.811 246.232 174.945C246.232 176.065 245.992 177.051 245.512 177.905C245.032 178.758 244.372 179.418 243.532 179.885C242.692 180.338 241.758 180.565 240.732 180.565ZM240.732 179.345C241.452 179.345 242.118 179.185 242.732 178.865C243.345 178.531 243.838 178.038 244.212 177.385C244.598 176.718 244.792 175.905 244.792 174.945C244.792 173.985 244.605 173.178 244.232 172.525C243.858 171.858 243.365 171.365 242.752 171.045C242.138 170.711 241.472 170.545 240.752 170.545C240.032 170.545 239.365 170.711 238.752 171.045C238.138 171.365 237.645 171.858 237.272 172.525C236.912 173.178 236.732 173.985 236.732 174.945C236.732 175.905 236.912 176.718 237.272 177.385C237.645 178.038 238.132 178.531 238.732 178.865C239.345 179.185 240.012 179.345 240.732 179.345ZM248.144 174.925C248.144 173.805 248.364 172.825 248.804 171.985C249.257 171.131 249.877 170.478 250.664 170.025C251.464 169.558 252.364 169.325 253.364 169.325C254.404 169.325 255.297 169.565 256.044 170.045C256.804 170.525 257.35 171.138 257.684 171.885V169.485H259.084V180.405H257.684V177.985C257.337 178.731 256.784 179.351 256.024 179.845C255.277 180.325 254.384 180.565 253.344 180.565C252.357 180.565 251.464 180.331 250.664 179.865C249.877 179.398 249.257 178.738 248.804 177.885C248.364 177.031 248.144 176.045 248.144 174.925ZM257.684 174.945C257.684 174.065 257.504 173.291 257.144 172.625C256.784 171.958 256.29 171.445 255.664 171.085C255.05 170.725 254.37 170.545 253.624 170.545C252.85 170.545 252.157 170.718 251.544 171.065C250.93 171.411 250.444 171.918 250.084 172.585C249.737 173.238 249.564 174.018 249.564 174.925C249.564 175.818 249.737 176.605 250.084 177.285C250.444 177.951 250.93 178.465 251.544 178.825C252.157 179.171 252.85 179.345 253.624 179.345C254.37 179.345 255.05 179.165 255.664 178.805C256.29 178.445 256.784 177.931 257.144 177.265C257.504 176.598 257.684 175.825 257.684 174.945ZM263.68 171.425C263.986 170.745 264.453 170.218 265.08 169.845C265.72 169.471 266.5 169.285 267.42 169.285V170.745H267.04C266.026 170.745 265.213 171.018 264.6 171.565C263.986 172.111 263.68 173.025 263.68 174.305V180.405H262.28V169.485H263.68V171.425ZM268.886 174.925C268.886 173.805 269.112 172.825 269.566 171.985C270.019 171.131 270.639 170.478 271.426 170.025C272.226 169.558 273.126 169.325 274.126 169.325C275.086 169.325 275.952 169.558 276.726 170.025C277.499 170.491 278.066 171.098 278.426 171.845V165.605H279.826V180.405H278.426V177.965C278.092 178.725 277.546 179.351 276.786 179.845C276.026 180.325 275.132 180.565 274.106 180.565C273.106 180.565 272.206 180.331 271.406 179.865C270.619 179.398 269.999 178.738 269.546 177.885C269.106 177.031 268.886 176.045 268.886 174.925ZM278.426 174.945C278.426 174.065 278.246 173.291 277.886 172.625C277.526 171.958 277.032 171.445 276.406 171.085C275.792 170.725 275.112 170.545 274.366 170.545C273.592 170.545 272.899 170.718 272.286 171.065C271.672 171.411 271.186 171.918 270.826 172.585C270.479 173.238 270.306 174.018 270.306 174.925C270.306 175.818 270.479 176.605 270.826 177.285C271.186 177.951 271.672 178.465 272.286 178.825C272.899 179.171 273.592 179.345 274.366 179.345C275.112 179.345 275.792 179.165 276.406 178.805C277.032 178.445 277.526 177.931 277.886 177.265C278.246 176.598 278.426 175.825 278.426 174.945Z" fill="#3D4753"/>
<g clip-path="url(#clip0_553_4443)">
<path d="M187.174 86.9881V40.1104C187.174 37.426 184.998 35.2644 182.328 35.2644H114.441C111.771 35.2644 109.595 37.4402 109.595 40.1104V86.9881C109.595 89.6725 111.771 91.8341 114.441 91.8341H157.222L177.764 112.377C178.4 113.012 179.417 113.012 180.053 112.377L186.707 105.722C187.343 105.086 187.343 104.069 186.707 103.433L175.108 91.8341H182.342C185.026 91.8341 187.188 89.6584 187.188 86.9881H187.174ZM183.274 104.578L178.908 108.944L174.543 104.578L178.908 100.212L183.274 104.578ZM176.62 97.9234L172.254 102.289L154.594 84.6287L158.959 80.2631L176.62 97.9234ZM153.831 80.8141C153.153 79.4012 152.277 78.0873 151.231 76.9005H151.245C152.418 77.9319 153.732 78.8078 155.159 79.486L153.831 80.8141ZM171.858 88.5846L160.09 76.8158C159.454 76.18 158.437 76.18 157.801 76.8158C157.391 77.2255 154.707 75.8692 152.333 73.4956C151.712 72.8881 150.723 72.874 150.087 73.4673L147.897 71.2775L145.608 73.5662L147.798 75.7561C147.205 76.3919 147.219 77.3809 147.826 78.0025C150.214 80.3902 151.57 83.0605 151.146 83.4702C150.511 84.106 150.511 85.1232 151.146 85.759L153.972 88.5846H114.441C113.551 88.5846 112.83 87.8641 112.83 86.974V40.1104C112.83 39.2203 113.551 38.4998 114.441 38.4998H143.531V40.1104H153.223V38.4998H182.313C183.203 38.4998 183.924 39.2203 183.924 40.1104V86.9881C183.924 87.8782 183.203 88.5988 182.313 88.5988H171.858V88.5846Z" fill="#F5F5F5"/>
<path d="M117.676 70.8254H143.531V74.0608H117.676V70.8254Z" fill="#F5F5F5"/>
<path d="M117.676 77.282H132.229V80.5174H117.676V77.282Z" fill="#F5F5F5"/>
<path d="M130.604 65.9792C136.849 65.9792 141.921 60.9072 141.921 54.6625C141.921 48.4178 136.849 43.3457 130.604 43.3457C124.359 43.3457 119.287 48.4178 119.287 54.6625C119.287 60.9072 124.359 65.9651 130.604 65.9792ZM132.214 46.7506C136.58 47.6407 139.406 51.8933 138.516 56.259C138.304 57.2762 137.908 58.2511 137.329 59.1129L132.214 53.9984V46.7506ZM128.979 46.7506V54.6766C128.979 55.1005 129.149 55.5102 129.459 55.821L135.054 61.4158C131.338 63.8883 126.323 62.871 123.85 59.1553C121.378 55.4395 122.395 50.424 126.111 47.9515C126.987 47.3723 127.962 46.9625 128.979 46.7648V46.7506Z" fill="#F5F5F5"/>
<path d="M175.871 43.3457C174.091 43.3457 172.636 44.7868 172.636 46.5811C172.636 47.2592 172.862 47.9233 173.257 48.4743L168.877 58.3217L161.658 51.1021C161.022 50.4664 160.005 50.4664 159.369 51.1021C159.313 51.1587 159.256 51.2293 159.214 51.2858L151.966 61.1615C151.853 61.1474 151.74 61.1332 151.627 61.1332C149.832 61.1332 148.377 62.5743 148.363 64.3686C148.363 66.1629 149.804 67.6181 151.598 67.6323C153.393 67.6323 154.848 66.1912 154.862 64.3969C154.862 63.9448 154.777 63.4927 154.594 63.0829L160.711 54.7331L168.27 62.2918C168.906 62.9275 169.923 62.9275 170.559 62.2918C170.7 62.1505 170.813 61.9809 170.898 61.8114L176.238 49.8023C178.018 49.6469 179.318 48.0787 179.163 46.3126C179.022 44.6173 177.58 43.3316 175.885 43.374L175.871 43.3457Z" fill="#F5F5F5"/>
</g>
<defs>
<filter id="filter0_d_553_4443" x="82.4297" y="0.710693" width="153.141" height="153.14" filterUnits="userSpaceOnUse" color-interpolation-filters="sRGB">
<feFlood flood-opacity="0" result="BackgroundImageFix"/>
<feColorMatrix in="SourceAlpha" type="matrix" values="0 0 0 0 0 0 0 0 0 0 0 0 0 0 0 0 0 0 127 0" result="hardAlpha"/>
<feOffset dx="10" dy="10"/>
<feGaussianBlur stdDeviation="7.5"/>
<feComposite in2="hardAlpha" operator="out"/>
<feColorMatrix type="matrix" values="0 0 0 0 0.239216 0 0 0 0 0.278431 0 0 0 0 0.32549 0 0 0 0.3 0"/>
<feBlend mode="normal" in2="BackgroundImageFix" result="effect1_dropShadow_553_4443"/>
<feBlend mode="normal" in="SourceGraphic" in2="effect1_dropShadow_553_4443" result="shape"/>
</filter>
<linearGradient id="paint0_linear_553_4443" x1="68.9587" y1="-20.7645" x2="235.198" y2="157.789" gradientUnits="userSpaceOnUse">
<stop offset="0.120204" stop-color="#E47A24"/>
<stop offset="0.962154" stop-color="#3D4753"/>
</linearGradient>
<clipPath id="clip0_553_4443">
<rect width="77.5785" height="77.5785" fill="white" transform="translate(109.595 35.2644)"/>
</clipPath>
</defs>
</svg>
