<svg width="185" height="159" viewBox="0 0 185 159" fill="none" xmlns="http://www.w3.org/2000/svg">
<path d="M11.006 151.14C10.086 151.14 9.27268 150.98 8.56602 150.66C7.87268 150.34 7.32602 149.893 6.92602 149.32C6.52602 148.747 6.31268 148.107 6.28602 147.4H7.76602C7.83268 148.08 8.13268 148.68 8.66602 149.2C9.19935 149.707 9.97935 149.96 11.006 149.96C11.9527 149.96 12.6993 149.72 13.246 149.24C13.806 148.747 14.086 148.127 14.086 147.38C14.086 146.78 13.9327 146.3 13.626 145.94C13.3193 145.567 12.9393 145.293 12.486 145.12C12.0327 144.933 11.406 144.733 10.606 144.52C9.67268 144.267 8.93268 144.02 8.38602 143.78C7.83935 143.54 7.37268 143.167 6.98602 142.66C6.59935 142.153 6.40602 141.467 6.40602 140.6C6.40602 139.88 6.59268 139.24 6.96602 138.68C7.33935 138.107 7.86602 137.66 8.54602 137.34C9.22602 137.02 10.006 136.86 10.886 136.86C12.1793 136.86 13.2193 137.18 14.006 137.82C14.806 138.447 15.266 139.26 15.386 140.26H13.866C13.7727 139.687 13.4593 139.18 12.926 138.74C12.3927 138.287 11.6727 138.06 10.766 138.06C9.92602 138.06 9.22602 138.287 8.66602 138.74C8.10602 139.18 7.82602 139.787 7.82602 140.56C7.82602 141.147 7.97935 141.62 8.28602 141.98C8.59268 142.34 8.97268 142.613 9.42602 142.8C9.89268 142.987 10.5193 143.187 11.306 143.4C12.2127 143.653 12.946 143.907 13.506 144.16C14.066 144.4 14.5393 144.773 14.926 145.28C15.3127 145.787 15.506 146.467 15.506 147.32C15.506 147.973 15.3327 148.593 14.986 149.18C14.6393 149.767 14.126 150.24 13.446 150.6C12.766 150.96 11.9527 151.14 11.006 151.14ZM22.9913 151.16C21.9647 151.16 21.038 150.933 20.2113 150.48C19.398 150.013 18.7513 149.36 18.2713 148.52C17.8047 147.667 17.5713 146.673 17.5713 145.54C17.5713 144.407 17.8113 143.42 18.2913 142.58C18.7713 141.727 19.4247 141.073 20.2513 140.62C21.078 140.153 22.0047 139.92 23.0313 139.92C24.058 139.92 24.9847 140.153 25.8113 140.62C26.6513 141.073 27.3047 141.727 27.7713 142.58C28.2513 143.42 28.4913 144.407 28.4913 145.54C28.4913 146.66 28.2513 147.647 27.7713 148.5C27.2913 149.353 26.6313 150.013 25.7913 150.48C24.9513 150.933 24.018 151.16 22.9913 151.16ZM22.9913 149.94C23.7113 149.94 24.378 149.78 24.9913 149.46C25.6047 149.127 26.098 148.633 26.4713 147.98C26.858 147.313 27.0513 146.5 27.0513 145.54C27.0513 144.58 26.8647 143.773 26.4913 143.12C26.118 142.453 25.6247 141.96 25.0113 141.64C24.398 141.307 23.7313 141.14 23.0113 141.14C22.2913 141.14 21.6247 141.307 21.0113 141.64C20.398 141.96 19.9047 142.453 19.5313 143.12C19.1713 143.773 18.9913 144.58 18.9913 145.54C18.9913 146.5 19.1713 147.313 19.5313 147.98C19.9047 148.633 20.3913 149.127 20.9913 149.46C21.6047 149.78 22.2713 149.94 22.9913 149.94ZM30.4034 145.54C30.4034 144.407 30.63 143.42 31.0834 142.58C31.5367 141.727 32.1634 141.073 32.9634 140.62C33.7634 140.153 34.6767 139.92 35.7034 139.92C37.05 139.92 38.1567 140.253 39.0234 140.92C39.9034 141.587 40.47 142.493 40.7234 143.64H39.2234C39.0367 142.853 38.63 142.24 38.0034 141.8C37.39 141.347 36.6234 141.12 35.7034 141.12C34.97 141.12 34.31 141.287 33.7234 141.62C33.1367 141.953 32.67 142.453 32.3234 143.12C31.99 143.773 31.8234 144.58 31.8234 145.54C31.8234 146.5 31.99 147.313 32.3234 147.98C32.67 148.647 33.1367 149.147 33.7234 149.48C34.31 149.813 34.97 149.98 35.7034 149.98C36.6234 149.98 37.39 149.76 38.0034 149.32C38.63 148.867 39.0367 148.24 39.2234 147.44H40.7234C40.47 148.56 39.9034 149.46 39.0234 150.14C38.1434 150.82 37.0367 151.16 35.7034 151.16C34.6767 151.16 33.7634 150.933 32.9634 150.48C32.1634 150.013 31.5367 149.36 31.0834 148.52C30.63 147.667 30.4034 146.673 30.4034 145.54ZM44.009 138.02C43.729 138.02 43.489 137.92 43.289 137.72C43.089 137.52 42.989 137.273 42.989 136.98C42.989 136.687 43.089 136.447 43.289 136.26C43.489 136.06 43.729 135.96 44.009 135.96C44.289 135.96 44.529 136.06 44.729 136.26C44.929 136.447 45.029 136.687 45.029 136.98C45.029 137.273 44.929 137.52 44.729 137.72C44.529 137.92 44.289 138.02 44.009 138.02ZM44.709 140.08V151H43.309V140.08H44.709ZM47.2393 145.52C47.2393 144.4 47.4593 143.42 47.8993 142.58C48.3526 141.727 48.9726 141.073 49.7593 140.62C50.5593 140.153 51.4593 139.92 52.4593 139.92C53.4993 139.92 54.3926 140.16 55.1393 140.64C55.8993 141.12 56.446 141.733 56.7793 142.48V140.08H58.1793V151H56.7793V148.58C56.4326 149.327 55.8793 149.947 55.1193 150.44C54.3726 150.92 53.4793 151.16 52.4393 151.16C51.4526 151.16 50.5593 150.927 49.7593 150.46C48.9726 149.993 48.3526 149.333 47.8993 148.48C47.4593 147.627 47.2393 146.64 47.2393 145.52ZM56.7793 145.54C56.7793 144.66 56.5993 143.887 56.2393 143.22C55.8793 142.553 55.386 142.04 54.7593 141.68C54.146 141.32 53.466 141.14 52.7193 141.14C51.946 141.14 51.2526 141.313 50.6393 141.66C50.026 142.007 49.5393 142.513 49.1793 143.18C48.8326 143.833 48.6593 144.613 48.6593 145.52C48.6593 146.413 48.8326 147.2 49.1793 147.88C49.5393 148.547 50.026 149.06 50.6393 149.42C51.2526 149.767 51.946 149.94 52.7193 149.94C53.466 149.94 54.146 149.76 54.7593 149.4C55.386 149.04 55.8793 148.527 56.2393 147.86C56.5993 147.193 56.7793 146.42 56.7793 145.54ZM62.7754 136.2V151H61.3754V136.2H62.7754ZM81.974 151H80.574L72.834 139.24V151H71.434V137.02H72.834L80.574 148.76V137.02H81.974V151ZM95.0249 144.98C95.0249 145.46 95.0116 145.827 94.9849 146.08H85.9249C85.9649 146.907 86.1649 147.613 86.5249 148.2C86.8849 148.787 87.3583 149.233 87.9449 149.54C88.5316 149.833 89.1716 149.98 89.8649 149.98C90.7716 149.98 91.5316 149.76 92.1449 149.32C92.7716 148.88 93.1849 148.287 93.3849 147.54H94.8649C94.5983 148.607 94.0249 149.48 93.1449 150.16C92.2783 150.827 91.1849 151.16 89.8649 151.16C88.8383 151.16 87.9183 150.933 87.1049 150.48C86.2916 150.013 85.6516 149.36 85.1849 148.52C84.7316 147.667 84.5049 146.673 84.5049 145.54C84.5049 144.407 84.7316 143.413 85.1849 142.56C85.6383 141.707 86.2716 141.053 87.0849 140.6C87.8983 140.147 88.8249 139.92 89.8649 139.92C90.9049 139.92 91.8116 140.147 92.5849 140.6C93.3716 141.053 93.9716 141.667 94.3849 142.44C94.8116 143.2 95.0249 144.047 95.0249 144.98ZM93.6049 144.94C93.6183 144.127 93.4516 143.433 93.1049 142.86C92.7716 142.287 92.3116 141.853 91.7249 141.56C91.1383 141.267 90.4983 141.12 89.8049 141.12C88.7649 141.12 87.8783 141.453 87.1449 142.12C86.4116 142.787 86.0049 143.727 85.9249 144.94H93.6049ZM99.4063 141.26V148.04C99.4063 148.707 99.533 149.167 99.7863 149.42C100.04 149.673 100.486 149.8 101.126 149.8H102.406V151H100.906C99.9197 151 99.1863 150.773 98.7063 150.32C98.2263 149.853 97.9863 149.093 97.9863 148.04V141.26H96.4663V140.08H97.9863V137.34H99.4063V140.08H102.406V141.26H99.4063ZM119.115 140.08L115.695 151H114.295L111.275 141.84L108.255 151H106.835L103.415 140.08H104.835L107.555 149.58L110.615 140.08H112.015L115.035 149.6L117.735 140.08H119.115ZM125.804 151.16C124.777 151.16 123.85 150.933 123.024 150.48C122.21 150.013 121.564 149.36 121.084 148.52C120.617 147.667 120.384 146.673 120.384 145.54C120.384 144.407 120.624 143.42 121.104 142.58C121.584 141.727 122.237 141.073 123.064 140.62C123.89 140.153 124.817 139.92 125.844 139.92C126.87 139.92 127.797 140.153 128.624 140.62C129.464 141.073 130.117 141.727 130.584 142.58C131.064 143.42 131.304 144.407 131.304 145.54C131.304 146.66 131.064 147.647 130.584 148.5C130.104 149.353 129.444 150.013 128.604 150.48C127.764 150.933 126.83 151.16 125.804 151.16ZM125.804 149.94C126.524 149.94 127.19 149.78 127.804 149.46C128.417 149.127 128.91 148.633 129.284 147.98C129.67 147.313 129.864 146.5 129.864 145.54C129.864 144.58 129.677 143.773 129.304 143.12C128.93 142.453 128.437 141.96 127.824 141.64C127.21 141.307 126.544 141.14 125.824 141.14C125.104 141.14 124.437 141.307 123.824 141.64C123.21 141.96 122.717 142.453 122.344 143.12C121.984 143.773 121.804 144.58 121.804 145.54C121.804 146.5 121.984 147.313 122.344 147.98C122.717 148.633 123.204 149.127 123.804 149.46C124.417 149.78 125.084 149.94 125.804 149.94ZM135.256 142.02C135.563 141.34 136.029 140.813 136.656 140.44C137.296 140.067 138.076 139.88 138.996 139.88V141.34H138.616C137.603 141.34 136.789 141.613 136.176 142.16C135.563 142.707 135.256 143.62 135.256 144.9V151H133.856V140.08H135.256V142.02ZM147.002 151L142.502 146.1V151H141.102V136.2H142.502V144.96L146.902 140.08H148.862L143.682 145.52L148.902 151H147.002ZM151.411 138.02C151.131 138.02 150.891 137.92 150.691 137.72C150.491 137.52 150.391 137.273 150.391 136.98C150.391 136.687 150.491 136.447 150.691 136.26C150.891 136.06 151.131 135.96 151.411 135.96C151.691 135.96 151.931 136.06 152.131 136.26C152.331 136.447 152.431 136.687 152.431 136.98C152.431 137.273 152.331 137.52 152.131 137.72C151.931 137.92 151.691 138.02 151.411 138.02ZM152.111 140.08V151H150.711V140.08H152.111ZM160.402 139.88C161.708 139.88 162.775 140.287 163.602 141.1C164.428 141.9 164.842 143.067 164.842 144.6V151H163.462V144.76C163.462 143.573 163.162 142.667 162.562 142.04C161.975 141.413 161.168 141.1 160.142 141.1C159.088 141.1 158.248 141.433 157.622 142.1C156.995 142.767 156.682 143.747 156.682 145.04V151H155.282V140.08H156.682V141.94C157.028 141.273 157.528 140.767 158.182 140.42C158.835 140.06 159.575 139.88 160.402 139.88ZM172.518 139.92C173.545 139.92 174.438 140.16 175.198 140.64C175.958 141.12 176.505 141.727 176.838 142.46V140.08H178.238V151.28C178.238 152.28 178.018 153.167 177.578 153.94C177.151 154.713 176.551 155.307 175.778 155.72C175.005 156.147 174.125 156.36 173.138 156.36C171.738 156.36 170.571 156.027 169.638 155.36C168.718 154.693 168.145 153.787 167.918 152.64H169.298C169.538 153.4 169.991 154.007 170.658 154.46C171.338 154.913 172.165 155.14 173.138 155.14C173.845 155.14 174.478 154.987 175.038 154.68C175.598 154.387 176.038 153.947 176.358 153.36C176.678 152.773 176.838 152.08 176.838 151.28V148.58C176.491 149.327 175.938 149.947 175.178 150.44C174.431 150.92 173.545 151.16 172.518 151.16C171.518 151.16 170.618 150.927 169.818 150.46C169.031 149.993 168.411 149.333 167.958 148.48C167.518 147.627 167.298 146.64 167.298 145.52C167.298 144.4 167.518 143.42 167.958 142.58C168.411 141.727 169.031 141.073 169.818 140.62C170.618 140.153 171.518 139.92 172.518 139.92ZM176.838 145.54C176.838 144.66 176.658 143.887 176.298 143.22C175.938 142.553 175.445 142.04 174.818 141.68C174.205 141.32 173.525 141.14 172.778 141.14C172.005 141.14 171.311 141.313 170.698 141.66C170.085 142.007 169.598 142.513 169.238 143.18C168.891 143.833 168.718 144.613 168.718 145.52C168.718 146.413 168.891 147.2 169.238 147.88C169.598 148.547 170.085 149.06 170.698 149.42C171.311 149.767 172.005 149.94 172.778 149.94C173.525 149.94 174.205 149.76 174.818 149.4C175.445 149.04 175.938 148.527 176.298 147.86C176.658 147.193 176.838 146.42 176.838 145.54Z" fill="#3D4753"/>
<g filter="url(#filter0_d_553_3102)">
<rect x="42" y="5" width="100" height="100" rx="22" fill="url(#paint0_linear_553_3102)"/>
</g>
<g clip-path="url(#clip0_553_3102)">
<path d="M78.3326 81.6875C78.3326 80.7162 77.2846 79.745 75.1743 78.7606C74.1262 78.275 70.9678 76.8181 70.9678 76.8181C70.9678 76.8181 68.8717 77.7894 65.7133 77.7894C62.5549 77.7894 60.4588 76.8181 60.4588 76.8181" stroke="#F5F5F5" stroke-width="3" stroke-linecap="round" stroke-linejoin="round"/>
<path d="M68.3901 73.8912C70.8687 72.3555 70.6421 71.3843 70.9253 69.153C71.0811 67.9455 71.1378 66.6593 70.5004 65.5568C69.9339 64.5461 68.8717 63.8505 67.7245 63.483C67.0871 63.2862 66.4073 63.1812 65.7133 63.1812C65.0193 63.1812 64.3253 63.2862 63.7021 63.483C62.5549 63.8374 61.5069 64.5461 60.9262 65.5568C60.303 66.6593 60.3455 67.9587 60.5013 69.153C60.7987 71.3843 60.5721 72.3687 63.0365 73.8912" stroke="#F5F5F5" stroke-width="3" stroke-linecap="round" stroke-linejoin="round"/>
<path d="M82.5391 78.7605L86.7455 74.8755H79.3949" stroke="#F5F5F5" stroke-width="3" stroke-linecap="round" stroke-linejoin="round"/>
<path d="M86.7455 74.8756V65.1368C86.7455 64.0606 85.8107 63.1943 84.6494 63.1943H75.1884" stroke="#F5F5F5" stroke-width="3" stroke-linecap="round" stroke-linejoin="round"/>
<path d="M120.935 73.8912C123.414 72.3555 123.187 71.3843 123.47 69.153C123.626 67.9455 123.683 66.6593 123.046 65.5568C122.479 64.5461 121.417 63.8505 120.27 63.483C119.632 63.2862 118.952 63.1812 118.258 63.1812C117.564 63.1812 116.87 63.2862 116.247 63.483C115.1 63.8374 114.052 64.5461 113.471 65.5568C112.848 66.6593 112.891 67.9587 113.046 69.153C113.344 71.3843 113.117 72.3687 115.582 73.8912" stroke="#F5F5F5" stroke-width="3" stroke-linecap="round" stroke-linejoin="round"/>
<path d="M123.527 76.8181C123.527 76.8181 121.431 77.7894 118.273 77.7894C115.114 77.7894 113.018 76.8181 113.018 76.8181C113.018 76.8181 109.86 78.275 108.812 78.7606C106.715 79.7319 105.653 80.7031 105.653 81.6875" stroke="#F5F5F5" stroke-width="3" stroke-linecap="round" stroke-linejoin="round"/>
<path d="M101.461 78.7607L97.2545 74.8757H104.605" stroke="#F5F5F5" stroke-width="3" stroke-linecap="round" stroke-linejoin="round"/>
<path d="M97.2545 74.8758V65.1371C97.2545 64.0608 98.1893 63.1946 99.3507 63.1946H108.812" stroke="#F5F5F5" stroke-width="3" stroke-linecap="round" stroke-linejoin="round"/>
<path d="M120.369 40.79H101.461L93.0481 46.6306V23.255C93.0481 22.1788 93.9828 21.3125 95.1442 21.3125H120.369C121.53 21.3125 122.465 22.1788 122.465 23.255V38.8344C122.465 39.9106 121.53 40.7769 120.369 40.7769V40.79Z" stroke="#F5F5F5" stroke-width="3" stroke-linecap="round" stroke-linejoin="round"/>
<path d="M100.441 31.1169H101.503" stroke="#F5F5F5" stroke-width="3" stroke-linecap="round" stroke-linejoin="round"/>
<path d="M114.604 31.1169H115.667" stroke="#F5F5F5" stroke-width="3" stroke-linecap="round" stroke-linejoin="round"/>
<path d="M107.523 31.1169H108.585" stroke="#F5F5F5" stroke-width="3" stroke-linecap="round" stroke-linejoin="round"/>
<path d="M120.369 46.6306V59.2962" stroke="#F5F5F5" stroke-width="3" stroke-linecap="round" stroke-linejoin="round"/>
<path d="M63.6313 59.2963V33.9782C63.6313 31.8257 65.515 30.0801 67.8378 30.0801H86.7455" stroke="#F5F5F5" stroke-width="3" stroke-linecap="round" stroke-linejoin="round"/>
<path d="M84.1536 49.5577C86.6322 48.022 86.4055 47.0508 86.6888 44.8195C86.8446 43.612 86.9013 42.3258 86.2639 41.2233C85.6974 40.2127 84.6352 39.517 83.4879 39.1495C82.8506 38.9527 82.1708 38.8477 81.4768 38.8477C80.7828 38.8477 80.0888 38.9527 79.4656 39.1495C78.3184 39.5039 77.2704 40.2127 76.6897 41.2233C76.0665 42.3258 76.109 43.6252 76.2648 44.8195C76.5622 47.0508 76.3356 48.0352 78.8 49.5577" stroke="#F5F5F5" stroke-width="3" stroke-linecap="round" stroke-linejoin="round"/>
<path d="M94.0961 58.3121C94.0961 56.3696 93.048 55.3852 90.9377 54.4139C89.8897 53.9283 86.7313 52.4714 86.7313 52.4714C86.7313 52.4714 84.6352 53.4427 81.4768 53.4427C78.3184 53.4427 76.2223 52.4714 76.2223 52.4714C76.2223 52.4714 73.0639 53.9283 72.0159 54.4139C69.9197 55.3852 68.8575 56.3564 68.8575 58.3121" stroke="#F5F5F5" stroke-width="3" stroke-linecap="round" stroke-linejoin="round"/>
</g>
<defs>
<filter id="filter0_d_553_3102" x="37" y="0" width="130" height="130" filterUnits="userSpaceOnUse" color-interpolation-filters="sRGB">
<feFlood flood-opacity="0" result="BackgroundImageFix"/>
<feColorMatrix in="SourceAlpha" type="matrix" values="0 0 0 0 0 0 0 0 0 0 0 0 0 0 0 0 0 0 127 0" result="hardAlpha"/>
<feOffset dx="10" dy="10"/>
<feGaussianBlur stdDeviation="7.5"/>
<feComposite in2="hardAlpha" operator="out"/>
<feColorMatrix type="matrix" values="0 0 0 0 0.239216 0 0 0 0 0.278431 0 0 0 0 0.32549 0 0 0 0.3 0"/>
<feBlend mode="normal" in2="BackgroundImageFix" result="effect1_dropShadow_553_3102"/>
<feBlend mode="normal" in="SourceGraphic" in2="effect1_dropShadow_553_3102" result="shape"/>
</filter>
<linearGradient id="paint0_linear_553_3102" x1="27" y1="-16.5" x2="162" y2="128.5" gradientUnits="userSpaceOnUse">
<stop offset="0.120204" stop-color="#E47A24"/>
<stop offset="0.962154" stop-color="#3D4753"/>
</linearGradient>
<clipPath id="clip0_553_3102">
<rect width="66" height="63" fill="white" transform="translate(59 20)"/>
</clipPath>
</defs>
</svg>
