<svg width="153" height="180" viewBox="0 0 153 180" fill="none" xmlns="http://www.w3.org/2000/svg">
<path d="M60.9183 128.02L55.6183 142H54.0183L48.7183 128.02H50.2383L54.8183 140.48L59.4383 128.02H60.9183ZM63.7219 129.02C63.4419 129.02 63.2019 128.92 63.0019 128.72C62.8019 128.52 62.7019 128.273 62.7019 127.98C62.7019 127.687 62.8019 127.447 63.0019 127.26C63.2019 127.06 63.4419 126.96 63.7219 126.96C64.0019 126.96 64.2419 127.06 64.4419 127.26C64.6419 127.447 64.7419 127.687 64.7419 127.98C64.7419 128.273 64.6419 128.52 64.4419 128.72C64.2419 128.92 64.0019 129.02 63.7219 129.02ZM64.4219 131.08V142H63.0219V131.08H64.4219ZM66.9522 136.52C66.9522 135.4 67.1789 134.42 67.6322 133.58C68.0855 132.727 68.7055 132.073 69.4922 131.62C70.2922 131.153 71.1922 130.92 72.1922 130.92C73.1522 130.92 74.0189 131.153 74.7922 131.62C75.5655 132.087 76.1322 132.693 76.4922 133.44V127.2H77.8922V142H76.4922V139.56C76.1589 140.32 75.6122 140.947 74.8522 141.44C74.0922 141.92 73.1989 142.16 72.1722 142.16C71.1722 142.16 70.2722 141.927 69.4722 141.46C68.6855 140.993 68.0655 140.333 67.6122 139.48C67.1722 138.627 66.9522 137.64 66.9522 136.52ZM76.4922 136.54C76.4922 135.66 76.3122 134.887 75.9522 134.22C75.5922 133.553 75.0989 133.04 74.4722 132.68C73.8589 132.32 73.1789 132.14 72.4322 132.14C71.6589 132.14 70.9655 132.313 70.3522 132.66C69.7389 133.007 69.2522 133.513 68.8922 134.18C68.5455 134.833 68.3722 135.613 68.3722 136.52C68.3722 137.413 68.5455 138.2 68.8922 138.88C69.2522 139.547 69.7389 140.06 70.3522 140.42C70.9655 140.767 71.6589 140.94 72.4322 140.94C73.1789 140.94 73.8589 140.76 74.4722 140.4C75.0989 140.04 75.5922 139.527 75.9522 138.86C76.3122 138.193 76.4922 137.42 76.4922 136.54ZM90.9683 135.98C90.9683 136.46 90.9549 136.827 90.9283 137.08H81.8683C81.9083 137.907 82.1083 138.613 82.4683 139.2C82.8283 139.787 83.3016 140.233 83.8883 140.54C84.4749 140.833 85.1149 140.98 85.8083 140.98C86.7149 140.98 87.4749 140.76 88.0883 140.32C88.7149 139.88 89.1283 139.287 89.3283 138.54H90.8083C90.5416 139.607 89.9683 140.48 89.0883 141.16C88.2216 141.827 87.1283 142.16 85.8083 142.16C84.7816 142.16 83.8616 141.933 83.0483 141.48C82.2349 141.013 81.5949 140.36 81.1283 139.52C80.6749 138.667 80.4483 137.673 80.4483 136.54C80.4483 135.407 80.6749 134.413 81.1283 133.56C81.5816 132.707 82.2149 132.053 83.0283 131.6C83.8416 131.147 84.7683 130.92 85.8083 130.92C86.8483 130.92 87.7549 131.147 88.5283 131.6C89.3149 132.053 89.9149 132.667 90.3283 133.44C90.7549 134.2 90.9683 135.047 90.9683 135.98ZM89.5483 135.94C89.5616 135.127 89.3949 134.433 89.0483 133.86C88.7149 133.287 88.2549 132.853 87.6683 132.56C87.0816 132.267 86.4416 132.12 85.7483 132.12C84.7083 132.12 83.8216 132.453 83.0883 133.12C82.3549 133.787 81.9483 134.727 81.8683 135.94H89.5483ZM98.3097 142.16C97.283 142.16 96.3564 141.933 95.5297 141.48C94.7164 141.013 94.0697 140.36 93.5897 139.52C93.123 138.667 92.8897 137.673 92.8897 136.54C92.8897 135.407 93.1297 134.42 93.6097 133.58C94.0897 132.727 94.743 132.073 95.5697 131.62C96.3964 131.153 97.323 130.92 98.3497 130.92C99.3764 130.92 100.303 131.153 101.13 131.62C101.97 132.073 102.623 132.727 103.09 133.58C103.57 134.42 103.81 135.407 103.81 136.54C103.81 137.66 103.57 138.647 103.09 139.5C102.61 140.353 101.95 141.013 101.11 141.48C100.27 141.933 99.3364 142.16 98.3097 142.16ZM98.3097 140.94C99.0297 140.94 99.6964 140.78 100.31 140.46C100.923 140.127 101.416 139.633 101.79 138.98C102.176 138.313 102.37 137.5 102.37 136.54C102.37 135.58 102.183 134.773 101.81 134.12C101.436 133.453 100.943 132.96 100.33 132.64C99.7164 132.307 99.0497 132.14 98.3297 132.14C97.6097 132.14 96.943 132.307 96.3297 132.64C95.7164 132.96 95.223 133.453 94.8497 134.12C94.4897 134.773 94.3097 135.58 94.3097 136.54C94.3097 137.5 94.4897 138.313 94.8497 138.98C95.223 139.633 95.7097 140.127 96.3097 140.46C96.923 140.78 97.5897 140.94 98.3097 140.94ZM24.5248 172L18.4648 165.54V172H17.0648V158.02H18.4648V164.56L24.5248 158.02H26.3048L19.7648 165L26.3648 172H24.5248ZM33.212 172.16C32.1854 172.16 31.2587 171.933 30.432 171.48C29.6187 171.013 28.972 170.36 28.492 169.52C28.0254 168.667 27.792 167.673 27.792 166.54C27.792 165.407 28.032 164.42 28.512 163.58C28.992 162.727 29.6454 162.073 30.472 161.62C31.2987 161.153 32.2254 160.92 33.252 160.92C34.2787 160.92 35.2054 161.153 36.032 161.62C36.872 162.073 37.5254 162.727 37.992 163.58C38.472 164.42 38.712 165.407 38.712 166.54C38.712 167.66 38.472 168.647 37.992 169.5C37.512 170.353 36.852 171.013 36.012 171.48C35.172 171.933 34.2387 172.16 33.212 172.16ZM33.212 170.94C33.932 170.94 34.5987 170.78 35.212 170.46C35.8254 170.127 36.3187 169.633 36.692 168.98C37.0787 168.313 37.272 167.5 37.272 166.54C37.272 165.58 37.0854 164.773 36.712 164.12C36.3387 163.453 35.8454 162.96 35.232 162.64C34.6187 162.307 33.952 162.14 33.232 162.14C32.512 162.14 31.8454 162.307 31.232 162.64C30.6187 162.96 30.1254 163.453 29.752 164.12C29.392 164.773 29.212 165.58 29.212 166.54C29.212 167.5 29.392 168.313 29.752 168.98C30.1254 169.633 30.612 170.127 31.212 170.46C31.8254 170.78 32.492 170.94 33.212 170.94ZM46.3841 160.88C47.6907 160.88 48.7574 161.287 49.5841 162.1C50.4107 162.9 50.8241 164.067 50.8241 165.6V172H49.4441V165.76C49.4441 164.573 49.1441 163.667 48.5441 163.04C47.9574 162.413 47.1507 162.1 46.1241 162.1C45.0707 162.1 44.2307 162.433 43.6041 163.1C42.9774 163.767 42.6641 164.747 42.6641 166.04V172H41.2641V161.08H42.6641V162.94C43.0107 162.273 43.5107 161.767 44.1641 161.42C44.8174 161.06 45.5574 160.88 46.3841 160.88ZM58.2203 162.26H55.6803V172H54.2803V162.26H52.7603V161.08H54.2803V160.32C54.2803 159.133 54.5803 158.26 55.1803 157.7C55.7936 157.14 56.7803 156.86 58.1403 156.86V158.06C57.2336 158.06 56.5936 158.233 56.2203 158.58C55.8603 158.927 55.6803 159.507 55.6803 160.32V161.08H58.2203V162.26ZM70.3042 165.98C70.3042 166.46 70.2909 166.827 70.2642 167.08H61.2042C61.2442 167.907 61.4442 168.613 61.8042 169.2C62.1642 169.787 62.6376 170.233 63.2242 170.54C63.8109 170.833 64.4509 170.98 65.1442 170.98C66.0509 170.98 66.8109 170.76 67.4242 170.32C68.0509 169.88 68.4642 169.287 68.6642 168.54H70.1442C69.8776 169.607 69.3042 170.48 68.4242 171.16C67.5576 171.827 66.4642 172.16 65.1442 172.16C64.1176 172.16 63.1976 171.933 62.3842 171.48C61.5709 171.013 60.9309 170.36 60.4642 169.52C60.0109 168.667 59.7842 167.673 59.7842 166.54C59.7842 165.407 60.0109 164.413 60.4642 163.56C60.9176 162.707 61.5509 162.053 62.3642 161.6C63.1776 161.147 64.1042 160.92 65.1442 160.92C66.1842 160.92 67.0909 161.147 67.8642 161.6C68.6509 162.053 69.2509 162.667 69.6642 163.44C70.0909 164.2 70.3042 165.047 70.3042 165.98ZM68.8842 165.94C68.8976 165.127 68.7309 164.433 68.3842 163.86C68.0509 163.287 67.5909 162.853 67.0042 162.56C66.4176 162.267 65.7776 162.12 65.0842 162.12C64.0442 162.12 63.1576 162.453 62.4242 163.12C61.6909 163.787 61.2842 164.727 61.2042 165.94H68.8842ZM74.2656 163.02C74.5723 162.34 75.039 161.813 75.6656 161.44C76.3056 161.067 77.0856 160.88 78.0056 160.88V162.34H77.6256C76.6123 162.34 75.799 162.613 75.1856 163.16C74.5723 163.707 74.2656 164.62 74.2656 165.9V172H72.8656V161.08H74.2656V163.02ZM89.9917 165.98C89.9917 166.46 89.9784 166.827 89.9517 167.08H80.8917C80.9317 167.907 81.1317 168.613 81.4917 169.2C81.8517 169.787 82.3251 170.233 82.9117 170.54C83.4984 170.833 84.1384 170.98 84.8317 170.98C85.7384 170.98 86.4984 170.76 87.1117 170.32C87.7384 169.88 88.1517 169.287 88.3517 168.54H89.8317C89.5651 169.607 88.9917 170.48 88.1117 171.16C87.2451 171.827 86.1517 172.16 84.8317 172.16C83.8051 172.16 82.8851 171.933 82.0717 171.48C81.2584 171.013 80.6184 170.36 80.1517 169.52C79.6984 168.667 79.4717 167.673 79.4717 166.54C79.4717 165.407 79.6984 164.413 80.1517 163.56C80.6051 162.707 81.2384 162.053 82.0517 161.6C82.8651 161.147 83.7917 160.92 84.8317 160.92C85.8717 160.92 86.7784 161.147 87.5517 161.6C88.3384 162.053 88.9384 162.667 89.3517 163.44C89.7784 164.2 89.9917 165.047 89.9917 165.98ZM88.5717 165.94C88.5851 165.127 88.4184 164.433 88.0717 163.86C87.7384 163.287 87.2784 162.853 86.6917 162.56C86.1051 162.267 85.4651 162.12 84.7717 162.12C83.7317 162.12 82.8451 162.453 82.1117 163.12C81.3784 163.787 80.9717 164.727 80.8917 165.94H88.5717ZM97.6731 160.88C98.9798 160.88 100.046 161.287 100.873 162.1C101.7 162.9 102.113 164.067 102.113 165.6V172H100.733V165.76C100.733 164.573 100.433 163.667 99.8331 163.04C99.2465 162.413 98.4398 162.1 97.4131 162.1C96.3598 162.1 95.5198 162.433 94.8931 163.1C94.2665 163.767 93.9531 164.747 93.9531 166.04V172H92.5531V161.08H93.9531V162.94C94.2998 162.273 94.7998 161.767 95.4531 161.42C96.1065 161.06 96.8465 160.88 97.6731 160.88ZM105.949 170.84H111.669V172H104.349V170.84L109.969 162.24H104.449V161.08H111.569V162.24L105.949 170.84ZM123.918 165.98C123.918 166.46 123.904 166.827 123.878 167.08H114.818C114.858 167.907 115.058 168.613 115.418 169.2C115.778 169.787 116.251 170.233 116.838 170.54C117.424 170.833 118.064 170.98 118.758 170.98C119.664 170.98 120.424 170.76 121.038 170.32C121.664 169.88 122.078 169.287 122.278 168.54H123.758C123.491 169.607 122.918 170.48 122.038 171.16C121.171 171.827 120.078 172.16 118.758 172.16C117.731 172.16 116.811 171.933 115.998 171.48C115.184 171.013 114.544 170.36 114.078 169.52C113.624 168.667 113.398 167.673 113.398 166.54C113.398 165.407 113.624 164.413 114.078 163.56C114.531 162.707 115.164 162.053 115.978 161.6C116.791 161.147 117.718 160.92 118.758 160.92C119.798 160.92 120.704 161.147 121.478 161.6C122.264 162.053 122.864 162.667 123.278 163.44C123.704 164.2 123.918 165.047 123.918 165.98ZM122.498 165.94C122.511 165.127 122.344 164.433 121.998 163.86C121.664 163.287 121.204 162.853 120.618 162.56C120.031 162.267 119.391 162.12 118.698 162.12C117.658 162.12 116.771 162.453 116.038 163.12C115.304 163.787 114.898 164.727 114.818 165.94H122.498ZM131.599 160.88C132.906 160.88 133.972 161.287 134.799 162.1C135.626 162.9 136.039 164.067 136.039 165.6V172H134.659V165.76C134.659 164.573 134.359 163.667 133.759 163.04C133.172 162.413 132.366 162.1 131.339 162.1C130.286 162.1 129.446 162.433 128.819 163.1C128.192 163.767 127.879 164.747 127.879 166.04V172H126.479V161.08H127.879V162.94C128.226 162.273 128.726 161.767 129.379 161.42C130.032 161.06 130.772 160.88 131.599 160.88Z" fill="#3D4753"/>
<g filter="url(#filter0_d_553_1030)">
<rect x="32" y="5" width="89" height="89" rx="19.58" fill="url(#paint0_linear_553_1030)"/>
</g>
<g clip-path="url(#clip0_553_1030)">
<path d="M100.487 41.5974H84.2525L76.1354 47.2751V23.7331C76.1354 22.836 76.8574 22.114 77.7544 22.114H100.476C101.373 22.114 102.095 22.836 102.095 23.7331V39.9674C102.095 40.8645 101.373 41.5865 100.476 41.5865L100.487 41.5974Z" stroke="#F5F5F5" stroke-width="2.67" stroke-linecap="round" stroke-linejoin="round"/>
<path d="M85.0621 26.9822V36.7184L93.9888 31.8503L85.0621 26.9822Z" stroke="#F5F5F5" stroke-width="2.67" stroke-linecap="round" stroke-linejoin="round"/>
<path d="M98.8569 46.4653V64.3187" stroke="#F5F5F5" stroke-width="2.67" stroke-linecap="round" stroke-linejoin="round"/>
<path d="M55.033 64.3188V39.1577C55.033 37.3637 56.488 35.9087 58.282 35.9087H71.2673" stroke="#F5F5F5" stroke-width="2.67" stroke-linecap="round" stroke-linejoin="round"/>
<path d="M97.2379 72.436H56.652C53.9609 72.436 51.7839 70.259 51.7839 67.5679H71.2673V69.1869H82.6336V67.5679H102.117C102.117 70.259 99.94 72.436 97.2488 72.436H97.2379Z" stroke="#F5F5F5" stroke-width="2.67" stroke-linecap="round" stroke-linejoin="round"/>
<path d="M70.8844 53.7729C72.7988 52.493 72.6238 51.6834 72.8426 49.8237C72.9629 48.8173 73.0067 47.7452 72.5144 46.8263C72.0768 45.9839 71.2563 45.4041 70.3702 45.0978C69.8779 44.9337 69.3528 44.8462 68.8168 44.8462C68.2808 44.8462 67.7447 44.9337 67.2634 45.0978C66.3773 45.3932 65.5677 45.9839 65.1192 46.8263C64.6379 47.7452 64.6707 48.8282 64.791 49.8237C65.0208 51.6834 64.8457 52.5039 66.7492 53.7729" stroke="#F5F5F5" stroke-width="2.67" stroke-linecap="round" stroke-linejoin="round"/>
<path d="M59.0916 63.5091V61.89C59.0916 60.2709 59.9011 59.4505 61.5311 58.6409C62.3406 58.2362 64.7801 57.0219 64.7801 57.0219C64.7801 57.0219 66.3992 57.8314 68.8387 57.8314C71.2782 57.8314 72.8973 57.0219 72.8973 57.0219L85.6966 47.5482C86.3749 47.045 87.3047 47.1106 87.9064 47.7014C88.5847 48.3687 88.5847 49.4517 87.9064 50.119L77.0872 60.9383C76.4745 61.5509 76.1354 62.3713 76.1354 63.2356V63.5091" stroke="#F5F5F5" stroke-width="2.67" stroke-linecap="round" stroke-linejoin="round"/>
</g>
<defs>
<filter id="filter0_d_553_1030" x="27.55" y="0.55" width="115.7" height="115.7" filterUnits="userSpaceOnUse" color-interpolation-filters="sRGB">
<feFlood flood-opacity="0" result="BackgroundImageFix"/>
<feColorMatrix in="SourceAlpha" type="matrix" values="0 0 0 0 0 0 0 0 0 0 0 0 0 0 0 0 0 0 127 0" result="hardAlpha"/>
<feOffset dx="8.9" dy="8.9"/>
<feGaussianBlur stdDeviation="6.675"/>
<feComposite in2="hardAlpha" operator="out"/>
<feColorMatrix type="matrix" values="0 0 0 0 0.239216 0 0 0 0 0.278431 0 0 0 0 0.32549 0 0 0 0.3 0"/>
<feBlend mode="normal" in2="BackgroundImageFix" result="effect1_dropShadow_553_1030"/>
<feBlend mode="normal" in="SourceGraphic" in2="effect1_dropShadow_553_1030" result="shape"/>
</filter>
<linearGradient id="paint0_linear_553_1030" x1="18.65" y1="-14.135" x2="138.8" y2="114.915" gradientUnits="userSpaceOnUse">
<stop offset="0.120204" stop-color="#E47A24"/>
<stop offset="0.962154" stop-color="#3D4753"/>
</linearGradient>
<clipPath id="clip0_553_1030">
<rect width="59" height="59" fill="white" transform="translate(47 14)"/>
</clipPath>
</defs>
</svg>
