<svg width="153" height="190" viewBox="0 0 153 190" fill="none" xmlns="http://www.w3.org/2000/svg">
<g filter="url(#filter0_d_710_959)">
<rect x="26" y="5" width="100" height="100" rx="22" fill="url(#paint0_linear_710_959)"/>
</g>
<path d="M45.2822 141.04C45.2822 142.24 44.8889 143.207 44.1022 143.94C43.3155 144.673 42.1355 145.04 40.5622 145.04H37.7422V151H36.3422V137.02H40.5622C42.1222 137.02 43.2955 137.387 44.0822 138.12C44.8822 138.853 45.2822 139.827 45.2822 141.04ZM40.5622 143.84C42.7489 143.84 43.8422 142.907 43.8422 141.04C43.8422 140.107 43.5822 139.4 43.0622 138.92C42.5422 138.44 41.7089 138.2 40.5622 138.2H37.7422V143.84H40.5622ZM49.0313 136.2V151H47.6313V136.2H49.0313ZM51.5616 145.52C51.5616 144.4 51.7816 143.42 52.2216 142.58C52.6749 141.727 53.2949 141.073 54.0816 140.62C54.8816 140.153 55.7816 139.92 56.7816 139.92C57.8216 139.92 58.7149 140.16 59.4616 140.64C60.2216 141.12 60.7682 141.733 61.1016 142.48V140.08H62.5016V151H61.1016V148.58C60.7549 149.327 60.2016 149.947 59.4416 150.44C58.6949 150.92 57.8016 151.16 56.7616 151.16C55.7749 151.16 54.8816 150.927 54.0816 150.46C53.2949 149.993 52.6749 149.333 52.2216 148.48C51.7816 147.627 51.5616 146.64 51.5616 145.52ZM61.1016 145.54C61.1016 144.66 60.9216 143.887 60.5616 143.22C60.2016 142.553 59.7082 142.04 59.0816 141.68C58.4682 141.32 57.7882 141.14 57.0416 141.14C56.2682 141.14 55.5749 141.313 54.9616 141.66C54.3482 142.007 53.8616 142.513 53.5016 143.18C53.1549 143.833 52.9816 144.613 52.9816 145.52C52.9816 146.413 53.1549 147.2 53.5016 147.88C53.8616 148.547 54.3482 149.06 54.9616 149.42C55.5749 149.767 56.2682 149.94 57.0416 149.94C57.7882 149.94 58.4682 149.76 59.0816 149.4C59.7082 149.04 60.2016 148.527 60.5616 147.86C60.9216 147.193 61.1016 146.42 61.1016 145.54ZM67.5177 141.26V148.04C67.5177 148.707 67.6443 149.167 67.8977 149.42C68.151 149.673 68.5977 149.8 69.2377 149.8H70.5177V151H69.0177C68.031 151 67.2977 150.773 66.8177 150.32C66.3377 149.853 66.0977 149.093 66.0977 148.04V141.26H64.5777V140.08H66.0977V137.34H67.5177V140.08H70.5177V141.26H67.5177ZM77.1266 141.26H74.5866V151H73.1866V141.26H71.6666V140.08H73.1866V139.32C73.1866 138.133 73.4866 137.26 74.0866 136.7C74.6999 136.14 75.6866 135.86 77.0466 135.86V137.06C76.1399 137.06 75.4999 137.233 75.1266 137.58C74.7666 137.927 74.5866 138.507 74.5866 139.32V140.08H77.1266V141.26ZM84.1105 151.16C83.0838 151.16 82.1571 150.933 81.3305 150.48C80.5171 150.013 79.8705 149.36 79.3905 148.52C78.9238 147.667 78.6905 146.673 78.6905 145.54C78.6905 144.407 78.9305 143.42 79.4105 142.58C79.8905 141.727 80.5438 141.073 81.3705 140.62C82.1971 140.153 83.1238 139.92 84.1505 139.92C85.1771 139.92 86.1038 140.153 86.9305 140.62C87.7705 141.073 88.4238 141.727 88.8905 142.58C89.3705 143.42 89.6105 144.407 89.6105 145.54C89.6105 146.66 89.3705 147.647 88.8905 148.5C88.4105 149.353 87.7505 150.013 86.9105 150.48C86.0705 150.933 85.1371 151.16 84.1105 151.16ZM84.1105 149.94C84.8305 149.94 85.4971 149.78 86.1105 149.46C86.7238 149.127 87.2171 148.633 87.5905 147.98C87.9771 147.313 88.1705 146.5 88.1705 145.54C88.1705 144.58 87.9838 143.773 87.6105 143.12C87.2371 142.453 86.7438 141.96 86.1305 141.64C85.5171 141.307 84.8505 141.14 84.1305 141.14C83.4105 141.14 82.7438 141.307 82.1305 141.64C81.5171 141.96 81.0238 142.453 80.6505 143.12C80.2905 143.773 80.1105 144.58 80.1105 145.54C80.1105 146.5 80.2905 147.313 80.6505 147.98C81.0238 148.633 81.5105 149.127 82.1105 149.46C82.7238 149.78 83.3905 149.94 84.1105 149.94ZM93.5625 142.02C93.8692 141.34 94.3358 140.813 94.9625 140.44C95.6025 140.067 96.3825 139.88 97.3025 139.88V141.34H96.9225C95.9092 141.34 95.0958 141.613 94.4825 142.16C93.8692 142.707 93.5625 143.62 93.5625 144.9V151H92.1625V140.08H93.5625V142.02ZM112.409 139.88C113.689 139.88 114.729 140.287 115.529 141.1C116.342 141.9 116.749 143.067 116.749 144.6V151H115.369V144.76C115.369 143.573 115.082 142.667 114.509 142.04C113.935 141.413 113.155 141.1 112.169 141.1C111.142 141.1 110.322 141.44 109.709 142.12C109.095 142.8 108.789 143.787 108.789 145.08V151H107.409V144.76C107.409 143.573 107.122 142.667 106.549 142.04C105.975 141.413 105.189 141.1 104.189 141.1C103.162 141.1 102.342 141.44 101.729 142.12C101.115 142.8 100.809 143.787 100.809 145.08V151H99.4086V140.08H100.809V141.96C101.155 141.28 101.649 140.767 102.289 140.42C102.929 140.06 103.642 139.88 104.429 139.88C105.375 139.88 106.202 140.107 106.909 140.56C107.629 141.013 108.149 141.68 108.469 142.56C108.762 141.693 109.262 141.033 109.969 140.58C110.689 140.113 111.502 139.88 112.409 139.88ZM50.465 181.14C49.545 181.14 48.7317 180.98 48.025 180.66C47.3317 180.34 46.785 179.893 46.385 179.32C45.985 178.747 45.7717 178.107 45.745 177.4H47.225C47.2917 178.08 47.5917 178.68 48.125 179.2C48.6583 179.707 49.4383 179.96 50.465 179.96C51.4117 179.96 52.1583 179.72 52.705 179.24C53.265 178.747 53.545 178.127 53.545 177.38C53.545 176.78 53.3917 176.3 53.085 175.94C52.7783 175.567 52.3983 175.293 51.945 175.12C51.4917 174.933 50.865 174.733 50.065 174.52C49.1317 174.267 48.3917 174.02 47.845 173.78C47.2983 173.54 46.8317 173.167 46.445 172.66C46.0583 172.153 45.865 171.467 45.865 170.6C45.865 169.88 46.0517 169.24 46.425 168.68C46.7983 168.107 47.325 167.66 48.005 167.34C48.685 167.02 49.465 166.86 50.345 166.86C51.6383 166.86 52.6783 167.18 53.465 167.82C54.265 168.447 54.725 169.26 54.845 170.26H53.325C53.2317 169.687 52.9183 169.18 52.385 168.74C51.8517 168.287 51.1317 168.06 50.225 168.06C49.385 168.06 48.685 168.287 48.125 168.74C47.565 169.18 47.285 169.787 47.285 170.56C47.285 171.147 47.4383 171.62 47.745 171.98C48.0517 172.34 48.4317 172.613 48.885 172.8C49.3517 172.987 49.9783 173.187 50.765 173.4C51.6717 173.653 52.405 173.907 52.965 174.16C53.525 174.4 53.9983 174.773 54.385 175.28C54.7717 175.787 54.965 176.467 54.965 177.32C54.965 177.973 54.7917 178.593 54.445 179.18C54.0983 179.767 53.585 180.24 52.905 180.6C52.225 180.96 51.4117 181.14 50.465 181.14ZM67.5503 174.98C67.5503 175.46 67.537 175.827 67.5103 176.08H58.4503C58.4903 176.907 58.6903 177.613 59.0503 178.2C59.4103 178.787 59.8836 179.233 60.4703 179.54C61.057 179.833 61.697 179.98 62.3903 179.98C63.297 179.98 64.057 179.76 64.6703 179.32C65.297 178.88 65.7103 178.287 65.9103 177.54H67.3903C67.1236 178.607 66.5503 179.48 65.6703 180.16C64.8036 180.827 63.7103 181.16 62.3903 181.16C61.3636 181.16 60.4436 180.933 59.6303 180.48C58.817 180.013 58.177 179.36 57.7103 178.52C57.257 177.667 57.0303 176.673 57.0303 175.54C57.0303 174.407 57.257 173.413 57.7103 172.56C58.1636 171.707 58.797 171.053 59.6103 170.6C60.4236 170.147 61.3503 169.92 62.3903 169.92C63.4303 169.92 64.337 170.147 65.1103 170.6C65.897 171.053 66.497 171.667 66.9103 172.44C67.337 173.2 67.5503 174.047 67.5503 174.98ZM66.1303 174.94C66.1436 174.127 65.977 173.433 65.6303 172.86C65.297 172.287 64.837 171.853 64.2503 171.56C63.6636 171.267 63.0236 171.12 62.3303 171.12C61.2903 171.12 60.4036 171.453 59.6703 172.12C58.937 172.787 58.5303 173.727 58.4503 174.94H66.1303ZM71.5117 166.2V181H70.1117V166.2H71.5117ZM76.082 166.2V181H74.682V166.2H76.082ZM79.9523 168.02C79.6723 168.02 79.4323 167.92 79.2323 167.72C79.0323 167.52 78.9323 167.273 78.9323 166.98C78.9323 166.687 79.0323 166.447 79.2323 166.26C79.4323 166.06 79.6723 165.96 79.9523 165.96C80.2323 165.96 80.4723 166.06 80.6723 166.26C80.8723 166.447 80.9723 166.687 80.9723 166.98C80.9723 167.273 80.8723 167.52 80.6723 167.72C80.4723 167.92 80.2323 168.02 79.9523 168.02ZM80.6523 170.08V181H79.2523V170.08H80.6523ZM88.9427 169.88C90.2493 169.88 91.316 170.287 92.1427 171.1C92.9693 171.9 93.3827 173.067 93.3827 174.6V181H92.0027V174.76C92.0027 173.573 91.7027 172.667 91.1027 172.04C90.516 171.413 89.7093 171.1 88.6827 171.1C87.6293 171.1 86.7893 171.433 86.1627 172.1C85.536 172.767 85.2227 173.747 85.2227 175.04V181H83.8227V170.08H85.2227V171.94C85.5693 171.273 86.0693 170.767 86.7227 170.42C87.376 170.06 88.116 169.88 88.9427 169.88ZM101.059 169.92C102.086 169.92 102.979 170.16 103.739 170.64C104.499 171.12 105.046 171.727 105.379 172.46V170.08H106.779V181.28C106.779 182.28 106.559 183.167 106.119 183.94C105.692 184.713 105.092 185.307 104.319 185.72C103.546 186.147 102.666 186.36 101.679 186.36C100.279 186.36 99.1122 186.027 98.1789 185.36C97.2589 184.693 96.6856 183.787 96.4589 182.64H97.8389C98.0789 183.4 98.5322 184.007 99.1989 184.46C99.8789 184.913 100.706 185.14 101.679 185.14C102.386 185.14 103.019 184.987 103.579 184.68C104.139 184.387 104.579 183.947 104.899 183.36C105.219 182.773 105.379 182.08 105.379 181.28V178.58C105.032 179.327 104.479 179.947 103.719 180.44C102.972 180.92 102.086 181.16 101.059 181.16C100.059 181.16 99.1589 180.927 98.3589 180.46C97.5722 179.993 96.9522 179.333 96.4989 178.48C96.0589 177.627 95.8389 176.64 95.8389 175.52C95.8389 174.4 96.0589 173.42 96.4989 172.58C96.9522 171.727 97.5722 171.073 98.3589 170.62C99.1589 170.153 100.059 169.92 101.059 169.92ZM105.379 175.54C105.379 174.66 105.199 173.887 104.839 173.22C104.479 172.553 103.986 172.04 103.359 171.68C102.746 171.32 102.066 171.14 101.319 171.14C100.546 171.14 99.8522 171.313 99.2389 171.66C98.6256 172.007 98.1389 172.513 97.7789 173.18C97.4322 173.833 97.2589 174.613 97.2589 175.52C97.2589 176.413 97.4322 177.2 97.7789 177.88C98.1389 178.547 98.6256 179.06 99.2389 179.42C99.8522 179.767 100.546 179.94 101.319 179.94C102.066 179.94 102.746 179.76 103.359 179.4C103.986 179.04 104.479 178.527 104.839 177.86C105.199 177.193 105.379 176.42 105.379 175.54Z" fill="#3D4753"/>
<path d="M97.2341 45.454C97.0482 45.454 96.8592 45.459 96.6652 45.4691C95.4191 41.8483 92.0167 39.3839 88.1286 39.3839C88.0989 39.3839 88.0695 39.3841 88.0403 39.3846C84.6572 34.3053 79.0588 31.2903 72.9531 31.2903C65.9781 31.2903 59.6186 35.313 56.6038 41.5843C49.775 42.6457 44.6907 48.5385 44.6907 55.5058C44.6907 63.2799 51.0154 69.6044 58.7893 69.6044H63.8479C64.3706 69.6044 64.7944 69.1806 64.7944 68.6578C64.7944 68.1351 64.3706 67.7113 63.8479 67.7113H58.7893C52.0593 67.7114 46.5839 62.236 46.5839 55.5058C46.5839 49.3194 51.2146 44.1116 57.3552 43.3921C57.687 43.3532 57.9738 43.1424 58.1098 42.8371C60.7213 36.9725 66.5477 33.1833 72.9533 33.1833C78.589 33.1833 83.7428 36.0534 86.7399 40.8608C86.9256 41.1587 87.2607 41.3294 87.6115 41.3041L87.6646 41.3002C87.8285 41.2882 87.9834 41.2769 88.1288 41.2769C91.4175 41.2769 94.2668 43.5085 95.0577 46.7037C95.1719 47.165 95.61 47.4708 96.0827 47.4168C96.4991 47.3698 96.8758 47.347 97.2342 47.347C102.849 47.347 107.416 51.9147 107.416 57.5292C107.416 63.1437 102.849 67.7113 97.2342 67.7113H90.1523C89.6295 67.7113 89.2057 68.1351 89.2057 68.6578C89.2057 69.1806 89.6295 69.6044 90.1523 69.6044H97.2342C103.892 69.6044 109.309 64.1876 109.309 57.5292C109.309 50.8708 103.892 45.454 97.2341 45.454Z" fill="white" stroke="white" stroke-width="0.5"/>
<path d="M87.1169 53.5476H63.9754L63.2004 51.4441C62.7721 50.2817 61.6523 49.5007 60.4136 49.5007H58.7893C58.2665 49.5007 57.8427 49.9245 57.8427 50.4473C57.8427 50.97 58.2665 51.3939 58.7893 51.3939H60.4136C60.8627 51.3939 61.2688 51.6771 61.424 52.0985L66.86 66.8533C67.0948 67.4904 67.4495 68.0546 67.8905 68.5277L65.4343 72.8262C65.2482 72.7895 65.0561 72.77 64.8595 72.77C63.2218 72.77 61.8896 74.1023 61.8896 75.7399C61.8896 77.3774 63.222 78.7098 64.8595 78.7098C66.1663 78.7098 67.2776 77.8612 67.6739 76.6864H82.2791C82.6753 77.8612 83.7868 78.7098 85.0936 78.7098C86.7312 78.7098 88.0635 77.3774 88.0635 75.7399C88.0635 74.1023 86.7311 72.77 85.0936 72.77C83.7868 72.77 82.6754 73.6186 82.2791 74.7933H67.6739C67.5448 74.4105 67.3401 74.0625 67.0771 73.7671L69.4308 69.6483C70.083 69.9539 70.803 70.1209 71.5451 70.1209C71.8167 70.1209 72.0912 70.0985 72.3664 70.0527L84.7364 67.9911C86.6642 67.6698 88.0635 66.0181 88.0635 64.0636V54.4943C88.0635 53.9714 87.6397 53.5476 87.1169 53.5476ZM64.8596 76.8167C64.2658 76.8167 63.7828 76.3336 63.7828 75.7399C63.7828 75.1462 64.2659 74.6631 64.8596 74.6631C65.4533 74.6631 65.9364 75.1462 65.9364 75.7399C65.9364 76.3336 65.4533 76.8167 64.8596 76.8167ZM85.0936 74.663C85.6874 74.663 86.1704 75.1461 86.1704 75.7398C86.1704 76.3334 85.6872 76.8166 85.0936 76.8166C84.4999 76.8166 84.0167 76.3334 84.0167 75.7398C84.0167 75.1461 84.4997 74.663 85.0936 74.663ZM86.1704 64.0634C86.1704 65.0886 85.4365 65.955 84.4252 66.1235L72.0551 68.1851C70.5883 68.4295 69.1504 67.5942 68.6364 66.1988L64.6728 55.4406H86.1704V64.0634Z" fill="white" stroke="white" stroke-width="0.5"/>
<path d="M83.0702 63.8293C83.593 63.8293 84.0168 63.4055 84.0168 62.8827V58.541C84.0168 58.0183 83.593 57.5945 83.0702 57.5945C82.5475 57.5945 82.1237 58.0183 82.1237 58.541V62.8827C82.1237 63.4055 82.5475 63.8293 83.0702 63.8293Z" fill="white" stroke="white" stroke-width="0.5"/>
<path d="M79.0234 64.4059C79.5462 64.4059 79.97 63.9821 79.97 63.4594V58.5408C79.97 58.018 79.5462 57.5942 79.0234 57.5942C78.5006 57.5942 78.0768 58.018 78.0768 58.5408V63.4594C78.0768 63.9821 78.5006 64.4059 79.0234 64.4059Z" fill="white" stroke="white" stroke-width="0.5"/>
<path d="M74.9766 65.1475C75.4993 65.1475 75.9232 64.7237 75.9232 64.201V58.5408C75.9232 58.018 75.4993 57.5942 74.9766 57.5942C74.4538 57.5942 74.03 58.018 74.03 58.5408V64.201C74.03 64.7237 74.4538 65.1475 74.9766 65.1475Z" fill="white" stroke="white" stroke-width="0.5"/>
<path d="M70.9298 64.6122C71.4525 64.6122 71.8763 64.1883 71.8763 63.6656V58.541C71.8763 58.0183 71.4525 57.5945 70.9298 57.5945C70.407 57.5945 69.9832 58.0183 69.9832 58.541V63.6656C69.9832 64.1883 70.407 64.6122 70.9298 64.6122Z" fill="white" stroke="white" stroke-width="0.5"/>
<defs>
<filter id="filter0_d_710_959" x="21" y="0" width="130" height="130" filterUnits="userSpaceOnUse" color-interpolation-filters="sRGB">
<feFlood flood-opacity="0" result="BackgroundImageFix"/>
<feColorMatrix in="SourceAlpha" type="matrix" values="0 0 0 0 0 0 0 0 0 0 0 0 0 0 0 0 0 0 127 0" result="hardAlpha"/>
<feOffset dx="10" dy="10"/>
<feGaussianBlur stdDeviation="7.5"/>
<feComposite in2="hardAlpha" operator="out"/>
<feColorMatrix type="matrix" values="0 0 0 0 0.239216 0 0 0 0 0.278431 0 0 0 0 0.32549 0 0 0 0.3 0"/>
<feBlend mode="normal" in2="BackgroundImageFix" result="effect1_dropShadow_710_959"/>
<feBlend mode="normal" in="SourceGraphic" in2="effect1_dropShadow_710_959" result="shape"/>
</filter>
<linearGradient id="paint0_linear_710_959" x1="11" y1="-16.5" x2="146" y2="128.5" gradientUnits="userSpaceOnUse">
<stop offset="0.120204" stop-color="#2CA5B1"/>
<stop offset="0.962154" stop-color="#3D4753"/>
</linearGradient>
</defs>
</svg>
