<svg width="153" height="190" viewBox="0 0 153 190" fill="none" xmlns="http://www.w3.org/2000/svg">
<g filter="url(#filter0_d_700_868)">
<rect x="26" y="5" width="100" height="100" rx="22" fill="url(#paint0_linear_700_868)"/>
</g>
<path d="M19.9952 151.14C18.7019 151.14 17.5286 150.84 16.4752 150.24C15.4219 149.627 14.5886 148.78 13.9752 147.7C13.3752 146.607 13.0752 145.373 13.0752 144C13.0752 142.627 13.3752 141.4 13.9752 140.32C14.5886 139.227 15.4219 138.38 16.4752 137.78C17.5286 137.167 18.7019 136.86 19.9952 136.86C21.3019 136.86 22.4819 137.167 23.5352 137.78C24.5886 138.38 25.4152 139.227 26.0152 140.32C26.6152 141.4 26.9152 142.627 26.9152 144C26.9152 145.373 26.6152 146.607 26.0152 147.7C25.4152 148.78 24.5886 149.627 23.5352 150.24C22.4819 150.84 21.3019 151.14 19.9952 151.14ZM19.9952 149.92C21.0352 149.92 21.9686 149.68 22.7952 149.2C23.6219 148.72 24.2752 148.033 24.7552 147.14C25.2352 146.233 25.4752 145.187 25.4752 144C25.4752 142.813 25.2352 141.773 24.7552 140.88C24.2752 139.987 23.6219 139.3 22.7952 138.82C21.9686 138.34 21.0352 138.1 19.9952 138.1C18.9552 138.1 18.0219 138.34 17.1952 138.82C16.3686 139.3 15.7152 139.987 15.2352 140.88C14.7552 141.773 14.5152 142.813 14.5152 144C14.5152 145.187 14.7552 146.233 15.2352 147.14C15.7152 148.033 16.3686 148.72 17.1952 149.2C18.0219 149.68 18.9552 149.92 19.9952 149.92ZM34.597 139.88C35.9036 139.88 36.9703 140.287 37.797 141.1C38.6236 141.9 39.037 143.067 39.037 144.6V151H37.657V144.76C37.657 143.573 37.357 142.667 36.757 142.04C36.1703 141.413 35.3636 141.1 34.337 141.1C33.2836 141.1 32.4436 141.433 31.817 142.1C31.1903 142.767 30.877 143.747 30.877 145.04V151H29.477V140.08H30.877V141.94C31.2236 141.273 31.7236 140.767 32.377 140.42C33.0303 140.06 33.7703 139.88 34.597 139.88ZM43.5332 136.2V151H42.1332V136.2H43.5332ZM47.4035 138.02C47.1235 138.02 46.8835 137.92 46.6835 137.72C46.4835 137.52 46.3835 137.273 46.3835 136.98C46.3835 136.687 46.4835 136.447 46.6835 136.26C46.8835 136.06 47.1235 135.96 47.4035 135.96C47.6835 135.96 47.9235 136.06 48.1235 136.26C48.3235 136.447 48.4235 136.687 48.4235 136.98C48.4235 137.273 48.3235 137.52 48.1235 137.72C47.9235 137.92 47.6835 138.02 47.4035 138.02ZM48.1035 140.08V151H46.7035V140.08H48.1035ZM56.3938 139.88C57.7005 139.88 58.7672 140.287 59.5938 141.1C60.4205 141.9 60.8338 143.067 60.8338 144.6V151H59.4538V144.76C59.4538 143.573 59.1538 142.667 58.5538 142.04C57.9672 141.413 57.1605 141.1 56.1338 141.1C55.0805 141.1 54.2405 141.433 53.6138 142.1C52.9872 142.767 52.6738 143.747 52.6738 145.04V151H51.2738V140.08H52.6738V141.94C53.0205 141.273 53.5205 140.767 54.1738 140.42C54.8272 140.06 55.5672 139.88 56.3938 139.88ZM73.8101 144.98C73.8101 145.46 73.7967 145.827 73.7701 146.08H64.7101C64.7501 146.907 64.9501 147.613 65.3101 148.2C65.6701 148.787 66.1434 149.233 66.7301 149.54C67.3167 149.833 67.9567 149.98 68.6501 149.98C69.5567 149.98 70.3167 149.76 70.9301 149.32C71.5567 148.88 71.9701 148.287 72.1701 147.54H73.6501C73.3834 148.607 72.8101 149.48 71.9301 150.16C71.0634 150.827 69.9701 151.16 68.6501 151.16C67.6234 151.16 66.7034 150.933 65.8901 150.48C65.0767 150.013 64.4367 149.36 63.9701 148.52C63.5167 147.667 63.2901 146.673 63.2901 145.54C63.2901 144.407 63.5167 143.413 63.9701 142.56C64.4234 141.707 65.0567 141.053 65.8701 140.6C66.6834 140.147 67.6101 139.92 68.6501 139.92C69.6901 139.92 70.5967 140.147 71.3701 140.6C72.1567 141.053 72.7567 141.667 73.1701 142.44C73.5967 143.2 73.8101 144.047 73.8101 144.98ZM72.3901 144.94C72.4034 144.127 72.2367 143.433 71.8901 142.86C71.5567 142.287 71.0967 141.853 70.5101 141.56C69.9234 141.267 69.2834 141.12 68.5901 141.12C67.5501 141.12 66.6634 141.453 65.9301 142.12C65.1967 142.787 64.7901 143.727 64.7101 144.94H72.3901ZM86.0998 151.14C85.1798 151.14 84.3664 150.98 83.6598 150.66C82.9664 150.34 82.4198 149.893 82.0198 149.32C81.6198 148.747 81.4064 148.107 81.3798 147.4H82.8598C82.9264 148.08 83.2264 148.68 83.7598 149.2C84.2931 149.707 85.0731 149.96 86.0998 149.96C87.0464 149.96 87.7931 149.72 88.3398 149.24C88.8998 148.747 89.1798 148.127 89.1798 147.38C89.1798 146.78 89.0264 146.3 88.7198 145.94C88.4131 145.567 88.0331 145.293 87.5798 145.12C87.1264 144.933 86.4998 144.733 85.6998 144.52C84.7664 144.267 84.0264 144.02 83.4798 143.78C82.9331 143.54 82.4664 143.167 82.0798 142.66C81.6931 142.153 81.4998 141.467 81.4998 140.6C81.4998 139.88 81.6864 139.24 82.0598 138.68C82.4331 138.107 82.9598 137.66 83.6398 137.34C84.3198 137.02 85.0998 136.86 85.9798 136.86C87.2731 136.86 88.3131 137.18 89.0998 137.82C89.8998 138.447 90.3598 139.26 90.4798 140.26H88.9598C88.8664 139.687 88.5531 139.18 88.0198 138.74C87.4864 138.287 86.7664 138.06 85.8598 138.06C85.0198 138.06 84.3198 138.287 83.7598 138.74C83.1998 139.18 82.9198 139.787 82.9198 140.56C82.9198 141.147 83.0731 141.62 83.3798 141.98C83.6864 142.34 84.0664 142.613 84.5198 142.8C84.9864 142.987 85.6131 143.187 86.3998 143.4C87.3064 143.653 88.0398 143.907 88.5998 144.16C89.1598 144.4 89.6331 144.773 90.0198 145.28C90.4064 145.787 90.5998 146.467 90.5998 147.32C90.5998 147.973 90.4264 148.593 90.0798 149.18C89.7331 149.767 89.2198 150.24 88.5398 150.6C87.8598 150.96 87.0464 151.14 86.0998 151.14ZM98.5051 139.88C99.3317 139.88 100.072 140.053 100.725 140.4C101.392 140.747 101.912 141.28 102.285 142C102.672 142.707 102.865 143.573 102.865 144.6V151H101.485V144.76C101.485 143.573 101.185 142.667 100.585 142.04C99.9984 141.413 99.1917 141.1 98.1651 141.1C97.1117 141.1 96.2717 141.433 95.6451 142.1C95.0184 142.767 94.7051 143.747 94.7051 145.04V151H93.3051V136.2H94.7051V141.94C95.0517 141.287 95.5584 140.78 96.2251 140.42C96.9051 140.06 97.6651 139.88 98.5051 139.88ZM110.741 151.16C109.715 151.16 108.788 150.933 107.961 150.48C107.148 150.013 106.501 149.36 106.021 148.52C105.555 147.667 105.321 146.673 105.321 145.54C105.321 144.407 105.561 143.42 106.041 142.58C106.521 141.727 107.175 141.073 108.001 140.62C108.828 140.153 109.755 139.92 110.781 139.92C111.808 139.92 112.735 140.153 113.561 140.62C114.401 141.073 115.055 141.727 115.521 142.58C116.001 143.42 116.241 144.407 116.241 145.54C116.241 146.66 116.001 147.647 115.521 148.5C115.041 149.353 114.381 150.013 113.541 150.48C112.701 150.933 111.768 151.16 110.741 151.16ZM110.741 149.94C111.461 149.94 112.128 149.78 112.741 149.46C113.355 149.127 113.848 148.633 114.221 147.98C114.608 147.313 114.801 146.5 114.801 145.54C114.801 144.58 114.615 143.773 114.241 143.12C113.868 142.453 113.375 141.96 112.761 141.64C112.148 141.307 111.481 141.14 110.761 141.14C110.041 141.14 109.375 141.307 108.761 141.64C108.148 141.96 107.655 142.453 107.281 143.12C106.921 143.773 106.741 144.58 106.741 145.54C106.741 146.5 106.921 147.313 107.281 147.98C107.655 148.633 108.141 149.127 108.741 149.46C109.355 149.78 110.021 149.94 110.741 149.94ZM120.173 142.48C120.52 141.747 121.067 141.14 121.813 140.66C122.573 140.167 123.473 139.92 124.513 139.92C125.5 139.92 126.387 140.153 127.173 140.62C127.973 141.073 128.593 141.727 129.033 142.58C129.487 143.42 129.713 144.4 129.713 145.52C129.713 146.64 129.487 147.627 129.033 148.48C128.593 149.333 127.973 149.993 127.173 150.46C126.387 150.927 125.5 151.16 124.513 151.16C123.487 151.16 122.593 150.92 121.833 150.44C121.073 149.947 120.52 149.333 120.173 148.6V156.16H118.793V140.08H120.173V142.48ZM128.293 145.52C128.293 144.613 128.113 143.833 127.753 143.18C127.407 142.513 126.927 142.007 126.313 141.66C125.7 141.313 125.007 141.14 124.233 141.14C123.487 141.14 122.8 141.32 122.173 141.68C121.56 142.04 121.073 142.553 120.713 143.22C120.353 143.887 120.173 144.66 120.173 145.54C120.173 146.42 120.353 147.193 120.713 147.86C121.073 148.527 121.56 149.04 122.173 149.4C122.8 149.76 123.487 149.94 124.233 149.94C125.007 149.94 125.7 149.767 126.313 149.42C126.927 149.06 127.407 148.547 127.753 147.88C128.113 147.2 128.293 146.413 128.293 145.52ZM136.049 151.16C134.796 151.16 133.769 150.873 132.969 150.3C132.183 149.713 131.743 148.92 131.649 147.92H133.089C133.156 148.533 133.443 149.033 133.949 149.42C134.469 149.793 135.163 149.98 136.029 149.98C136.789 149.98 137.383 149.8 137.809 149.44C138.249 149.08 138.469 148.633 138.469 148.1C138.469 147.727 138.349 147.42 138.109 147.18C137.869 146.94 137.563 146.753 137.189 146.62C136.829 146.473 136.336 146.32 135.709 146.16C134.896 145.947 134.236 145.733 133.729 145.52C133.223 145.307 132.789 144.993 132.429 144.58C132.083 144.153 131.909 143.587 131.909 142.88C131.909 142.347 132.069 141.853 132.389 141.4C132.709 140.947 133.163 140.587 133.749 140.32C134.336 140.053 135.003 139.92 135.749 139.92C136.923 139.92 137.869 140.22 138.589 140.82C139.309 141.407 139.696 142.22 139.749 143.26H138.349C138.309 142.62 138.056 142.107 137.589 141.72C137.136 141.32 136.509 141.12 135.709 141.12C135.003 141.12 134.429 141.287 133.989 141.62C133.549 141.953 133.329 142.367 133.329 142.86C133.329 143.287 133.456 143.64 133.709 143.92C133.976 144.187 134.303 144.4 134.689 144.56C135.076 144.707 135.596 144.873 136.249 145.06C137.036 145.273 137.663 145.48 138.129 145.68C138.596 145.88 138.996 146.173 139.329 146.56C139.663 146.947 139.836 147.46 139.849 148.1C139.849 148.687 139.689 149.213 139.369 149.68C139.049 150.133 138.603 150.493 138.029 150.76C137.456 151.027 136.796 151.16 136.049 151.16Z" fill="#3D4753"/>
<path d="M51.3557 47.7161C50.7651 47.7161 50.2863 48.1948 50.2863 48.7854V70.5009C50.2863 71.0915 50.7651 71.5702 51.3557 71.5702H101.644C102.235 71.5702 102.714 71.0915 102.714 70.5009V48.7854C102.714 48.1948 102.235 47.7161 101.644 47.7161C101.054 47.7161 100.575 48.1948 100.575 48.7854V69.4316H52.425V48.7854C52.425 48.1948 51.9462 47.7161 51.3557 47.7161Z" fill="#F5F5F5" fill-opacity="0.960784"/>
<path d="M110.788 74.0033H107.285V48.7854C107.285 48.1948 106.807 47.7161 106.216 47.7161C105.626 47.7161 105.147 48.1948 105.147 48.7854V74.0033H101.645C101.054 74.0033 100.575 74.4821 100.575 75.0727C100.575 75.6632 101.054 76.142 101.645 76.142H110.788C110.829 76.142 110.861 76.1749 110.861 76.2156V77.3585C110.861 78.6595 109.803 79.7179 108.502 79.7179H44.4981C43.197 79.7179 42.1387 78.6595 42.1387 77.3585V76.2156C42.1387 76.1749 42.1716 76.142 42.2122 76.142H97.0726C97.6632 76.142 98.1419 75.6632 98.1419 75.0727C98.1419 74.4821 97.6632 74.0033 97.0726 74.0033H47.8533V48.7854C47.8533 48.1948 47.3746 47.7161 46.784 47.7161C46.1935 47.7161 45.7147 48.1948 45.7147 48.7854V74.0033H42.2122C40.9923 74.0033 40 74.9958 40 76.2156V77.3585C40 79.8388 42.0178 81.8565 44.4981 81.8565H108.502C110.982 81.8565 113 79.8388 113 77.3585V76.2156C113 74.9958 112.008 74.0033 110.788 74.0033Z" fill="#F5F5F5" fill-opacity="0.960784"/>
<path d="M48.8296 45.2767C50.0766 45.3423 51.2621 44.9057 52.1658 44.0481C52.2838 43.936 52.3952 43.818 52.4997 43.6946C53.3255 44.6659 54.5557 45.2831 55.9274 45.2831C57.2997 45.2831 58.5305 44.6653 59.3563 43.6934C60.1821 44.6653 61.4127 45.2831 62.785 45.2831C64.1573 45.2831 65.3881 44.6653 66.2137 43.6934C67.0395 44.6653 68.2701 45.2831 69.6425 45.2831C71.0148 45.2831 72.2455 44.6653 73.0712 43.6934C73.897 44.6653 75.1276 45.2831 76.4999 45.2831C77.8722 45.2831 79.1029 44.6653 79.9286 43.6934C80.7544 44.6653 81.985 45.2831 83.3573 45.2831C84.7296 45.2831 85.9604 44.6653 86.786 43.6934C87.6119 44.6653 88.8424 45.2831 90.2148 45.2831C91.5871 45.2831 92.8178 44.6653 93.6435 43.6934C94.4693 44.6653 95.7 45.2831 97.0723 45.2831C98.4441 45.2831 99.6744 44.6659 100.5 43.6946C100.604 43.818 100.716 43.9362 100.834 44.0481C101.678 44.8497 102.768 45.2831 103.926 45.2831C104.007 45.2831 104.089 45.281 104.17 45.2767C106.558 45.1516 108.428 43.0934 108.428 40.5909V38.4989C108.428 37.532 108.108 36.5736 107.528 35.8001L102.385 28.9425C101.54 27.8159 100.195 27.1433 98.7866 27.1433H54.2131C52.8048 27.1433 51.4596 27.816 50.6145 28.9425L45.4713 35.8001C44.8912 36.5736 44.5717 37.532 44.5717 38.4989V40.5909C44.5717 43.0935 46.442 45.1516 48.8296 45.2767ZM50.6935 42.4968C50.2196 42.9465 49.5974 43.1756 48.9412 43.141C47.7111 43.0766 46.7103 41.9327 46.7103 40.591V39.5684H51.4292V40.7849C51.4292 41.4386 51.168 42.0466 50.6935 42.4968ZM55.9273 43.1444C54.6263 43.1444 53.5679 42.0859 53.5679 40.785V39.5686H58.2868V40.785C58.2868 42.0859 57.2283 43.1444 55.9273 43.1444ZM62.785 43.1444C61.484 43.1444 60.4256 42.0859 60.4256 40.785V39.5686H65.1445V40.785C65.1444 42.0859 64.086 43.1444 62.785 43.1444ZM69.6425 43.1444C68.3414 43.1444 67.2831 42.0859 67.2831 40.785V39.5686H72.002V40.785C72.002 42.0859 70.9435 43.1444 69.6425 43.1444ZM76.5 43.1444C75.199 43.1444 74.1406 42.0859 74.1406 40.785V39.5686H78.8596V40.785C78.8594 42.0859 77.8011 43.1444 76.5 43.1444ZM83.3576 43.1444C82.0566 43.1444 80.9982 42.0859 80.9982 40.785V39.5686H85.7171V40.785C85.717 42.0859 84.6586 43.1444 83.3576 43.1444ZM90.215 43.1444C88.914 43.1444 87.8557 42.0859 87.8557 40.785V39.5686H92.5746V40.785C92.5746 42.0859 91.5161 43.1444 90.215 43.1444ZM97.0728 43.1444C95.7717 43.1444 94.7132 42.0859 94.7132 40.785V39.5686H99.4322V40.785C99.4322 42.0859 98.3738 43.1444 97.0728 43.1444ZM104.059 43.141C103.403 43.1758 102.78 42.9465 102.306 42.4968C101.832 42.0466 101.571 41.4386 101.571 40.7849V39.5684H106.29V40.591C106.29 41.9327 105.289 43.0766 104.059 43.141ZM52.3255 30.2259C52.7686 29.6349 53.4744 29.2821 54.2131 29.2821H98.7871C99.5258 29.2821 100.231 29.6349 100.675 30.2259L105.818 37.0834C105.9 37.1924 105.971 37.3086 106.032 37.4298H46.9683C47.0296 37.3087 47.1006 37.1924 47.1823 37.0834L52.3255 30.2259Z" fill="#F5F5F5" fill-opacity="0.960784"/>
<path d="M83.6366 57.4371C83.7795 57.0245 83.6573 56.5662 83.3275 56.2798L73.7725 47.9781C73.456 47.703 73.008 47.6384 72.6265 47.8128C72.2451 47.9872 72.0008 48.3683 72.0018 48.7876L72.0298 61.4453C72.0308 61.882 72.2971 62.2742 72.7029 62.436C72.8315 62.4874 72.9658 62.5122 73.099 62.5122C73.386 62.5122 73.6673 62.3966 73.8732 62.1807L76.6758 59.2406L79.4146 65.2309C79.5943 65.6238 79.9821 65.8558 80.3877 65.8558C80.5364 65.8558 80.6877 65.8246 80.8317 65.7587C81.3688 65.5132 81.6052 64.8787 81.3595 64.3416L78.6207 58.3515L82.6777 58.1553C83.1141 58.1342 83.4936 57.8499 83.6366 57.4371ZM76.9399 56.2916C76.6656 56.3049 76.4069 56.4231 76.2176 56.6219L74.1626 58.7775L74.1458 51.1354L79.9145 56.1476L76.9399 56.2916Z" fill="#F5F5F5" fill-opacity="0.960784"/>
<defs>
<filter id="filter0_d_700_868" x="21" y="0" width="130" height="130" filterUnits="userSpaceOnUse" color-interpolation-filters="sRGB">
<feFlood flood-opacity="0" result="BackgroundImageFix"/>
<feColorMatrix in="SourceAlpha" type="matrix" values="0 0 0 0 0 0 0 0 0 0 0 0 0 0 0 0 0 0 127 0" result="hardAlpha"/>
<feOffset dx="10" dy="10"/>
<feGaussianBlur stdDeviation="7.5"/>
<feComposite in2="hardAlpha" operator="out"/>
<feColorMatrix type="matrix" values="0 0 0 0 0.239216 0 0 0 0 0.278431 0 0 0 0 0.32549 0 0 0 0.3 0"/>
<feBlend mode="normal" in2="BackgroundImageFix" result="effect1_dropShadow_700_868"/>
<feBlend mode="normal" in="SourceGraphic" in2="effect1_dropShadow_700_868" result="shape"/>
</filter>
<linearGradient id="paint0_linear_700_868" x1="11" y1="-16.5" x2="146" y2="128.5" gradientUnits="userSpaceOnUse">
<stop offset="0.120204" stop-color="#2CA5B1"/>
<stop offset="0.962154" stop-color="#3D4753"/>
</linearGradient>
</defs>
</svg>
