<svg width="153" height="190" viewBox="0 0 153 190" fill="none" xmlns="http://www.w3.org/2000/svg">
<g filter="url(#filter0_d_718_867)">
<rect x="26" y="5" width="100" height="100" rx="22" fill="url(#paint0_linear_718_867)"/>
</g>
<path d="M54.4228 141.04C54.4228 142.24 54.0295 143.207 53.2428 143.94C52.4561 144.673 51.2761 145.04 49.7028 145.04H46.8828V151H45.4828V137.02H49.7028C51.2628 137.02 52.4361 137.387 53.2228 138.12C54.0228 138.853 54.4228 139.827 54.4228 141.04ZM49.7028 143.84C51.8895 143.84 52.9828 142.907 52.9828 141.04C52.9828 140.107 52.7228 139.4 52.2028 138.92C51.6828 138.44 50.8495 138.2 49.7028 138.2H46.8828V143.84H49.7028ZM58.1719 142.02C58.4785 141.34 58.9452 140.813 59.5719 140.44C60.2119 140.067 60.9919 139.88 61.9119 139.88V141.34H61.5319C60.5185 141.34 59.7052 141.613 59.0919 142.16C58.4785 142.707 58.1719 143.62 58.1719 144.9V151H56.7719V140.08H58.1719V142.02ZM68.798 151.16C67.7713 151.16 66.8446 150.933 66.018 150.48C65.2046 150.013 64.558 149.36 64.078 148.52C63.6113 147.667 63.378 146.673 63.378 145.54C63.378 144.407 63.618 143.42 64.098 142.58C64.578 141.727 65.2313 141.073 66.058 140.62C66.8846 140.153 67.8113 139.92 68.838 139.92C69.8646 139.92 70.7913 140.153 71.618 140.62C72.458 141.073 73.1113 141.727 73.578 142.58C74.058 143.42 74.298 144.407 74.298 145.54C74.298 146.66 74.058 147.647 73.578 148.5C73.098 149.353 72.438 150.013 71.598 150.48C70.758 150.933 69.8246 151.16 68.798 151.16ZM68.798 149.94C69.518 149.94 70.1846 149.78 70.798 149.46C71.4113 149.127 71.9046 148.633 72.278 147.98C72.6646 147.313 72.858 146.5 72.858 145.54C72.858 144.58 72.6713 143.773 72.298 143.12C71.9246 142.453 71.4313 141.96 70.818 141.64C70.2046 141.307 69.538 141.14 68.818 141.14C68.098 141.14 67.4313 141.307 66.818 141.64C66.2046 141.96 65.7113 142.453 65.338 143.12C64.978 143.773 64.798 144.58 64.798 145.54C64.798 146.5 64.978 147.313 65.338 147.98C65.7113 148.633 66.198 149.127 66.798 149.46C67.4113 149.78 68.078 149.94 68.798 149.94ZM77.65 138.02C77.37 138.02 77.13 137.92 76.93 137.72C76.73 137.52 76.63 137.273 76.63 136.98C76.63 136.687 76.73 136.447 76.93 136.26C77.13 136.06 77.37 135.96 77.65 135.96C77.93 135.96 78.1633 136.06 78.35 136.26C78.55 136.447 78.65 136.687 78.65 136.98C78.65 137.273 78.55 137.52 78.35 137.72C78.1633 137.92 77.93 138.02 77.65 138.02ZM78.33 153.58C78.33 154.46 78.11 155.107 77.67 155.52C77.23 155.947 76.57 156.16 75.69 156.16H74.71V154.96H75.47C75.99 154.96 76.3633 154.847 76.59 154.62C76.8167 154.407 76.93 154.04 76.93 153.52V140.08H78.33V153.58ZM91.4175 144.98C91.4175 145.46 91.4042 145.827 91.3775 146.08H82.3175C82.3575 146.907 82.5575 147.613 82.9175 148.2C83.2775 148.787 83.7508 149.233 84.3375 149.54C84.9242 149.833 85.5642 149.98 86.2575 149.98C87.1642 149.98 87.9242 149.76 88.5375 149.32C89.1642 148.88 89.5775 148.287 89.7775 147.54H91.2575C90.9908 148.607 90.4175 149.48 89.5375 150.16C88.6708 150.827 87.5775 151.16 86.2575 151.16C85.2308 151.16 84.3108 150.933 83.4975 150.48C82.6842 150.013 82.0442 149.36 81.5775 148.52C81.1242 147.667 80.8975 146.673 80.8975 145.54C80.8975 144.407 81.1242 143.413 81.5775 142.56C82.0308 141.707 82.6642 141.053 83.4775 140.6C84.2908 140.147 85.2175 139.92 86.2575 139.92C87.2975 139.92 88.2042 140.147 88.9775 140.6C89.7642 141.053 90.3642 141.667 90.7775 142.44C91.2042 143.2 91.4175 144.047 91.4175 144.98ZM89.9975 144.94C90.0108 144.127 89.8442 143.433 89.4975 142.86C89.1642 142.287 88.7042 141.853 88.1175 141.56C87.5308 141.267 86.8908 141.12 86.1975 141.12C85.1575 141.12 84.2708 141.453 83.5375 142.12C82.8042 142.787 82.3975 143.727 82.3175 144.94H89.9975ZM99.8789 151L95.3789 146.1V151H93.9789V136.2H95.3789V144.96L99.7789 140.08H101.739L96.5589 145.52L101.779 151H99.8789ZM105.408 141.26V148.04C105.408 148.707 105.535 149.167 105.788 149.42C106.042 149.673 106.488 149.8 107.128 149.8H108.408V151H106.908C105.922 151 105.188 150.773 104.708 150.32C104.228 149.853 103.988 149.093 103.988 148.04V141.26H102.468V140.08H103.988V137.34H105.408V140.08H108.408V141.26H105.408ZM26.7224 167.02C28.2691 167.02 29.5958 167.3 30.7024 167.86C31.8091 168.42 32.6558 169.227 33.2424 170.28C33.8291 171.333 34.1224 172.587 34.1224 174.04C34.1224 175.48 33.8291 176.727 33.2424 177.78C32.6558 178.82 31.8091 179.62 30.7024 180.18C29.5958 180.727 28.2691 181 26.7224 181H22.5824V167.02H26.7224ZM26.7224 179.84C28.6691 179.84 30.1491 179.333 31.1624 178.32C32.1891 177.293 32.7024 175.867 32.7024 174.04C32.7024 172.2 32.1891 170.767 31.1624 169.74C30.1491 168.7 28.6691 168.18 26.7224 168.18H23.9824V179.84H26.7224ZM36.0635 175.52C36.0635 174.4 36.2835 173.42 36.7235 172.58C37.1768 171.727 37.7968 171.073 38.5835 170.62C39.3835 170.153 40.2835 169.92 41.2835 169.92C42.3235 169.92 43.2168 170.16 43.9635 170.64C44.7235 171.12 45.2702 171.733 45.6035 172.48V170.08H47.0035V181H45.6035V178.58C45.2568 179.327 44.7035 179.947 43.9435 180.44C43.1968 180.92 42.3035 181.16 41.2635 181.16C40.2768 181.16 39.3835 180.927 38.5835 180.46C37.7968 179.993 37.1768 179.333 36.7235 178.48C36.2835 177.627 36.0635 176.64 36.0635 175.52ZM45.6035 175.54C45.6035 174.66 45.4235 173.887 45.0635 173.22C44.7035 172.553 44.2102 172.04 43.5835 171.68C42.9702 171.32 42.2902 171.14 41.5435 171.14C40.7702 171.14 40.0768 171.313 39.4635 171.66C38.8502 172.007 38.3635 172.513 38.0035 173.18C37.6568 173.833 37.4835 174.613 37.4835 175.52C37.4835 176.413 37.6568 177.2 38.0035 177.88C38.3635 178.547 38.8502 179.06 39.4635 179.42C40.0768 179.767 40.7702 179.94 41.5435 179.94C42.2902 179.94 42.9702 179.76 43.5835 179.4C44.2102 179.04 44.7035 178.527 45.0635 177.86C45.4235 177.193 45.6035 176.42 45.6035 175.54ZM53.9596 181.16C52.7063 181.16 51.6796 180.873 50.8796 180.3C50.0929 179.713 49.6529 178.92 49.5596 177.92H50.9996C51.0663 178.533 51.3529 179.033 51.8596 179.42C52.3796 179.793 53.0729 179.98 53.9396 179.98C54.6996 179.98 55.2929 179.8 55.7196 179.44C56.1596 179.08 56.3796 178.633 56.3796 178.1C56.3796 177.727 56.2596 177.42 56.0196 177.18C55.7796 176.94 55.4729 176.753 55.0996 176.62C54.7396 176.473 54.2463 176.32 53.6196 176.16C52.8063 175.947 52.1463 175.733 51.6396 175.52C51.1329 175.307 50.6996 174.993 50.3396 174.58C49.9929 174.153 49.8196 173.587 49.8196 172.88C49.8196 172.347 49.9796 171.853 50.2996 171.4C50.6196 170.947 51.0729 170.587 51.6596 170.32C52.2463 170.053 52.9129 169.92 53.6596 169.92C54.8329 169.92 55.7796 170.22 56.4996 170.82C57.2196 171.407 57.6063 172.22 57.6596 173.26H56.2596C56.2196 172.62 55.9663 172.107 55.4996 171.72C55.0463 171.32 54.4196 171.12 53.6196 171.12C52.9129 171.12 52.3396 171.287 51.8996 171.62C51.4596 171.953 51.2396 172.367 51.2396 172.86C51.2396 173.287 51.3663 173.64 51.6196 173.92C51.8863 174.187 52.2129 174.4 52.5996 174.56C52.9863 174.707 53.5063 174.873 54.1596 175.06C54.9463 175.273 55.5729 175.48 56.0396 175.68C56.5063 175.88 56.9063 176.173 57.2396 176.56C57.5729 176.947 57.7463 177.46 57.7596 178.1C57.7596 178.687 57.5996 179.213 57.2796 179.68C56.9596 180.133 56.5129 180.493 55.9396 180.76C55.3663 181.027 54.7063 181.16 53.9596 181.16ZM65.5949 169.88C66.4216 169.88 67.1616 170.053 67.8149 170.4C68.4816 170.747 69.0016 171.28 69.3749 172C69.7616 172.707 69.9549 173.573 69.9549 174.6V181H68.5749V174.76C68.5749 173.573 68.2749 172.667 67.6749 172.04C67.0883 171.413 66.2816 171.1 65.2549 171.1C64.2016 171.1 63.3616 171.433 62.7349 172.1C62.1083 172.767 61.7949 173.747 61.7949 175.04V181H60.3949V166.2H61.7949V171.94C62.1416 171.287 62.6483 170.78 63.3149 170.42C63.9949 170.06 64.7549 169.88 65.5949 169.88ZM74.4312 172.5C74.7912 171.74 75.3445 171.12 76.0912 170.64C76.8512 170.16 77.7445 169.92 78.7712 169.92C79.7712 169.92 80.6645 170.153 81.4512 170.62C82.2378 171.073 82.8512 171.727 83.2912 172.58C83.7445 173.42 83.9712 174.4 83.9712 175.52C83.9712 176.64 83.7445 177.627 83.2912 178.48C82.8512 179.333 82.2312 179.993 81.4312 180.46C80.6445 180.927 79.7578 181.16 78.7712 181.16C77.7312 181.16 76.8312 180.927 76.0712 180.46C75.3245 179.98 74.7778 179.36 74.4312 178.6V181H73.0512V166.2H74.4312V172.5ZM82.5512 175.52C82.5512 174.613 82.3712 173.833 82.0112 173.18C81.6645 172.513 81.1845 172.007 80.5712 171.66C79.9578 171.313 79.2645 171.14 78.4912 171.14C77.7445 171.14 77.0578 171.32 76.4312 171.68C75.8178 172.04 75.3312 172.553 74.9712 173.22C74.6112 173.887 74.4312 174.66 74.4312 175.54C74.4312 176.42 74.6112 177.193 74.9712 177.86C75.3312 178.527 75.8178 179.04 76.4312 179.4C77.0578 179.76 77.7445 179.94 78.4912 179.94C79.2645 179.94 79.9578 179.767 80.5712 179.42C81.1845 179.06 81.6645 178.547 82.0112 177.88C82.3712 177.2 82.5512 176.413 82.5512 175.52ZM91.3273 181.16C90.3006 181.16 89.3739 180.933 88.5473 180.48C87.7339 180.013 87.0873 179.36 86.6073 178.52C86.1406 177.667 85.9073 176.673 85.9073 175.54C85.9073 174.407 86.1473 173.42 86.6273 172.58C87.1073 171.727 87.7606 171.073 88.5873 170.62C89.4139 170.153 90.3406 169.92 91.3673 169.92C92.3939 169.92 93.3206 170.153 94.1473 170.62C94.9873 171.073 95.6406 171.727 96.1073 172.58C96.5873 173.42 96.8273 174.407 96.8273 175.54C96.8273 176.66 96.5873 177.647 96.1073 178.5C95.6273 179.353 94.9673 180.013 94.1273 180.48C93.2873 180.933 92.3539 181.16 91.3273 181.16ZM91.3273 179.94C92.0473 179.94 92.7139 179.78 93.3273 179.46C93.9406 179.127 94.4339 178.633 94.8073 177.98C95.1939 177.313 95.3873 176.5 95.3873 175.54C95.3873 174.58 95.2006 173.773 94.8273 173.12C94.4539 172.453 93.9606 171.96 93.3473 171.64C92.7339 171.307 92.0673 171.14 91.3473 171.14C90.6273 171.14 89.9606 171.307 89.3473 171.64C88.7339 171.96 88.2406 172.453 87.8673 173.12C87.5073 173.773 87.3273 174.58 87.3273 175.54C87.3273 176.5 87.5073 177.313 87.8673 177.98C88.2406 178.633 88.7273 179.127 89.3273 179.46C89.9406 179.78 90.6073 179.94 91.3273 179.94ZM98.7393 175.52C98.7393 174.4 98.9593 173.42 99.3993 172.58C99.8526 171.727 100.473 171.073 101.259 170.62C102.059 170.153 102.959 169.92 103.959 169.92C104.999 169.92 105.893 170.16 106.639 170.64C107.399 171.12 107.946 171.733 108.279 172.48V170.08H109.679V181H108.279V178.58C107.933 179.327 107.379 179.947 106.619 180.44C105.873 180.92 104.979 181.16 103.939 181.16C102.953 181.16 102.059 180.927 101.259 180.46C100.473 179.993 99.8526 179.333 99.3993 178.48C98.9593 177.627 98.7393 176.64 98.7393 175.52ZM108.279 175.54C108.279 174.66 108.099 173.887 107.739 173.22C107.379 172.553 106.886 172.04 106.259 171.68C105.646 171.32 104.966 171.14 104.219 171.14C103.446 171.14 102.753 171.313 102.139 171.66C101.526 172.007 101.039 172.513 100.679 173.18C100.333 173.833 100.159 174.613 100.159 175.52C100.159 176.413 100.333 177.2 100.679 177.88C101.039 178.547 101.526 179.06 102.139 179.42C102.753 179.767 103.446 179.94 104.219 179.94C104.966 179.94 105.646 179.76 106.259 179.4C106.886 179.04 107.379 178.527 107.739 177.86C108.099 177.193 108.279 176.42 108.279 175.54ZM114.275 172.02C114.582 171.34 115.049 170.813 115.675 170.44C116.315 170.067 117.095 169.88 118.015 169.88V171.34H117.635C116.622 171.34 115.809 171.613 115.195 172.16C114.582 172.707 114.275 173.62 114.275 174.9V181H112.875V170.08H114.275V172.02ZM119.481 175.52C119.481 174.4 119.708 173.42 120.161 172.58C120.615 171.727 121.235 171.073 122.021 170.62C122.821 170.153 123.721 169.92 124.721 169.92C125.681 169.92 126.548 170.153 127.321 170.62C128.095 171.087 128.661 171.693 129.021 172.44V166.2H130.421V181H129.021V178.56C128.688 179.32 128.141 179.947 127.381 180.44C126.621 180.92 125.728 181.16 124.701 181.16C123.701 181.16 122.801 180.927 122.001 180.46C121.215 179.993 120.595 179.333 120.141 178.48C119.701 177.627 119.481 176.64 119.481 175.52ZM129.021 175.54C129.021 174.66 128.841 173.887 128.481 173.22C128.121 172.553 127.628 172.04 127.001 171.68C126.388 171.32 125.708 171.14 124.961 171.14C124.188 171.14 123.495 171.313 122.881 171.66C122.268 172.007 121.781 172.513 121.421 173.18C121.075 173.833 120.901 174.613 120.901 175.52C120.901 176.413 121.075 177.2 121.421 177.88C121.781 178.547 122.268 179.06 122.881 179.42C123.495 179.767 124.188 179.94 124.961 179.94C125.708 179.94 126.388 179.76 127.001 179.4C127.628 179.04 128.121 178.527 128.481 177.86C128.841 177.193 129.021 176.42 129.021 175.54Z" fill="#3D4753"/>
<path d="M104.788 52.6281H80.4338C79.799 52.6281 79.5104 52.1653 79.5104 51.5289V28.157C79.5104 27.5207 79.9144 27 80.5493 27C96.5353 27 106 36.1405 106 51.4711C106 52.1074 105.423 52.6281 104.788 52.6281ZM81.8189 50.314H103.576C103.172 37.5868 95.0925 29.719 81.8189 29.314V50.314Z" fill="#F5F5F5"/>
<path d="M73.5662 83C59.2537 83 48 71.8926 48 57.719C48 42.157 58.7343 31.686 74.7204 31.686C75.3552 31.686 75.8746 32.2066 75.8746 32.843V50.5455C75.8746 50.8347 75.7592 51.1818 75.5284 51.3554C75.2975 51.5868 75.009 51.7025 74.6627 51.6446C74.605 51.6446 74.4318 51.6446 74.3741 51.6446C71.4308 51.6446 69.1224 54.0165 69.1224 56.8512C69.1224 59.7438 71.4886 62.1157 74.3741 62.1157C77.2597 62.1157 79.6259 59.7438 79.6259 56.8512C79.6259 56.6777 79.6259 56.5041 79.5682 56.3884C79.5104 56.0413 79.6259 55.6942 79.8567 55.405C80.0876 55.1736 80.3761 54.9421 80.7224 54.9421H98.0358C98.6706 54.9421 99.19 55.4628 99.19 56.0992C99.1323 72.2397 88.8597 83 73.5662 83ZM73.5662 34.0579C59.6 34.5207 50.3085 43.9504 50.3085 57.719C50.3085 70.7934 60.2925 80.6281 73.5662 80.6281C87.3015 80.6281 96.3622 71.4876 96.8239 57.314H81.8766C81.6458 61.3058 78.3562 64.4297 74.3741 64.4297C70.2189 64.4297 66.8139 61.0165 66.8139 56.8512C66.8139 52.9174 69.7572 49.7355 73.5662 49.3306V34.0579Z" fill="#F5F5F5"/>
<defs>
<filter id="filter0_d_718_867" x="21" y="0" width="130" height="130" filterUnits="userSpaceOnUse" color-interpolation-filters="sRGB">
<feFlood flood-opacity="0" result="BackgroundImageFix"/>
<feColorMatrix in="SourceAlpha" type="matrix" values="0 0 0 0 0 0 0 0 0 0 0 0 0 0 0 0 0 0 127 0" result="hardAlpha"/>
<feOffset dx="10" dy="10"/>
<feGaussianBlur stdDeviation="7.5"/>
<feComposite in2="hardAlpha" operator="out"/>
<feColorMatrix type="matrix" values="0 0 0 0 0.239216 0 0 0 0 0.278431 0 0 0 0 0.32549 0 0 0 0.3 0"/>
<feBlend mode="normal" in2="BackgroundImageFix" result="effect1_dropShadow_718_867"/>
<feBlend mode="normal" in="SourceGraphic" in2="effect1_dropShadow_718_867" result="shape"/>
</filter>
<linearGradient id="paint0_linear_718_867" x1="13" y1="-13" x2="135" y2="128" gradientUnits="userSpaceOnUse">
<stop offset="0.0620713" stop-color="#ABABAB"/>
<stop offset="0.81383" stop-color="#3D4753"/>
</linearGradient>
</defs>
</svg>
