<svg width="153" height="190" viewBox="0 0 153 190" fill="none" xmlns="http://www.w3.org/2000/svg">
<g filter="url(#filter0_d_570_4530)">
<rect x="26" y="5" width="100" height="100" rx="22" fill="url(#paint0_linear_570_4530)"/>
</g>
<path d="M22.9375 138.16V143.38H28.2375V144.54H22.9375V149.84H28.8375V151H21.5375V137H28.8375V138.16H22.9375ZM36.7161 139.88C38.0228 139.88 39.0894 140.287 39.9161 141.1C40.7428 141.9 41.1561 143.067 41.1561 144.6V151H39.7761V144.76C39.7761 143.573 39.4761 142.667 38.8761 142.04C38.2894 141.413 37.4828 141.1 36.4561 141.1C35.4028 141.1 34.5628 141.433 33.9361 142.1C33.3094 142.767 32.9961 143.747 32.9961 145.04V151H31.5961V140.08H32.9961V141.94C33.3428 141.273 33.8428 140.767 34.4961 140.42C35.1494 140.06 35.8894 139.88 36.7161 139.88ZM43.6123 145.52C43.6123 144.4 43.839 143.42 44.2923 142.58C44.7457 141.727 45.3657 141.073 46.1523 140.62C46.9523 140.153 47.8523 139.92 48.8523 139.92C49.8123 139.92 50.679 140.153 51.4523 140.62C52.2257 141.087 52.7923 141.693 53.1523 142.44V136.2H54.5523V151H53.1523V148.56C52.819 149.32 52.2723 149.947 51.5123 150.44C50.7523 150.92 49.859 151.16 48.8323 151.16C47.8323 151.16 46.9323 150.927 46.1323 150.46C45.3457 149.993 44.7257 149.333 44.2723 148.48C43.8323 147.627 43.6123 146.64 43.6123 145.52ZM53.1523 145.54C53.1523 144.66 52.9723 143.887 52.6123 143.22C52.2523 142.553 51.759 142.04 51.1323 141.68C50.519 141.32 49.839 141.14 49.0923 141.14C48.319 141.14 47.6257 141.313 47.0123 141.66C46.399 142.007 45.9123 142.513 45.5523 143.18C45.2057 143.833 45.0323 144.613 45.0323 145.52C45.0323 146.413 45.2057 147.2 45.5523 147.88C45.9123 148.547 46.399 149.06 47.0123 149.42C47.6257 149.767 48.319 149.94 49.0923 149.94C49.839 149.94 50.519 149.76 51.1323 149.4C51.759 149.04 52.2523 148.527 52.6123 147.86C52.9723 147.193 53.1523 146.42 53.1523 145.54ZM64.5284 143V144.18H56.7484V143H64.5284ZM69.9395 141.26V148.04C69.9395 148.707 70.0662 149.167 70.3195 149.42C70.5729 149.673 71.0195 149.8 71.6595 149.8H72.9395V151H71.4395C70.4529 151 69.7195 150.773 69.2395 150.32C68.7595 149.853 68.5195 149.093 68.5195 148.04V141.26H66.9995V140.08H68.5195V137.34H69.9395V140.08H72.9395V141.26H69.9395ZM80.0284 151.16C79.0018 151.16 78.0751 150.933 77.2484 150.48C76.4351 150.013 75.7884 149.36 75.3084 148.52C74.8418 147.667 74.6084 146.673 74.6084 145.54C74.6084 144.407 74.8484 143.42 75.3284 142.58C75.8084 141.727 76.4618 141.073 77.2884 140.62C78.1151 140.153 79.0418 139.92 80.0684 139.92C81.0951 139.92 82.0218 140.153 82.8484 140.62C83.6884 141.073 84.3418 141.727 84.8084 142.58C85.2884 143.42 85.5284 144.407 85.5284 145.54C85.5284 146.66 85.2884 147.647 84.8084 148.5C84.3284 149.353 83.6684 150.013 82.8284 150.48C81.9884 150.933 81.0551 151.16 80.0284 151.16ZM80.0284 149.94C80.7484 149.94 81.4151 149.78 82.0284 149.46C82.6418 149.127 83.1351 148.633 83.5084 147.98C83.8951 147.313 84.0884 146.5 84.0884 145.54C84.0884 144.58 83.9018 143.773 83.5284 143.12C83.1551 142.453 82.6618 141.96 82.0484 141.64C81.4351 141.307 80.7684 141.14 80.0484 141.14C79.3284 141.14 78.6618 141.307 78.0484 141.64C77.4351 141.96 76.9418 142.453 76.5684 143.12C76.2084 143.773 76.0284 144.58 76.0284 145.54C76.0284 146.5 76.2084 147.313 76.5684 147.98C76.9418 148.633 77.4284 149.127 78.0284 149.46C78.6418 149.78 79.3084 149.94 80.0284 149.94ZM94.8605 143V144.18H87.0805V143H94.8605ZM99.8516 138.16V143.38H105.152V144.54H99.8516V149.84H105.752V151H98.4516V137H105.752V138.16H99.8516ZM113.63 139.88C114.937 139.88 116.003 140.287 116.83 141.1C117.657 141.9 118.07 143.067 118.07 144.6V151H116.69V144.76C116.69 143.573 116.39 142.667 115.79 142.04C115.203 141.413 114.397 141.1 113.37 141.1C112.317 141.1 111.477 141.433 110.85 142.1C110.223 142.767 109.91 143.747 109.91 145.04V151H108.51V140.08H109.91V141.94C110.257 141.273 110.757 140.767 111.41 140.42C112.063 140.06 112.803 139.88 113.63 139.88ZM120.526 145.52C120.526 144.4 120.753 143.42 121.206 142.58C121.66 141.727 122.28 141.073 123.066 140.62C123.866 140.153 124.766 139.92 125.766 139.92C126.726 139.92 127.593 140.153 128.366 140.62C129.14 141.087 129.706 141.693 130.066 142.44V136.2H131.466V151H130.066V148.56C129.733 149.32 129.186 149.947 128.426 150.44C127.666 150.92 126.773 151.16 125.746 151.16C124.746 151.16 123.846 150.927 123.046 150.46C122.26 149.993 121.64 149.333 121.186 148.48C120.746 147.627 120.526 146.64 120.526 145.52ZM130.066 145.54C130.066 144.66 129.886 143.887 129.526 143.22C129.166 142.553 128.673 142.04 128.046 141.68C127.433 141.32 126.753 141.14 126.006 141.14C125.233 141.14 124.54 141.313 123.926 141.66C123.313 142.007 122.826 142.513 122.466 143.18C122.12 143.833 121.946 144.613 121.946 145.52C121.946 146.413 122.12 147.2 122.466 147.88C122.826 148.547 123.313 149.06 123.926 149.42C124.54 149.767 125.233 149.94 126.006 149.94C126.753 149.94 127.433 149.76 128.046 149.4C128.673 149.04 129.166 148.527 129.526 147.86C129.886 147.193 130.066 146.42 130.066 145.54ZM30.8698 167.02V168.18H26.9898V181H25.5898V168.18H21.6898V167.02H30.8698ZM34.4805 172.02C34.7871 171.34 35.2538 170.813 35.8805 170.44C36.5205 170.067 37.3005 169.88 38.2205 169.88V171.34H37.8405C36.8271 171.34 36.0138 171.613 35.4005 172.16C34.7871 172.707 34.4805 173.62 34.4805 174.9V181H33.0805V170.08H34.4805V172.02ZM39.6866 175.52C39.6866 174.4 39.9066 173.42 40.3466 172.58C40.7999 171.727 41.4199 171.073 42.2066 170.62C43.0066 170.153 43.9066 169.92 44.9066 169.92C45.9466 169.92 46.8399 170.16 47.5866 170.64C48.3466 171.12 48.8932 171.733 49.2266 172.48V170.08H50.6266V181H49.2266V178.58C48.8799 179.327 48.3266 179.947 47.5666 180.44C46.8199 180.92 45.9266 181.16 44.8866 181.16C43.8999 181.16 43.0066 180.927 42.2066 180.46C41.4199 179.993 40.7999 179.333 40.3466 178.48C39.9066 177.627 39.6866 176.64 39.6866 175.52ZM49.2266 175.54C49.2266 174.66 49.0466 173.887 48.6866 173.22C48.3266 172.553 47.8332 172.04 47.2066 171.68C46.5932 171.32 45.9132 171.14 45.1666 171.14C44.3932 171.14 43.6999 171.313 43.0866 171.66C42.4732 172.007 41.9866 172.513 41.6266 173.18C41.2799 173.833 41.1066 174.613 41.1066 175.52C41.1066 176.413 41.2799 177.2 41.6266 177.88C41.9866 178.547 42.4732 179.06 43.0866 179.42C43.6999 179.767 44.3932 179.94 45.1666 179.94C45.9132 179.94 46.5932 179.76 47.2066 179.4C47.8332 179.04 48.3266 178.527 48.6866 177.86C49.0466 177.193 49.2266 176.42 49.2266 175.54ZM53.1827 175.52C53.1827 174.4 53.4093 173.42 53.8627 172.58C54.316 171.727 54.936 171.073 55.7227 170.62C56.5227 170.153 57.4227 169.92 58.4227 169.92C59.3827 169.92 60.2493 170.153 61.0227 170.62C61.796 171.087 62.3627 171.693 62.7227 172.44V166.2H64.1227V181H62.7227V178.56C62.3893 179.32 61.8427 179.947 61.0827 180.44C60.3227 180.92 59.4293 181.16 58.4027 181.16C57.4027 181.16 56.5027 180.927 55.7027 180.46C54.916 179.993 54.296 179.333 53.8427 178.48C53.4027 177.627 53.1827 176.64 53.1827 175.52ZM62.7227 175.54C62.7227 174.66 62.5427 173.887 62.1827 173.22C61.8227 172.553 61.3293 172.04 60.7027 171.68C60.0893 171.32 59.4093 171.14 58.6627 171.14C57.8893 171.14 57.196 171.313 56.5827 171.66C55.9693 172.007 55.4827 172.513 55.1227 173.18C54.776 173.833 54.6027 174.613 54.6027 175.52C54.6027 176.413 54.776 177.2 55.1227 177.88C55.4827 178.547 55.9693 179.06 56.5827 179.42C57.196 179.767 57.8893 179.94 58.6627 179.94C59.4093 179.94 60.0893 179.76 60.7027 179.4C61.3293 179.04 61.8227 178.527 62.1827 177.86C62.5427 177.193 62.7227 176.42 62.7227 175.54ZM77.1988 174.98C77.1988 175.46 77.1854 175.827 77.1588 176.08H68.0988C68.1388 176.907 68.3388 177.613 68.6988 178.2C69.0588 178.787 69.5321 179.233 70.1188 179.54C70.7054 179.833 71.3454 179.98 72.0388 179.98C72.9454 179.98 73.7054 179.76 74.3188 179.32C74.9454 178.88 75.3588 178.287 75.5588 177.54H77.0388C76.7721 178.607 76.1988 179.48 75.3188 180.16C74.4521 180.827 73.3588 181.16 72.0388 181.16C71.0121 181.16 70.0921 180.933 69.2788 180.48C68.4654 180.013 67.8254 179.36 67.3588 178.52C66.9054 177.667 66.6788 176.673 66.6788 175.54C66.6788 174.407 66.9054 173.413 67.3588 172.56C67.8121 171.707 68.4454 171.053 69.2588 170.6C70.0721 170.147 70.9988 169.92 72.0388 169.92C73.0788 169.92 73.9854 170.147 74.7588 170.6C75.5454 171.053 76.1454 171.667 76.5588 172.44C76.9854 173.2 77.1988 174.047 77.1988 174.98ZM75.7788 174.94C75.7921 174.127 75.6254 173.433 75.2788 172.86C74.9454 172.287 74.4854 171.853 73.8988 171.56C73.3121 171.267 72.6721 171.12 71.9788 171.12C70.9388 171.12 70.0521 171.453 69.3188 172.12C68.5854 172.787 68.1788 173.727 68.0988 174.94H75.7788ZM93.4284 167.02V168.18H89.5484V181H88.1484V168.18H84.2484V167.02H93.4284ZM94.9991 175.52C94.9991 174.4 95.2191 173.42 95.6591 172.58C96.1124 171.727 96.7324 171.073 97.5191 170.62C98.3191 170.153 99.2191 169.92 100.219 169.92C101.259 169.92 102.152 170.16 102.899 170.64C103.659 171.12 104.206 171.733 104.539 172.48V170.08H105.939V181H104.539V178.58C104.192 179.327 103.639 179.947 102.879 180.44C102.132 180.92 101.239 181.16 100.199 181.16C99.2124 181.16 98.3191 180.927 97.5191 180.46C96.7324 179.993 96.1124 179.333 95.6591 178.48C95.2191 177.627 94.9991 176.64 94.9991 175.52ZM104.539 175.54C104.539 174.66 104.359 173.887 103.999 173.22C103.639 172.553 103.146 172.04 102.519 171.68C101.906 171.32 101.226 171.14 100.479 171.14C99.7057 171.14 99.0124 171.313 98.3991 171.66C97.7857 172.007 97.2991 172.513 96.9391 173.18C96.5924 173.833 96.4191 174.613 96.4191 175.52C96.4191 176.413 96.5924 177.2 96.9391 177.88C97.2991 178.547 97.7857 179.06 98.3991 179.42C99.0124 179.767 99.7057 179.94 100.479 179.94C101.226 179.94 101.906 179.76 102.519 179.4C103.146 179.04 103.639 178.527 103.999 177.86C104.359 177.193 104.539 176.42 104.539 175.54ZM110.535 166.2V181H109.135V166.2H110.535ZM119.605 181L115.105 176.1V181H113.705V166.2H115.105V174.96L119.505 170.08H121.465L116.285 175.52L121.505 181H119.605ZM127.075 181.16C125.822 181.16 124.795 180.873 123.995 180.3C123.208 179.713 122.768 178.92 122.675 177.92H124.115C124.182 178.533 124.468 179.033 124.975 179.42C125.495 179.793 126.188 179.98 127.055 179.98C127.815 179.98 128.408 179.8 128.835 179.44C129.275 179.08 129.495 178.633 129.495 178.1C129.495 177.727 129.375 177.42 129.135 177.18C128.895 176.94 128.588 176.753 128.215 176.62C127.855 176.473 127.362 176.32 126.735 176.16C125.922 175.947 125.262 175.733 124.755 175.52C124.248 175.307 123.815 174.993 123.455 174.58C123.108 174.153 122.935 173.587 122.935 172.88C122.935 172.347 123.095 171.853 123.415 171.4C123.735 170.947 124.188 170.587 124.775 170.32C125.362 170.053 126.028 169.92 126.775 169.92C127.948 169.92 128.895 170.22 129.615 170.82C130.335 171.407 130.722 172.22 130.775 173.26H129.375C129.335 172.62 129.082 172.107 128.615 171.72C128.162 171.32 127.535 171.12 126.735 171.12C126.028 171.12 125.455 171.287 125.015 171.62C124.575 171.953 124.355 172.367 124.355 172.86C124.355 173.287 124.482 173.64 124.735 173.92C125.002 174.187 125.328 174.4 125.715 174.56C126.102 174.707 126.622 174.873 127.275 175.06C128.062 175.273 128.688 175.48 129.155 175.68C129.622 175.88 130.022 176.173 130.355 176.56C130.688 176.947 130.862 177.46 130.875 178.1C130.875 178.687 130.715 179.213 130.395 179.68C130.075 180.133 129.628 180.493 129.055 180.76C128.482 181.027 127.822 181.16 127.075 181.16Z" fill="#3D4753"/>
<g clip-path="url(#clip0_570_4530)">
<path d="M87.1689 46.5214C87.5127 46.8889 87.9869 47.0904 88.4849 47.0904C88.9354 47.0904 89.3622 46.9244 89.6941 46.6162C90.4292 45.9404 90.4766 44.8023 89.8127 44.0673C89.1369 43.3323 87.9988 43.2848 87.2638 43.9487C86.5287 44.6126 86.4813 45.7626 87.1452 46.4976L87.1689 46.5214Z" fill="white"/>
<path d="M97.5187 54.4882C102.711 45.3714 103.577 36.6577 98.9413 32.0341C94.3059 27.4105 85.5922 28.2641 76.4635 33.4686C67.2875 28.2523 58.5856 27.4698 54.0331 32.0341C49.3977 36.6577 50.2631 45.3714 55.4558 54.4882C50.2631 63.605 49.3977 72.3187 54.0331 76.9423C56.2501 79.017 59.2258 80.1077 62.2608 79.9654C66.4576 79.9654 71.4131 78.4242 76.4872 75.5197C81.5732 78.4124 86.5288 79.9654 90.7137 79.9654C93.7487 80.1077 96.7244 79.017 98.9413 76.9423C103.529 72.3661 102.877 63.8421 97.5187 54.4764V54.4882ZM90.7256 32.5321C92.824 32.4135 94.8749 33.1367 96.4399 34.5475C99.5815 37.6891 98.8939 44.0673 95.3373 51.0265C95.1713 50.7775 95.0054 50.5285 94.8275 50.2796C94.2585 49.4853 93.1441 49.3074 92.3497 49.8765C91.5554 50.4455 91.3776 51.5362 91.9348 52.3305C92.4446 53.0419 92.907 53.7532 93.3575 54.4645C91.1998 57.8552 88.6864 60.9968 85.8411 63.8303C83.0077 66.6637 79.8779 69.1889 76.4991 71.3347C73.1203 69.1889 69.9786 66.6637 67.1571 63.8303C64.3236 60.9968 61.7984 57.867 59.6526 54.4882C63.9798 47.7188 69.7297 41.9571 76.4991 37.6299C78.6212 38.9695 80.6485 40.4633 82.5572 42.1112C83.3041 42.7514 84.4303 42.6684 85.0705 41.9215C85.7107 41.1746 85.6277 40.0484 84.8809 39.4082C83.3159 38.0685 81.6799 36.8118 79.9846 35.65C83.2922 33.8006 86.9674 32.7454 90.7493 32.5321H90.7256ZM56.5465 34.5475C59.617 31.4769 66.0071 32.1171 73.0136 35.65C67.0029 39.7994 61.7984 45.0039 57.649 51.0265C54.0806 44.0673 53.4048 37.6891 56.5465 34.5475ZM56.5465 74.4408C53.4048 71.2992 54.0924 64.921 57.649 57.9619C59.7119 60.9731 62.0592 63.7828 64.6319 66.3555C67.2045 68.9399 70.0023 71.2754 73.0018 73.3501C66.0426 76.8949 59.6882 77.5825 56.5465 74.4408ZM96.4399 74.4408C93.2982 77.5825 86.9318 76.9068 79.9846 73.3501C82.984 71.2754 85.7937 68.9399 88.3663 66.3555C90.9508 63.7828 93.2863 60.9731 95.3492 57.9619C98.9413 65.0277 99.4867 71.3821 96.4399 74.4408Z" fill="white"/>
<path d="M82.8891 52.4372L76.2264 48.5961C75.0646 47.9203 73.6182 48.7621 73.6182 50.1017V57.784C73.6182 59.1237 75.0646 59.9654 76.2264 59.2897L82.8891 55.4485C84.051 54.7728 84.051 53.1012 82.8891 52.4372Z" fill="white"/>
</g>
<defs>
<filter id="filter0_d_570_4530" x="21" y="0" width="130" height="130" filterUnits="userSpaceOnUse" color-interpolation-filters="sRGB">
<feFlood flood-opacity="0" result="BackgroundImageFix"/>
<feColorMatrix in="SourceAlpha" type="matrix" values="0 0 0 0 0 0 0 0 0 0 0 0 0 0 0 0 0 0 127 0" result="hardAlpha"/>
<feOffset dx="10" dy="10"/>
<feGaussianBlur stdDeviation="7.5"/>
<feComposite in2="hardAlpha" operator="out"/>
<feColorMatrix type="matrix" values="0 0 0 0 0.239216 0 0 0 0 0.278431 0 0 0 0 0.32549 0 0 0 0.3 0"/>
<feBlend mode="normal" in2="BackgroundImageFix" result="effect1_dropShadow_570_4530"/>
<feBlend mode="normal" in="SourceGraphic" in2="effect1_dropShadow_570_4530" result="shape"/>
</filter>
<linearGradient id="paint0_linear_570_4530" x1="11" y1="-16.5" x2="146" y2="128.5" gradientUnits="userSpaceOnUse">
<stop offset="0.120204" stop-color="#2CA5B1"/>
<stop offset="0.962154" stop-color="#3D4753"/>
</linearGradient>
<clipPath id="clip0_570_4530">
<rect width="50.99" height="50.9781" fill="white" transform="translate(51.01 29.011)"/>
</clipPath>
</defs>
</svg>
