<svg width="575" height="169" viewBox="0 0 575 169" fill="none" xmlns="http://www.w3.org/2000/svg">
<path d="M249.021 29.5007C249.021 35.0207 248.299 39.7458 246.856 43.6687C245.414 47.5916 243.345 50.7969 240.644 53.2772C237.946 55.7575 234.663 57.5791 230.803 58.7457C226.942 59.9086 222.341 60.49 217.005 60.49H202.629C201.606 60.49 200.745 60.1882 200.045 59.581C199.346 58.9775 199 57.9913 199 56.626V4.14183C199 2.77655 199.35 1.79031 200.045 1.18679C200.745 0.583272 201.602 0.277832 202.629 0.277832H218.076C223.442 0.277832 227.994 0.907112 231.734 2.16199C235.473 3.41687 238.62 5.27895 241.181 7.74455C243.739 10.2102 245.686 13.2572 247.022 16.8857C248.351 20.5215 249.021 24.7241 249.021 29.5007ZM236.364 29.9166C236.364 27.0646 236.029 24.4113 235.363 21.9604C234.696 19.5095 233.625 17.3862 232.153 15.5866C230.681 13.7871 228.786 12.385 226.478 11.3767C224.167 10.3684 221.134 9.86423 217.38 9.86423H211.19V50.8079H217.564C220.913 50.8079 223.736 50.3737 226.033 49.5052C228.329 48.6367 230.243 47.3266 231.778 45.575C233.313 43.8233 234.461 41.6447 235.223 39.0393C235.981 36.4302 236.364 33.3905 236.364 29.9166Z" fill="#3D4753"/>
<path d="M323.69 58.7678C323.69 59.11 323.627 59.3971 323.502 59.6289C323.377 59.8608 323.083 60.0558 322.619 60.2104C322.155 60.3649 321.471 60.4716 320.573 60.5342C319.671 60.5968 318.449 60.6262 316.896 60.6262C315.593 60.6262 314.555 60.5968 313.779 60.5342C313.002 60.4716 312.391 60.3539 311.942 60.1846C311.493 60.0153 311.173 59.7982 310.989 59.5332C310.801 59.272 310.646 58.9518 310.525 58.5801L305.126 45.1334C304.474 43.6136 303.838 42.263 303.219 41.0854C302.597 39.9078 301.909 38.9216 301.147 38.1304C300.385 37.3392 299.51 36.743 298.519 36.3382C297.526 35.9371 296.377 35.7347 295.075 35.7347H291.258V58.6721C291.258 58.9812 291.159 59.2609 290.956 59.5112C290.754 59.7614 290.423 59.9601 289.955 60.1147C289.491 60.2692 288.869 60.3944 288.093 60.4864C287.316 60.5784 286.326 60.6262 285.115 60.6262C283.938 60.6262 282.951 60.5784 282.16 60.4864C281.369 60.3944 280.739 60.2692 280.276 60.1147C279.812 59.9601 279.484 59.7577 279.3 59.5112C279.113 59.2646 279.021 58.9849 279.021 58.6721V4.00572C279.021 2.64044 279.37 1.6542 280.066 1.05068C280.765 0.447164 281.623 0.141724 282.65 0.141724H298.236C299.819 0.141724 301.122 0.171164 302.145 0.233724C303.168 0.296284 304.099 0.373564 304.938 0.465564C307.356 0.807804 309.535 1.3966 311.475 2.23196C313.414 3.071 315.059 4.16396 316.406 5.51084C317.757 6.8614 318.788 8.45852 319.502 10.3022C320.216 12.1496 320.573 14.2656 320.573 16.6539C320.573 18.6705 320.315 20.5068 319.803 22.1665C319.292 23.8262 318.537 25.3056 317.547 26.6083C316.554 27.911 315.328 29.0444 313.871 30.0049C312.413 30.9654 310.753 31.7419 308.891 32.3307C309.789 32.7649 310.635 33.2912 311.427 33.9131C312.218 34.535 312.961 35.2857 313.661 36.1689C314.36 37.0521 315.019 38.0604 315.637 39.1939C316.259 40.3273 316.863 41.6043 317.452 43.0321L322.523 54.8964C322.987 56.074 323.3 56.9352 323.454 57.4798C323.613 58.0318 323.69 58.4587 323.69 58.7678ZM307.916 17.9198C307.916 15.9363 307.467 14.2619 306.565 12.8966C305.663 11.5313 304.191 10.5708 302.145 10.0115C301.523 9.85692 300.82 9.7318 300.028 9.6398C299.237 9.5478 298.144 9.49996 296.749 9.49996H291.258V26.5752H297.493C299.23 26.5752 300.75 26.3654 302.053 25.9459C303.356 25.5264 304.441 24.9376 305.31 24.1795C306.178 23.4214 306.83 22.5124 307.264 21.4563C307.698 20.4001 307.916 19.2225 307.916 17.9198Z" fill="#3D4753"/>
<path d="M389.383 55.6968C389.383 56.5984 389.342 57.3491 389.265 57.9526C389.187 58.5561 389.07 59.0456 388.915 59.4173C388.761 59.7889 388.565 60.0613 388.334 60.2305C388.102 60.3998 387.844 60.4881 387.564 60.4881H357.319C356.296 60.4881 355.434 60.1864 354.735 59.5792C354.036 58.9757 353.69 57.9894 353.69 56.6241V4.14366C353.69 2.77838 354.039 1.79214 354.735 1.18862C355.434 0.585103 356.292 0.279663 357.319 0.279663H387.377C387.656 0.279663 387.903 0.356943 388.12 0.511503C388.337 0.666063 388.521 0.938383 388.68 1.32478C388.834 1.71118 388.952 2.20798 389.029 2.81518C389.107 3.4187 389.147 4.18782 389.147 5.11886C389.147 5.98734 389.107 6.72334 389.029 7.33054C388.952 7.93406 388.834 8.4235 388.68 8.79518C388.525 9.16686 388.337 9.43918 388.12 9.60846C387.903 9.77774 387.656 9.86606 387.377 9.86606H365.879V24.5677H384.072C384.351 24.5677 384.605 24.6523 384.841 24.8253C385.073 24.9945 385.268 25.2595 385.422 25.6165C385.577 25.9734 385.695 26.4555 385.772 27.059C385.849 27.6625 385.89 28.4022 385.89 29.2707C385.89 30.1723 385.849 30.9157 385.772 31.5045C385.695 32.0933 385.577 32.568 385.422 32.9249C385.268 33.2819 385.073 33.5358 384.841 33.6941C384.609 33.8486 384.351 33.9259 384.072 33.9259H365.879V50.9091H387.564C387.844 50.9091 388.098 50.9937 388.334 51.1667C388.565 51.336 388.761 51.6083 388.915 51.98C389.07 52.3517 389.187 52.8411 389.265 53.4446C389.342 54.0445 389.383 54.7952 389.383 55.6968Z" fill="#3D4753"/>
<path d="M474.079 55.925C474.451 57.04 474.683 57.9269 474.779 58.5782C474.871 59.2296 474.746 59.719 474.407 60.0429C474.065 60.3667 473.461 60.5691 472.592 60.6464C471.724 60.7237 470.528 60.7642 469.011 60.7642C467.429 60.7642 466.196 60.7421 465.313 60.6942C464.429 60.6464 463.752 60.5544 463.288 60.4146C462.825 60.2747 462.497 60.0834 462.313 59.8331C462.125 59.5866 461.971 59.259 461.849 58.8579L457.801 46.7618H435.188L431.372 58.5341C431.247 58.9683 431.085 59.3326 430.882 59.627C430.68 59.9214 430.356 60.1533 429.907 60.3262C429.458 60.4955 428.821 60.6133 428.001 60.6758C427.18 60.7384 426.101 60.7678 424.765 60.7678C423.337 60.7678 422.222 60.72 421.416 60.628C420.61 60.536 420.051 60.3115 419.742 59.9546C419.432 59.5976 419.322 59.0934 419.414 58.4421C419.506 57.7907 419.742 56.9222 420.113 55.8366L438.666 2.42144C438.854 1.8952 439.068 1.46832 439.318 1.1408C439.564 0.81696 439.962 0.56672 440.503 0.39744C441.044 0.22816 441.798 0.11776 442.759 0.0699198C443.72 0.0220798 444.993 0 446.576 0C448.405 0 449.862 0.0220798 450.948 0.0699198C452.034 0.11776 452.88 0.22448 453.484 0.39744C454.087 0.56672 454.522 0.82432 454.787 1.16656C455.048 1.5088 455.276 1.97248 455.46 2.56128L474.079 55.925ZM446.439 11.7723H446.392L437.875 37.363H454.952L446.439 11.7723Z" fill="#3D4753"/>
<path d="M574.982 58.6721C574.982 58.9812 574.898 59.2609 574.725 59.5112C574.555 59.7614 574.243 59.9601 573.794 60.1147C573.345 60.2692 572.748 60.3944 572.001 60.4864C571.258 60.5784 570.312 60.6262 569.164 60.6262C568.049 60.6262 567.117 60.5784 566.37 60.4864C565.627 60.3944 565.038 60.2692 564.604 60.1147C564.169 59.9601 563.86 59.7577 563.673 59.5112C563.485 59.2646 563.393 58.9849 563.393 58.6721V9.68028H563.301L545.852 58.6243C545.727 59.0291 545.528 59.3603 545.248 59.6252C544.969 59.8902 544.59 60.1 544.107 60.2545C543.625 60.4091 543.014 60.5121 542.271 60.5563C541.527 60.6041 540.626 60.6262 539.573 60.6262C538.517 60.6262 537.619 60.5857 536.875 60.5084C536.132 60.4312 535.517 60.306 535.039 60.1368C534.557 59.9675 534.178 59.7577 533.898 59.5075C533.618 59.2609 533.434 58.9665 533.338 58.6243L516.493 9.68028H516.401V58.6721C516.401 58.9812 516.317 59.2609 516.144 59.5112C515.974 59.7614 515.654 59.9601 515.19 60.1147C514.727 60.2692 514.127 60.3944 513.398 60.4864C512.669 60.5784 511.731 60.6262 510.582 60.6262C509.467 60.6262 508.536 60.5784 507.789 60.4864C507.046 60.3944 506.446 60.2692 505.997 60.1147C505.548 59.9601 505.235 59.7577 505.065 59.5112C504.896 59.2646 504.808 58.9849 504.808 58.6721V5.02508C504.808 3.44268 505.227 2.23196 506.063 1.3966C506.902 0.557564 508.017 0.141724 509.412 0.141724H517.417C518.845 0.141724 520.071 0.259484 521.094 0.491324C522.117 0.723164 523 1.11324 523.747 1.6542C524.491 2.19884 525.113 2.90908 525.61 3.79596C526.106 4.67916 526.541 5.77212 526.912 7.07484L539.941 42.9475H540.129L553.621 7.17052C554.022 5.8678 554.468 4.76748 554.946 3.86588C555.428 2.96796 555.984 2.23564 556.621 1.67996C557.258 1.1206 558.008 0.726844 558.877 0.495004C559.745 0.263164 560.754 0.145403 561.902 0.145403H570.139C570.978 0.145403 571.699 0.255803 572.303 0.469243C572.907 0.686363 573.404 1.00284 573.794 1.42236C574.18 1.84188 574.475 2.3534 574.677 2.95692C574.879 3.56044 574.979 4.25228 574.979 5.02876V58.6721H574.982Z" fill="#3D4753"/>
<path d="M270.889 155.552C270.889 155.861 270.804 156.141 270.631 156.391C270.462 156.642 270.149 156.84 269.7 156.995C269.251 157.149 268.655 157.275 267.908 157.367C267.164 157.459 266.218 157.506 265.07 157.506C263.955 157.506 263.024 157.459 262.277 157.367C261.533 157.275 260.944 157.149 260.51 156.995C260.076 156.84 259.766 156.638 259.579 156.391C259.391 156.145 259.299 155.865 259.299 155.552V106.561H259.207L241.758 155.505C241.633 155.909 241.434 156.241 241.155 156.505C240.875 156.77 240.496 156.98 240.014 157.135C239.532 157.289 238.921 157.392 238.177 157.437C237.434 157.484 236.532 157.506 235.479 157.506C234.423 157.506 233.525 157.466 232.782 157.389C232.038 157.311 231.424 157.186 230.945 157.017C230.463 156.848 230.084 156.638 229.804 156.388C229.524 156.141 229.34 155.847 229.245 155.505L212.399 106.561H212.307V155.552C212.307 155.861 212.223 156.141 212.05 156.391C211.881 156.642 211.56 156.84 211.097 156.995C210.633 157.149 210.033 157.275 209.304 157.367C208.575 157.459 207.637 157.506 206.489 157.506C205.374 157.506 204.442 157.459 203.695 157.367C202.952 157.275 202.352 157.149 201.903 156.995C201.454 156.84 201.141 156.638 200.972 156.391C200.802 156.145 200.714 155.865 200.714 155.552V101.905C200.714 100.323 201.134 99.1159 201.969 98.2768C202.808 97.4378 203.923 97.022 205.318 97.022H213.323C214.751 97.022 215.977 97.1397 217 97.3716C218.023 97.6034 218.906 97.9935 219.654 98.5344C220.397 99.0791 221.019 99.7893 221.516 100.676C222.013 101.559 222.447 102.652 222.819 103.955L235.847 139.828H236.035L249.528 104.051C249.929 102.748 250.374 101.648 250.852 100.746C251.335 99.8482 251.89 99.1196 252.527 98.5602C253.164 98.0008 253.915 97.6071 254.783 97.3752C255.652 97.1434 256.66 97.0256 257.808 97.0256H266.045C266.884 97.0256 267.606 97.136 268.209 97.3495C268.813 97.5666 269.31 97.8831 269.7 98.3026C270.086 98.7221 270.381 99.2337 270.583 99.8372C270.786 100.441 270.885 101.133 270.885 101.909V155.552H270.889Z" fill="#3D4753"/>
<path d="M355.585 152.802C355.957 153.917 356.189 154.803 356.285 155.455C356.377 156.106 356.252 156.596 355.913 156.919C355.571 157.243 354.967 157.446 354.098 157.523C353.23 157.6 352.034 157.641 350.517 157.641C348.935 157.641 347.702 157.619 346.819 157.571C345.935 157.523 345.258 157.431 344.794 157.291C344.331 157.151 344.003 156.96 343.819 156.71C343.631 156.463 343.477 156.136 343.355 155.734L339.307 143.638H316.694L312.878 155.411C312.753 155.845 312.591 156.209 312.388 156.504C312.186 156.798 311.862 157.03 311.413 157.203C310.964 157.372 310.327 157.49 309.506 157.552C308.686 157.615 307.607 157.644 306.271 157.644C304.843 157.644 303.728 157.597 302.922 157.505C302.116 157.413 301.557 157.188 301.248 156.831C300.938 156.474 300.828 155.97 300.92 155.319C301.012 154.667 301.248 153.799 301.619 152.713L320.183 99.3017C320.371 98.7754 320.585 98.3485 320.835 98.021C321.081 97.6972 321.479 97.447 322.02 97.2777C322.561 97.1084 323.315 96.998 324.276 96.9538C325.237 96.906 326.51 96.8839 328.093 96.8839C329.922 96.8839 331.379 96.906 332.465 96.9538C333.551 97.0017 334.397 97.1084 335.001 97.2777C335.604 97.447 336.039 97.7046 336.304 98.0468C336.565 98.389 336.793 98.8527 336.977 99.4415L355.585 152.802ZM327.945 108.649H327.898L319.381 134.236H336.458L327.945 108.649Z" fill="#3D4753"/>
<path d="M419.397 152.388C419.397 153.319 419.357 154.102 419.279 154.735C419.202 155.372 419.084 155.898 418.93 156.318C418.775 156.737 418.58 157.039 418.348 157.227C418.116 157.414 417.844 157.506 417.535 157.506H389.943C388.92 157.506 388.058 157.205 387.359 156.601C386.66 155.998 386.314 155.011 386.314 153.646V98.9761C386.314 98.6669 386.413 98.3873 386.616 98.137C386.818 97.8905 387.149 97.688 387.617 97.5335C388.081 97.3789 388.71 97.2538 389.501 97.1618C390.293 97.0698 391.275 97.022 392.457 97.022C393.667 97.022 394.657 97.0698 395.434 97.1618C396.211 97.2538 396.829 97.3789 397.296 97.5335C397.76 97.688 398.095 97.8905 398.297 98.137C398.5 98.3873 398.599 98.6633 398.599 98.9761V147.409H417.539C417.848 147.409 418.12 147.493 418.352 147.666C418.584 147.835 418.779 148.115 418.934 148.505C419.088 148.892 419.206 149.407 419.283 150.04C419.357 150.673 419.397 151.457 419.397 152.388Z" fill="#3D4753"/>
<path d="M482.481 152.388C482.481 153.319 482.44 154.102 482.363 154.735C482.285 155.372 482.168 155.898 482.013 156.318C481.859 156.737 481.663 157.039 481.432 157.227C481.2 157.414 480.927 157.506 480.618 157.506H453.026C452.003 157.506 451.142 157.205 450.442 156.601C449.743 155.998 449.397 155.011 449.397 153.646V98.9761C449.397 98.6669 449.497 98.3873 449.699 98.137C449.901 97.8905 450.233 97.688 450.7 97.5335C451.164 97.3789 451.793 97.2538 452.584 97.1618C453.376 97.0698 454.358 97.022 455.54 97.022C456.751 97.022 457.741 97.0698 458.517 97.1618C459.294 97.2538 459.912 97.3789 460.38 97.5335C460.843 97.688 461.178 97.8905 461.381 98.137C461.583 98.3873 461.682 98.6633 461.682 98.9761V147.409H480.622C480.931 147.409 481.203 147.493 481.435 147.666C481.667 147.835 481.862 148.115 482.017 148.505C482.171 148.892 482.289 149.407 482.366 150.04C482.44 150.673 482.481 151.457 482.481 152.388Z" fill="#3D4753"/>
<path d="M68.2621 43.3017H84.5C107.073 43.3017 125.7 61.9279 125.7 84.5C125.7 107.076 107.073 125.698 84.5 125.698H68.2585H43.2999H28.869H14.4345H0V169H84.5C130.978 169 169 130.976 169 84.5C169 38.0238 130.978 0 84.5 0H0V63.2991V72.1694H14.4345H28.869H43.3035H57.738H72.1725H84.5C91.1387 72.1694 96.8311 77.8616 96.8311 84.5C96.8311 91.1385 91.1387 96.8306 84.5 96.8306H72.1689H0V111.264H57.738H84.5C99.1059 111.264 111.266 99.1089 111.266 84.5C111.266 69.8947 99.1059 57.7355 84.5 57.7355H57.7344H43.2999H28.869H14.4345V14.4339H28.869H84.5C123.007 14.4339 154.569 45.9942 154.569 84.5C154.569 123.009 123.011 154.566 84.5 154.566H14.4345V140.132H28.869H68.2621H84.5C115.04 140.132 140.135 115.043 140.135 84.5C140.135 53.961 115.04 28.8713 84.5 28.8713H68.2585H33.0972V43.3017H68.2621Z" fill="url(#paint0_linear_131_554)"/>
<path opacity="0.75" d="M32.904 72H84.5055H89V58.0035H84.5055L51.812 58H32.904H14V72H32.904Z" fill="url(#paint1_linear_131_554)"/>
<path opacity="0.75" d="M30.636 139H76.045H80V126.003H76.045L47.2754 126H30.636H14V139H30.636Z" fill="url(#paint2_linear_131_554)"/>
<defs>
<linearGradient id="paint0_linear_131_554" x1="124.63" y1="184.998" x2="4.17019" y2="-23.6535" gradientUnits="userSpaceOnUse">
<stop offset="0.1721" stop-color="#2CA5B1"/>
<stop offset="0.804" stop-color="#F09630"/>
</linearGradient>
<linearGradient id="paint1_linear_131_554" x1="88.9989" y1="65.0006" x2="13.9981" y2="65.0006" gradientUnits="userSpaceOnUse">
<stop stop-color="white" stop-opacity="0"/>
<stop offset="0.0405" stop-color="#EEEFF0" stop-opacity="0.0405"/>
<stop offset="0.1632" stop-color="#BFC3C7" stop-opacity="0.1632"/>
<stop offset="0.29" stop-color="#979DA3" stop-opacity="0.29"/>
<stop offset="0.4195" stop-color="#777E86" stop-opacity="0.4195"/>
<stop offset="0.5522" stop-color="#5D6670" stop-opacity="0.5522"/>
<stop offset="0.6896" stop-color="#4B5460" stop-opacity="0.6896"/>
<stop offset="0.8346" stop-color="#404A56" stop-opacity="0.8346"/>
<stop offset="1" stop-color="#3D4753"/>
</linearGradient>
<linearGradient id="paint2_linear_131_554" x1="79.9991" y1="132.499" x2="13.9984" y2="132.499" gradientUnits="userSpaceOnUse">
<stop stop-color="white" stop-opacity="0"/>
<stop offset="0.0405" stop-color="#EEEFF0" stop-opacity="0.0405"/>
<stop offset="0.1632" stop-color="#BFC3C7" stop-opacity="0.1632"/>
<stop offset="0.29" stop-color="#979DA3" stop-opacity="0.29"/>
<stop offset="0.4195" stop-color="#777E86" stop-opacity="0.4195"/>
<stop offset="0.5522" stop-color="#5D6670" stop-opacity="0.5522"/>
<stop offset="0.6896" stop-color="#4B5460" stop-opacity="0.6896"/>
<stop offset="0.8346" stop-color="#404A56" stop-opacity="0.8346"/>
<stop offset="1" stop-color="#3D4753"/>
</linearGradient>
</defs>
</svg>
