<svg width="131" height="111" viewBox="0 0 131 111" fill="none" xmlns="http://www.w3.org/2000/svg">
<g clip-path="url(#clip0_216_581)">
<path d="M91.5 12H89.5C88.95 12 88.5 12.45 88.5 13C88.5 13.55 88.95 14 89.5 14H91.5C92.6 14 93.5 14.9 93.5 16V42H86.5V1C86.5 0.45 86.05 0 85.5 0H45.5C44.95 0 44.5 0.45 44.5 1V42H37.5V16C37.5 14.9 38.4 14 39.5 14H41.5C42.05 14 42.5 13.55 42.5 13C42.5 12.45 42.05 12 41.5 12H39.5C37.29 12 35.5 13.79 35.5 16V48C35.5 50.21 37.29 52 39.5 52H57.5V56C57.5 56.55 57.05 57 56.5 57C54.29 57 52.5 58.79 52.5 61V63C52.5 63.55 52.95 64 53.5 64H77.5C78.05 64 78.5 63.55 78.5 63V61C78.5 58.79 76.71 57 74.5 57C73.95 57 73.5 56.55 73.5 56V52H91.5C93.71 52 95.5 50.21 95.5 48V16C95.5 13.79 93.71 12 91.5 12ZM46.5 2H84.5V8H66.5C66.12 8 65.77 8.21 65.61 8.55L64.44 10.89C64.1 11.57 63.41 12 62.65 12H46.5V2ZM46.5 14H62.65C64.17 14 65.55 13.15 66.23 11.79L67.12 10H84.5V42H46.5V14ZM76.5 61V62H54.5V61C54.5 59.9 55.4 59 56.5 59H74.5C75.6 59 76.5 59.9 76.5 61ZM71.68 57H59.31C59.42 56.69 59.49 56.35 59.49 56V52H71.49V56C71.49 56.35 71.56 56.69 71.67 57H71.68ZM91.5 50H39.5C38.4 50 37.5 49.1 37.5 48V44H93.5V48C93.5 49.1 92.6 50 91.5 50Z" fill="#3D4753"/>
<path d="M51.97 8H50.5C49.95 8 49.5 8.45 49.5 9C49.5 9.55 49.95 10 50.5 10H51.97C52.52 10 52.97 9.55 52.97 9C52.97 8.45 52.52 8 51.97 8Z" fill="#3D4753"/>
<path d="M56.97 8H55.5C54.95 8 54.5 8.45 54.5 9C54.5 9.55 54.95 10 55.5 10H56.97C57.52 10 57.97 9.55 57.97 9C57.97 8.45 57.52 8 56.97 8Z" fill="#3D4753"/>
<path d="M62.97 9C62.97 8.45 62.52 8 61.97 8H60.5C59.95 8 59.5 8.45 59.5 9C59.5 9.55 59.95 10 60.5 10H61.97C62.52 10 62.97 9.55 62.97 9Z" fill="#3D4753"/>
<path d="M70.5 6H80.5C81.05 6 81.5 5.55 81.5 5C81.5 4.45 81.05 4 80.5 4H70.5C69.95 4 69.5 4.45 69.5 5C69.5 5.55 69.95 6 70.5 6Z" fill="#3D4753"/>
<path d="M49.5 32H53.5C54.05 32 54.5 31.55 54.5 31V30H58.5V31C58.5 31.55 58.95 32 59.5 32H63.5C64.05 32 64.5 31.55 64.5 31V27C64.5 26.45 64.05 26 63.5 26H62.5V22H63.5C64.05 22 64.5 21.55 64.5 21V17C64.5 16.45 64.05 16 63.5 16H59.5C58.95 16 58.5 16.45 58.5 17V18H54.5V17C54.5 16.45 54.05 16 53.5 16H49.5C48.95 16 48.5 16.45 48.5 17V21C48.5 21.55 48.95 22 49.5 22H50.5V26H49.5C48.95 26 48.5 26.45 48.5 27V31C48.5 31.55 48.95 32 49.5 32ZM62.5 30H60.5V28H62.5V30ZM60.5 18H62.5V20H60.5V18ZM50.5 18H52.5V20H50.5V18ZM52.5 22H53.5C54.05 22 54.5 21.55 54.5 21V20H58.5V21C58.5 21.55 58.95 22 59.5 22H60.5V26H59.5C58.95 26 58.5 26.45 58.5 27V28H54.5V27C54.5 26.45 54.05 26 53.5 26H52.5V22ZM50.5 28H52.5V30H50.5V28Z" fill="#3D4753"/>
<path d="M81.5 34H49.5C48.95 34 48.5 34.45 48.5 35C48.5 35.55 48.95 36 49.5 36H81.5C82.05 36 82.5 35.55 82.5 35C82.5 34.45 82.05 34 81.5 34Z" fill="#3D4753"/>
<path d="M81.5 38H49.5C48.95 38 48.5 38.45 48.5 39C48.5 39.55 48.95 40 49.5 40H81.5C82.05 40 82.5 39.55 82.5 39C82.5 38.45 82.05 38 81.5 38Z" fill="#3D4753"/>
<path d="M81.5 16H67.5C66.95 16 66.5 16.45 66.5 17V27C66.5 27.13 66.53 27.26 66.58 27.38C66.68 27.62 66.88 27.82 67.12 27.92C67.24 27.97 67.37 28 67.5 28H81.5C82.05 28 82.5 27.55 82.5 27V17C82.5 16.45 82.05 16 81.5 16ZM80.5 18V22.59L78.21 20.3C77.82 19.91 77.19 19.91 76.8 20.3L74.51 22.59L73.22 21.3C72.83 20.91 72.2 20.91 71.81 21.3L68.52 24.59V18H80.52H80.5ZM69.91 26L72.5 23.41L73.79 24.7C74.18 25.09 74.81 25.09 75.2 24.7L77.49 22.41L80.49 25.41V26H69.9H69.91Z" fill="#3D4753"/>
<path d="M81.5 30H67.5C66.95 30 66.5 30.45 66.5 31C66.5 31.55 66.95 32 67.5 32H81.5C82.05 32 82.5 31.55 82.5 31C82.5 30.45 82.05 30 81.5 30Z" fill="#3D4753"/>
<path d="M74.5 21C75.05 21 75.5 20.55 75.5 20C75.5 19.45 75.05 19 74.5 19C73.95 19 73.5 19.45 73.5 20C73.5 20.55 73.95 21 74.5 21Z" fill="#3D4753"/>
<path d="M67.5 46H63.5C62.95 46 62.5 46.45 62.5 47C62.5 47.55 62.95 48 63.5 48H67.5C68.05 48 68.5 47.55 68.5 47C68.5 46.45 68.05 46 67.5 46Z" fill="#3D4753"/>
</g>
<path d="M18.601 89.02L14.641 103H13.081L9.56102 91.08L5.96102 103L4.44102 103.02L0.561016 89.02H2.06102L5.26102 101.28L8.84102 89.02H10.401L13.881 101.28L17.101 89.02H18.601ZM25.5226 103.16C24.4959 103.16 23.5692 102.933 22.7426 102.48C21.9292 102.013 21.2826 101.36 20.8026 100.52C20.3359 99.6667 20.1026 98.6733 20.1026 97.54C20.1026 96.4067 20.3426 95.42 20.8226 94.58C21.3026 93.7267 21.9559 93.0733 22.7826 92.62C23.6092 92.1533 24.5359 91.92 25.5626 91.92C26.5892 91.92 27.5159 92.1533 28.3426 92.62C29.1826 93.0733 29.8359 93.7267 30.3026 94.58C30.7826 95.42 31.0226 96.4067 31.0226 97.54C31.0226 98.66 30.7826 99.6467 30.3026 100.5C29.8226 101.353 29.1626 102.013 28.3226 102.48C27.4826 102.933 26.5492 103.16 25.5226 103.16ZM25.5226 101.94C26.2426 101.94 26.9092 101.78 27.5226 101.46C28.1359 101.127 28.6292 100.633 29.0026 99.98C29.3892 99.3133 29.5826 98.5 29.5826 97.54C29.5826 96.58 29.3959 95.7733 29.0226 95.12C28.6492 94.4533 28.1559 93.96 27.5426 93.64C26.9292 93.3067 26.2626 93.14 25.5426 93.14C24.8226 93.14 24.1559 93.3067 23.5426 93.64C22.9292 93.96 22.4359 94.4533 22.0626 95.12C21.7026 95.7733 21.5226 96.58 21.5226 97.54C21.5226 98.5 21.7026 99.3133 22.0626 99.98C22.4359 100.633 22.9226 101.127 23.5226 101.46C24.1359 101.78 24.8026 101.94 25.5226 101.94ZM34.9746 94.02C35.2813 93.34 35.7479 92.8133 36.3746 92.44C37.0146 92.0667 37.7946 91.88 38.7146 91.88V93.34H38.3346C37.3213 93.34 36.5079 93.6133 35.8946 94.16C35.2813 94.7067 34.9746 95.62 34.9746 96.9V103H33.5746V92.08H34.9746V94.02ZM44.5807 103.16C43.3274 103.16 42.3007 102.873 41.5007 102.3C40.714 101.713 40.274 100.92 40.1807 99.92H41.6207C41.6874 100.533 41.974 101.033 42.4807 101.42C43.0007 101.793 43.694 101.98 44.5607 101.98C45.3207 101.98 45.914 101.8 46.3407 101.44C46.7807 101.08 47.0007 100.633 47.0007 100.1C47.0007 99.7267 46.8807 99.42 46.6407 99.18C46.4007 98.94 46.094 98.7533 45.7207 98.62C45.3607 98.4733 44.8674 98.32 44.2407 98.16C43.4274 97.9467 42.7674 97.7333 42.2607 97.52C41.754 97.3067 41.3207 96.9933 40.9607 96.58C40.614 96.1533 40.4407 95.5867 40.4407 94.88C40.4407 94.3467 40.6007 93.8533 40.9207 93.4C41.2407 92.9467 41.694 92.5867 42.2807 92.32C42.8674 92.0533 43.534 91.92 44.2807 91.92C45.454 91.92 46.4007 92.22 47.1207 92.82C47.8407 93.4067 48.2274 94.22 48.2807 95.26H46.8807C46.8407 94.62 46.5874 94.1067 46.1207 93.72C45.6674 93.32 45.0407 93.12 44.2407 93.12C43.534 93.12 42.9607 93.2867 42.5207 93.62C42.0807 93.9533 41.8607 94.3667 41.8607 94.86C41.8607 95.2867 41.9874 95.64 42.2407 95.92C42.5074 96.1867 42.834 96.4 43.2207 96.56C43.6074 96.7067 44.1274 96.8733 44.7807 97.06C45.5674 97.2733 46.194 97.48 46.6607 97.68C47.1274 97.88 47.5274 98.1733 47.8607 98.56C48.194 98.9467 48.3674 99.46 48.3807 100.1C48.3807 100.687 48.2207 101.213 47.9007 101.68C47.5807 102.133 47.134 102.493 46.5607 102.76C45.9874 103.027 45.3274 103.16 44.5807 103.16ZM56.216 91.88C57.0427 91.88 57.7827 92.0533 58.436 92.4C59.1027 92.7467 59.6227 93.28 59.996 94C60.3827 94.7067 60.576 95.5733 60.576 96.6V103H59.196V96.76C59.196 95.5733 58.896 94.6667 58.296 94.04C57.7093 93.4133 56.9027 93.1 55.876 93.1C54.8227 93.1 53.9827 93.4333 53.356 94.1C52.7293 94.7667 52.416 95.7467 52.416 97.04V103H51.016V88.2H52.416V93.94C52.7627 93.2867 53.2693 92.78 53.936 92.42C54.616 92.06 55.376 91.88 56.216 91.88ZM64.3723 90.02C64.0923 90.02 63.8523 89.92 63.6523 89.72C63.4523 89.52 63.3523 89.2733 63.3523 88.98C63.3523 88.6867 63.4523 88.4467 63.6523 88.26C63.8523 88.06 64.0923 87.96 64.3723 87.96C64.6523 87.96 64.8923 88.06 65.0923 88.26C65.2923 88.4467 65.3923 88.6867 65.3923 88.98C65.3923 89.2733 65.2923 89.52 65.0923 89.72C64.8923 89.92 64.6523 90.02 64.3723 90.02ZM65.0723 92.08V103H63.6723V92.08H65.0723ZM69.6226 94.48C69.9692 93.7467 70.5159 93.14 71.2626 92.66C72.0226 92.1667 72.9226 91.92 73.9626 91.92C74.9492 91.92 75.8359 92.1533 76.6226 92.62C77.4226 93.0733 78.0426 93.7267 78.4826 94.58C78.9359 95.42 79.1626 96.4 79.1626 97.52C79.1626 98.64 78.9359 99.6267 78.4826 100.48C78.0426 101.333 77.4226 101.993 76.6226 102.46C75.8359 102.927 74.9492 103.16 73.9626 103.16C72.9359 103.16 72.0426 102.92 71.2826 102.44C70.5226 101.947 69.9692 101.333 69.6226 100.6V108.16H68.2426V92.08H69.6226V94.48ZM77.7426 97.52C77.7426 96.6133 77.5626 95.8333 77.2026 95.18C76.8559 94.5133 76.3759 94.0067 75.7626 93.66C75.1492 93.3133 74.4559 93.14 73.6826 93.14C72.9359 93.14 72.2492 93.32 71.6226 93.68C71.0092 94.04 70.5226 94.5533 70.1626 95.22C69.8026 95.8867 69.6226 96.66 69.6226 97.54C69.6226 98.42 69.8026 99.1933 70.1626 99.86C70.5226 100.527 71.0092 101.04 71.6226 101.4C72.2492 101.76 72.9359 101.94 73.6826 101.94C74.4559 101.94 75.1492 101.767 75.7626 101.42C76.3759 101.06 76.8559 100.547 77.2026 99.88C77.5626 99.2 77.7426 98.4133 77.7426 97.52ZM89.9187 89.02V90.18H86.0387V103H84.6387V90.18H80.7387V89.02H89.9187ZM96.9093 103.16C95.8826 103.16 94.956 102.933 94.1293 102.48C93.316 102.013 92.6693 101.36 92.1893 100.52C91.7226 99.6667 91.4893 98.6733 91.4893 97.54C91.4893 96.4067 91.7293 95.42 92.2093 94.58C92.6893 93.7267 93.3426 93.0733 94.1693 92.62C94.996 92.1533 95.9226 91.92 96.9493 91.92C97.976 91.92 98.9026 92.1533 99.7293 92.62C100.569 93.0733 101.223 93.7267 101.689 94.58C102.169 95.42 102.409 96.4067 102.409 97.54C102.409 98.66 102.169 99.6467 101.689 100.5C101.209 101.353 100.549 102.013 99.7093 102.48C98.8693 102.933 97.936 103.16 96.9093 103.16ZM96.9093 101.94C97.6293 101.94 98.296 101.78 98.9093 101.46C99.5226 101.127 100.016 100.633 100.389 99.98C100.776 99.3133 100.969 98.5 100.969 97.54C100.969 96.58 100.783 95.7733 100.409 95.12C100.036 94.4533 99.5426 93.96 98.9293 93.64C98.316 93.3067 97.6493 93.14 96.9293 93.14C96.2093 93.14 95.5426 93.3067 94.9293 93.64C94.316 93.96 93.8226 94.4533 93.4493 95.12C93.0893 95.7733 92.9093 96.58 92.9093 97.54C92.9093 98.5 93.0893 99.3133 93.4493 99.98C93.8226 100.633 94.3093 101.127 94.9093 101.46C95.5226 101.78 96.1893 101.94 96.9093 101.94ZM109.741 103.16C108.715 103.16 107.788 102.933 106.961 102.48C106.148 102.013 105.501 101.36 105.021 100.52C104.555 99.6667 104.321 98.6733 104.321 97.54C104.321 96.4067 104.561 95.42 105.041 94.58C105.521 93.7267 106.175 93.0733 107.001 92.62C107.828 92.1533 108.755 91.92 109.781 91.92C110.808 91.92 111.735 92.1533 112.561 92.62C113.401 93.0733 114.055 93.7267 114.521 94.58C115.001 95.42 115.241 96.4067 115.241 97.54C115.241 98.66 115.001 99.6467 114.521 100.5C114.041 101.353 113.381 102.013 112.541 102.48C111.701 102.933 110.768 103.16 109.741 103.16ZM109.741 101.94C110.461 101.94 111.128 101.78 111.741 101.46C112.355 101.127 112.848 100.633 113.221 99.98C113.608 99.3133 113.801 98.5 113.801 97.54C113.801 96.58 113.615 95.7733 113.241 95.12C112.868 94.4533 112.375 93.96 111.761 93.64C111.148 93.3067 110.481 93.14 109.761 93.14C109.041 93.14 108.375 93.3067 107.761 93.64C107.148 93.96 106.655 94.4533 106.281 95.12C105.921 95.7733 105.741 96.58 105.741 97.54C105.741 98.5 105.921 99.3133 106.281 99.98C106.655 100.633 107.141 101.127 107.741 101.46C108.355 101.78 109.021 101.94 109.741 101.94ZM119.193 88.2V103H117.793V88.2H119.193ZM126.124 103.16C124.87 103.16 123.844 102.873 123.044 102.3C122.257 101.713 121.817 100.92 121.724 99.92H123.164C123.23 100.533 123.517 101.033 124.024 101.42C124.544 101.793 125.237 101.98 126.104 101.98C126.864 101.98 127.457 101.8 127.884 101.44C128.324 101.08 128.544 100.633 128.544 100.1C128.544 99.7267 128.424 99.42 128.184 99.18C127.944 98.94 127.637 98.7533 127.264 98.62C126.904 98.4733 126.41 98.32 125.784 98.16C124.97 97.9467 124.31 97.7333 123.804 97.52C123.297 97.3067 122.864 96.9933 122.504 96.58C122.157 96.1533 121.984 95.5867 121.984 94.88C121.984 94.3467 122.144 93.8533 122.464 93.4C122.784 92.9467 123.237 92.5867 123.824 92.32C124.41 92.0533 125.077 91.92 125.824 91.92C126.997 91.92 127.944 92.22 128.664 92.82C129.384 93.4067 129.77 94.22 129.824 95.26H128.424C128.384 94.62 128.13 94.1067 127.664 93.72C127.21 93.32 126.584 93.12 125.784 93.12C125.077 93.12 124.504 93.2867 124.064 93.62C123.624 93.9533 123.404 94.3667 123.404 94.86C123.404 95.2867 123.53 95.64 123.784 95.92C124.05 96.1867 124.377 96.4 124.764 96.56C125.15 96.7067 125.67 96.8733 126.324 97.06C127.11 97.2733 127.737 97.48 128.204 97.68C128.67 97.88 129.07 98.1733 129.404 98.56C129.737 98.9467 129.91 99.46 129.924 100.1C129.924 100.687 129.764 101.213 129.444 101.68C129.124 102.133 128.677 102.493 128.104 102.76C127.53 103.027 126.87 103.16 126.124 103.16Z" fill="#3D4753"/>
<defs>
<clipPath id="clip0_216_581">
<rect width="60" height="64" fill="white" transform="translate(35.5)"/>
</clipPath>
</defs>
</svg>
