<svg width="145" height="110" viewBox="0 0 145 110" fill="none" xmlns="http://www.w3.org/2000/svg">
<g clip-path="url(#clip0_216_571)">
<path d="M71.569 31.2435C71.369 31.2435 71.169 31.1935 70.9941 31.106C70.5817 30.8936 70.3192 30.4687 70.3192 29.9938V3.09935C70.3192 1.38721 71.7064 0 73.4186 0H99.3757C101.088 0 102.475 1.38721 102.475 3.09935V21.6455C102.475 23.2702 101.213 24.6074 99.6131 24.7323C99.5381 24.7448 99.4631 24.7573 99.3882 24.7573H81.2419L72.2938 31.0185C72.0813 31.1685 71.8314 31.2435 71.5815 31.2435H71.569ZM73.4186 2.49948C73.0811 2.49948 72.8187 2.76192 72.8187 3.09935V27.5943L80.1297 22.4828C80.3421 22.3328 80.5921 22.2579 80.842 22.2579H99.2007C99.2007 22.2579 99.3132 22.2579 99.3757 22.2579C99.7131 22.2579 99.9755 21.9954 99.9755 21.658V3.09935C99.9755 2.76192 99.7131 2.49948 99.3757 2.49948H73.4186Z" fill="#3D4753"/>
<path d="M81.7668 19.1835C81.5419 19.1835 81.3294 19.121 81.1295 19.0085C80.7545 18.7836 80.5171 18.3711 80.5171 17.9337V6.81105C80.5171 6.37364 80.7545 5.96123 81.1295 5.73628C81.5044 5.51132 81.9793 5.49882 82.3667 5.71128L92.5646 11.2726C92.9645 11.4976 93.2144 11.91 93.2144 12.3724C93.2144 12.8348 92.9645 13.2472 92.5646 13.4722L82.3667 19.0335C82.1792 19.1335 81.9793 19.1835 81.7668 19.1835ZM83.0166 8.91061V15.8217L89.3528 12.3599L83.0166 8.89812V8.91061Z" fill="#3D4753"/>
<path d="M97.526 50.7144C96.8386 50.7144 96.2762 50.1521 96.2762 49.4647V29.069C96.2762 28.3816 96.8386 27.8192 97.526 27.8192C98.2133 27.8192 98.7757 28.3816 98.7757 29.069V49.4647C98.7757 50.1521 98.2133 50.7144 97.526 50.7144Z" fill="#3D4753"/>
<path d="M47.4614 50.7145C46.7741 50.7145 46.2117 50.1521 46.2117 49.4648V20.7207C46.2117 17.9838 48.4362 15.7593 51.1731 15.7593H66.0075C66.6949 15.7593 67.2573 16.3217 67.2573 17.009C67.2573 17.6964 66.6949 18.2588 66.0075 18.2588H51.1731C49.8109 18.2588 48.7111 19.3585 48.7111 20.7207V49.4648C48.7111 50.1521 48.1488 50.7145 47.4614 50.7145Z" fill="#3D4753"/>
<path d="M95.6889 59.9875H49.3111C45.5494 59.9875 42.5 56.9381 42.5 53.1764C42.5 52.489 43.0624 51.9266 43.7497 51.9266H66.0076C66.695 51.9266 67.2573 52.489 67.2573 53.1764V53.7762H77.7427V53.1764C77.7427 52.489 78.305 51.9266 78.9924 51.9266H101.25C101.938 51.9266 102.5 52.489 102.5 53.1764C102.5 56.9256 99.4506 59.9875 95.6889 59.9875ZM45.1869 54.4261C45.7243 56.2007 47.374 57.488 49.3111 57.488H95.6889C97.626 57.488 99.2757 56.2007 99.8131 54.4261H80.2421V55.026C80.2421 55.7133 79.6798 56.2757 78.9924 56.2757H66.0076C65.3202 56.2757 64.7579 55.7133 64.7579 55.026V54.4261H45.1869Z" fill="#3D4753"/>
<path d="M60.8462 38.667C60.6088 38.667 60.3713 38.6045 60.1588 38.4545C57.8843 36.9423 57.6469 35.6926 57.4594 33.793C57.4344 33.568 57.4094 33.3181 57.3844 33.0556C57.2345 31.8434 57.1595 30.2812 57.8968 28.894C58.5342 27.6943 59.6589 26.782 61.0587 26.3195C62.3959 25.8696 63.9955 25.8571 65.3953 26.3195C66.8325 26.8194 67.9447 27.7318 68.5571 28.9065C69.2819 30.2562 69.2195 31.7559 69.057 33.0556C69.032 33.3056 69.007 33.543 68.982 33.768C68.7945 35.6801 68.5696 36.9298 66.2701 38.4545C65.6952 38.8419 64.9204 38.6795 64.5329 38.1046C64.1455 37.5297 64.308 36.7549 64.8829 36.3675C66.3076 35.4177 66.3451 35.0177 66.495 33.518C66.52 33.2806 66.545 33.0307 66.57 32.7557C66.6825 31.7934 66.7325 30.8186 66.3326 30.0688C66.0201 29.4564 65.3828 28.9565 64.5704 28.6816C63.7081 28.3941 62.6708 28.3941 61.8335 28.6816C61.0462 28.944 60.4088 29.4439 60.0839 30.0563C59.6839 30.8186 59.7339 31.8434 59.8464 32.7432C59.8839 33.0182 59.9089 33.2806 59.9339 33.518C60.0839 35.0177 60.1338 35.4177 61.5336 36.355C62.1084 36.7424 62.2584 37.5172 61.8835 38.0921C61.646 38.4545 61.2461 38.6545 60.8462 38.6545V38.667Z" fill="#3D4753"/>
<path d="M71.569 49.7896C70.8816 49.7896 70.3193 49.2272 70.3193 48.5399V48.2275C70.3193 46.9027 70.8317 45.653 71.769 44.7157L84.1289 32.3558C84.2664 32.2183 84.3413 32.0433 84.3413 31.8559C84.3413 31.6684 84.2664 31.4934 84.1289 31.3685C83.8789 31.1185 83.504 31.0935 83.2291 31.306L68.6071 42.1287C68.6071 42.1287 68.4821 42.2037 68.4197 42.2412C68.3322 42.2787 66.2701 43.3035 63.2207 43.3035C61.1087 43.3035 59.4715 42.8161 58.6342 42.5036L55.4349 44.1033C53.6352 44.9906 53.3353 45.628 53.3353 46.7028V48.5524C53.3353 49.2397 52.7729 49.8021 52.0856 49.8021C51.3982 49.8021 50.8358 49.2397 50.8358 48.5524V46.7028C50.8358 43.9783 52.5105 42.7661 54.3226 41.8663L58.0343 40.0167C58.3842 39.8417 58.7967 39.8417 59.1466 40.0167C59.1466 40.0167 60.7962 40.804 63.2207 40.804C65.3328 40.804 66.8575 40.2041 67.2199 40.0417L81.7419 29.2939C83.0166 28.3441 84.7538 28.4691 85.891 29.5813C86.5034 30.1812 86.8408 30.9935 86.8408 31.8559C86.8408 32.7182 86.5034 33.518 85.891 34.1304L73.5436 46.4778C73.0812 46.9402 72.8187 47.5651 72.8187 48.215V48.5274C72.8187 49.2147 72.2564 49.7771 71.569 49.7771V49.7896Z" fill="#3D4753"/>
</g>
<path d="M12.973 88.0075L7.67297 101.988H6.07297L0.772969 88.0075H2.29297L6.87297 100.468L11.493 88.0075H12.973ZM15.7766 89.0075C15.4966 89.0075 15.2566 88.9075 15.0566 88.7075C14.8566 88.5075 14.7566 88.2609 14.7566 87.9675C14.7566 87.6742 14.8566 87.4342 15.0566 87.2475C15.2566 87.0475 15.4966 86.9475 15.7766 86.9475C16.0566 86.9475 16.2966 87.0475 16.4966 87.2475C16.6966 87.4342 16.7966 87.6742 16.7966 87.9675C16.7966 88.2609 16.6966 88.5075 16.4966 88.7075C16.2966 88.9075 16.0566 89.0075 15.7766 89.0075ZM16.4766 91.0675V101.988H15.0766V91.0675H16.4766ZM19.0069 96.5075C19.0069 95.3875 19.2335 94.4075 19.6869 93.5675C20.1402 92.7142 20.7602 92.0609 21.5469 91.6075C22.3469 91.1409 23.2469 90.9075 24.2469 90.9075C25.2069 90.9075 26.0735 91.1409 26.8469 91.6075C27.6202 92.0742 28.1869 92.6809 28.5469 93.4275V87.1875H29.9469V101.988H28.5469V99.5475C28.2135 100.308 27.6669 100.934 26.9069 101.428C26.1469 101.908 25.2535 102.148 24.2269 102.148C23.2269 102.148 22.3269 101.914 21.5269 101.448C20.7402 100.981 20.1202 100.321 19.6669 99.4675C19.2269 98.6142 19.0069 97.6275 19.0069 96.5075ZM28.5469 96.5275C28.5469 95.6475 28.3669 94.8742 28.0069 94.2075C27.6469 93.5409 27.1535 93.0275 26.5269 92.6675C25.9135 92.3075 25.2335 92.1275 24.4869 92.1275C23.7135 92.1275 23.0202 92.3009 22.4069 92.6475C21.7935 92.9942 21.3069 93.5009 20.9469 94.1675C20.6002 94.8209 20.4269 95.6009 20.4269 96.5075C20.4269 97.4009 20.6002 98.1875 20.9469 98.8675C21.3069 99.5342 21.7935 100.048 22.4069 100.408C23.0202 100.754 23.7135 100.928 24.4869 100.928C25.2335 100.928 25.9135 100.748 26.5269 100.388C27.1535 100.028 27.6469 99.5142 28.0069 98.8475C28.3669 98.1809 28.5469 97.4075 28.5469 96.5275ZM43.023 95.9675C43.023 96.4475 43.0096 96.8142 42.983 97.0675H33.923C33.963 97.8942 34.163 98.6009 34.523 99.1875C34.883 99.7742 35.3563 100.221 35.943 100.528C36.5296 100.821 37.1696 100.968 37.863 100.968C38.7696 100.968 39.5296 100.748 40.143 100.308C40.7696 99.8675 41.183 99.2742 41.383 98.5275H42.863C42.5963 99.5942 42.023 100.468 41.143 101.148C40.2763 101.814 39.183 102.148 37.863 102.148C36.8363 102.148 35.9163 101.921 35.103 101.468C34.2896 101.001 33.6496 100.348 33.183 99.5075C32.7296 98.6542 32.503 97.6609 32.503 96.5275C32.503 95.3942 32.7296 94.4009 33.183 93.5475C33.6363 92.6942 34.2696 92.0409 35.083 91.5875C35.8963 91.1342 36.823 90.9075 37.863 90.9075C38.903 90.9075 39.8096 91.1342 40.583 91.5875C41.3696 92.0409 41.9696 92.6542 42.383 93.4275C42.8096 94.1875 43.023 95.0342 43.023 95.9675ZM41.603 95.9275C41.6163 95.1142 41.4496 94.4209 41.103 93.8475C40.7696 93.2742 40.3096 92.8409 39.723 92.5475C39.1363 92.2542 38.4963 92.1075 37.803 92.1075C36.763 92.1075 35.8763 92.4409 35.143 93.1075C34.4096 93.7742 34.003 94.7142 33.923 95.9275H41.603ZM50.3644 102.148C49.3377 102.148 48.411 101.921 47.5844 101.468C46.771 101.001 46.1244 100.348 45.6444 99.5075C45.1777 98.6542 44.9444 97.6609 44.9444 96.5275C44.9444 95.3942 45.1844 94.4075 45.6644 93.5675C46.1444 92.7142 46.7977 92.0609 47.6244 91.6075C48.451 91.1409 49.3777 90.9075 50.4044 90.9075C51.431 90.9075 52.3577 91.1409 53.1844 91.6075C54.0244 92.0609 54.6777 92.7142 55.1444 93.5675C55.6244 94.4075 55.8644 95.3942 55.8644 96.5275C55.8644 97.6475 55.6244 98.6342 55.1444 99.4875C54.6644 100.341 54.0044 101.001 53.1644 101.468C52.3244 101.921 51.391 102.148 50.3644 102.148ZM50.3644 100.928C51.0844 100.928 51.751 100.768 52.3644 100.448C52.9777 100.114 53.471 99.6209 53.8444 98.9675C54.231 98.3009 54.4244 97.4875 54.4244 96.5275C54.4244 95.5675 54.2377 94.7609 53.8644 94.1075C53.491 93.4409 52.9977 92.9475 52.3844 92.6275C51.771 92.2942 51.1044 92.1275 50.3844 92.1275C49.6644 92.1275 48.9977 92.2942 48.3844 92.6275C47.771 92.9475 47.2777 93.4409 46.9044 94.1075C46.5444 94.7609 46.3644 95.5675 46.3644 96.5275C46.3644 97.4875 46.5444 98.3009 46.9044 98.9675C47.2777 99.6209 47.7644 100.114 48.3644 100.448C48.9777 100.768 49.6444 100.928 50.3644 100.928ZM68.1447 102.128C67.2247 102.128 66.4114 101.968 65.7047 101.648C65.0114 101.328 64.4647 100.881 64.0647 100.308C63.6647 99.7342 63.4514 99.0942 63.4247 98.3875H64.9047C64.9714 99.0675 65.2714 99.6675 65.8047 100.188C66.338 100.694 67.118 100.948 68.1447 100.948C69.0914 100.948 69.838 100.708 70.3847 100.228C70.9447 99.7342 71.2247 99.1142 71.2247 98.3675C71.2247 97.7675 71.0714 97.2875 70.7647 96.9275C70.458 96.5542 70.078 96.2809 69.6247 96.1075C69.1714 95.9209 68.5447 95.7209 67.7447 95.5075C66.8114 95.2542 66.0714 95.0075 65.5247 94.7675C64.978 94.5275 64.5114 94.1542 64.1247 93.6475C63.738 93.1409 63.5447 92.4542 63.5447 91.5875C63.5447 90.8675 63.7314 90.2275 64.1047 89.6675C64.478 89.0942 65.0047 88.6475 65.6847 88.3275C66.3647 88.0075 67.1447 87.8475 68.0247 87.8475C69.318 87.8475 70.358 88.1675 71.1447 88.8075C71.9447 89.4342 72.4047 90.2475 72.5247 91.2475H71.0047C70.9114 90.6742 70.598 90.1675 70.0647 89.7275C69.5314 89.2742 68.8114 89.0475 67.9047 89.0475C67.0647 89.0475 66.3647 89.2742 65.8047 89.7275C65.2447 90.1675 64.9647 90.7742 64.9647 91.5475C64.9647 92.1342 65.118 92.6075 65.4247 92.9675C65.7314 93.3275 66.1114 93.6009 66.5647 93.7875C67.0314 93.9742 67.658 94.1742 68.4447 94.3875C69.3514 94.6409 70.0847 94.8942 70.6447 95.1475C71.2047 95.3875 71.678 95.7609 72.0647 96.2675C72.4514 96.7742 72.6447 97.4542 72.6447 98.3075C72.6447 98.9609 72.4714 99.5809 72.1247 100.168C71.778 100.754 71.2647 101.228 70.5847 101.588C69.9047 101.948 69.0914 102.128 68.1447 102.128ZM77.17 92.2475V99.0275C77.17 99.6942 77.2967 100.154 77.55 100.408C77.8033 100.661 78.25 100.788 78.89 100.788H80.17V101.988H78.67C77.6833 101.988 76.95 101.761 76.47 101.308C75.99 100.841 75.75 100.081 75.75 99.0275V92.2475H74.23V91.0675H75.75V88.3275H77.17V91.0675H80.17V92.2475H77.17ZM83.8789 93.0075C84.1856 92.3275 84.6522 91.8009 85.2789 91.4275C85.9189 91.0542 86.6989 90.8675 87.6189 90.8675V92.3275H87.2389C86.2256 92.3275 85.4122 92.6009 84.7989 93.1475C84.1856 93.6942 83.8789 94.6075 83.8789 95.8875V101.988H82.4789V91.0675H83.8789V93.0075ZM99.605 95.9675C99.605 96.4475 99.5917 96.8142 99.565 97.0675H90.505C90.545 97.8942 90.745 98.6009 91.105 99.1875C91.465 99.7742 91.9383 100.221 92.525 100.528C93.1117 100.821 93.7517 100.968 94.445 100.968C95.3517 100.968 96.1117 100.748 96.725 100.308C97.3517 99.8675 97.765 99.2742 97.965 98.5275H99.445C99.1783 99.5942 98.605 100.468 97.725 101.148C96.8583 101.814 95.765 102.148 94.445 102.148C93.4183 102.148 92.4983 101.921 91.685 101.468C90.8717 101.001 90.2317 100.348 89.765 99.5075C89.3117 98.6542 89.085 97.6609 89.085 96.5275C89.085 95.3942 89.3117 94.4009 89.765 93.5475C90.2183 92.6942 90.8517 92.0409 91.665 91.5875C92.4783 91.1342 93.405 90.9075 94.445 90.9075C95.485 90.9075 96.3917 91.1342 97.165 91.5875C97.9517 92.0409 98.5517 92.6542 98.965 93.4275C99.3917 94.1875 99.605 95.0342 99.605 95.9675ZM98.185 95.9275C98.1983 95.1142 98.0317 94.4209 97.685 93.8475C97.3517 93.2742 96.8917 92.8409 96.305 92.5475C95.7183 92.2542 95.0783 92.1075 94.385 92.1075C93.345 92.1075 92.4583 92.4409 91.725 93.1075C90.9917 93.7742 90.585 94.7142 90.505 95.9275H98.185ZM101.526 96.5075C101.526 95.3875 101.746 94.4075 102.186 93.5675C102.64 92.7142 103.26 92.0609 104.046 91.6075C104.846 91.1409 105.746 90.9075 106.746 90.9075C107.786 90.9075 108.68 91.1475 109.426 91.6275C110.186 92.1075 110.733 92.7209 111.066 93.4675V91.0675H112.466V101.988H111.066V99.5675C110.72 100.314 110.166 100.934 109.406 101.428C108.66 101.908 107.766 102.148 106.726 102.148C105.74 102.148 104.846 101.914 104.046 101.448C103.26 100.981 102.64 100.321 102.186 99.4675C101.746 98.6142 101.526 97.6275 101.526 96.5075ZM111.066 96.5275C111.066 95.6475 110.886 94.8742 110.526 94.2075C110.166 93.5409 109.673 93.0275 109.046 92.6675C108.433 92.3075 107.753 92.1275 107.006 92.1275C106.233 92.1275 105.54 92.3009 104.926 92.6475C104.313 92.9942 103.826 93.5009 103.466 94.1675C103.12 94.8209 102.946 95.6009 102.946 96.5075C102.946 97.4009 103.12 98.1875 103.466 98.8675C103.826 99.5342 104.313 100.048 104.926 100.408C105.54 100.754 106.233 100.928 107.006 100.928C107.753 100.928 108.433 100.748 109.046 100.388C109.673 100.028 110.166 99.5142 110.526 98.8475C110.886 98.1809 111.066 97.4075 111.066 96.5275ZM128.663 90.8675C129.943 90.8675 130.983 91.2742 131.783 92.0875C132.596 92.8875 133.003 94.0542 133.003 95.5875V101.988H131.623V95.7475C131.623 94.5609 131.336 93.6542 130.763 93.0275C130.189 92.4009 129.409 92.0875 128.423 92.0875C127.396 92.0875 126.576 92.4275 125.963 93.1075C125.349 93.7875 125.043 94.7742 125.043 96.0675V101.988H123.663V95.7475C123.663 94.5609 123.376 93.6542 122.803 93.0275C122.229 92.4009 121.443 92.0875 120.443 92.0875C119.416 92.0875 118.596 92.4275 117.983 93.1075C117.369 93.7875 117.063 94.7742 117.063 96.0675V101.988H115.663V91.0675H117.063V92.9475C117.409 92.2675 117.903 91.7542 118.543 91.4075C119.183 91.0475 119.896 90.8675 120.683 90.8675C121.629 90.8675 122.456 91.0942 123.163 91.5475C123.883 92.0009 124.403 92.6675 124.723 93.5475C125.016 92.6809 125.516 92.0209 126.223 91.5675C126.943 91.1009 127.756 90.8675 128.663 90.8675ZM139.872 102.148C138.618 102.148 137.592 101.861 136.792 101.288C136.005 100.701 135.565 99.9075 135.472 98.9075H136.912C136.978 99.5209 137.265 100.021 137.772 100.408C138.292 100.781 138.985 100.968 139.852 100.968C140.612 100.968 141.205 100.788 141.632 100.428C142.072 100.068 142.292 99.6209 142.292 99.0875C142.292 98.7142 142.172 98.4075 141.932 98.1675C141.692 97.9275 141.385 97.7409 141.012 97.6075C140.652 97.4609 140.158 97.3075 139.532 97.1475C138.718 96.9342 138.058 96.7209 137.552 96.5075C137.045 96.2942 136.612 95.9809 136.252 95.5675C135.905 95.1409 135.732 94.5742 135.732 93.8675C135.732 93.3342 135.892 92.8409 136.212 92.3875C136.532 91.9342 136.985 91.5742 137.572 91.3075C138.158 91.0409 138.825 90.9075 139.572 90.9075C140.745 90.9075 141.692 91.2075 142.412 91.8075C143.132 92.3942 143.518 93.2075 143.572 94.2475H142.172C142.132 93.6075 141.878 93.0942 141.412 92.7075C140.958 92.3075 140.332 92.1075 139.532 92.1075C138.825 92.1075 138.252 92.2742 137.812 92.6075C137.372 92.9409 137.152 93.3542 137.152 93.8475C137.152 94.2742 137.278 94.6275 137.532 94.9075C137.798 95.1742 138.125 95.3875 138.512 95.5475C138.898 95.6942 139.418 95.8609 140.072 96.0475C140.858 96.2609 141.485 96.4675 141.952 96.6675C142.418 96.8675 142.818 97.1609 143.152 97.5475C143.485 97.9342 143.658 98.4475 143.672 99.0875C143.672 99.6742 143.512 100.201 143.192 100.668C142.872 101.121 142.425 101.481 141.852 101.748C141.278 102.014 140.618 102.148 139.872 102.148Z" fill="#3D4753"/>
<defs>
<clipPath id="clip0_216_571">
<rect width="60" height="59.9875" fill="white" transform="translate(42.5)"/>
</clipPath>
</defs>
</svg>
