<svg width="193" height="107" viewBox="0 0 193 107" fill="none" xmlns="http://www.w3.org/2000/svg">
<g clip-path="url(#clip0_216_554)">
<mask id="mask0_216_554" style="mask-type:luminance" maskUnits="userSpaceOnUse" x="66" y="0" width="61" height="57">
<path d="M126.5 0H66.5V56.77H126.5V0Z" fill="white"/>
</mask>
<g mask="url(#mask0_216_554)">
<path d="M126.125 50.7246L119.609 36.2533L117.659 37.1343L124.175 51.6056C124.297 51.8775 124.362 52.168 124.362 52.4773C124.362 53.6583 123.397 54.6236 122.216 54.6236H115.784V56.77H122.216C124.578 56.7606 126.5 54.8392 126.5 52.4773C126.5 51.8681 126.378 51.2776 126.125 50.7246Z" fill="#3D4753"/>
<path d="M113.647 54.6331H111.5V56.7799H113.647V54.6331Z" fill="#3D4753"/>
<path d="M68.6375 52.496C68.6375 52.1867 68.7031 51.8868 68.825 51.615L75.35 37.1155L73.4 36.2345L66.875 50.7339C66.6313 51.2869 66.5 51.8774 66.5 52.4866C66.5 54.8485 68.4219 56.7699 70.7844 56.7699H109.353V54.6423H70.7844C69.6031 54.6423 68.6375 53.6769 68.6375 52.496Z" fill="#3D4753"/>
<path d="M96.5 8.56653C92.9562 8.56653 90.0687 11.4533 90.0687 14.9961C90.0687 18.539 92.9562 21.4258 96.5 21.4258C100.044 21.4258 102.931 18.539 102.931 14.9961C102.931 11.4533 100.044 8.56653 96.5 8.56653ZM96.5 19.2794C94.1375 19.2794 92.2156 17.358 92.2156 14.9961C92.2156 12.6342 94.1375 10.7129 96.5 10.7129C98.8625 10.7129 100.784 12.6342 100.784 14.9961C100.784 17.358 98.8625 19.2794 96.5 19.2794Z" fill="#3D4753"/>
<path d="M121.513 7.46055C121.025 6.95443 120.481 6.47643 119.919 6.04529L118.625 7.75111C119.103 8.11664 119.553 8.51966 119.975 8.9508L121.513 7.46055Z" fill="#3D4753"/>
<path d="M111.5 42.3736L111.491 42.3643L111.5 42.3736Z" fill="#3D4753"/>
<path d="M125.412 17.1332C125.412 14.8087 124.831 12.5124 123.725 10.4786L121.841 11.5002C122.778 13.2154 123.275 15.1649 123.275 17.1332C123.275 19.4201 122.619 21.6414 121.381 23.544L111.491 38.4934L105.209 29.0739L109.119 23.1035C109.316 22.7942 109.503 22.4849 109.672 22.1662C110.253 22.3724 110.862 22.4943 111.5 22.4943C114.453 22.4943 116.853 20.0949 116.853 17.1425C116.853 14.1901 114.453 11.7908 111.5 11.7908C111.387 11.7908 111.266 11.8095 111.153 11.8189C110.666 9.58819 109.681 7.54496 108.322 5.80165C110.9 5.08933 113.703 5.24867 116.159 6.30777L117.003 4.3489C113.769 2.95238 110.047 2.87739 106.737 4.06772C104.056 1.54648 100.456 0 96.5 0C92.5437 0 88.9437 1.55586 86.2625 4.06772C84.7344 3.51473 83.1406 3.21481 81.5 3.21481C73.8219 3.21481 67.5687 9.45697 67.5687 17.1332C67.5687 19.8325 68.3469 22.4568 69.8187 24.7156L70.6531 25.9996L72.4531 24.8374L71.6187 23.5534C70.3812 21.6414 69.725 19.4201 69.725 17.1332C69.725 10.6379 75.0125 5.35177 81.5094 5.35177C82.5875 5.35177 83.6562 5.5111 84.6781 5.79228C83.3187 7.53559 82.325 9.57882 81.8469 11.8095C81.7344 11.8095 81.6125 11.7814 81.5 11.7814C78.5469 11.7814 76.1469 14.1808 76.1469 17.1332C76.1469 20.0855 78.5469 22.4849 81.4906 22.4849C82.1187 22.4849 82.7375 22.3631 83.3187 22.1475C83.4969 22.4662 83.675 22.7848 83.8812 23.0941L87.7812 29.0645L81.5 38.5027L77.0093 31.8294L75.2281 33.0291L81.5 42.3549L89.0562 31.014L96.5 42.383L103.934 31.014L111.491 42.3455L123.172 24.6969C124.634 22.4381 125.412 19.8137 125.412 17.1144V17.1332ZM111.5 13.9277C113.272 13.9277 114.716 15.3711 114.716 17.1425C114.716 18.9139 113.272 20.3573 111.5 20.3573C111.181 20.3573 110.862 20.3105 110.562 20.2167C111.181 18.5578 111.5 16.7957 111.5 14.9962C111.5 14.64 111.472 14.2839 111.444 13.9277C111.462 13.9277 111.481 13.9277 111.5 13.9277ZM81.4906 20.3573C79.7187 20.3573 78.275 18.9139 78.275 17.1425C78.275 15.3711 79.7187 13.9277 81.4906 13.9277C81.5093 13.9277 81.5281 13.9277 81.5562 13.9277C81.5281 14.2839 81.5 14.6307 81.5 14.9962C81.5 16.7957 81.8187 18.5578 82.4375 20.2167C82.1375 20.3105 81.8187 20.3573 81.4906 20.3573ZM85.6812 21.9413C84.35 19.8606 83.6469 17.4612 83.6469 14.9868C83.6469 7.90112 89.4125 2.13696 96.5 2.13696C103.587 2.13696 109.353 7.90112 109.353 14.9868C109.353 17.4612 108.65 19.87 107.319 21.9319L96.5 38.4746L85.6812 21.9413Z" fill="#3D4753"/>
<path d="M74.2388 27.584L72.4391 28.7546L73.5386 30.444L75.3382 29.2734L74.2388 27.584Z" fill="#3D4753"/>
<path d="M101.853 50.3403H91.1469V52.4872H101.853V50.3403Z" fill="#3D4753"/>
</g>
</g>
<path d="M15.4221 84.9793V98.7793H14.0221V87.7593L9.10211 98.7793H8.08211L3.16211 87.7993V98.7793H1.76211V84.9793H3.24211L8.58211 96.9393L13.9221 84.9793H15.4221ZM28.058 87.8593V98.7793H26.658V96.8593C26.338 97.5393 25.8447 98.0593 25.178 98.4193C24.5114 98.7793 23.7647 98.9593 22.938 98.9593C21.6314 98.9593 20.5647 98.5593 19.738 97.7593C18.9114 96.946 18.498 95.7726 18.498 94.2393V87.8593H19.878V94.0793C19.878 95.266 20.1714 96.1726 20.758 96.7993C21.358 97.426 22.1714 97.7393 23.198 97.7393C24.2514 97.7393 25.0914 97.406 25.718 96.7393C26.3447 96.0726 26.658 95.0926 26.658 93.7993V87.8593H28.058ZM32.6543 83.9793V98.7793H31.2543V83.9793H32.6543ZM37.6446 89.0393V95.8193C37.6446 96.486 37.7713 96.946 38.0246 97.1993C38.2779 97.4526 38.7246 97.5793 39.3646 97.5793H40.6446V98.7793H39.1446C38.1579 98.7793 37.4246 98.5526 36.9446 98.0993C36.4646 97.6326 36.2246 96.8726 36.2246 95.8193V89.0393H34.7046V87.8593H36.2246V85.1193H37.6446V87.8593H40.6446V89.0393H37.6446ZM43.6535 85.7993C43.3735 85.7993 43.1335 85.6993 42.9335 85.4993C42.7335 85.2993 42.6335 85.0526 42.6335 84.7593C42.6335 84.466 42.7335 84.226 42.9335 84.0393C43.1335 83.8393 43.3735 83.7393 43.6535 83.7393C43.9335 83.7393 44.1735 83.8393 44.3735 84.0393C44.5735 84.226 44.6735 84.466 44.6735 84.7593C44.6735 85.0526 44.5735 85.2993 44.3735 85.4993C44.1735 85.6993 43.9335 85.7993 43.6535 85.7993ZM44.3535 87.8593V98.7793H42.9535V87.8593H44.3535ZM48.9038 90.2593C49.2505 89.526 49.7972 88.9193 50.5438 88.4393C51.3038 87.946 52.2038 87.6993 53.2438 87.6993C54.2305 87.6993 55.1172 87.9326 55.9038 88.3993C56.7038 88.8526 57.3238 89.506 57.7638 90.3593C58.2172 91.1993 58.4438 92.1793 58.4438 93.2993C58.4438 94.4193 58.2172 95.406 57.7638 96.2593C57.3238 97.1126 56.7038 97.7726 55.9038 98.2393C55.1172 98.706 54.2305 98.9393 53.2438 98.9393C52.2172 98.9393 51.3238 98.6993 50.5638 98.2193C49.8038 97.726 49.2505 97.1126 48.9038 96.3793V103.939H47.5238V87.8593H48.9038V90.2593ZM57.0238 93.2993C57.0238 92.3926 56.8438 91.6126 56.4838 90.9593C56.1372 90.2926 55.6572 89.786 55.0438 89.4393C54.4305 89.0926 53.7372 88.9193 52.9638 88.9193C52.2172 88.9193 51.5305 89.0993 50.9038 89.4593C50.2905 89.8193 49.8038 90.3326 49.4438 90.9993C49.0838 91.666 48.9038 92.4393 48.9038 93.3193C48.9038 94.1993 49.0838 94.9726 49.4438 95.6393C49.8038 96.306 50.2905 96.8193 50.9038 97.1793C51.5305 97.5393 52.2172 97.7193 52.9638 97.7193C53.7372 97.7193 54.4305 97.546 55.0438 97.1993C55.6572 96.8393 56.1372 96.326 56.4838 95.6593C56.8438 94.9793 57.0238 94.1926 57.0238 93.2993ZM62.4199 83.9793V98.7793H61.0199V83.9793H62.4199ZM64.9502 93.2993C64.9502 92.1793 65.1702 91.1993 65.6102 90.3593C66.0636 89.506 66.6836 88.8526 67.4702 88.3993C68.2702 87.9326 69.1702 87.6993 70.1702 87.6993C71.2102 87.6993 72.1036 87.9393 72.8502 88.4193C73.6102 88.8993 74.1569 89.5126 74.4902 90.2593V87.8593H75.8902V98.7793H74.4902V96.3593C74.1436 97.106 73.5902 97.726 72.8302 98.2193C72.0836 98.6993 71.1902 98.9393 70.1502 98.9393C69.1636 98.9393 68.2702 98.706 67.4702 98.2393C66.6836 97.7726 66.0636 97.1126 65.6102 96.2593C65.1702 95.406 64.9502 94.4193 64.9502 93.2993ZM74.4902 93.3193C74.4902 92.4393 74.3102 91.666 73.9502 90.9993C73.5902 90.3326 73.0969 89.8193 72.4702 89.4593C71.8569 89.0993 71.1769 88.9193 70.4302 88.9193C69.6569 88.9193 68.9636 89.0926 68.3502 89.4393C67.7369 89.786 67.2502 90.2926 66.8902 90.9593C66.5436 91.6126 66.3702 92.3926 66.3702 93.2993C66.3702 94.1926 66.5436 94.9793 66.8902 95.6593C67.2502 96.326 67.7369 96.8393 68.3502 97.1993C68.9636 97.546 69.6569 97.7193 70.4302 97.7193C71.1769 97.7193 71.8569 97.5393 72.4702 97.1793C73.0969 96.8193 73.5902 96.306 73.9502 95.6393C74.3102 94.9726 74.4902 94.1993 74.4902 93.3193ZM88.0863 87.8593L81.6063 103.919H80.1463L82.2663 98.7193L77.7863 87.8593H79.3263L83.0463 97.1793L86.6463 87.8593H88.0863ZM99.8648 92.7593C99.8648 93.2393 99.8514 93.606 99.8248 93.8593H90.7648C90.8048 94.686 91.0048 95.3926 91.3648 95.9793C91.7248 96.566 92.1981 97.0126 92.7848 97.3193C93.3714 97.6126 94.0114 97.7593 94.7048 97.7593C95.6114 97.7593 96.3714 97.5393 96.9848 97.0993C97.6114 96.6593 98.0248 96.066 98.2248 95.3193H99.7048C99.4381 96.386 98.8648 97.2593 97.9848 97.9393C97.1181 98.606 96.0248 98.9393 94.7048 98.9393C93.6781 98.9393 92.7581 98.7126 91.9448 98.2593C91.1314 97.7926 90.4914 97.1393 90.0248 96.2993C89.5714 95.446 89.3448 94.4526 89.3448 93.3193C89.3448 92.186 89.5714 91.1926 90.0248 90.3393C90.4781 89.486 91.1114 88.8326 91.9248 88.3793C92.7381 87.926 93.6648 87.6993 94.7048 87.6993C95.7448 87.6993 96.6514 87.926 97.4248 88.3793C98.2114 88.8326 98.8114 89.446 99.2248 90.2193C99.6514 90.9793 99.8648 91.826 99.8648 92.7593ZM98.4448 92.7193C98.4581 91.906 98.2914 91.2126 97.9448 90.6393C97.6114 90.066 97.1514 89.6326 96.5648 89.3393C95.9781 89.046 95.3381 88.8993 94.6448 88.8993C93.6048 88.8993 92.7181 89.2326 91.9848 89.8993C91.2514 90.566 90.8448 91.506 90.7648 92.7193H98.4448ZM103.826 89.7993C104.133 89.1193 104.6 88.5926 105.226 88.2193C105.866 87.846 106.646 87.6593 107.566 87.6593V89.1193H107.186C106.173 89.1193 105.36 89.3926 104.746 89.9393C104.133 90.486 103.826 91.3993 103.826 92.6793V98.7793H102.426V87.8593H103.826V89.7993ZM125.701 98.7793H124.301L116.561 87.0193V98.7793H115.161V84.7993H116.561L124.301 96.5393V84.7993H125.701V98.7793ZM138.751 92.7593C138.751 93.2393 138.738 93.606 138.711 93.8593H129.651C129.691 94.686 129.891 95.3926 130.251 95.9793C130.611 96.566 131.085 97.0126 131.671 97.3193C132.258 97.6126 132.898 97.7593 133.591 97.7593C134.498 97.7593 135.258 97.5393 135.871 97.0993C136.498 96.6593 136.911 96.066 137.111 95.3193H138.591C138.325 96.386 137.751 97.2593 136.871 97.9393C136.005 98.606 134.911 98.9393 133.591 98.9393C132.565 98.9393 131.645 98.7126 130.831 98.2593C130.018 97.7926 129.378 97.1393 128.911 96.2993C128.458 95.446 128.231 94.4526 128.231 93.3193C128.231 92.186 128.458 91.1926 128.911 90.3393C129.365 89.486 129.998 88.8326 130.811 88.3793C131.625 87.926 132.551 87.6993 133.591 87.6993C134.631 87.6993 135.538 87.926 136.311 88.3793C137.098 88.8326 137.698 89.446 138.111 90.2193C138.538 90.9793 138.751 91.826 138.751 92.7593ZM137.331 92.7193C137.345 91.906 137.178 91.2126 136.831 90.6393C136.498 90.066 136.038 89.6326 135.451 89.3393C134.865 89.046 134.225 88.8993 133.531 88.8993C132.491 88.8993 131.605 89.2326 130.871 89.8993C130.138 90.566 129.731 91.506 129.651 92.7193H137.331ZM143.133 89.0393V95.8193C143.133 96.486 143.26 96.946 143.513 97.1993C143.766 97.4526 144.213 97.5793 144.853 97.5793H146.133V98.7793H144.633C143.646 98.7793 142.913 98.5526 142.433 98.0993C141.953 97.6326 141.713 96.8726 141.713 95.8193V89.0393H140.193V87.8593H141.713V85.1193H143.133V87.8593H146.133V89.0393H143.133ZM162.842 87.8593L159.422 98.7793H158.022L155.002 89.6193L151.982 98.7793H150.562L147.142 87.8593H148.562L151.282 97.3593L154.342 87.8593H155.742L158.762 97.3793L161.462 87.8593H162.842ZM169.53 98.9393C168.504 98.9393 167.577 98.7126 166.75 98.2593C165.937 97.7926 165.29 97.1393 164.81 96.2993C164.344 95.446 164.11 94.4526 164.11 93.3193C164.11 92.186 164.35 91.1993 164.83 90.3593C165.31 89.506 165.964 88.8526 166.79 88.3993C167.617 87.9326 168.544 87.6993 169.57 87.6993C170.597 87.6993 171.524 87.9326 172.35 88.3993C173.19 88.8526 173.844 89.506 174.31 90.3593C174.79 91.1993 175.03 92.186 175.03 93.3193C175.03 94.4393 174.79 95.426 174.31 96.2793C173.83 97.1326 173.17 97.7926 172.33 98.2593C171.49 98.7126 170.557 98.9393 169.53 98.9393ZM169.53 97.7193C170.25 97.7193 170.917 97.5593 171.53 97.2393C172.144 96.906 172.637 96.4126 173.01 95.7593C173.397 95.0926 173.59 94.2793 173.59 93.3193C173.59 92.3593 173.404 91.5526 173.03 90.8993C172.657 90.2326 172.164 89.7393 171.55 89.4193C170.937 89.086 170.27 88.9193 169.55 88.9193C168.83 88.9193 168.164 89.086 167.55 89.4193C166.937 89.7393 166.444 90.2326 166.07 90.8993C165.71 91.5526 165.53 92.3593 165.53 93.3193C165.53 94.2793 165.71 95.0926 166.07 95.7593C166.444 96.4126 166.93 96.906 167.53 97.2393C168.144 97.5593 168.81 97.7193 169.53 97.7193ZM178.982 89.7993C179.289 89.1193 179.756 88.5926 180.382 88.2193C181.022 87.846 181.802 87.6593 182.722 87.6593V89.1193H182.342C181.329 89.1193 180.516 89.3926 179.902 89.9393C179.289 90.486 178.982 91.3993 178.982 92.6793V98.7793H177.582V87.8593H178.982V89.7993ZM190.729 98.7793L186.229 93.8793V98.7793H184.829V83.9793H186.229V92.7393L190.629 87.8593H192.589L187.409 93.2993L192.629 98.7793H190.729Z" fill="#3D4753"/>
<defs>
<clipPath id="clip0_216_554">
<rect width="60" height="56.7793" fill="white" transform="translate(66.5)"/>
</clipPath>
</defs>
</svg>
