<svg width="153" height="150" viewBox="0 0 153 150" fill="none" xmlns="http://www.w3.org/2000/svg">
<g clip-path="url(#clip0_216_535)">
<path d="M64.088 61.8025C63.3799 61.8025 62.8005 61.2231 62.8005 60.515C62.8005 60.515 62.7747 59.8712 60.6374 58.7896L57.3413 57.1544C56.4786 57.4763 54.7919 57.9785 52.6159 57.9785C49.4743 57.9785 47.3498 56.9356 47.2597 56.8841C46.6288 56.5622 46.3713 55.7896 46.6803 55.1587C47.0022 54.5278 47.7747 54.2703 48.4056 54.5793C48.4056 54.5793 50.1052 55.3905 52.6031 55.3905C55.1009 55.3905 56.7876 54.5793 56.8134 54.5665C57.1739 54.3862 57.5988 54.3862 57.9593 54.5665L61.7833 56.472C62.6717 56.9227 65.3627 58.2746 65.3627 60.4892C65.3627 61.1974 64.7833 61.7768 64.0752 61.7768L64.088 61.8025Z" fill="#3D4753"/>
<path d="M50.1824 54.1545C49.9378 54.1545 49.6932 54.0901 49.4743 53.9356C47.1309 52.3777 46.8863 51.0901 46.6932 49.133C46.6674 48.9013 46.6417 48.6438 46.6159 48.3734C46.4614 47.1245 46.397 45.515 47.1438 44.0858C47.8005 42.8498 48.9593 41.9099 50.4013 41.4206C51.7919 40.9571 53.4271 40.9442 54.8691 41.4206C56.3498 41.9356 57.4957 42.8755 58.1266 44.0858C58.8734 45.4764 58.809 47.0215 58.6545 48.3605C58.6288 48.618 58.603 48.8627 58.5773 49.0944C58.3842 51.0644 58.1524 52.3519 55.7833 53.9227C55.191 54.3219 54.3927 54.1545 53.9936 53.5622C53.5945 52.97 53.7618 52.1717 54.3541 51.7725C55.8219 50.794 55.8606 50.382 56.0151 48.8369C56.0408 48.5923 56.0666 48.3348 56.0923 48.0515C56.2082 47.0601 56.2597 46.0558 55.8477 45.2833C55.5258 44.6652 54.8691 44.1502 54.0451 43.8541C53.1567 43.5579 52.088 43.5579 51.2254 43.8541C50.4142 44.1245 49.7575 44.6395 49.4228 45.2704C49.0108 46.0558 49.0623 47.1116 49.1781 48.0386C49.2168 48.3219 49.2425 48.5923 49.2683 48.8369C49.4228 50.382 49.4743 50.794 50.9163 51.7597C51.5086 52.1588 51.6631 52.9571 51.2769 53.5494C51.0322 53.9227 50.6202 54.1288 50.2082 54.1288L50.1824 54.1545Z" fill="#3D4753"/>
<path d="M67.912 58.9314C67.5773 58.9314 67.2554 58.8026 66.9979 58.558C66.4957 58.0558 66.4957 57.2447 66.9979 56.7425L68.6202 55.1331H65.0537C64.3455 55.1331 63.7661 54.5537 63.7661 53.8455C63.7661 53.1374 64.3455 52.558 65.0537 52.558H71.7361C72.2511 52.558 72.7275 52.867 72.9206 53.3563C73.1266 53.8327 73.0107 54.3863 72.6374 54.7597L68.8133 58.5709C68.5558 58.8155 68.2339 58.9442 67.8992 58.9442L67.912 58.9314Z" fill="#3D4753"/>
<path d="M71.736 55.1202C71.0279 55.1202 70.4485 54.5408 70.4485 53.8326V44.2789C70.4485 43.9313 70.1781 43.6609 69.8304 43.6609H61.2296C60.5214 43.6609 59.942 43.0815 59.942 42.3734C59.942 41.6652 60.5214 41.0858 61.2296 41.0858H69.8304C71.5944 41.0858 73.0236 42.515 73.0236 44.2789V53.8326C73.0236 54.5408 72.4442 55.1202 71.736 55.1202Z" fill="#3D4753"/>
<path d="M97.9506 54.1546C97.706 54.1546 97.4614 54.0902 97.2425 53.9357C94.8991 52.3777 94.6545 51.0902 94.4614 49.1331C94.4356 48.9014 94.4099 48.6438 94.3841 48.3735C94.2296 47.1245 94.1523 45.528 94.912 44.0859C95.5687 42.8499 96.7275 41.9099 98.1695 41.4335C99.5601 40.97 101.195 40.9571 102.637 41.4335C104.118 41.9486 105.264 42.8885 105.895 44.0988C106.642 45.4893 106.577 47.0344 106.423 48.3735C106.397 48.631 106.371 48.8756 106.345 49.1074C106.152 51.0773 105.921 52.3649 103.551 53.9357C102.959 54.3348 102.161 54.1674 101.762 53.5752C101.363 52.9829 101.53 52.1846 102.122 51.7855C103.59 50.8069 103.629 50.3949 103.783 48.837C103.809 48.5923 103.835 48.3348 103.861 48.0516C103.976 47.0601 104.028 46.0559 103.616 45.2833C103.294 44.6524 102.637 44.1374 101.813 43.8541C100.925 43.558 99.8691 43.558 98.9935 43.8541C98.1824 44.1245 97.5257 44.6395 97.191 45.2704C96.779 46.0559 96.8305 47.1117 96.9463 48.0387C96.985 48.322 97.0107 48.5923 97.0365 48.8498C97.191 50.3949 97.2425 50.8069 98.6845 51.7726C99.2768 52.1717 99.4313 52.97 99.0451 53.5623C98.8004 53.9357 98.3884 54.1417 97.9764 54.1417L97.9506 54.1546Z" fill="#3D4753"/>
<path d="M88.9249 61.8025C88.2167 61.8025 87.6373 61.2231 87.6373 60.515C87.6373 58.2875 90.3283 56.9356 91.2167 56.4978L95.0408 54.5922C95.4013 54.412 95.8262 54.412 96.1867 54.5922C96.1867 54.5922 97.8863 55.4034 100.384 55.4034C102.882 55.4034 104.569 54.5922 104.594 54.5794C105.238 54.2704 105.998 54.5279 106.32 55.1588C106.629 55.7897 106.371 56.5622 105.74 56.8841C105.65 56.9227 103.526 57.9785 100.384 57.9785C98.2081 57.9785 96.5215 57.4764 95.6588 57.1545L92.3626 58.8025C90.2253 59.8712 90.1996 60.515 90.1996 60.5279C90.1996 61.236 89.6202 61.8154 88.912 61.8154L88.9249 61.8025Z" fill="#3D4753"/>
<path d="M85.1138 58.9313C84.779 58.9313 84.4571 58.8026 84.1996 58.5579L80.3756 54.7468C80.0022 54.3734 79.8992 53.8197 80.0923 53.3433C80.2855 52.8669 80.7619 52.545 81.2769 52.545H87.9593C88.6674 52.545 89.2468 53.1244 89.2468 53.8326C89.2468 54.5408 88.6674 55.1202 87.9593 55.1202H84.3928L86.0151 56.7296C86.5172 57.2317 86.5172 58.0429 86.0151 58.545C85.7576 58.8026 85.4357 58.9184 85.1009 58.9184L85.1138 58.9313Z" fill="#3D4753"/>
<path d="M81.2898 55.1202C80.5816 55.1202 80.0022 54.5408 80.0022 53.8326V44.2789C80.0022 42.515 81.4314 41.0858 83.1953 41.0858H91.7962C92.5043 41.0858 93.0837 41.6652 93.0837 42.3734C93.0837 43.0815 92.5043 43.6609 91.7962 43.6609H83.1953C82.8477 43.6609 82.5773 43.9313 82.5773 44.2789V53.8326C82.5773 54.5408 81.9979 55.1202 81.2898 55.1202Z" fill="#3D4753"/>
<path d="M77.4657 27.412C77.2725 27.412 77.0665 27.3734 76.8863 27.2704C76.4485 27.0515 76.1781 26.6009 76.1781 26.1245V3.19313C76.1781 1.42918 77.6073 0 79.3712 0H102.303C104.067 0 105.496 1.42918 105.496 3.19313V18.4764C105.496 20.1631 104.182 21.5408 102.534 21.6567C102.457 21.6695 102.38 21.6824 102.303 21.6824H85.5386L78.2382 27.1545C78.0064 27.3219 77.736 27.412 77.4657 27.412ZM79.3712 2.57511C79.0236 2.57511 78.7532 2.84549 78.7532 3.19313V23.5494L84.3412 19.3648C84.5601 19.1974 84.8305 19.1073 85.1137 19.1073H102.122C102.122 19.1073 102.238 19.1073 102.303 19.1073C102.65 19.1073 102.921 18.8369 102.921 18.4893V3.19313C102.921 2.84549 102.65 2.57511 102.303 2.57511H79.3712Z" fill="#3D4753"/>
<path d="M85.1524 12.1932H84.1867C83.4786 12.1932 82.8992 11.6138 82.8992 10.9056C82.8992 10.1974 83.4786 9.61804 84.1867 9.61804H85.1524C85.8605 9.61804 86.4399 10.1974 86.4399 10.9056C86.4399 11.6138 85.8605 12.1932 85.1524 12.1932Z" fill="#3D4753"/>
<path d="M98.0279 12.1932H97.0622C96.3541 12.1932 95.7747 11.6138 95.7747 10.9056C95.7747 10.1974 96.3541 9.61804 97.0622 9.61804H98.0279C98.736 9.61804 99.3154 10.1974 99.3154 10.9056C99.3154 11.6138 98.736 12.1932 98.0279 12.1932Z" fill="#3D4753"/>
<path d="M91.5901 12.1932H90.6245C89.9163 12.1932 89.3369 11.6138 89.3369 10.9056C89.3369 10.1974 89.9163 9.61804 90.6245 9.61804H91.5901C92.2983 9.61804 92.8777 10.1974 92.8777 10.9056C92.8777 11.6138 92.2983 12.1932 91.5901 12.1932Z" fill="#3D4753"/>
<path d="M102.303 39.8369C101.594 39.8369 101.015 39.2575 101.015 38.5494V26.1245C101.015 25.4163 101.594 24.8369 102.303 24.8369C103.011 24.8369 103.59 25.4163 103.59 26.1245V38.5494C103.59 39.2575 103.011 39.8369 102.303 39.8369Z" fill="#3D4753"/>
<path d="M50.7232 39.8369C50.0151 39.8369 49.4357 39.2575 49.4357 38.5493V13.7124C49.4357 10.8927 51.7275 8.60083 54.5473 8.60083H71.7361C72.4443 8.60083 73.0237 9.18023 73.0237 9.88838C73.0237 10.5965 72.4443 11.1759 71.7361 11.1759H54.5473C53.1438 11.1759 52.0108 12.309 52.0108 13.7124V38.5493C52.0108 39.2575 51.4314 39.8369 50.7232 39.8369Z" fill="#3D4753"/>
<path d="M64.5129 30.2832C64.2682 30.2832 64.0236 30.2189 63.8047 30.0643C61.4614 28.5064 61.2167 27.2189 61.0236 25.2618C60.9979 25.03 60.9721 24.7725 60.9464 24.5021C60.7919 23.2532 60.7275 21.6437 61.4743 20.2146C62.1309 18.9785 63.2897 18.0386 64.7318 17.5622C66.1095 17.0987 67.7575 17.0858 69.1996 17.5622C70.6803 18.0772 71.8262 19.0171 72.4571 20.2274C73.2039 21.618 73.1395 23.1631 72.985 24.5021C72.9592 24.7596 72.9335 25.0043 72.9077 25.236C72.7146 27.206 72.4828 28.4935 70.1137 30.0643C69.5215 30.4635 68.7232 30.2961 68.324 29.7038C67.9249 29.1116 68.0923 28.3133 68.6846 27.9141C70.1524 26.9356 70.191 26.5236 70.3455 24.9785C70.3713 24.7339 70.397 24.4764 70.4228 24.1931C70.5386 23.2017 70.5901 22.1974 70.1781 21.4249C69.7404 20.5751 68.8519 20.1631 68.3627 19.9957C67.4743 19.6995 66.4056 19.6995 65.5429 19.9957C64.7318 20.2661 64.0751 20.7811 63.7404 21.412C63.3283 22.1974 63.3798 23.2532 63.4957 24.1802C63.5343 24.4635 63.5601 24.7339 63.5858 24.9785C63.7404 26.5236 63.7919 26.9356 65.2339 27.9013C65.8262 28.3004 65.9807 29.0987 65.5944 29.691C65.3498 30.0643 64.9378 30.2704 64.5258 30.2704L64.5129 30.2832Z" fill="#3D4753"/>
<path d="M78.4184 38.8712C77.7103 38.8712 77.1309 38.2918 77.1309 37.5837C77.1309 36.4764 76.8218 35.8326 74.9678 34.9184L71.6716 33.2704C70.809 33.5923 69.1223 34.0944 66.9463 34.0944C64.7703 34.0944 63.0836 33.5923 62.221 33.2704L58.9248 34.9184C57.0836 35.8455 56.7618 36.4892 56.7618 37.5965C56.7618 38.3047 56.1824 38.8841 55.4742 38.8841C54.766 38.8841 54.1866 38.3047 54.1866 37.5965C54.1866 34.8026 55.912 33.5536 57.766 32.6266L61.5901 30.721C61.9506 30.5408 62.3755 30.5408 62.736 30.721C62.736 30.721 64.4356 31.5322 66.9334 31.5322C69.4313 31.5322 71.118 30.721 71.1309 30.721C71.4914 30.5408 71.9163 30.5408 72.2768 30.721L76.1008 32.6266C77.9678 33.5536 79.6802 34.7897 79.6802 37.5965C79.6802 38.3047 79.1008 38.8841 78.3927 38.8841L78.4184 38.8712Z" fill="#3D4753"/>
</g>
<path d="M6.05836 86.8226C7.60503 86.8226 8.93169 87.1026 10.0384 87.6626C11.145 88.2226 11.9917 89.0293 12.5784 90.0826C13.165 91.1359 13.4584 92.3893 13.4584 93.8426C13.4584 95.2826 13.165 96.5293 12.5784 97.5826C11.9917 98.6226 11.145 99.4226 10.0384 99.9826C8.93169 100.529 7.60503 100.803 6.05836 100.803H1.91836V86.8226H6.05836ZM6.05836 99.6426C8.00503 99.6426 9.48503 99.1359 10.4984 98.1226C11.525 97.0959 12.0384 95.6693 12.0384 93.8426C12.0384 92.0026 11.525 90.5693 10.4984 89.5426C9.48503 88.5026 8.00503 87.9826 6.05836 87.9826H3.31836V99.6426H6.05836ZM16.7395 87.8226C16.4595 87.8226 16.2195 87.7226 16.0195 87.5226C15.8195 87.3226 15.7195 87.0759 15.7195 86.7826C15.7195 86.4893 15.8195 86.2493 16.0195 86.0626C16.2195 85.8626 16.4595 85.7626 16.7395 85.7626C17.0195 85.7626 17.2595 85.8626 17.4595 86.0626C17.6595 86.2493 17.7595 86.4893 17.7595 86.7826C17.7595 87.0759 17.6595 87.3226 17.4595 87.5226C17.2595 87.7226 17.0195 87.8226 16.7395 87.8226ZM17.4395 89.8826V100.803H16.0395V89.8826H17.4395ZM22.0098 91.8226C22.3164 91.1426 22.7831 90.6159 23.4098 90.2426C24.0498 89.8693 24.8298 89.6826 25.7498 89.6826V91.1426H25.3698C24.3564 91.1426 23.5431 91.4159 22.9298 91.9626C22.3164 92.5093 22.0098 93.4226 22.0098 94.7026V100.803H20.6098V89.8826H22.0098V91.8226ZM37.7359 94.7826C37.7359 95.2626 37.7225 95.6293 37.6959 95.8826H28.6359C28.6759 96.7093 28.8759 97.4159 29.2359 98.0026C29.5959 98.5893 30.0692 99.0359 30.6559 99.3426C31.2425 99.6359 31.8825 99.7826 32.5759 99.7826C33.4825 99.7826 34.2425 99.5626 34.8559 99.1226C35.4825 98.6826 35.8959 98.0893 36.0959 97.3426H37.5759C37.3092 98.4093 36.7359 99.2826 35.8559 99.9626C34.9892 100.629 33.8959 100.963 32.5759 100.963C31.5492 100.963 30.6292 100.736 29.8159 100.283C29.0025 99.8159 28.3625 99.1626 27.8959 98.3226C27.4425 97.4693 27.2159 96.4759 27.2159 95.3426C27.2159 94.2093 27.4425 93.2159 27.8959 92.3626C28.3492 91.5093 28.9825 90.8559 29.7959 90.4026C30.6092 89.9493 31.5359 89.7226 32.5759 89.7226C33.6159 89.7226 34.5225 89.9493 35.2959 90.4026C36.0825 90.8559 36.6825 91.4693 37.0959 92.2426C37.5225 93.0026 37.7359 93.8493 37.7359 94.7826ZM36.3159 94.7426C36.3292 93.9293 36.1625 93.2359 35.8159 92.6626C35.4825 92.0893 35.0225 91.6559 34.4359 91.3626C33.8492 91.0693 33.2092 90.9226 32.5159 90.9226C31.4759 90.9226 30.5892 91.2559 29.8559 91.9226C29.1225 92.5893 28.7159 93.5293 28.6359 94.7426H36.3159ZM39.6573 95.3426C39.6573 94.2093 39.8839 93.2226 40.3373 92.3826C40.7906 91.5293 41.4173 90.8759 42.2173 90.4226C43.0173 89.9559 43.9306 89.7226 44.9573 89.7226C46.3039 89.7226 47.4106 90.0559 48.2773 90.7226C49.1573 91.3893 49.7239 92.2959 49.9773 93.4426H48.4773C48.2906 92.6559 47.8839 92.0426 47.2573 91.6026C46.6439 91.1493 45.8773 90.9226 44.9573 90.9226C44.2239 90.9226 43.5639 91.0893 42.9773 91.4226C42.3906 91.7559 41.9239 92.2559 41.5773 92.9226C41.2439 93.5759 41.0773 94.3826 41.0773 95.3426C41.0773 96.3026 41.2439 97.1159 41.5773 97.7826C41.9239 98.4493 42.3906 98.9493 42.9773 99.2826C43.5639 99.6159 44.2239 99.7826 44.9573 99.7826C45.8773 99.7826 46.6439 99.5626 47.2573 99.1226C47.8839 98.6693 48.2906 98.0426 48.4773 97.2426H49.9773C49.7239 98.3626 49.1573 99.2626 48.2773 99.9426C47.3973 100.623 46.2906 100.963 44.9573 100.963C43.9306 100.963 43.0173 100.736 42.2173 100.283C41.4173 99.8159 40.7906 99.1626 40.3373 98.3226C39.8839 97.4693 39.6573 96.4759 39.6573 95.3426ZM54.3829 91.0626V97.8426C54.3829 98.5093 54.5096 98.9693 54.7629 99.2226C55.0162 99.4759 55.4629 99.6026 56.1029 99.6026H57.3829V100.803H55.8829C54.8962 100.803 54.1629 100.576 53.6829 100.123C53.2029 99.6559 52.9629 98.8959 52.9629 97.8426V91.0626H51.4429V89.8826H52.9629V87.1426H54.3829V89.8826H57.3829V91.0626H54.3829ZM78.8401 87.0026V100.803H77.4401V89.7826L72.5201 100.803H71.5001L66.5801 89.8226V100.803H65.1801V87.0026H66.6601L72.0001 98.9626L77.3401 87.0026H78.8401ZM91.896 94.7826C91.896 95.2626 91.8827 95.6293 91.856 95.8826H82.796C82.836 96.7093 83.036 97.4159 83.396 98.0026C83.756 98.5893 84.2293 99.0359 84.816 99.3426C85.4027 99.6359 86.0427 99.7826 86.736 99.7826C87.6427 99.7826 88.4027 99.5626 89.016 99.1226C89.6427 98.6826 90.056 98.0893 90.256 97.3426H91.736C91.4693 98.4093 90.896 99.2826 90.016 99.9626C89.1493 100.629 88.056 100.963 86.736 100.963C85.7093 100.963 84.7893 100.736 83.976 100.283C83.1627 99.8159 82.5227 99.1626 82.056 98.3226C81.6027 97.4693 81.376 96.4759 81.376 95.3426C81.376 94.2093 81.6027 93.2159 82.056 92.3626C82.5093 91.5093 83.1427 90.8559 83.956 90.4026C84.7693 89.9493 85.696 89.7226 86.736 89.7226C87.776 89.7226 88.6827 89.9493 89.456 90.4026C90.2427 90.8559 90.8427 91.4693 91.256 92.2426C91.6827 93.0026 91.896 93.8493 91.896 94.7826ZM90.476 94.7426C90.4893 93.9293 90.3227 93.2359 89.976 92.6626C89.6427 92.0893 89.1827 91.6559 88.596 91.3626C88.0093 91.0693 87.3693 90.9226 86.676 90.9226C85.636 90.9226 84.7493 91.2559 84.016 91.9226C83.2827 92.5893 82.876 93.5293 82.796 94.7426H90.476ZM98.2174 100.963C96.9641 100.963 95.9374 100.676 95.1374 100.103C94.3508 99.5159 93.9108 98.7226 93.8174 97.7226H95.2574C95.3241 98.3359 95.6108 98.8359 96.1174 99.2226C96.6374 99.5959 97.3308 99.7826 98.1974 99.7826C98.9574 99.7826 99.5508 99.6026 99.9774 99.2426C100.417 98.8826 100.637 98.4359 100.637 97.9026C100.637 97.5293 100.517 97.2226 100.277 96.9826C100.037 96.7426 99.7308 96.5559 99.3574 96.4226C98.9974 96.2759 98.5041 96.1226 97.8774 95.9626C97.0641 95.7493 96.4041 95.5359 95.8974 95.3226C95.3908 95.1093 94.9574 94.7959 94.5974 94.3826C94.2508 93.9559 94.0774 93.3893 94.0774 92.6826C94.0774 92.1493 94.2374 91.6559 94.5574 91.2026C94.8774 90.7493 95.3308 90.3893 95.9174 90.1226C96.5041 89.8559 97.1708 89.7226 97.9174 89.7226C99.0908 89.7226 100.037 90.0226 100.757 90.6226C101.477 91.2093 101.864 92.0226 101.917 93.0626H100.517C100.477 92.4226 100.224 91.9093 99.7574 91.5226C99.3041 91.1226 98.6774 90.9226 97.8774 90.9226C97.1708 90.9226 96.5974 91.0893 96.1574 91.4226C95.7174 91.7559 95.4974 92.1693 95.4974 92.6626C95.4974 93.0893 95.6241 93.4426 95.8774 93.7226C96.1441 93.9893 96.4708 94.2026 96.8574 94.3626C97.2441 94.5093 97.7641 94.6759 98.4174 94.8626C99.2041 95.0759 99.8308 95.2826 100.297 95.4826C100.764 95.6826 101.164 95.9759 101.497 96.3626C101.831 96.7493 102.004 97.2626 102.017 97.9026C102.017 98.4893 101.857 99.0159 101.537 99.4826C101.217 99.9359 100.771 100.296 100.197 100.563C99.6241 100.829 98.9641 100.963 98.2174 100.963ZM108.413 100.963C107.159 100.963 106.133 100.676 105.333 100.103C104.546 99.5159 104.106 98.7226 104.013 97.7226H105.453C105.519 98.3359 105.806 98.8359 106.313 99.2226C106.833 99.5959 107.526 99.7826 108.393 99.7826C109.153 99.7826 109.746 99.6026 110.173 99.2426C110.613 98.8826 110.833 98.4359 110.833 97.9026C110.833 97.5293 110.713 97.2226 110.473 96.9826C110.233 96.7426 109.926 96.5559 109.553 96.4226C109.193 96.2759 108.699 96.1226 108.073 95.9626C107.259 95.7493 106.599 95.5359 106.093 95.3226C105.586 95.1093 105.153 94.7959 104.793 94.3826C104.446 93.9559 104.273 93.3893 104.273 92.6826C104.273 92.1493 104.433 91.6559 104.753 91.2026C105.073 90.7493 105.526 90.3893 106.113 90.1226C106.699 89.8559 107.366 89.7226 108.113 89.7226C109.286 89.7226 110.233 90.0226 110.953 90.6226C111.673 91.2093 112.059 92.0226 112.113 93.0626H110.713C110.673 92.4226 110.419 91.9093 109.953 91.5226C109.499 91.1226 108.873 90.9226 108.073 90.9226C107.366 90.9226 106.793 91.0893 106.353 91.4226C105.913 91.7559 105.693 92.1693 105.693 92.6626C105.693 93.0893 105.819 93.4426 106.073 93.7226C106.339 93.9893 106.666 94.2026 107.053 94.3626C107.439 94.5093 107.959 94.6759 108.613 94.8626C109.399 95.0759 110.026 95.2826 110.493 95.4826C110.959 95.6826 111.359 95.9759 111.693 96.3626C112.026 96.7493 112.199 97.2626 112.213 97.9026C112.213 98.4893 112.053 99.0159 111.733 99.4826C111.413 99.9359 110.966 100.296 110.393 100.563C109.819 100.829 109.159 100.963 108.413 100.963ZM114.208 95.3226C114.208 94.2026 114.428 93.2226 114.868 92.3826C115.321 91.5293 115.941 90.8759 116.728 90.4226C117.528 89.9559 118.428 89.7226 119.428 89.7226C120.468 89.7226 121.361 89.9626 122.108 90.4426C122.868 90.9226 123.415 91.5359 123.748 92.2826V89.8826H125.148V100.803H123.748V98.3826C123.401 99.1293 122.848 99.7493 122.088 100.243C121.341 100.723 120.448 100.963 119.408 100.963C118.421 100.963 117.528 100.729 116.728 100.263C115.941 99.7959 115.321 99.1359 114.868 98.2826C114.428 97.4293 114.208 96.4426 114.208 95.3226ZM123.748 95.3426C123.748 94.4626 123.568 93.6893 123.208 93.0226C122.848 92.3559 122.355 91.8426 121.728 91.4826C121.115 91.1226 120.435 90.9426 119.688 90.9426C118.915 90.9426 118.221 91.1159 117.608 91.4626C116.995 91.8093 116.508 92.3159 116.148 92.9826C115.801 93.6359 115.628 94.4159 115.628 95.3226C115.628 96.2159 115.801 97.0026 116.148 97.6826C116.508 98.3493 116.995 98.8626 117.608 99.2226C118.221 99.5693 118.915 99.7426 119.688 99.7426C120.435 99.7426 121.115 99.5626 121.728 99.2026C122.355 98.8426 122.848 98.3293 123.208 97.6626C123.568 96.9959 123.748 96.2226 123.748 95.3426ZM132.924 89.7226C133.951 89.7226 134.844 89.9626 135.604 90.4426C136.364 90.9226 136.911 91.5293 137.244 92.2626V89.8826H138.644V101.083C138.644 102.083 138.424 102.969 137.984 103.743C137.557 104.516 136.957 105.109 136.184 105.523C135.411 105.949 134.531 106.163 133.544 106.163C132.144 106.163 130.977 105.829 130.044 105.163C129.124 104.496 128.551 103.589 128.324 102.443H129.704C129.944 103.203 130.397 103.809 131.064 104.263C131.744 104.716 132.571 104.943 133.544 104.943C134.251 104.943 134.884 104.789 135.444 104.483C136.004 104.189 136.444 103.749 136.764 103.163C137.084 102.576 137.244 101.883 137.244 101.083V98.3826C136.897 99.1293 136.344 99.7493 135.584 100.243C134.837 100.723 133.951 100.963 132.924 100.963C131.924 100.963 131.024 100.729 130.224 100.263C129.437 99.7959 128.817 99.1359 128.364 98.2826C127.924 97.4293 127.704 96.4426 127.704 95.3226C127.704 94.2026 127.924 93.2226 128.364 92.3826C128.817 91.5293 129.437 90.8759 130.224 90.4226C131.024 89.9559 131.924 89.7226 132.924 89.7226ZM137.244 95.3426C137.244 94.4626 137.064 93.6893 136.704 93.0226C136.344 92.3559 135.851 91.8426 135.224 91.4826C134.611 91.1226 133.931 90.9426 133.184 90.9426C132.411 90.9426 131.717 91.1159 131.104 91.4626C130.491 91.8093 130.004 92.3159 129.644 92.9826C129.297 93.6359 129.124 94.4159 129.124 95.3226C129.124 96.2159 129.297 97.0026 129.644 97.6826C130.004 98.3493 130.491 98.8626 131.104 99.2226C131.717 99.5693 132.411 99.7426 133.184 99.7426C133.931 99.7426 134.611 99.5626 135.224 99.2026C135.851 98.8426 136.344 98.3293 136.704 97.6626C137.064 96.9959 137.244 96.2226 137.244 95.3426ZM151.72 94.7826C151.72 95.2626 151.707 95.6293 151.68 95.8826H142.62C142.66 96.7093 142.86 97.4159 143.22 98.0026C143.58 98.5893 144.054 99.0359 144.64 99.3426C145.227 99.6359 145.867 99.7826 146.56 99.7826C147.467 99.7826 148.227 99.5626 148.84 99.1226C149.467 98.6826 149.88 98.0893 150.08 97.3426H151.56C151.294 98.4093 150.72 99.2826 149.84 99.9626C148.974 100.629 147.88 100.963 146.56 100.963C145.534 100.963 144.614 100.736 143.8 100.283C142.987 99.8159 142.347 99.1626 141.88 98.3226C141.427 97.4693 141.2 96.4759 141.2 95.3426C141.2 94.2093 141.427 93.2159 141.88 92.3626C142.334 91.5093 142.967 90.8559 143.78 90.4026C144.594 89.9493 145.52 89.7226 146.56 89.7226C147.6 89.7226 148.507 89.9493 149.28 90.4026C150.067 90.8559 150.667 91.4693 151.08 92.2426C151.507 93.0026 151.72 93.8493 151.72 94.7826ZM150.3 94.7426C150.314 93.9293 150.147 93.2359 149.8 92.6626C149.467 92.0893 149.007 91.6559 148.42 91.3626C147.834 91.0693 147.194 90.9226 146.5 90.9226C145.46 90.9226 144.574 91.2559 143.84 91.9226C143.107 92.5893 142.7 93.5293 142.62 94.7426H150.3Z" fill="#3D4753"/>
<defs>
<clipPath id="clip0_216_535">
<rect width="60" height="61.8026" fill="white" transform="translate(46.5)"/>
</clipPath>
</defs>
</svg>
