<svg width="172" height="105" viewBox="0 0 172 105" fill="none" xmlns="http://www.w3.org/2000/svg">
<g clip-path="url(#clip0_216_521)">
<path d="M115.06 7.50247C115.574 7.50247 116 7.07687 116 6.56219V0.940284C116 0.425602 115.574 0 115.06 0H109.438C108.923 0 108.498 0.425602 108.498 0.940284V2.81095H69.1244V0.940284C69.1244 0.425602 68.6988 0 68.1841 0H62.5622C62.0475 0 61.6219 0.425602 61.6219 0.940284V6.56219C61.6219 7.07687 62.0475 7.50247 62.5622 7.50247H64.4329V31.8806H56.9403C56.4256 31.8806 56 32.3062 56 32.8209V53.4477C56 53.9624 56.4256 54.388 56.9403 54.388H83.189C83.7037 54.388 84.1293 53.9624 84.1293 53.4477V51.577H108.507V53.4477C108.507 53.9624 108.933 54.388 109.448 54.388H115.07C115.584 54.388 116.01 53.9624 116.01 53.4477V47.8258C116.01 47.3111 115.584 46.8855 115.07 46.8855H113.199V7.50247H115.07H115.06ZM110.368 1.88057H114.119V5.63181H110.368V1.87067V1.88057ZM63.5025 1.87067H67.2537V5.62191H63.5025V1.87067ZM82.2488 33.7512V42.0257L77.2306 37.7202C77.0327 37.552 76.7852 37.4629 76.5279 37.4926C76.2705 37.5223 76.0429 37.6509 75.8845 37.8489L70.0251 45.3811L65.1455 39.6899C64.9772 39.4919 64.7298 39.3731 64.4725 39.3633C64.2052 39.3435 63.9578 39.4523 63.7697 39.6305L57.8707 45.5295V33.7215H82.2488V33.7413V33.7512ZM82.2488 52.4975H57.8707V48.192L64.3735 41.6892L68.8472 46.9053L67.8674 48.1821C67.5506 48.5978 67.6199 49.1719 68.0257 49.4985C68.194 49.6272 68.4018 49.6965 68.5998 49.6965C68.8769 49.6965 69.1541 49.5777 69.3421 49.3303L70.807 47.4596L76.7654 39.7987L82.2488 44.5101V52.5173V52.4975ZM114.129 52.4975H110.378V48.7463H114.129V52.4975ZM111.318 46.8756H109.448C108.933 46.8756 108.507 47.3012 108.507 47.8159V49.6866H84.1293V32.811C84.1293 32.2963 83.7037 31.8707 83.189 31.8707H66.3134V7.50247H68.1841C68.6988 7.50247 69.1244 7.07687 69.1244 6.56219V4.69152H108.498V6.56219C108.498 7.07687 108.923 7.50247 109.438 7.50247H111.308V46.8756H111.318Z" fill="#3D4753"/>
<path d="M70.0647 39.3731C70.5794 39.3731 71.005 38.9574 71.005 38.4328C71.005 37.9083 70.5893 37.4926 70.0647 37.4926C69.5401 37.4926 69.1244 37.9083 69.1244 38.4328C69.1244 38.9574 69.5401 39.3731 70.0647 39.3731Z" fill="#3D4753"/>
<path d="M106.983 8.51204C106.874 8.46255 106.746 8.43286 106.627 8.43286H100.065C99.55 8.43286 99.1244 8.85846 99.1244 9.37314C99.1244 9.88783 99.55 10.3134 100.065 10.3134H104.37L86.9403 27.7433V23.4378C86.9403 22.9231 86.5147 22.4975 86 22.4975C85.4853 22.4975 85.0597 22.9231 85.0597 23.4378V30C85.0597 30.1188 85.0894 30.2474 85.1389 30.3563C85.228 30.584 85.416 30.772 85.6437 30.8611C85.7525 30.9106 85.8812 30.9403 86 30.9403H92.5622C93.0768 30.9403 93.5024 30.5147 93.5024 30C93.5024 29.4853 93.0768 29.0597 92.5622 29.0597H88.2567L105.687 11.6298V15.9353C105.687 16.45 106.112 16.8756 106.627 16.8756C107.142 16.8756 107.567 16.45 107.567 15.9353V9.37314C107.567 9.25437 107.537 9.1257 107.488 9.01683C107.399 8.78918 107.211 8.60112 106.983 8.51204Z" fill="#3D4753"/>
</g>
<path d="M6.06852 96.5181C5.14852 96.5181 4.33518 96.3581 3.62852 96.0381C2.93518 95.7181 2.38852 95.2714 1.98852 94.6981C1.58852 94.1248 1.37518 93.4848 1.34852 92.7781H2.82852C2.89518 93.4581 3.19518 94.0581 3.72852 94.5781C4.26185 95.0848 5.04185 95.3381 6.06852 95.3381C7.01518 95.3381 7.76185 95.0981 8.30852 94.6181C8.86852 94.1248 9.14852 93.5048 9.14852 92.7581C9.14852 92.1581 8.99518 91.6781 8.68852 91.3181C8.38185 90.9448 8.00185 90.6714 7.54852 90.4981C7.09518 90.3114 6.46852 90.1114 5.66852 89.8981C4.73518 89.6448 3.99518 89.3981 3.44852 89.1581C2.90185 88.9181 2.43518 88.5448 2.04852 88.0381C1.66185 87.5314 1.46852 86.8448 1.46852 85.9781C1.46852 85.2581 1.65518 84.6181 2.02852 84.0581C2.40185 83.4848 2.92852 83.0381 3.60852 82.7181C4.28852 82.3981 5.06852 82.2381 5.94852 82.2381C7.24185 82.2381 8.28185 82.5581 9.06852 83.1981C9.86852 83.8248 10.3285 84.6381 10.4485 85.6381H8.92852C8.83518 85.0648 8.52185 84.5581 7.98852 84.1181C7.45518 83.6648 6.73518 83.4381 5.82852 83.4381C4.98852 83.4381 4.28852 83.6648 3.72852 84.1181C3.16852 84.5581 2.88852 85.1648 2.88852 85.9381C2.88852 86.5248 3.04185 86.9981 3.34852 87.3581C3.65518 87.7181 4.03518 87.9914 4.48852 88.1781C4.95518 88.3648 5.58185 88.5648 6.36852 88.7781C7.27518 89.0314 8.00852 89.2848 8.56852 89.5381C9.12852 89.7781 9.60185 90.1514 9.98852 90.6581C10.3752 91.1648 10.5685 91.8448 10.5685 92.6981C10.5685 93.3514 10.3952 93.9714 10.0485 94.5581C9.70185 95.1448 9.18852 95.6181 8.50852 95.9781C7.82852 96.3381 7.01518 96.5181 6.06852 96.5181ZM12.6338 90.9181C12.6338 89.7848 12.8605 88.7981 13.3138 87.9581C13.7672 87.1048 14.3938 86.4514 15.1938 85.9981C15.9938 85.5314 16.9072 85.2981 17.9338 85.2981C19.2805 85.2981 20.3872 85.6314 21.2538 86.2981C22.1338 86.9648 22.7005 87.8714 22.9538 89.0181H21.4538C21.2672 88.2314 20.8605 87.6181 20.2338 87.1781C19.6205 86.7248 18.8538 86.4981 17.9338 86.4981C17.2005 86.4981 16.5405 86.6648 15.9538 86.9981C15.3672 87.3314 14.9005 87.8314 14.5538 88.4981C14.2205 89.1514 14.0538 89.9581 14.0538 90.9181C14.0538 91.8781 14.2205 92.6914 14.5538 93.3581C14.9005 94.0248 15.3672 94.5248 15.9538 94.8581C16.5405 95.1914 17.2005 95.3581 17.9338 95.3581C18.8538 95.3581 19.6205 95.1381 20.2338 94.6981C20.8605 94.2448 21.2672 93.6181 21.4538 92.8181H22.9538C22.7005 93.9381 22.1338 94.8381 21.2538 95.5181C20.3738 96.1981 19.2672 96.5381 17.9338 96.5381C16.9072 96.5381 15.9938 96.3114 15.1938 95.8581C14.3938 95.3914 13.7672 94.7381 13.3138 93.8981C12.8605 93.0448 12.6338 92.0514 12.6338 90.9181ZM24.8995 90.8981C24.8995 89.7781 25.1195 88.7981 25.5595 87.9581C26.0128 87.1048 26.6328 86.4514 27.4195 85.9981C28.2195 85.5314 29.1195 85.2981 30.1195 85.2981C31.1595 85.2981 32.0528 85.5381 32.7995 86.0181C33.5595 86.4981 34.1061 87.1114 34.4395 87.8581V85.4581H35.8395V96.3781H34.4395V93.9581C34.0928 94.7048 33.5395 95.3248 32.7795 95.8181C32.0328 96.2981 31.1395 96.5381 30.0995 96.5381C29.1128 96.5381 28.2195 96.3048 27.4195 95.8381C26.6328 95.3714 26.0128 94.7114 25.5595 93.8581C25.1195 93.0048 24.8995 92.0181 24.8995 90.8981ZM34.4395 90.9181C34.4395 90.0381 34.2595 89.2648 33.8995 88.5981C33.5395 87.9314 33.0461 87.4181 32.4195 87.0581C31.8061 86.6981 31.1261 86.5181 30.3795 86.5181C29.6061 86.5181 28.9128 86.6914 28.2995 87.0381C27.6861 87.3848 27.1995 87.8914 26.8395 88.5581C26.4928 89.2114 26.3195 89.9914 26.3195 90.8981C26.3195 91.7914 26.4928 92.5781 26.8395 93.2581C27.1995 93.9248 27.6861 94.4381 28.2995 94.7981C28.9128 95.1448 29.6061 95.3181 30.3795 95.3181C31.1261 95.3181 31.8061 95.1381 32.4195 94.7781C33.0461 94.4181 33.5395 93.9048 33.8995 93.2381C34.2595 92.5714 34.4395 91.7981 34.4395 90.9181ZM40.4355 81.5781V96.3781H39.0355V81.5781H40.4355ZM42.9659 90.8981C42.9659 89.7781 43.1859 88.7981 43.6259 87.9581C44.0792 87.1048 44.6992 86.4514 45.4859 85.9981C46.2859 85.5314 47.1859 85.2981 48.1859 85.2981C49.2259 85.2981 50.1192 85.5381 50.8659 86.0181C51.6259 86.4981 52.1725 87.1114 52.5059 87.8581V85.4581H53.9059V96.3781H52.5059V93.9581C52.1592 94.7048 51.6059 95.3248 50.8459 95.8181C50.0992 96.2981 49.2059 96.5381 48.1659 96.5381C47.1792 96.5381 46.2859 96.3048 45.4859 95.8381C44.6992 95.3714 44.0792 94.7114 43.6259 93.8581C43.1859 93.0048 42.9659 92.0181 42.9659 90.8981ZM52.5059 90.9181C52.5059 90.0381 52.3259 89.2648 51.9659 88.5981C51.6059 87.9314 51.1125 87.4181 50.4859 87.0581C49.8725 86.6981 49.1925 86.5181 48.4459 86.5181C47.6725 86.5181 46.9792 86.6914 46.3659 87.0381C45.7525 87.3848 45.2659 87.8914 44.9059 88.5581C44.5592 89.2114 44.3859 89.9914 44.3859 90.8981C44.3859 91.7914 44.5592 92.5781 44.9059 93.2581C45.2659 93.9248 45.7525 94.4381 46.3659 94.7981C46.9792 95.1448 47.6725 95.3181 48.4459 95.3181C49.1925 95.3181 49.8725 95.1381 50.4859 94.7781C51.1125 94.4181 51.6059 93.9048 51.9659 93.2381C52.3259 92.5714 52.5059 91.7981 52.5059 90.9181ZM58.482 87.8781C58.842 87.1181 59.3953 86.4981 60.142 86.0181C60.902 85.5381 61.7953 85.2981 62.822 85.2981C63.822 85.2981 64.7153 85.5314 65.502 85.9981C66.2886 86.4514 66.902 87.1048 67.342 87.9581C67.7953 88.7981 68.022 89.7781 68.022 90.8981C68.022 92.0181 67.7953 93.0048 67.342 93.8581C66.902 94.7114 66.282 95.3714 65.482 95.8381C64.6953 96.3048 63.8086 96.5381 62.822 96.5381C61.782 96.5381 60.882 96.3048 60.122 95.8381C59.3753 95.3581 58.8286 94.7381 58.482 93.9781V96.3781H57.102V81.5781H58.482V87.8781ZM66.602 90.8981C66.602 89.9914 66.422 89.2114 66.062 88.5581C65.7153 87.8914 65.2353 87.3848 64.622 87.0381C64.0086 86.6914 63.3153 86.5181 62.542 86.5181C61.7953 86.5181 61.1086 86.6981 60.482 87.0581C59.8686 87.4181 59.382 87.9314 59.022 88.5981C58.662 89.2648 58.482 90.0381 58.482 90.9181C58.482 91.7981 58.662 92.5714 59.022 93.2381C59.382 93.9048 59.8686 94.4181 60.482 94.7781C61.1086 95.1381 61.7953 95.3181 62.542 95.3181C63.3153 95.3181 64.0086 95.1448 64.622 94.7981C65.2353 94.4381 65.7153 93.9248 66.062 93.2581C66.422 92.5781 66.602 91.7914 66.602 90.8981ZM71.998 81.5781V96.3781H70.598V81.5781H71.998ZM85.0484 90.3581C85.0484 90.8381 85.035 91.2048 85.0084 91.4581H75.9484C75.9884 92.2848 76.1884 92.9914 76.5484 93.5781C76.9084 94.1648 77.3817 94.6114 77.9684 94.9181C78.555 95.2114 79.195 95.3581 79.8884 95.3581C80.795 95.3581 81.555 95.1381 82.1684 94.6981C82.795 94.2581 83.2084 93.6648 83.4084 92.9181H84.8884C84.6217 93.9848 84.0484 94.8581 83.1684 95.5381C82.3017 96.2048 81.2084 96.5381 79.8884 96.5381C78.8617 96.5381 77.9417 96.3114 77.1284 95.8581C76.315 95.3914 75.675 94.7381 75.2084 93.8981C74.755 93.0448 74.5284 92.0514 74.5284 90.9181C74.5284 89.7848 74.755 88.7914 75.2084 87.9381C75.6617 87.0848 76.295 86.4314 77.1084 85.9781C77.9217 85.5248 78.8484 85.2981 79.8884 85.2981C80.9284 85.2981 81.835 85.5248 82.6084 85.9781C83.395 86.4314 83.995 87.0448 84.4084 87.8181C84.835 88.5781 85.0484 89.4248 85.0484 90.3581ZM83.6284 90.3181C83.6417 89.5048 83.475 88.8114 83.1284 88.2381C82.795 87.6648 82.335 87.2314 81.7484 86.9381C81.1617 86.6448 80.5217 86.4981 79.8284 86.4981C78.7884 86.4981 77.9017 86.8314 77.1684 87.4981C76.435 88.1648 76.0284 89.1048 75.9484 90.3181H83.6284ZM92.458 89.3781C92.458 88.0048 92.758 86.7781 93.358 85.6981C93.958 84.6048 94.778 83.7581 95.818 83.1581C96.858 82.5448 98.018 82.2381 99.298 82.2381C100.858 82.2381 102.191 82.6114 103.298 83.3581C104.418 84.0914 105.231 85.1314 105.738 86.4781H104.098C103.698 85.5314 103.085 84.7914 102.258 84.2581C101.445 83.7248 100.458 83.4581 99.298 83.4581C98.2714 83.4581 97.3447 83.6981 96.518 84.1781C95.7047 84.6581 95.0647 85.3514 94.598 86.2581C94.1314 87.1514 93.898 88.1914 93.898 89.3781C93.898 90.5648 94.1314 91.6048 94.598 92.4981C95.0647 93.3914 95.7047 94.0781 96.518 94.5581C97.3447 95.0381 98.2714 95.2781 99.298 95.2781C100.458 95.2781 101.445 95.0181 102.258 94.4981C103.085 93.9648 103.698 93.2314 104.098 92.2981H105.738C105.231 93.6314 104.418 94.6648 103.298 95.3981C102.178 96.1314 100.845 96.4981 99.298 96.4981C98.018 96.4981 96.858 96.1981 95.818 95.5981C94.778 94.9848 93.958 94.1381 93.358 93.0581C92.758 91.9781 92.458 90.7514 92.458 89.3781ZM113.308 96.5381C112.281 96.5381 111.354 96.3114 110.528 95.8581C109.714 95.3914 109.068 94.7381 108.588 93.8981C108.121 93.0448 107.888 92.0514 107.888 90.9181C107.888 89.7848 108.128 88.7981 108.608 87.9581C109.088 87.1048 109.741 86.4514 110.568 85.9981C111.394 85.5314 112.321 85.2981 113.348 85.2981C114.374 85.2981 115.301 85.5314 116.128 85.9981C116.968 86.4514 117.621 87.1048 118.088 87.9581C118.568 88.7981 118.808 89.7848 118.808 90.9181C118.808 92.0381 118.568 93.0248 118.088 93.8781C117.608 94.7314 116.948 95.3914 116.108 95.8581C115.268 96.3114 114.334 96.5381 113.308 96.5381ZM113.308 95.3181C114.028 95.3181 114.694 95.1581 115.308 94.8381C115.921 94.5048 116.414 94.0114 116.788 93.3581C117.174 92.6914 117.368 91.8781 117.368 90.9181C117.368 89.9581 117.181 89.1514 116.808 88.4981C116.434 87.8314 115.941 87.3381 115.328 87.0181C114.714 86.6848 114.048 86.5181 113.328 86.5181C112.608 86.5181 111.941 86.6848 111.328 87.0181C110.714 87.3381 110.221 87.8314 109.848 88.4981C109.488 89.1514 109.308 89.9581 109.308 90.9181C109.308 91.8781 109.488 92.6914 109.848 93.3581C110.221 94.0114 110.708 94.5048 111.308 94.8381C111.921 95.1581 112.588 95.3181 113.308 95.3181ZM126.48 85.2581C127.786 85.2581 128.853 85.6648 129.68 86.4781C130.506 87.2781 130.92 88.4448 130.92 89.9781V96.3781H129.54V90.1381C129.54 88.9514 129.24 88.0448 128.64 87.4181C128.053 86.7914 127.246 86.4781 126.22 86.4781C125.166 86.4781 124.326 86.8114 123.7 87.4781C123.073 88.1448 122.76 89.1248 122.76 90.4181V96.3781H121.36V85.4581H122.76V87.3181C123.106 86.6514 123.606 86.1448 124.26 85.7981C124.913 85.4381 125.653 85.2581 126.48 85.2581ZM135.836 86.6381V93.4181C135.836 94.0848 135.963 94.5448 136.216 94.7981C136.469 95.0514 136.916 95.1781 137.556 95.1781H138.836V96.3781H137.336C136.349 96.3781 135.616 96.1514 135.136 95.6981C134.656 95.2314 134.416 94.4714 134.416 93.4181V86.6381H132.896V85.4581H134.416V82.7181H135.836V85.4581H138.836V86.6381H135.836ZM151.025 90.3581C151.025 90.8381 151.012 91.2048 150.985 91.4581H141.925C141.965 92.2848 142.165 92.9914 142.525 93.5781C142.885 94.1648 143.358 94.6114 143.945 94.9181C144.532 95.2114 145.172 95.3581 145.865 95.3581C146.772 95.3581 147.532 95.1381 148.145 94.6981C148.772 94.2581 149.185 93.6648 149.385 92.9181H150.865C150.598 93.9848 150.025 94.8581 149.145 95.5381C148.278 96.2048 147.185 96.5381 145.865 96.5381C144.838 96.5381 143.918 96.3114 143.105 95.8581C142.292 95.3914 141.652 94.7381 141.185 93.8981C140.732 93.0448 140.505 92.0514 140.505 90.9181C140.505 89.7848 140.732 88.7914 141.185 87.9381C141.638 87.0848 142.272 86.4314 143.085 85.9781C143.898 85.5248 144.825 85.2981 145.865 85.2981C146.905 85.2981 147.812 85.5248 148.585 85.9781C149.372 86.4314 149.972 87.0448 150.385 87.8181C150.812 88.5781 151.025 89.4248 151.025 90.3581ZM149.605 90.3181C149.618 89.5048 149.452 88.8114 149.105 88.2381C148.772 87.6648 148.312 87.2314 147.725 86.9381C147.138 86.6448 146.498 86.4981 145.805 86.4981C144.765 86.4981 143.878 86.8314 143.145 87.4981C142.412 88.1648 142.005 89.1048 141.925 90.3181H149.605ZM158.706 85.2581C160.013 85.2581 161.08 85.6648 161.906 86.4781C162.733 87.2781 163.146 88.4448 163.146 89.9781V96.3781H161.766V90.1381C161.766 88.9514 161.466 88.0448 160.866 87.4181C160.28 86.7914 159.473 86.4781 158.446 86.4781C157.393 86.4781 156.553 86.8114 155.926 87.4781C155.3 88.1448 154.986 89.1248 154.986 90.4181V96.3781H153.586V85.4581H154.986V87.3181C155.333 86.6514 155.833 86.1448 156.486 85.7981C157.14 85.4381 157.88 85.2581 158.706 85.2581ZM168.063 86.6381V93.4181C168.063 94.0848 168.189 94.5448 168.443 94.7981C168.696 95.0514 169.143 95.1781 169.783 95.1781H171.063V96.3781H169.563C168.576 96.3781 167.843 96.1514 167.363 95.6981C166.883 95.2314 166.643 94.4714 166.643 93.4181V86.6381H165.123V85.4581H166.643V82.7181H168.063V85.4581H171.063V86.6381H168.063Z" fill="#3D4753"/>
<defs>
<clipPath id="clip0_216_521">
<rect width="60" height="54.3781" fill="white" transform="translate(56)"/>
</clipPath>
</defs>
</svg>
