<svg width="153" height="159" viewBox="0 0 153 159" fill="none" xmlns="http://www.w3.org/2000/svg">
<g filter="url(#filter0_d_426_1240)">
<rect x="26" y="5" width="100" height="100" rx="22" fill="url(#paint0_linear_426_1240)"/>
</g>
<path d="M41.7026 151L35.6426 144.54V151H34.2426V137.02H35.6426V143.56L41.7026 137.02H43.4826L36.9426 144L43.5426 151H41.7026ZM44.9698 145.52C44.9698 144.4 45.1898 143.42 45.6298 142.58C46.0831 141.727 46.7031 141.073 47.4898 140.62C48.2898 140.153 49.1898 139.92 50.1898 139.92C51.2298 139.92 52.1231 140.16 52.8698 140.64C53.6298 141.12 54.1764 141.733 54.5098 142.48V140.08H55.9098V151H54.5098V148.58C54.1631 149.327 53.6098 149.947 52.8498 150.44C52.1031 150.92 51.2098 151.16 50.1698 151.16C49.1831 151.16 48.2898 150.927 47.4898 150.46C46.7031 149.993 46.0831 149.333 45.6298 148.48C45.1898 147.627 44.9698 146.64 44.9698 145.52ZM54.5098 145.54C54.5098 144.66 54.3298 143.887 53.9698 143.22C53.6098 142.553 53.1164 142.04 52.4898 141.68C51.8764 141.32 51.1964 141.14 50.4498 141.14C49.6764 141.14 48.9831 141.313 48.3698 141.66C47.7564 142.007 47.2698 142.513 46.9098 143.18C46.5631 143.833 46.3898 144.613 46.3898 145.52C46.3898 146.413 46.5631 147.2 46.9098 147.88C47.2698 148.547 47.7564 149.06 48.3698 149.42C48.9831 149.767 49.6764 149.94 50.4498 149.94C51.1964 149.94 51.8764 149.76 52.4898 149.4C53.1164 149.04 53.6098 148.527 53.9698 147.86C54.3298 147.193 54.5098 146.42 54.5098 145.54ZM60.5059 136.2V151H59.1059V136.2H60.5059ZM73.5562 144.98C73.5562 145.46 73.5428 145.827 73.5162 146.08H64.4562C64.4962 146.907 64.6962 147.613 65.0562 148.2C65.4162 148.787 65.8895 149.233 66.4762 149.54C67.0628 149.833 67.7028 149.98 68.3962 149.98C69.3028 149.98 70.0628 149.76 70.6762 149.32C71.3028 148.88 71.7162 148.287 71.9162 147.54H73.3962C73.1295 148.607 72.5562 149.48 71.6762 150.16C70.8095 150.827 69.7162 151.16 68.3962 151.16C67.3695 151.16 66.4495 150.933 65.6362 150.48C64.8228 150.013 64.1828 149.36 63.7162 148.52C63.2628 147.667 63.0362 146.673 63.0362 145.54C63.0362 144.407 63.2628 143.413 63.7162 142.56C64.1695 141.707 64.8028 141.053 65.6162 140.6C66.4295 140.147 67.3562 139.92 68.3962 139.92C69.4362 139.92 70.3428 140.147 71.1162 140.6C71.9028 141.053 72.5028 141.667 72.9162 142.44C73.3428 143.2 73.5562 144.047 73.5562 144.98ZM72.1362 144.94C72.1495 144.127 71.9828 143.433 71.6362 142.86C71.3028 142.287 70.8428 141.853 70.2562 141.56C69.6695 141.267 69.0295 141.12 68.3362 141.12C67.2962 141.12 66.4095 141.453 65.6762 142.12C64.9428 142.787 64.5362 143.727 64.4562 144.94H72.1362ZM81.2376 139.88C82.5442 139.88 83.6109 140.287 84.4376 141.1C85.2642 141.9 85.6776 143.067 85.6776 144.6V151H84.2976V144.76C84.2976 143.573 83.9976 142.667 83.3976 142.04C82.8109 141.413 82.0042 141.1 80.9776 141.1C79.9242 141.1 79.0842 141.433 78.4576 142.1C77.8309 142.767 77.5176 143.747 77.5176 145.04V151H76.1176V140.08H77.5176V141.94C77.8642 141.273 78.3642 140.767 79.0176 140.42C79.6709 140.06 80.4109 139.88 81.2376 139.88ZM88.1338 145.52C88.1338 144.4 88.3605 143.42 88.8138 142.58C89.2672 141.727 89.8872 141.073 90.6738 140.62C91.4738 140.153 92.3738 139.92 93.3738 139.92C94.3338 139.92 95.2005 140.153 95.9738 140.62C96.7472 141.087 97.3138 141.693 97.6738 142.44V136.2H99.0738V151H97.6738V148.56C97.3405 149.32 96.7938 149.947 96.0338 150.44C95.2738 150.92 94.3805 151.16 93.3538 151.16C92.3538 151.16 91.4538 150.927 90.6538 150.46C89.8672 149.993 89.2472 149.333 88.7938 148.48C88.3538 147.627 88.1338 146.64 88.1338 145.52ZM97.6738 145.54C97.6738 144.66 97.4938 143.887 97.1338 143.22C96.7738 142.553 96.2805 142.04 95.6538 141.68C95.0405 141.32 94.3605 141.14 93.6138 141.14C92.8405 141.14 92.1472 141.313 91.5338 141.66C90.9205 142.007 90.4338 142.513 90.0738 143.18C89.7272 143.833 89.5538 144.613 89.5538 145.52C89.5538 146.413 89.7272 147.2 90.0738 147.88C90.4338 148.547 90.9205 149.06 91.5338 149.42C92.1472 149.767 92.8405 149.94 93.6138 149.94C94.3605 149.94 95.0405 149.76 95.6538 149.4C96.2805 149.04 96.7738 148.527 97.1338 147.86C97.4938 147.193 97.6738 146.42 97.6738 145.54ZM112.15 144.98C112.15 145.46 112.137 145.827 112.11 146.08H103.05C103.09 146.907 103.29 147.613 103.65 148.2C104.01 148.787 104.483 149.233 105.07 149.54C105.657 149.833 106.297 149.98 106.99 149.98C107.897 149.98 108.657 149.76 109.27 149.32C109.897 148.88 110.31 148.287 110.51 147.54H111.99C111.723 148.607 111.15 149.48 110.27 150.16C109.403 150.827 108.31 151.16 106.99 151.16C105.963 151.16 105.043 150.933 104.23 150.48C103.417 150.013 102.777 149.36 102.31 148.52C101.857 147.667 101.63 146.673 101.63 145.54C101.63 144.407 101.857 143.413 102.31 142.56C102.763 141.707 103.397 141.053 104.21 140.6C105.023 140.147 105.95 139.92 106.99 139.92C108.03 139.92 108.937 140.147 109.71 140.6C110.497 141.053 111.097 141.667 111.51 142.44C111.937 143.2 112.15 144.047 112.15 144.98ZM110.73 144.94C110.743 144.127 110.577 143.433 110.23 142.86C109.897 142.287 109.437 141.853 108.85 141.56C108.263 141.267 107.623 141.12 106.93 141.12C105.89 141.12 105.003 141.453 104.27 142.12C103.537 142.787 103.13 143.727 103.05 144.94H110.73ZM116.111 142.02C116.418 141.34 116.885 140.813 117.511 140.44C118.151 140.067 118.931 139.88 119.851 139.88V141.34H119.471C118.458 141.34 117.645 141.613 117.031 142.16C116.418 142.707 116.111 143.62 116.111 144.9V151H114.711V140.08H116.111V142.02Z" fill="#3D4753"/>
<path d="M92.1817 86.7737C100.241 86.7737 106.774 80.2406 106.774 72.1817C106.774 64.1227 100.241 57.5896 92.1817 57.5896C84.1227 57.5896 77.5896 64.1227 77.5896 72.1817C77.5896 80.2406 84.1227 86.7737 92.1817 86.7737Z" stroke="#F5F5F5" stroke-width="3" stroke-linecap="round" stroke-linejoin="round"/>
<path d="M92.1816 63.969V72.1817H100.382" stroke="#F5F5F5" stroke-width="3" stroke-linecap="round" stroke-linejoin="round"/>
<path d="M73.0311 76.7401H52.0597C51.0563 76.7401 50.2388 75.9226 50.2388 74.9192V34.7972C50.2388 33.7939 51.0563 32.9763 52.0597 32.9763H99.4653C100.469 32.9763 101.286 33.7939 101.286 34.7972V54.852" stroke="#F5F5F5" stroke-width="3" stroke-linecap="round" stroke-linejoin="round"/>
<path d="M59.3557 30.2388V35.7139" stroke="#F5F5F5" stroke-width="3" stroke-linecap="round" stroke-linejoin="round"/>
<path d="M67.556 30.2388V35.7139" stroke="#F5F5F5" stroke-width="3" stroke-linecap="round" stroke-linejoin="round"/>
<path d="M75.7687 30.2388V35.7139" stroke="#F5F5F5" stroke-width="3" stroke-linecap="round" stroke-linejoin="round"/>
<path d="M83.969 30.2388V35.7139" stroke="#F5F5F5" stroke-width="3" stroke-linecap="round" stroke-linejoin="round"/>
<path d="M92.1816 30.2388V35.7139" stroke="#F5F5F5" stroke-width="3" stroke-linecap="round" stroke-linejoin="round"/>
<path d="M55.7139 42.9976H95.8235" stroke="#F5F5F5" stroke-width="3" stroke-linecap="square" stroke-linejoin="round"/>
<defs>
<filter id="filter0_d_426_1240" x="21" y="0" width="130" height="130" filterUnits="userSpaceOnUse" color-interpolation-filters="sRGB">
<feFlood flood-opacity="0" result="BackgroundImageFix"/>
<feColorMatrix in="SourceAlpha" type="matrix" values="0 0 0 0 0 0 0 0 0 0 0 0 0 0 0 0 0 0 127 0" result="hardAlpha"/>
<feOffset dx="10" dy="10"/>
<feGaussianBlur stdDeviation="7.5"/>
<feComposite in2="hardAlpha" operator="out"/>
<feColorMatrix type="matrix" values="0 0 0 0 0.239216 0 0 0 0 0.278431 0 0 0 0 0.32549 0 0 0 0.3 0"/>
<feBlend mode="normal" in2="BackgroundImageFix" result="effect1_dropShadow_426_1240"/>
<feBlend mode="normal" in="SourceGraphic" in2="effect1_dropShadow_426_1240" result="shape"/>
</filter>
<linearGradient id="paint0_linear_426_1240" x1="11" y1="-16.5" x2="146" y2="128.5" gradientUnits="userSpaceOnUse">
<stop offset="0.120204" stop-color="#E47A24"/>
<stop offset="0.962154" stop-color="#3D4753"/>
</linearGradient>
</defs>
</svg>
