<svg width="158" height="99" viewBox="0 0 158 99" fill="none" xmlns="http://www.w3.org/2000/svg">
<mask id="mask0_216_502" style="mask-type:luminance" maskUnits="userSpaceOnUse" x="49" y="0" width="54" height="58">
<path d="M103 0H49V57.124H103V0Z" fill="white"/>
</mask>
<g mask="url(#mask0_216_502)">
<path d="M97.5018 35.3813L97.4929 35.3634L97.5018 35.3813Z" fill="#3D4753"/>
<path d="M63.1828 34.4262L57.9256 22.5016L56.9884 23.0282C56.3636 23.3763 55.6407 23.5637 54.8909 23.5637C52.722 23.5637 50.9636 22.0196 50.9636 20.1274C50.9636 18.8599 51.758 17.6907 53.0433 17.0927L71.7871 8.32771L70.957 6.55151L52.2221 15.3165C50.2407 16.2447 49 18.0923 49 20.1274C49 20.8414 49.1517 21.5198 49.4284 22.1446L60.2284 46.699C61.1299 48.7429 63.281 50.0728 65.6909 50.0728C66.7798 50.0728 67.842 49.7961 68.7613 49.2785L69.5379 48.8411L63.1828 34.4262ZM65.6909 48.1003C64.0754 48.1003 62.6026 47.2166 62.0225 45.8956L52.9183 25.2061C53.5342 25.4113 54.2036 25.5274 54.8998 25.5274C55.596 25.5274 56.3101 25.4024 56.9706 25.1793L61.3977 35.2206L62.1742 36.9879L66.9941 47.9128C66.5835 48.0378 66.1461 48.1003 65.6998 48.1003H65.6909Z" fill="#3D4753"/>
<path d="M102.563 27.9104L91.8608 3.59703C91.0485 1.50843 88.8707 0 86.318 0C85.3718 0 84.4704 0.196364 83.6313 0.589091L77.4637 3.49884L78.3028 5.27504L84.4704 2.36529C85.0416 2.09752 85.6664 1.96364 86.318 1.96364C87.9871 1.96364 89.3973 2.87405 89.9685 4.15934V4.17719C90.1381 4.56099 90.2363 4.97157 90.2363 5.4C90.2363 7.01554 88.9242 8.43471 87.1123 8.76496L85.8895 8.9881L90.7451 20.0291L97.4928 35.3633L98.2604 35.2205C101.001 34.7207 102.991 32.4982 102.991 29.9276C102.991 29.2314 102.848 28.5531 102.563 27.9104ZM98.6442 33.0962L93.2353 20.8145H93.2442L88.6475 10.3626C89.9328 9.85389 90.9593 8.94347 91.5752 7.81884L100.769 28.7048C100.938 29.0975 101.027 29.5081 101.027 29.9365C101.027 31.3289 100.063 32.5607 98.6442 33.0962Z" fill="#3D4753"/>
<path d="M74.9233 4.67446L73.2845 5.42615L74.1032 7.21099L75.742 6.4593L74.9233 4.67446Z" fill="#3D4753"/>
<path d="M95.7435 46.1544C95.5917 46.1544 95.4489 46.1901 95.3061 46.208L95.8417 43.6374C96.0291 42.7716 96.1183 41.8791 96.1183 40.9954C96.1183 39.5227 95.8595 38.0678 95.3686 36.6844L93.8334 32.4001C93.4139 31.2308 92.2982 30.4454 91.0575 30.4454C90.3524 30.4454 89.7098 30.7042 89.201 31.1237C88.719 30.1151 87.6926 29.4546 86.5501 29.4546C85.7378 29.4546 84.997 29.7849 84.4704 30.3204C83.9259 29.7849 83.1851 29.4546 82.3818 29.4546C81.6856 29.4546 81.0519 29.7135 80.5431 30.1151L79.2578 26.5181C78.8473 25.3399 77.7316 24.5544 76.482 24.5544C74.8575 24.5544 73.5365 25.8754 73.5365 27.4999C73.5365 27.8391 73.599 28.1693 73.715 28.4996L78.4456 41.2364L74.3845 39.5406C73.956 39.362 73.5097 39.2728 73.0456 39.2728C71.1534 39.2728 69.6093 40.8169 69.6093 42.7092C69.6093 44.173 70.5464 45.485 71.8764 45.9402L81.9712 50.0728C82.7656 50.3941 83.4618 50.9207 83.9884 51.5991L84.3455 52.0543C83.7296 52.6701 83.3636 53.5092 83.3636 54.4106C83.3636 54.9373 83.4886 55.4639 83.7385 55.9458L84.3633 57.124L86.0949 56.2047L85.479 55.0354C85.3808 54.848 85.3273 54.6249 85.3273 54.4106C85.3273 53.9108 85.604 53.4556 86.0413 53.2146L95.1008 48.2787C95.7256 47.9306 96.5825 48.1895 96.9216 48.7964L97.6893 50.2067L99.4119 49.2695L98.6354 47.8503C98.0552 46.806 96.9395 46.1544 95.7435 46.1544ZM93.9316 43.2268L93.1104 47.1273L85.9788 51.01L85.5236 50.4209C84.7828 49.4748 83.8099 48.7339 82.7031 48.2787L72.5547 44.1194C71.9656 43.9141 71.564 43.3518 71.564 42.727C71.564 41.9148 72.2245 41.2543 73.0367 41.2543C73.242 41.2543 73.4294 41.29 73.6169 41.3703L77.6691 43.0573C77.9101 43.1644 78.1689 43.2179 78.4367 43.2179C79.5167 43.2179 80.4003 42.3343 80.4003 41.2543C80.4003 41.0222 80.3557 40.7991 80.2754 40.5759L75.5448 27.8391C75.5091 27.732 75.4912 27.6249 75.4912 27.5088C75.4912 26.9644 75.9286 26.527 76.4731 26.527C76.8926 26.527 77.2674 26.7858 77.4013 27.1786L81.4446 38.4873L83.2922 37.8268L81.4357 32.6232H81.4536C81.4268 32.5429 81.4 32.4358 81.4 32.4001C81.4 31.8556 81.8374 31.4182 82.3818 31.4182C82.8013 31.4182 83.1762 31.6771 83.3101 32.0698L83.801 33.4533C83.801 33.4533 83.801 33.4711 83.8099 33.4801L85.2202 37.452L87.0678 36.7915L85.595 32.65C85.5593 32.5339 85.5593 32.4982 85.5593 32.4001C85.5593 31.8556 85.9967 31.4182 86.5412 31.4182C86.9607 31.4182 87.3355 31.6771 87.4694 32.0698L88.237 34.2209C88.2549 34.2923 88.2727 34.3726 88.2995 34.444H88.3174L89.2992 37.1931H89.3081L91.1557 36.5326L90.1203 33.6407C90.1025 33.5604 90.0846 33.489 90.0846 33.3908C90.0846 32.8463 90.522 32.409 91.0664 32.409C91.4859 32.409 91.8519 32.6678 91.9947 33.0606L93.5299 37.3449C93.9494 38.523 94.1636 39.7458 94.1636 40.9954C94.1636 41.7452 94.0833 42.4949 93.9316 43.2268Z" fill="#3D4753"/>
<path d="M70.3322 27.2233L71.5104 20.4934C71.555 20.2167 71.5818 19.9221 71.5818 19.6365C71.5818 16.932 69.3772 14.7274 66.6727 14.7274C63.9682 14.7274 61.7636 16.932 61.7636 19.6365C61.7636 21.493 62.7901 23.1621 64.4413 24.0101L70.3233 27.2233H70.3322ZM69.5646 20.1631L68.8595 24.1975L65.3696 22.2874L65.3428 22.2696C64.3431 21.7608 63.7272 20.7522 63.7272 19.6365C63.7272 18.012 65.0482 16.6911 66.6727 16.6911H66.6638C68.2882 16.7 69.6092 18.021 69.6092 19.6454C69.6092 19.8239 69.5914 19.9935 69.5646 20.1631Z" fill="#3D4753"/>
<path d="M75.4953 16.35L73.379 18.5623L74.7979 19.9196L76.9142 17.7074L75.4953 16.35Z" fill="#3D4753"/>
<path d="M78.6509 14.7274H78.517L78.6509 16.6911C79.6238 16.6911 80.4182 17.4854 80.4182 18.4583V18.6547H82.3818V18.4583C82.3818 16.3965 80.7127 14.7274 78.6509 14.7274Z" fill="#3D4753"/>
<path d="M80.4182 20.618V21.7694C80.4182 23.1975 81.2125 24.4828 82.4889 25.1255L83.3725 23.3761C82.7656 23.0637 82.3818 22.4478 82.3818 21.7694V20.618H80.4182Z" fill="#3D4753"/>
<path d="M86.8357 24.4383L88.5762 22.6978L87.1838 21.3054L85.4433 23.0459C85.3541 23.1262 85.2648 23.2066 85.1666 23.2691L86.2556 24.9024C86.4608 24.7686 86.6483 24.6168 86.8268 24.4383H86.8357Z" fill="#3D4753"/>
<path d="M71.9066 1.74132L57.8068 8.35815L58.641 10.1358L72.7408 3.51894L71.9066 1.74132Z" fill="#3D4753"/>
<path d="M55.2682 9.54756L51.7115 11.2129L52.5441 12.9912L56.1009 11.3259L55.2682 9.54756Z" fill="#3D4753"/>
</g>
<path d="M10.7509 80.5111C10.7509 81.7111 10.3576 82.6777 9.57094 83.4111C8.78427 84.1444 7.60427 84.5111 6.03094 84.5111H3.21094V90.4711H1.81094V76.4911H6.03094C7.59094 76.4911 8.76427 76.8577 9.55094 77.5911C10.3509 78.3244 10.7509 79.2977 10.7509 80.5111ZM6.03094 83.3111C8.2176 83.3111 9.31094 82.3777 9.31094 80.5111C9.31094 79.5777 9.05094 78.8711 8.53094 78.3911C8.01094 77.9111 7.1776 77.6711 6.03094 77.6711H3.21094V83.3111H6.03094ZM14.5 81.4911C14.8067 80.8111 15.2733 80.2844 15.9 79.9111C16.54 79.5377 17.32 79.3511 18.24 79.3511V80.8111H17.86C16.8467 80.8111 16.0333 81.0844 15.42 81.6311C14.8067 82.1777 14.5 83.0911 14.5 84.3711V90.4711H13.1V79.5511H14.5V81.4911ZM25.1261 90.6311C24.0994 90.6311 23.1728 90.4044 22.3461 89.9511C21.5328 89.4844 20.8861 88.8311 20.4061 87.9911C19.9394 87.1377 19.7061 86.1444 19.7061 85.0111C19.7061 83.8777 19.9461 82.8911 20.4261 82.0511C20.9061 81.1977 21.5594 80.5444 22.3861 80.0911C23.2128 79.6244 24.1394 79.3911 25.1661 79.3911C26.1928 79.3911 27.1194 79.6244 27.9461 80.0911C28.7861 80.5444 29.4394 81.1977 29.9061 82.0511C30.3861 82.8911 30.6261 83.8777 30.6261 85.0111C30.6261 86.1311 30.3861 87.1177 29.9061 87.9711C29.4261 88.8244 28.7661 89.4844 27.9261 89.9511C27.0861 90.4044 26.1528 90.6311 25.1261 90.6311ZM25.1261 89.4111C25.8461 89.4111 26.5128 89.2511 27.1261 88.9311C27.7394 88.5977 28.2328 88.1044 28.6061 87.4511C28.9928 86.7844 29.1861 85.9711 29.1861 85.0111C29.1861 84.0511 28.9994 83.2444 28.6261 82.5911C28.2528 81.9244 27.7594 81.4311 27.1461 81.1111C26.5328 80.7777 25.8661 80.6111 25.1461 80.6111C24.4261 80.6111 23.7594 80.7777 23.1461 81.1111C22.5328 81.4311 22.0394 81.9244 21.6661 82.5911C21.3061 83.2444 21.1261 84.0511 21.1261 85.0111C21.1261 85.9711 21.3061 86.7844 21.6661 87.4511C22.0394 88.1044 22.5261 88.5977 23.1261 88.9311C23.7394 89.2511 24.4061 89.4111 25.1261 89.4111ZM33.9781 77.4911C33.6981 77.4911 33.4581 77.3911 33.2581 77.1911C33.0581 76.9911 32.9581 76.7444 32.9581 76.4511C32.9581 76.1577 33.0581 75.9177 33.2581 75.7311C33.4581 75.5311 33.6981 75.4311 33.9781 75.4311C34.2581 75.4311 34.4915 75.5311 34.6781 75.7311C34.8781 75.9177 34.9781 76.1577 34.9781 76.4511C34.9781 76.7444 34.8781 76.9911 34.6781 77.1911C34.4915 77.3911 34.2581 77.4911 33.9781 77.4911ZM34.6581 93.0511C34.6581 93.9311 34.4381 94.5777 33.9981 94.9911C33.5581 95.4177 32.8981 95.6311 32.0181 95.6311H31.0381V94.4311H31.7981C32.3181 94.4311 32.6915 94.3177 32.9181 94.0911C33.1448 93.8777 33.2581 93.5111 33.2581 92.9911V79.5511H34.6581V93.0511ZM47.7456 84.4511C47.7456 84.9311 47.7323 85.2977 47.7056 85.5511H38.6456C38.6856 86.3777 38.8856 87.0844 39.2456 87.6711C39.6056 88.2577 40.079 88.7044 40.6656 89.0111C41.2523 89.3044 41.8923 89.4511 42.5856 89.4511C43.4923 89.4511 44.2523 89.2311 44.8656 88.7911C45.4923 88.3511 45.9056 87.7577 46.1056 87.0111H47.5856C47.319 88.0777 46.7456 88.9511 45.8656 89.6311C44.999 90.2977 43.9056 90.6311 42.5856 90.6311C41.559 90.6311 40.639 90.4044 39.8256 89.9511C39.0123 89.4844 38.3723 88.8311 37.9056 87.9911C37.4523 87.1377 37.2256 86.1444 37.2256 85.0111C37.2256 83.8777 37.4523 82.8844 37.9056 82.0311C38.359 81.1777 38.9923 80.5244 39.8056 80.0711C40.619 79.6177 41.5456 79.3911 42.5856 79.3911C43.6256 79.3911 44.5323 79.6177 45.3056 80.0711C46.0923 80.5244 46.6923 81.1377 47.1056 81.9111C47.5323 82.6711 47.7456 83.5177 47.7456 84.4511ZM46.3256 84.4111C46.339 83.5977 46.1723 82.9044 45.8256 82.3311C45.4923 81.7577 45.0323 81.3244 44.4456 81.0311C43.859 80.7377 43.219 80.5911 42.5256 80.5911C41.4856 80.5911 40.599 80.9244 39.8656 81.5911C39.1323 82.2577 38.7256 83.1977 38.6456 84.4111H46.3256ZM49.667 85.0111C49.667 83.8777 49.8937 82.8911 50.347 82.0511C50.8004 81.1977 51.427 80.5444 52.227 80.0911C53.027 79.6244 53.9404 79.3911 54.967 79.3911C56.3137 79.3911 57.4204 79.7244 58.287 80.3911C59.167 81.0577 59.7337 81.9644 59.987 83.1111H58.487C58.3004 82.3244 57.8937 81.7111 57.267 81.2711C56.6537 80.8177 55.887 80.5911 54.967 80.5911C54.2337 80.5911 53.5737 80.7577 52.987 81.0911C52.4004 81.4244 51.9337 81.9244 51.587 82.5911C51.2537 83.2444 51.087 84.0511 51.087 85.0111C51.087 85.9711 51.2537 86.7844 51.587 87.4511C51.9337 88.1177 52.4004 88.6177 52.987 88.9511C53.5737 89.2844 54.2337 89.4511 54.967 89.4511C55.887 89.4511 56.6537 89.2311 57.267 88.7911C57.8937 88.3377 58.3004 87.7111 58.487 86.9111H59.987C59.7337 88.0311 59.167 88.9311 58.287 89.6111C57.407 90.2911 56.3004 90.6311 54.967 90.6311C53.9404 90.6311 53.027 90.4044 52.227 89.9511C51.427 89.4844 50.8004 88.8311 50.347 87.9911C49.8937 87.1377 49.667 86.1444 49.667 85.0111ZM64.3927 80.7311V87.5111C64.3927 88.1777 64.5193 88.6377 64.7727 88.8911C65.026 89.1444 65.4727 89.2711 66.1127 89.2711H67.3927V90.4711H65.8927C64.906 90.4711 64.1727 90.2444 63.6927 89.7911C63.2127 89.3244 62.9727 88.5644 62.9727 87.5111V80.7311H61.4527V79.5511H62.9727V76.8111H64.3927V79.5511H67.3927V80.7311H64.3927ZM76.5898 89.3311H81.6098V90.4711H75.1898V76.4911H76.5898V89.3311ZM88.3878 90.6311C87.3611 90.6311 86.4345 90.4044 85.6078 89.9511C84.7945 89.4844 84.1478 88.8311 83.6678 87.9911C83.2011 87.1377 82.9678 86.1444 82.9678 85.0111C82.9678 83.8777 83.2078 82.8911 83.6878 82.0511C84.1678 81.1977 84.8211 80.5444 85.6478 80.0911C86.4745 79.6244 87.4011 79.3911 88.4278 79.3911C89.4545 79.3911 90.3811 79.6244 91.2078 80.0911C92.0478 80.5444 92.7011 81.1977 93.1678 82.0511C93.6478 82.8911 93.8878 83.8777 93.8878 85.0111C93.8878 86.1311 93.6478 87.1177 93.1678 87.9711C92.6878 88.8244 92.0278 89.4844 91.1878 89.9511C90.3478 90.4044 89.4145 90.6311 88.3878 90.6311ZM88.3878 89.4111C89.1078 89.4111 89.7745 89.2511 90.3878 88.9311C91.0011 88.5977 91.4945 88.1044 91.8678 87.4511C92.2545 86.7844 92.4478 85.9711 92.4478 85.0111C92.4478 84.0511 92.2611 83.2444 91.8878 82.5911C91.5145 81.9244 91.0211 81.4311 90.4078 81.1111C89.7945 80.7777 89.1278 80.6111 88.4078 80.6111C87.6878 80.6111 87.0211 80.7777 86.4078 81.1111C85.7945 81.4311 85.3011 81.9244 84.9278 82.5911C84.5678 83.2444 84.3878 84.0511 84.3878 85.0111C84.3878 85.9711 84.5678 86.7844 84.9278 87.4511C85.3011 88.1044 85.7878 88.5977 86.3878 88.9311C87.0011 89.2511 87.6678 89.4111 88.3878 89.4111ZM95.7998 85.0111C95.7998 83.8777 96.0265 82.8911 96.4798 82.0511C96.9332 81.1977 97.5598 80.5444 98.3598 80.0911C99.1598 79.6244 100.073 79.3911 101.1 79.3911C102.447 79.3911 103.553 79.7244 104.42 80.3911C105.3 81.0577 105.867 81.9644 106.12 83.1111H104.62C104.433 82.3244 104.027 81.7111 103.4 81.2711C102.787 80.8177 102.02 80.5911 101.1 80.5911C100.367 80.5911 99.7065 80.7577 99.1198 81.0911C98.5332 81.4244 98.0665 81.9244 97.7198 82.5911C97.3865 83.2444 97.2198 84.0511 97.2198 85.0111C97.2198 85.9711 97.3865 86.7844 97.7198 87.4511C98.0665 88.1177 98.5332 88.6177 99.1198 88.9511C99.7065 89.2844 100.367 89.4511 101.1 89.4511C102.02 89.4511 102.787 89.2311 103.4 88.7911C104.027 88.3377 104.433 87.7111 104.62 86.9111H106.12C105.867 88.0311 105.3 88.9311 104.42 89.6111C103.54 90.2911 102.433 90.6311 101.1 90.6311C100.073 90.6311 99.1598 90.4044 98.3598 89.9511C97.5598 89.4844 96.9332 88.8311 96.4798 87.9911C96.0265 87.1377 95.7998 86.1444 95.7998 85.0111ZM108.065 84.9911C108.065 83.8711 108.285 82.8911 108.725 82.0511C109.179 81.1977 109.799 80.5444 110.585 80.0911C111.385 79.6244 112.285 79.3911 113.285 79.3911C114.325 79.3911 115.219 79.6311 115.965 80.1111C116.725 80.5911 117.272 81.2044 117.605 81.9511V79.5511H119.005V90.4711H117.605V88.0511C117.259 88.7977 116.705 89.4177 115.945 89.9111C115.199 90.3911 114.305 90.6311 113.265 90.6311C112.279 90.6311 111.385 90.3977 110.585 89.9311C109.799 89.4644 109.179 88.8044 108.725 87.9511C108.285 87.0977 108.065 86.1111 108.065 84.9911ZM117.605 85.0111C117.605 84.1311 117.425 83.3577 117.065 82.6911C116.705 82.0244 116.212 81.5111 115.585 81.1511C114.972 80.7911 114.292 80.6111 113.545 80.6111C112.772 80.6111 112.079 80.7844 111.465 81.1311C110.852 81.4777 110.365 81.9844 110.005 82.6511C109.659 83.3044 109.485 84.0844 109.485 84.9911C109.485 85.8844 109.659 86.6711 110.005 87.3511C110.365 88.0177 110.852 88.5311 111.465 88.8911C112.079 89.2377 112.772 89.4111 113.545 89.4111C114.292 89.4111 114.972 89.2311 115.585 88.8711C116.212 88.5111 116.705 87.9977 117.065 87.3311C117.425 86.6644 117.605 85.8911 117.605 85.0111ZM124.022 80.7311V87.5111C124.022 88.1777 124.148 88.6377 124.402 88.8911C124.655 89.1444 125.102 89.2711 125.742 89.2711H127.022V90.4711H125.522C124.535 90.4711 123.802 90.2444 123.322 89.7911C122.842 89.3244 122.602 88.5644 122.602 87.5111V80.7311H121.082V79.5511H122.602V76.8111H124.022V79.5511H127.022V80.7311H124.022ZM130.03 77.4911C129.75 77.4911 129.51 77.3911 129.31 77.1911C129.11 76.9911 129.01 76.7444 129.01 76.4511C129.01 76.1577 129.11 75.9177 129.31 75.7311C129.51 75.5311 129.75 75.4311 130.03 75.4311C130.31 75.4311 130.55 75.5311 130.75 75.7311C130.95 75.9177 131.05 76.1577 131.05 76.4511C131.05 76.7444 130.95 76.9911 130.75 77.1911C130.55 77.3911 130.31 77.4911 130.03 77.4911ZM130.73 79.5511V90.4711H129.33V79.5511H130.73ZM138.681 90.6311C137.654 90.6311 136.727 90.4044 135.901 89.9511C135.087 89.4844 134.441 88.8311 133.961 87.9911C133.494 87.1377 133.261 86.1444 133.261 85.0111C133.261 83.8777 133.501 82.8911 133.981 82.0511C134.461 81.1977 135.114 80.5444 135.941 80.0911C136.767 79.6244 137.694 79.3911 138.721 79.3911C139.747 79.3911 140.674 79.6244 141.501 80.0911C142.341 80.5444 142.994 81.1977 143.461 82.0511C143.941 82.8911 144.181 83.8777 144.181 85.0111C144.181 86.1311 143.941 87.1177 143.461 87.9711C142.981 88.8244 142.321 89.4844 141.481 89.9511C140.641 90.4044 139.707 90.6311 138.681 90.6311ZM138.681 89.4111C139.401 89.4111 140.067 89.2511 140.681 88.9311C141.294 88.5977 141.787 88.1044 142.161 87.4511C142.547 86.7844 142.741 85.9711 142.741 85.0111C142.741 84.0511 142.554 83.2444 142.181 82.5911C141.807 81.9244 141.314 81.4311 140.701 81.1111C140.087 80.7777 139.421 80.6111 138.701 80.6111C137.981 80.6111 137.314 80.7777 136.701 81.1111C136.087 81.4311 135.594 81.9244 135.221 82.5911C134.861 83.2444 134.681 84.0511 134.681 85.0111C134.681 85.9711 134.861 86.7844 135.221 87.4511C135.594 88.1044 136.081 88.5977 136.681 88.9311C137.294 89.2511 137.961 89.4111 138.681 89.4111ZM151.853 79.3511C153.159 79.3511 154.226 79.7577 155.053 80.5711C155.879 81.3711 156.293 82.5377 156.293 84.0711V90.4711H154.913V84.2311C154.913 83.0444 154.613 82.1377 154.013 81.5111C153.426 80.8844 152.619 80.5711 151.593 80.5711C150.539 80.5711 149.699 80.9044 149.073 81.5711C148.446 82.2377 148.133 83.2177 148.133 84.5111V90.4711H146.733V79.5511H148.133V81.4111C148.479 80.7444 148.979 80.2377 149.633 79.8911C150.286 79.5311 151.026 79.3511 151.853 79.3511Z" fill="#3D4753"/>
</svg>
