<svg width="117" height="103" viewBox="0 0 117 103" fill="none" xmlns="http://www.w3.org/2000/svg">
<g clip-path="url(#clip0_216_527)">
<path d="M88.5 40.0036V3.74795C88.5 1.67183 86.8172 0 84.752 0H32.248C30.1828 0 28.5 1.68275 28.5 3.74795V40.0036C28.5 42.0798 30.1828 43.7516 32.248 43.7516H65.3348L81.2226 59.6394C81.7144 60.1311 82.5011 60.1311 82.9928 59.6394L88.1394 54.4928C88.6311 54.0011 88.6311 53.2144 88.1394 52.7226L79.1684 43.7516H84.763C86.8391 43.7516 88.5109 42.0688 88.5109 40.0036H88.5ZM85.4842 53.6077L82.1077 56.9842L78.7313 53.6077L82.1077 50.2313L85.4842 53.6077ZM80.3376 48.4611L76.9611 51.8376L63.3024 38.1788L66.6788 34.8024L80.3376 48.4611ZM62.7123 35.2286C62.1879 34.1359 61.5104 33.1196 60.7018 32.2018H60.7127C61.6197 32.9995 62.6359 33.6769 63.7395 34.2014L62.7123 35.2286ZM76.6552 41.2384L67.553 32.1362C67.0613 31.6445 66.2745 31.6445 65.7828 32.1362C65.4659 32.4531 63.3898 31.4041 61.5541 29.5684C61.0733 29.0985 60.3084 29.0876 59.8167 29.5465L58.123 27.8528L56.3528 29.623L58.0465 31.3167C57.5876 31.8084 57.5985 32.5733 58.0684 33.0541C59.915 34.9007 60.964 36.9659 60.6362 37.2828C60.1445 37.7745 60.1445 38.5613 60.6362 39.053L62.8216 41.2384H32.248C31.5596 41.2384 31.0023 40.6811 31.0023 39.9927V3.74795C31.0023 3.05955 31.5596 2.50228 32.248 2.50228H54.7466V3.74795H62.2425V2.50228H84.7411C85.4295 2.50228 85.9868 3.05955 85.9868 3.74795V40.0036C85.9868 40.692 85.4295 41.2493 84.7411 41.2493H76.6552V41.2384Z" fill="#3D4753"/>
<path d="M46.005 32.4968H34.7502V34.9991H46.005V32.4968Z" fill="#3D4753"/>
<path d="M44.7484 23.7553C49.5781 23.7553 53.5009 19.8325 53.5009 15.0027C53.5009 10.173 49.5781 6.25024 44.7484 6.25024C39.9186 6.25024 35.9958 10.173 35.9958 15.0027C35.9958 19.8325 39.9186 23.7443 44.7484 23.7553ZM45.994 8.88364C49.3705 9.57204 51.5559 12.8611 50.8675 16.2375C50.7036 17.0242 50.3976 17.7782 49.9496 18.4447L45.994 14.4892V8.88364ZM41.2736 9.80151C41.951 9.3535 42.705 9.03662 43.4918 8.88364V15.0137C43.4918 15.3415 43.6229 15.6584 43.8633 15.8988L48.1903 20.2258C45.3166 22.1381 41.4375 21.3513 39.5253 18.4775C37.613 15.6037 38.3998 11.7247 41.2736 9.81244V9.80151Z" fill="#3D4753"/>
<path d="M79.7585 6.25024C78.3817 6.25024 77.2562 7.3648 77.2562 8.75252C77.2562 9.27702 77.431 9.79058 77.737 10.2167L74.3496 17.8328L68.7659 12.2492C68.2742 11.7574 67.4875 11.7574 66.9958 12.2492C66.952 12.2929 66.9083 12.3475 66.8756 12.3912L61.27 20.0292C61.1826 20.0182 61.0952 20.0073 61.0078 20.0073C59.62 20.0073 58.4946 21.1219 58.4836 22.5096C58.4836 23.8973 59.5982 25.0228 60.9859 25.0337C62.3736 25.0337 63.4991 23.9192 63.51 22.5314C63.51 22.1818 63.4445 21.8321 63.3024 21.5152L68.0338 15.0574L73.8797 20.9033C74.3715 21.395 75.1582 21.395 75.6499 20.9033C75.7592 20.794 75.8466 20.6629 75.9122 20.5318L80.0426 11.2439C81.4194 11.1237 82.4246 9.91078 82.3044 8.54491C82.1952 7.23367 81.0806 6.23932 79.7694 6.2721L79.7585 6.25024Z" fill="#3D4753"/>
<path d="M54.7466 27.5032H34.7502V30.0054H54.7466V27.5032Z" fill="#3D4753"/>
</g>
<path d="M18.8276 81.02L14.8676 95H13.3076L9.78758 83.08L6.18758 95L4.66758 95.02L0.787578 81.02H2.28758L5.48758 93.28L9.06758 81.02H10.6276L14.1076 93.28L17.3276 81.02H18.8276ZM26.1691 83.88C26.9958 83.88 27.7358 84.0533 28.3891 84.4C29.0558 84.7467 29.5758 85.28 29.9491 86C30.3358 86.7067 30.5291 87.5733 30.5291 88.6V95H29.1491V88.76C29.1491 87.5733 28.8491 86.6667 28.2491 86.04C27.6625 85.4133 26.8558 85.1 25.8291 85.1C24.7758 85.1 23.9358 85.4333 23.3091 86.1C22.6825 86.7667 22.3691 87.7467 22.3691 89.04V95H20.9691V80.2H22.3691V85.94C22.7158 85.2867 23.2225 84.78 23.8891 84.42C24.5691 84.06 25.3291 83.88 26.1691 83.88ZM34.3254 82.02C34.0454 82.02 33.8054 81.92 33.6054 81.72C33.4054 81.52 33.3054 81.2733 33.3054 80.98C33.3054 80.6867 33.4054 80.4467 33.6054 80.26C33.8054 80.06 34.0454 79.96 34.3254 79.96C34.6054 79.96 34.8454 80.06 35.0454 80.26C35.2454 80.4467 35.3454 80.6867 35.3454 80.98C35.3454 81.2733 35.2454 81.52 35.0454 81.72C34.8454 81.92 34.6054 82.02 34.3254 82.02ZM35.0254 84.08V95H33.6254V84.08H35.0254ZM40.0157 85.26V92.04C40.0157 92.7067 40.1424 93.1667 40.3957 93.42C40.649 93.6733 41.0957 93.8 41.7357 93.8H43.0157V95H41.5157C40.529 95 39.7957 94.7733 39.3157 94.32C38.8357 93.8533 38.5957 93.0933 38.5957 92.04V85.26H37.0757V84.08H38.5957V81.34H40.0157V84.08H43.0157V85.26H40.0157ZM55.2046 88.98C55.2046 89.46 55.1913 89.8267 55.1646 90.08H46.1046C46.1446 90.9067 46.3446 91.6133 46.7046 92.2C47.0646 92.7867 47.5379 93.2333 48.1246 93.54C48.7113 93.8333 49.3513 93.98 50.0446 93.98C50.9513 93.98 51.7113 93.76 52.3246 93.32C52.9513 92.88 53.3646 92.2867 53.5646 91.54H55.0446C54.7779 92.6067 54.2046 93.48 53.3246 94.16C52.4579 94.8267 51.3646 95.16 50.0446 95.16C49.0179 95.16 48.0979 94.9333 47.2846 94.48C46.4713 94.0133 45.8313 93.36 45.3646 92.52C44.9113 91.6667 44.6846 90.6733 44.6846 89.54C44.6846 88.4067 44.9113 87.4133 45.3646 86.56C45.8179 85.7067 46.4513 85.0533 47.2646 84.6C48.0779 84.1467 49.0046 83.92 50.0446 83.92C51.0846 83.92 51.9913 84.1467 52.7646 84.6C53.5513 85.0533 54.1513 85.6667 54.5646 86.44C54.9913 87.2 55.2046 88.0467 55.2046 88.98ZM53.7846 88.94C53.7979 88.1267 53.6313 87.4333 53.2846 86.86C52.9513 86.2867 52.4913 85.8533 51.9046 85.56C51.3179 85.2667 50.6779 85.12 49.9846 85.12C48.9446 85.12 48.0579 85.4533 47.3246 86.12C46.5913 86.7867 46.1846 87.7267 46.1046 88.94H53.7846ZM59.146 86.5C59.506 85.74 60.0593 85.12 60.806 84.64C61.566 84.16 62.4593 83.92 63.486 83.92C64.486 83.92 65.3793 84.1533 66.166 84.62C66.9527 85.0733 67.566 85.7267 68.006 86.58C68.4593 87.42 68.686 88.4 68.686 89.52C68.686 90.64 68.4593 91.6267 68.006 92.48C67.566 93.3333 66.946 93.9933 66.146 94.46C65.3593 94.9267 64.4727 95.16 63.486 95.16C62.446 95.16 61.546 94.9267 60.786 94.46C60.0393 93.98 59.4927 93.36 59.146 92.6V95H57.766V80.2H59.146V86.5ZM67.266 89.52C67.266 88.6133 67.086 87.8333 66.726 87.18C66.3793 86.5133 65.8993 86.0067 65.286 85.66C64.6727 85.3133 63.9793 85.14 63.206 85.14C62.4593 85.14 61.7727 85.32 61.146 85.68C60.5327 86.04 60.046 86.5533 59.686 87.22C59.326 87.8867 59.146 88.66 59.146 89.54C59.146 90.42 59.326 91.1933 59.686 91.86C60.046 92.5267 60.5327 93.04 61.146 93.4C61.7727 93.76 62.4593 93.94 63.206 93.94C63.9793 93.94 64.6727 93.7667 65.286 93.42C65.8993 93.06 66.3793 92.5467 66.726 91.88C67.086 91.2 67.266 90.4133 67.266 89.52ZM76.0421 95.16C75.0154 95.16 74.0888 94.9333 73.2621 94.48C72.4488 94.0133 71.8021 93.36 71.3221 92.52C70.8554 91.6667 70.6221 90.6733 70.6221 89.54C70.6221 88.4067 70.8621 87.42 71.3421 86.58C71.8221 85.7267 72.4754 85.0733 73.3021 84.62C74.1288 84.1533 75.0554 83.92 76.0821 83.92C77.1088 83.92 78.0354 84.1533 78.8621 84.62C79.7021 85.0733 80.3554 85.7267 80.8221 86.58C81.3021 87.42 81.5421 88.4067 81.5421 89.54C81.5421 90.66 81.3021 91.6467 80.8221 92.5C80.3421 93.3533 79.6821 94.0133 78.8421 94.48C78.0021 94.9333 77.0688 95.16 76.0421 95.16ZM76.0421 93.94C76.7621 93.94 77.4288 93.78 78.0421 93.46C78.6554 93.1267 79.1488 92.6333 79.5221 91.98C79.9088 91.3133 80.1021 90.5 80.1021 89.54C80.1021 88.58 79.9154 87.7733 79.5421 87.12C79.1688 86.4533 78.6754 85.96 78.0621 85.64C77.4488 85.3067 76.7821 85.14 76.0621 85.14C75.3421 85.14 74.6754 85.3067 74.0621 85.64C73.4488 85.96 72.9554 86.4533 72.5821 87.12C72.2221 87.7733 72.0421 88.58 72.0421 89.54C72.0421 90.5 72.2221 91.3133 72.5821 91.98C72.9554 92.6333 73.4421 93.1267 74.0421 93.46C74.6554 93.78 75.3221 93.94 76.0421 93.94ZM83.4541 89.52C83.4541 88.4 83.6741 87.42 84.1141 86.58C84.5675 85.7267 85.1875 85.0733 85.9741 84.62C86.7741 84.1533 87.6741 83.92 88.6741 83.92C89.7141 83.92 90.6075 84.16 91.3541 84.64C92.1141 85.12 92.6608 85.7333 92.9941 86.48V84.08H94.3941V95H92.9941V92.58C92.6475 93.3267 92.0941 93.9467 91.3341 94.44C90.5875 94.92 89.6941 95.16 88.6541 95.16C87.6675 95.16 86.7741 94.9267 85.9741 94.46C85.1875 93.9933 84.5675 93.3333 84.1141 92.48C83.6741 91.6267 83.4541 90.64 83.4541 89.52ZM92.9941 89.54C92.9941 88.66 92.8141 87.8867 92.4541 87.22C92.0941 86.5533 91.6008 86.04 90.9741 85.68C90.3608 85.32 89.6808 85.14 88.9341 85.14C88.1608 85.14 87.4675 85.3133 86.8541 85.66C86.2408 86.0067 85.7541 86.5133 85.3941 87.18C85.0475 87.8333 84.8741 88.6133 84.8741 89.52C84.8741 90.4133 85.0475 91.2 85.3941 91.88C85.7541 92.5467 86.2408 93.06 86.8541 93.42C87.4675 93.7667 88.1608 93.94 88.9341 93.94C89.6808 93.94 90.3608 93.76 90.9741 93.4C91.6008 93.04 92.0941 92.5267 92.4541 91.86C92.8141 91.1933 92.9941 90.42 92.9941 89.54ZM98.9902 86.02C99.2969 85.34 99.7636 84.8133 100.39 84.44C101.03 84.0667 101.81 83.88 102.73 83.88V85.34H102.35C101.337 85.34 100.524 85.6133 99.9102 86.16C99.2969 86.7067 98.9902 87.62 98.9902 88.9V95H97.5902V84.08H98.9902V86.02ZM104.196 89.52C104.196 88.4 104.423 87.42 104.876 86.58C105.33 85.7267 105.95 85.0733 106.736 84.62C107.536 84.1533 108.436 83.92 109.436 83.92C110.396 83.92 111.263 84.1533 112.036 84.62C112.81 85.0867 113.376 85.6933 113.736 86.44V80.2H115.136V95H113.736V92.56C113.403 93.32 112.856 93.9467 112.096 94.44C111.336 94.92 110.443 95.16 109.416 95.16C108.416 95.16 107.516 94.9267 106.716 94.46C105.93 93.9933 105.31 93.3333 104.856 92.48C104.416 91.6267 104.196 90.64 104.196 89.52ZM113.736 89.54C113.736 88.66 113.556 87.8867 113.196 87.22C112.836 86.5533 112.343 86.04 111.716 85.68C111.103 85.32 110.423 85.14 109.676 85.14C108.903 85.14 108.21 85.3133 107.596 85.66C106.983 86.0067 106.496 86.5133 106.136 87.18C105.79 87.8333 105.616 88.6133 105.616 89.52C105.616 90.4133 105.79 91.2 106.136 91.88C106.496 92.5467 106.983 93.06 107.596 93.42C108.21 93.7667 108.903 93.94 109.676 93.94C110.423 93.94 111.103 93.76 111.716 93.4C112.343 93.04 112.836 92.5267 113.196 91.86C113.556 91.1933 113.736 90.42 113.736 89.54Z" fill="#3D4753"/>
<defs>
<clipPath id="clip0_216_527">
<rect width="60" height="60" fill="white" transform="translate(28.5)"/>
</clipPath>
</defs>
</svg>
