<svg width="153" height="190" viewBox="0 0 153 190" fill="none" xmlns="http://www.w3.org/2000/svg">
<g filter="url(#filter0_d_710_1502)">
<rect x="26" y="5" width="100" height="100" rx="22" fill="url(#paint0_linear_710_1502)"/>
</g>
<path d="M38.2703 147.68H31.9103L30.6903 151H29.2103L34.3103 137.2H35.8903L40.9703 151H39.4903L38.2703 147.68ZM37.8503 146.52L35.0903 138.96L32.3303 146.52H37.8503ZM42.5772 145.54C42.5772 144.407 42.8039 143.42 43.2572 142.58C43.7105 141.727 44.3372 141.073 45.1372 140.62C45.9372 140.153 46.8505 139.92 47.8772 139.92C49.2239 139.92 50.3305 140.253 51.1972 140.92C52.0772 141.587 52.6439 142.493 52.8972 143.64H51.3972C51.2105 142.853 50.8039 142.24 50.1772 141.8C49.5639 141.347 48.7972 141.12 47.8772 141.12C47.1439 141.12 46.4839 141.287 45.8972 141.62C45.3105 141.953 44.8439 142.453 44.4972 143.12C44.1639 143.773 43.9972 144.58 43.9972 145.54C43.9972 146.5 44.1639 147.313 44.4972 147.98C44.8439 148.647 45.3105 149.147 45.8972 149.48C46.4839 149.813 47.1439 149.98 47.8772 149.98C48.7972 149.98 49.5639 149.76 50.1772 149.32C50.8039 148.867 51.2105 148.24 51.3972 147.44H52.8972C52.6439 148.56 52.0772 149.46 51.1972 150.14C50.3172 150.82 49.2105 151.16 47.8772 151.16C46.8505 151.16 45.9372 150.933 45.1372 150.48C44.3372 150.013 43.7105 149.36 43.2572 148.52C42.8039 147.667 42.5772 146.673 42.5772 145.54ZM54.8428 145.54C54.8428 144.407 55.0695 143.42 55.5228 142.58C55.9761 141.727 56.6028 141.073 57.4028 140.62C58.2028 140.153 59.1161 139.92 60.1428 139.92C61.4895 139.92 62.5961 140.253 63.4628 140.92C64.3428 141.587 64.9095 142.493 65.1628 143.64H63.6628C63.4761 142.853 63.0695 142.24 62.4428 141.8C61.8295 141.347 61.0628 141.12 60.1428 141.12C59.4095 141.12 58.7495 141.287 58.1628 141.62C57.5761 141.953 57.1095 142.453 56.7628 143.12C56.4295 143.773 56.2628 144.58 56.2628 145.54C56.2628 146.5 56.4295 147.313 56.7628 147.98C57.1095 148.647 57.5761 149.147 58.1628 149.48C58.7495 149.813 59.4095 149.98 60.1428 149.98C61.0628 149.98 61.8295 149.76 62.4428 149.32C63.0695 148.867 63.4761 148.24 63.6628 147.44H65.1628C64.9095 148.56 64.3428 149.46 63.4628 150.14C62.5828 150.82 61.4761 151.16 60.1428 151.16C59.1161 151.16 58.2028 150.933 57.4028 150.48C56.6028 150.013 55.9761 149.36 55.5228 148.52C55.0695 147.667 54.8428 146.673 54.8428 145.54ZM77.6284 144.98C77.6284 145.46 77.6151 145.827 77.5884 146.08H68.5284C68.5684 146.907 68.7684 147.613 69.1284 148.2C69.4884 148.787 69.9618 149.233 70.5484 149.54C71.1351 149.833 71.7751 149.98 72.4684 149.98C73.3751 149.98 74.1351 149.76 74.7484 149.32C75.3751 148.88 75.7884 148.287 75.9884 147.54H77.4684C77.2018 148.607 76.6284 149.48 75.7484 150.16C74.8818 150.827 73.7884 151.16 72.4684 151.16C71.4418 151.16 70.5218 150.933 69.7084 150.48C68.8951 150.013 68.2551 149.36 67.7884 148.52C67.3351 147.667 67.1084 146.673 67.1084 145.54C67.1084 144.407 67.3351 143.413 67.7884 142.56C68.2418 141.707 68.8751 141.053 69.6884 140.6C70.5018 140.147 71.4284 139.92 72.4684 139.92C73.5084 139.92 74.4151 140.147 75.1884 140.6C75.9751 141.053 76.5751 141.667 76.9884 142.44C77.4151 143.2 77.6284 144.047 77.6284 144.98ZM76.2084 144.94C76.2218 144.127 76.0551 143.433 75.7084 142.86C75.3751 142.287 74.9151 141.853 74.3284 141.56C73.7418 141.267 73.1018 141.12 72.4084 141.12C71.3684 141.12 70.4818 141.453 69.7484 142.12C69.0151 142.787 68.6084 143.727 68.5284 144.94H76.2084ZM83.9498 151.16C82.6965 151.16 81.6698 150.873 80.8698 150.3C80.0832 149.713 79.6432 148.92 79.5498 147.92H80.9898C81.0565 148.533 81.3432 149.033 81.8498 149.42C82.3698 149.793 83.0632 149.98 83.9298 149.98C84.6898 149.98 85.2832 149.8 85.7098 149.44C86.1498 149.08 86.3698 148.633 86.3698 148.1C86.3698 147.727 86.2498 147.42 86.0098 147.18C85.7698 146.94 85.4632 146.753 85.0898 146.62C84.7298 146.473 84.2365 146.32 83.6098 146.16C82.7965 145.947 82.1365 145.733 81.6298 145.52C81.1232 145.307 80.6898 144.993 80.3298 144.58C79.9832 144.153 79.8098 143.587 79.8098 142.88C79.8098 142.347 79.9698 141.853 80.2898 141.4C80.6098 140.947 81.0632 140.587 81.6498 140.32C82.2365 140.053 82.9032 139.92 83.6498 139.92C84.8232 139.92 85.7698 140.22 86.4898 140.82C87.2098 141.407 87.5965 142.22 87.6498 143.26H86.2498C86.2098 142.62 85.9565 142.107 85.4898 141.72C85.0365 141.32 84.4098 141.12 83.6098 141.12C82.9032 141.12 82.3298 141.287 81.8898 141.62C81.4498 141.953 81.2298 142.367 81.2298 142.86C81.2298 143.287 81.3565 143.64 81.6098 143.92C81.8765 144.187 82.2032 144.4 82.5898 144.56C82.9765 144.707 83.4965 144.873 84.1498 145.06C84.9365 145.273 85.5632 145.48 86.0298 145.68C86.4965 145.88 86.8965 146.173 87.2298 146.56C87.5632 146.947 87.7365 147.46 87.7498 148.1C87.7498 148.687 87.5898 149.213 87.2698 149.68C86.9498 150.133 86.5032 150.493 85.9298 150.76C85.3565 151.027 84.6965 151.16 83.9498 151.16ZM94.1452 151.16C92.8918 151.16 91.8652 150.873 91.0652 150.3C90.2785 149.713 89.8385 148.92 89.7452 147.92H91.1852C91.2518 148.533 91.5385 149.033 92.0452 149.42C92.5652 149.793 93.2585 149.98 94.1252 149.98C94.8852 149.98 95.4785 149.8 95.9052 149.44C96.3452 149.08 96.5652 148.633 96.5652 148.1C96.5652 147.727 96.4452 147.42 96.2052 147.18C95.9652 146.94 95.6585 146.753 95.2852 146.62C94.9252 146.473 94.4318 146.32 93.8052 146.16C92.9918 145.947 92.3318 145.733 91.8252 145.52C91.3185 145.307 90.8852 144.993 90.5252 144.58C90.1785 144.153 90.0052 143.587 90.0052 142.88C90.0052 142.347 90.1652 141.853 90.4852 141.4C90.8052 140.947 91.2585 140.587 91.8452 140.32C92.4318 140.053 93.0985 139.92 93.8452 139.92C95.0185 139.92 95.9652 140.22 96.6852 140.82C97.4052 141.407 97.7918 142.22 97.8452 143.26H96.4452C96.4052 142.62 96.1518 142.107 95.6852 141.72C95.2318 141.32 94.6052 141.12 93.8052 141.12C93.0985 141.12 92.5252 141.287 92.0852 141.62C91.6452 141.953 91.4252 142.367 91.4252 142.86C91.4252 143.287 91.5518 143.64 91.8052 143.92C92.0718 144.187 92.3985 144.4 92.7852 144.56C93.1718 144.707 93.6918 144.873 94.3452 145.06C95.1318 145.273 95.7585 145.48 96.2252 145.68C96.6918 145.88 97.0918 146.173 97.4252 146.56C97.7585 146.947 97.9318 147.46 97.9452 148.1C97.9452 148.687 97.7852 149.213 97.4652 149.68C97.1452 150.133 96.6985 150.493 96.1252 150.76C95.5518 151.027 94.8918 151.16 94.1452 151.16ZM107.889 141.26V148.04C107.889 148.707 108.015 149.167 108.269 149.42C108.522 149.673 108.969 149.8 109.609 149.8H110.889V151H109.389C108.402 151 107.669 150.773 107.189 150.32C106.709 149.853 106.469 149.093 106.469 148.04V141.26H104.949V140.08H106.469V137.34H107.889V140.08H110.889V141.26H107.889ZM117.978 151.16C116.951 151.16 116.024 150.933 115.198 150.48C114.384 150.013 113.738 149.36 113.258 148.52C112.791 147.667 112.558 146.673 112.558 145.54C112.558 144.407 112.798 143.42 113.278 142.58C113.758 141.727 114.411 141.073 115.238 140.62C116.064 140.153 116.991 139.92 118.018 139.92C119.044 139.92 119.971 140.153 120.798 140.62C121.638 141.073 122.291 141.727 122.758 142.58C123.238 143.42 123.478 144.407 123.478 145.54C123.478 146.66 123.238 147.647 122.758 148.5C122.278 149.353 121.618 150.013 120.778 150.48C119.938 150.933 119.004 151.16 117.978 151.16ZM117.978 149.94C118.698 149.94 119.364 149.78 119.978 149.46C120.591 149.127 121.084 148.633 121.458 147.98C121.844 147.313 122.038 146.5 122.038 145.54C122.038 144.58 121.851 143.773 121.478 143.12C121.104 142.453 120.611 141.96 119.998 141.64C119.384 141.307 118.718 141.14 117.998 141.14C117.278 141.14 116.611 141.307 115.998 141.64C115.384 141.96 114.891 142.453 114.518 143.12C114.158 143.773 113.978 144.58 113.978 145.54C113.978 146.5 114.158 147.313 114.518 147.98C114.891 148.633 115.378 149.127 115.978 149.46C116.591 149.78 117.258 149.94 117.978 149.94ZM34.2266 167.02V181H32.8266V167.02H34.2266ZM42.5169 169.88C43.8235 169.88 44.8902 170.287 45.7169 171.1C46.5435 171.9 46.9569 173.067 46.9569 174.6V181H45.5769V174.76C45.5769 173.573 45.2769 172.667 44.6769 172.04C44.0902 171.413 43.2835 171.1 42.2569 171.1C41.2035 171.1 40.3635 171.433 39.7369 172.1C39.1102 172.767 38.7969 173.747 38.7969 175.04V181H37.3969V170.08H38.7969V171.94C39.1435 171.273 39.6435 170.767 40.2969 170.42C40.9502 170.06 41.6902 169.88 42.5169 169.88ZM53.9331 179.64L57.6131 170.08H59.0931L54.7131 181H53.1331L48.7531 170.08H50.2531L53.9331 179.64ZM61.6906 168.02C61.4106 168.02 61.1706 167.92 60.9706 167.72C60.7706 167.52 60.6706 167.273 60.6706 166.98C60.6706 166.687 60.7706 166.447 60.9706 166.26C61.1706 166.06 61.4106 165.96 61.6906 165.96C61.9706 165.96 62.2106 166.06 62.4106 166.26C62.6106 166.447 62.7106 166.687 62.7106 166.98C62.7106 167.273 62.6106 167.52 62.4106 167.72C62.2106 167.92 61.9706 168.02 61.6906 168.02ZM62.3906 170.08V181H60.9906V170.08H62.3906ZM67.3809 171.26V178.04C67.3809 178.707 67.5076 179.167 67.7609 179.42C68.0143 179.673 68.4609 179.8 69.1009 179.8H70.3809V181H68.8809C67.8943 181 67.1609 180.773 66.6809 180.32C66.2009 179.853 65.9609 179.093 65.9609 178.04V171.26H64.4409V170.08H65.9609V167.34H67.3809V170.08H70.3809V171.26H67.3809ZM72.0498 175.52C72.0498 174.4 72.2698 173.42 72.7098 172.58C73.1632 171.727 73.7832 171.073 74.5698 170.62C75.3698 170.153 76.2698 169.92 77.2698 169.92C78.3098 169.92 79.2032 170.16 79.9498 170.64C80.7098 171.12 81.2565 171.733 81.5898 172.48V170.08H82.9898V181H81.5898V178.58C81.2432 179.327 80.6898 179.947 79.9298 180.44C79.1832 180.92 78.2898 181.16 77.2498 181.16C76.2632 181.16 75.3698 180.927 74.5698 180.46C73.7832 179.993 73.1632 179.333 72.7098 178.48C72.2698 177.627 72.0498 176.64 72.0498 175.52ZM81.5898 175.54C81.5898 174.66 81.4098 173.887 81.0498 173.22C80.6898 172.553 80.1965 172.04 79.5698 171.68C78.9565 171.32 78.2765 171.14 77.5298 171.14C76.7565 171.14 76.0632 171.313 75.4498 171.66C74.8365 172.007 74.3498 172.513 73.9898 173.18C73.6432 173.833 73.4698 174.613 73.4698 175.52C73.4698 176.413 73.6432 177.2 73.9898 177.88C74.3498 178.547 74.8365 179.06 75.4498 179.42C76.0632 179.767 76.7565 179.94 77.5298 179.94C78.2765 179.94 78.9565 179.76 79.5698 179.4C80.1965 179.04 80.6898 178.527 81.0498 177.86C81.4098 177.193 81.5898 176.42 81.5898 175.54ZM88.0059 171.26V178.04C88.0059 178.707 88.1326 179.167 88.3859 179.42C88.6393 179.673 89.0859 179.8 89.7259 179.8H91.0059V181H89.5059C88.5193 181 87.7859 180.773 87.3059 180.32C86.8259 179.853 86.5859 179.093 86.5859 178.04V171.26H85.0659V170.08H86.5859V167.34H88.0059V170.08H91.0059V171.26H88.0059ZM94.0148 168.02C93.7348 168.02 93.4948 167.92 93.2948 167.72C93.0948 167.52 92.9948 167.273 92.9948 166.98C92.9948 166.687 93.0948 166.447 93.2948 166.26C93.4948 166.06 93.7348 165.96 94.0148 165.96C94.2948 165.96 94.5348 166.06 94.7348 166.26C94.9348 166.447 95.0348 166.687 95.0348 166.98C95.0348 167.273 94.9348 167.52 94.7348 167.72C94.5348 167.92 94.2948 168.02 94.0148 168.02ZM94.7148 170.08V181H93.3148V170.08H94.7148ZM102.665 181.16C101.638 181.16 100.712 180.933 99.8852 180.48C99.0718 180.013 98.4252 179.36 97.9452 178.52C97.4785 177.667 97.2452 176.673 97.2452 175.54C97.2452 174.407 97.4852 173.42 97.9652 172.58C98.4452 171.727 99.0985 171.073 99.9252 170.62C100.752 170.153 101.678 169.92 102.705 169.92C103.732 169.92 104.658 170.153 105.485 170.62C106.325 171.073 106.978 171.727 107.445 172.58C107.925 173.42 108.165 174.407 108.165 175.54C108.165 176.66 107.925 177.647 107.445 178.5C106.965 179.353 106.305 180.013 105.465 180.48C104.625 180.933 103.692 181.16 102.665 181.16ZM102.665 179.94C103.385 179.94 104.052 179.78 104.665 179.46C105.278 179.127 105.772 178.633 106.145 177.98C106.532 177.313 106.725 176.5 106.725 175.54C106.725 174.58 106.538 173.773 106.165 173.12C105.792 172.453 105.298 171.96 104.685 171.64C104.072 171.307 103.405 171.14 102.685 171.14C101.965 171.14 101.298 171.307 100.685 171.64C100.072 171.96 99.5785 172.453 99.2052 173.12C98.8452 173.773 98.6652 174.58 98.6652 175.54C98.6652 176.5 98.8452 177.313 99.2052 177.98C99.5785 178.633 100.065 179.127 100.665 179.46C101.278 179.78 101.945 179.94 102.665 179.94ZM115.837 169.88C117.144 169.88 118.211 170.287 119.037 171.1C119.864 171.9 120.277 173.067 120.277 174.6V181H118.897V174.76C118.897 173.573 118.597 172.667 117.997 172.04C117.411 171.413 116.604 171.1 115.577 171.1C114.524 171.1 113.684 171.433 113.057 172.1C112.431 172.767 112.117 173.747 112.117 175.04V181H110.717V170.08H112.117V171.94C112.464 171.273 112.964 170.767 113.617 170.42C114.271 170.06 115.011 169.88 115.837 169.88Z" fill="#3D4753"/>
<path d="M47.61 83.51C47.61 83.51 75.55 83.59 82.01 83.29C88.48 82.99 93.25 78.22 93.25 78.22L105.8 66.29C107.33 64.64 105.85 59.07 102.16 62.25L94.11 68.29C91.37 70.35 88.03 71.46 84.6 71.46H75.16" stroke="#F5F5F5" stroke-width="2" stroke-miterlimit="10" stroke-linecap="round" stroke-linejoin="round"/>
<path d="M48 70.42L59.63 70.39C66.57 70.46 66.42 65.32 73.05 65.69H79.86C84.61 65.71 85.52 71.46 83.64 71.46" stroke="#F5F5F5" stroke-width="2" stroke-miterlimit="10" stroke-linecap="round" stroke-linejoin="round"/>
<path d="M84.25 61.67H69.75C65.84 61.67 62.67 58.5 62.67 54.59V46.83C62.67 42.92 65.84 39.75 69.75 39.75H84.25C88.16 39.75 91.33 42.92 91.33 46.83V54.59C91.33 58.5 88.16 61.67 84.25 61.67Z" stroke="#F5F5F5" stroke-width="2" stroke-miterlimit="10" stroke-linecap="round" stroke-linejoin="round"/>
<path d="M80.12 47.07C80.34 48.42 79.65 49.65 78.53 50.25V54.99C78.53 55.81 77.84 56.47 77 56.47C76.15 56.47 75.47 55.81 75.47 54.99V50.25C74.5 49.73 73.84 48.73 73.84 47.58C73.84 45.69 75.61 44.21 77.63 44.58C78.9 44.82 79.91 45.84 80.12 47.07Z" stroke="#F5F5F5" stroke-width="2" stroke-miterlimit="10" stroke-linecap="round" stroke-linejoin="round"/>
<path d="M68.01 39.97V35.69C68.01 30.6 72.14 26.48 77.22 26.48C82.31 26.48 86.43 30.61 86.43 35.69V40.09" stroke="#F5F5F5" stroke-width="2" stroke-miterlimit="10" stroke-linecap="round" stroke-linejoin="round"/>
<path d="M71.52 39.74V35.63C71.52 32.48 74.07 29.93 77.22 29.93C80.37 29.93 82.92 32.48 82.92 35.63V39.74" stroke="#F5F5F5" stroke-width="2" stroke-miterlimit="10" stroke-linecap="round" stroke-linejoin="round"/>
<defs>
<filter id="filter0_d_710_1502" x="21" y="0" width="130" height="130" filterUnits="userSpaceOnUse" color-interpolation-filters="sRGB">
<feFlood flood-opacity="0" result="BackgroundImageFix"/>
<feColorMatrix in="SourceAlpha" type="matrix" values="0 0 0 0 0 0 0 0 0 0 0 0 0 0 0 0 0 0 127 0" result="hardAlpha"/>
<feOffset dx="10" dy="10"/>
<feGaussianBlur stdDeviation="7.5"/>
<feComposite in2="hardAlpha" operator="out"/>
<feColorMatrix type="matrix" values="0 0 0 0 0.239216 0 0 0 0 0.278431 0 0 0 0 0.32549 0 0 0 0.3 0"/>
<feBlend mode="normal" in2="BackgroundImageFix" result="effect1_dropShadow_710_1502"/>
<feBlend mode="normal" in="SourceGraphic" in2="effect1_dropShadow_710_1502" result="shape"/>
</filter>
<linearGradient id="paint0_linear_710_1502" x1="13" y1="-13" x2="135" y2="128" gradientUnits="userSpaceOnUse">
<stop offset="0.0620713" stop-color="#ABABAB"/>
<stop offset="0.81383" stop-color="#3D4753"/>
</linearGradient>
</defs>
</svg>
