<svg width="242" height="159" viewBox="0 0 242 159" fill="none" xmlns="http://www.w3.org/2000/svg">
<g filter="url(#filter0_d_553_4136)">
<rect x="71" y="5" width="100" height="100" rx="22" fill="url(#paint0_linear_553_4136)"/>
</g>
<path d="M6.59766 149.86H11.6177V151H5.19766V137.02H6.59766V149.86ZM14.3156 138.02C14.0356 138.02 13.7956 137.92 13.5956 137.72C13.3956 137.52 13.2956 137.273 13.2956 136.98C13.2956 136.687 13.3956 136.447 13.5956 136.26C13.7956 136.06 14.0356 135.96 14.3156 135.96C14.5956 135.96 14.8356 136.06 15.0356 136.26C15.2356 136.447 15.3356 136.687 15.3356 136.98C15.3356 137.273 15.2356 137.52 15.0356 137.72C14.8356 137.92 14.5956 138.02 14.3156 138.02ZM15.0156 140.08V151H13.6156V140.08H15.0156ZM23.3059 139.88C24.6126 139.88 25.6793 140.287 26.5059 141.1C27.3326 141.9 27.7459 143.067 27.7459 144.6V151H26.3659V144.76C26.3659 143.573 26.0659 142.667 25.4659 142.04C24.8793 141.413 24.0726 141.1 23.0459 141.1C21.9926 141.1 21.1526 141.433 20.5259 142.1C19.8993 142.767 19.5859 143.747 19.5859 145.04V151H18.1859V140.08H19.5859V141.94C19.9326 141.273 20.4326 140.767 21.0859 140.42C21.7393 140.06 22.4793 139.88 23.3059 139.88ZM36.7422 151L32.2422 146.1V151H30.8422V136.2H32.2422V144.96L36.6422 140.08H38.6022L33.4222 145.52L38.6422 151H36.7422ZM47.2316 143V144.18H39.4516V143H47.2316ZM57.3627 143.78C58.1493 143.927 58.816 144.327 59.3627 144.98C59.9093 145.633 60.1827 146.393 60.1827 147.26C60.1827 147.967 60.0027 148.607 59.6427 149.18C59.296 149.74 58.7827 150.187 58.1027 150.52C57.4227 150.84 56.6093 151 55.6627 151H50.8227V137.02H55.5227C56.936 137.02 58.0093 137.347 58.7427 138C59.4893 138.653 59.8627 139.5 59.8627 140.54C59.8627 141.407 59.6293 142.113 59.1627 142.66C58.696 143.193 58.096 143.567 57.3627 143.78ZM52.2227 143.2H55.4827C56.4293 143.2 57.156 142.98 57.6627 142.54C58.1827 142.087 58.4427 141.467 58.4427 140.68C58.4427 139.907 58.1827 139.3 57.6627 138.86C57.156 138.42 56.4093 138.2 55.4227 138.2H52.2227V143.2ZM55.5627 149.82C56.576 149.82 57.3627 149.58 57.9227 149.1C58.496 148.62 58.7827 147.96 58.7827 147.12C58.7827 146.28 58.4827 145.613 57.8827 145.12C57.296 144.613 56.5027 144.36 55.5027 144.36H52.2227V149.82H55.5627ZM62.1163 145.52C62.1163 144.4 62.3363 143.42 62.7763 142.58C63.2296 141.727 63.8496 141.073 64.6363 140.62C65.4363 140.153 66.3363 139.92 67.3363 139.92C68.3763 139.92 69.2696 140.16 70.0163 140.64C70.7763 141.12 71.3229 141.733 71.6563 142.48V140.08H73.0563V151H71.6563V148.58C71.3096 149.327 70.7563 149.947 69.9963 150.44C69.2496 150.92 68.3563 151.16 67.3163 151.16C66.3296 151.16 65.4363 150.927 64.6363 150.46C63.8496 149.993 63.2296 149.333 62.7763 148.48C62.3363 147.627 62.1163 146.64 62.1163 145.52ZM71.6563 145.54C71.6563 144.66 71.4763 143.887 71.1163 143.22C70.7563 142.553 70.2629 142.04 69.6363 141.68C69.0229 141.32 68.3429 141.14 67.5963 141.14C66.8229 141.14 66.1296 141.313 65.5163 141.66C64.9029 142.007 64.4163 142.513 64.0563 143.18C63.7096 143.833 63.5363 144.613 63.5363 145.52C63.5363 146.413 63.7096 147.2 64.0563 147.88C64.4163 148.547 64.9029 149.06 65.5163 149.42C66.1296 149.767 66.8229 149.94 67.5963 149.94C68.3429 149.94 69.0229 149.76 69.6363 149.4C70.2629 149.04 70.7563 148.527 71.1163 147.86C71.4763 147.193 71.6563 146.42 71.6563 145.54ZM80.0123 151.16C78.759 151.16 77.7323 150.873 76.9323 150.3C76.1457 149.713 75.7057 148.92 75.6123 147.92H77.0523C77.119 148.533 77.4057 149.033 77.9123 149.42C78.4323 149.793 79.1257 149.98 79.9923 149.98C80.7523 149.98 81.3457 149.8 81.7723 149.44C82.2123 149.08 82.4323 148.633 82.4323 148.1C82.4323 147.727 82.3123 147.42 82.0723 147.18C81.8323 146.94 81.5257 146.753 81.1523 146.62C80.7923 146.473 80.299 146.32 79.6723 146.16C78.859 145.947 78.199 145.733 77.6923 145.52C77.1857 145.307 76.7523 144.993 76.3923 144.58C76.0457 144.153 75.8723 143.587 75.8723 142.88C75.8723 142.347 76.0323 141.853 76.3523 141.4C76.6723 140.947 77.1257 140.587 77.7123 140.32C78.299 140.053 78.9657 139.92 79.7123 139.92C80.8857 139.92 81.8323 140.22 82.5523 140.82C83.2723 141.407 83.659 142.22 83.7123 143.26H82.3123C82.2723 142.62 82.019 142.107 81.5523 141.72C81.099 141.32 80.4723 141.12 79.6723 141.12C78.9657 141.12 78.3923 141.287 77.9523 141.62C77.5123 141.953 77.2923 142.367 77.2923 142.86C77.2923 143.287 77.419 143.64 77.6723 143.92C77.939 144.187 78.2657 144.4 78.6523 144.56C79.039 144.707 79.559 144.873 80.2123 145.06C80.999 145.273 81.6257 145.48 82.0923 145.68C82.559 145.88 82.959 146.173 83.2923 146.56C83.6257 146.947 83.799 147.46 83.8123 148.1C83.8123 148.687 83.6523 149.213 83.3323 149.68C83.0123 150.133 82.5657 150.493 81.9923 150.76C81.419 151.027 80.759 151.16 80.0123 151.16ZM96.3277 144.98C96.3277 145.46 96.3143 145.827 96.2877 146.08H87.2277C87.2677 146.907 87.4677 147.613 87.8277 148.2C88.1877 148.787 88.661 149.233 89.2477 149.54C89.8343 149.833 90.4743 149.98 91.1677 149.98C92.0743 149.98 92.8343 149.76 93.4477 149.32C94.0743 148.88 94.4877 148.287 94.6877 147.54H96.1677C95.901 148.607 95.3277 149.48 94.4477 150.16C93.581 150.827 92.4877 151.16 91.1677 151.16C90.141 151.16 89.221 150.933 88.4077 150.48C87.5943 150.013 86.9543 149.36 86.4877 148.52C86.0343 147.667 85.8077 146.673 85.8077 145.54C85.8077 144.407 86.0343 143.413 86.4877 142.56C86.941 141.707 87.5743 141.053 88.3877 140.6C89.201 140.147 90.1277 139.92 91.1677 139.92C92.2077 139.92 93.1143 140.147 93.8877 140.6C94.6743 141.053 95.2743 141.667 95.6877 142.44C96.1143 143.2 96.3277 144.047 96.3277 144.98ZM94.9077 144.94C94.921 144.127 94.7543 143.433 94.4077 142.86C94.0743 142.287 93.6143 141.853 93.0277 141.56C92.441 141.267 91.801 141.12 91.1077 141.12C90.0677 141.12 89.181 141.453 88.4477 142.12C87.7143 142.787 87.3077 143.727 87.2277 144.94H94.9077ZM98.2491 145.52C98.2491 144.4 98.4757 143.42 98.9291 142.58C99.3824 141.727 100.002 141.073 100.789 140.62C101.589 140.153 102.489 139.92 103.489 139.92C104.449 139.92 105.316 140.153 106.089 140.62C106.862 141.087 107.429 141.693 107.789 142.44V136.2H109.189V151H107.789V148.56C107.456 149.32 106.909 149.947 106.149 150.44C105.389 150.92 104.496 151.16 103.469 151.16C102.469 151.16 101.569 150.927 100.769 150.46C99.9824 149.993 99.3624 149.333 98.9091 148.48C98.4691 147.627 98.2491 146.64 98.2491 145.52ZM107.789 145.54C107.789 144.66 107.609 143.887 107.249 143.22C106.889 142.553 106.396 142.04 105.769 141.68C105.156 141.32 104.476 141.14 103.729 141.14C102.956 141.14 102.262 141.313 101.649 141.66C101.036 142.007 100.549 142.513 100.189 143.18C99.8424 143.833 99.6691 144.613 99.6691 145.52C99.6691 146.413 99.8424 147.2 100.189 147.88C100.549 148.547 101.036 149.06 101.649 149.42C102.262 149.767 102.956 149.94 103.729 149.94C104.476 149.94 105.156 149.76 105.769 149.4C106.396 149.04 106.889 148.527 107.249 147.86C107.609 147.193 107.789 146.42 107.789 145.54ZM125.973 147.68H119.613L118.393 151H116.913L122.013 137.2H123.593L128.673 151H127.193L125.973 147.68ZM125.553 146.52L122.793 138.96L120.033 146.52H125.553ZM130.28 145.54C130.28 144.407 130.507 143.42 130.96 142.58C131.414 141.727 132.04 141.073 132.84 140.62C133.64 140.153 134.554 139.92 135.58 139.92C136.927 139.92 138.034 140.253 138.9 140.92C139.78 141.587 140.347 142.493 140.6 143.64H139.1C138.914 142.853 138.507 142.24 137.88 141.8C137.267 141.347 136.5 141.12 135.58 141.12C134.847 141.12 134.187 141.287 133.6 141.62C133.014 141.953 132.547 142.453 132.2 143.12C131.867 143.773 131.7 144.58 131.7 145.54C131.7 146.5 131.867 147.313 132.2 147.98C132.547 148.647 133.014 149.147 133.6 149.48C134.187 149.813 134.847 149.98 135.58 149.98C136.5 149.98 137.267 149.76 137.88 149.32C138.507 148.867 138.914 148.24 139.1 147.44H140.6C140.347 148.56 139.78 149.46 138.9 150.14C138.02 150.82 136.914 151.16 135.58 151.16C134.554 151.16 133.64 150.933 132.84 150.48C132.04 150.013 131.414 149.36 130.96 148.52C130.507 147.667 130.28 146.673 130.28 145.54ZM142.546 145.54C142.546 144.407 142.773 143.42 143.226 142.58C143.679 141.727 144.306 141.073 145.106 140.62C145.906 140.153 146.819 139.92 147.846 139.92C149.193 139.92 150.299 140.253 151.166 140.92C152.046 141.587 152.613 142.493 152.866 143.64H151.366C151.179 142.853 150.773 142.24 150.146 141.8C149.533 141.347 148.766 141.12 147.846 141.12C147.113 141.12 146.453 141.287 145.866 141.62C145.279 141.953 144.813 142.453 144.466 143.12C144.133 143.773 143.966 144.58 143.966 145.54C143.966 146.5 144.133 147.313 144.466 147.98C144.813 148.647 145.279 149.147 145.866 149.48C146.453 149.813 147.113 149.98 147.846 149.98C148.766 149.98 149.533 149.76 150.146 149.32C150.773 148.867 151.179 148.24 151.366 147.44H152.866C152.613 148.56 152.046 149.46 151.166 150.14C150.286 150.82 149.179 151.16 147.846 151.16C146.819 151.16 145.906 150.933 145.106 150.48C144.306 150.013 143.679 149.36 143.226 148.52C142.773 147.667 142.546 146.673 142.546 145.54ZM165.332 144.98C165.332 145.46 165.318 145.827 165.292 146.08H156.232C156.272 146.907 156.472 147.613 156.832 148.2C157.192 148.787 157.665 149.233 158.252 149.54C158.838 149.833 159.478 149.98 160.172 149.98C161.078 149.98 161.838 149.76 162.452 149.32C163.078 148.88 163.492 148.287 163.692 147.54H165.172C164.905 148.607 164.332 149.48 163.452 150.16C162.585 150.827 161.492 151.16 160.172 151.16C159.145 151.16 158.225 150.933 157.412 150.48C156.598 150.013 155.958 149.36 155.492 148.52C155.038 147.667 154.812 146.673 154.812 145.54C154.812 144.407 155.038 143.413 155.492 142.56C155.945 141.707 156.578 141.053 157.392 140.6C158.205 140.147 159.132 139.92 160.172 139.92C161.212 139.92 162.118 140.147 162.892 140.6C163.678 141.053 164.278 141.667 164.692 142.44C165.118 143.2 165.332 144.047 165.332 144.98ZM163.912 144.94C163.925 144.127 163.758 143.433 163.412 142.86C163.078 142.287 162.618 141.853 162.032 141.56C161.445 141.267 160.805 141.12 160.112 141.12C159.072 141.12 158.185 141.453 157.452 142.12C156.718 142.787 156.312 143.727 156.232 144.94H163.912ZM171.653 151.16C170.4 151.16 169.373 150.873 168.573 150.3C167.786 149.713 167.346 148.92 167.253 147.92H168.693C168.76 148.533 169.046 149.033 169.553 149.42C170.073 149.793 170.766 149.98 171.633 149.98C172.393 149.98 172.986 149.8 173.413 149.44C173.853 149.08 174.073 148.633 174.073 148.1C174.073 147.727 173.953 147.42 173.713 147.18C173.473 146.94 173.166 146.753 172.793 146.62C172.433 146.473 171.94 146.32 171.313 146.16C170.5 145.947 169.84 145.733 169.333 145.52C168.826 145.307 168.393 144.993 168.033 144.58C167.686 144.153 167.513 143.587 167.513 142.88C167.513 142.347 167.673 141.853 167.993 141.4C168.313 140.947 168.766 140.587 169.353 140.32C169.94 140.053 170.606 139.92 171.353 139.92C172.526 139.92 173.473 140.22 174.193 140.82C174.913 141.407 175.3 142.22 175.353 143.26H173.953C173.913 142.62 173.66 142.107 173.193 141.72C172.74 141.32 172.113 141.12 171.313 141.12C170.606 141.12 170.033 141.287 169.593 141.62C169.153 141.953 168.933 142.367 168.933 142.86C168.933 143.287 169.06 143.64 169.313 143.92C169.58 144.187 169.906 144.4 170.293 144.56C170.68 144.707 171.2 144.873 171.853 145.06C172.64 145.273 173.266 145.48 173.733 145.68C174.2 145.88 174.6 146.173 174.933 146.56C175.266 146.947 175.44 147.46 175.453 148.1C175.453 148.687 175.293 149.213 174.973 149.68C174.653 150.133 174.206 150.493 173.633 150.76C173.06 151.027 172.4 151.16 171.653 151.16ZM181.848 151.16C180.595 151.16 179.568 150.873 178.768 150.3C177.982 149.713 177.542 148.92 177.448 147.92H178.888C178.955 148.533 179.242 149.033 179.748 149.42C180.268 149.793 180.962 149.98 181.828 149.98C182.588 149.98 183.182 149.8 183.608 149.44C184.048 149.08 184.268 148.633 184.268 148.1C184.268 147.727 184.148 147.42 183.908 147.18C183.668 146.94 183.362 146.753 182.988 146.62C182.628 146.473 182.135 146.32 181.508 146.16C180.695 145.947 180.035 145.733 179.528 145.52C179.022 145.307 178.588 144.993 178.228 144.58C177.882 144.153 177.708 143.587 177.708 142.88C177.708 142.347 177.868 141.853 178.188 141.4C178.508 140.947 178.962 140.587 179.548 140.32C180.135 140.053 180.802 139.92 181.548 139.92C182.722 139.92 183.668 140.22 184.388 140.82C185.108 141.407 185.495 142.22 185.548 143.26H184.148C184.108 142.62 183.855 142.107 183.388 141.72C182.935 141.32 182.308 141.12 181.508 141.12C180.802 141.12 180.228 141.287 179.788 141.62C179.348 141.953 179.128 142.367 179.128 142.86C179.128 143.287 179.255 143.64 179.508 143.92C179.775 144.187 180.102 144.4 180.488 144.56C180.875 144.707 181.395 144.873 182.048 145.06C182.835 145.273 183.462 145.48 183.928 145.68C184.395 145.88 184.795 146.173 185.128 146.56C185.462 146.947 185.635 147.46 185.648 148.1C185.648 148.687 185.488 149.213 185.168 149.68C184.848 150.133 184.402 150.493 183.828 150.76C183.255 151.027 182.595 151.16 181.848 151.16ZM201.872 147.68H195.512L194.292 151H192.812L197.912 137.2H199.492L204.572 151H203.092L201.872 147.68ZM201.452 146.52L198.692 138.96L195.932 146.52H201.452ZM208.219 142.02C208.525 141.34 208.992 140.813 209.619 140.44C210.259 140.067 211.039 139.88 211.959 139.88V141.34H211.579C210.565 141.34 209.752 141.613 209.139 142.16C208.525 142.707 208.219 143.62 208.219 144.9V151H206.819V140.08H208.219V142.02ZM223.945 144.98C223.945 145.46 223.932 145.827 223.905 146.08H214.845C214.885 146.907 215.085 147.613 215.445 148.2C215.805 148.787 216.278 149.233 216.865 149.54C217.452 149.833 218.092 149.98 218.785 149.98C219.692 149.98 220.452 149.76 221.065 149.32C221.692 148.88 222.105 148.287 222.305 147.54H223.785C223.518 148.607 222.945 149.48 222.065 150.16C221.198 150.827 220.105 151.16 218.785 151.16C217.758 151.16 216.838 150.933 216.025 150.48C215.212 150.013 214.572 149.36 214.105 148.52C213.652 147.667 213.425 146.673 213.425 145.54C213.425 144.407 213.652 143.413 214.105 142.56C214.558 141.707 215.192 141.053 216.005 140.6C216.818 140.147 217.745 139.92 218.785 139.92C219.825 139.92 220.732 140.147 221.505 140.6C222.292 141.053 222.892 141.667 223.305 142.44C223.732 143.2 223.945 144.047 223.945 144.98ZM222.525 144.94C222.538 144.127 222.372 143.433 222.025 142.86C221.692 142.287 221.232 141.853 220.645 141.56C220.058 141.267 219.418 141.12 218.725 141.12C217.685 141.12 216.798 141.453 216.065 142.12C215.332 142.787 214.925 143.727 214.845 144.94H222.525ZM225.866 145.52C225.866 144.4 226.086 143.42 226.526 142.58C226.98 141.727 227.6 141.073 228.386 140.62C229.186 140.153 230.086 139.92 231.086 139.92C232.126 139.92 233.02 140.16 233.766 140.64C234.526 141.12 235.073 141.733 235.406 142.48V140.08H236.806V151H235.406V148.58C235.06 149.327 234.506 149.947 233.746 150.44C233 150.92 232.106 151.16 231.066 151.16C230.08 151.16 229.186 150.927 228.386 150.46C227.6 149.993 226.98 149.333 226.526 148.48C226.086 147.627 225.866 146.64 225.866 145.52ZM235.406 145.54C235.406 144.66 235.226 143.887 234.866 143.22C234.506 142.553 234.013 142.04 233.386 141.68C232.773 141.32 232.093 141.14 231.346 141.14C230.573 141.14 229.88 141.313 229.266 141.66C228.653 142.007 228.166 142.513 227.806 143.18C227.46 143.833 227.286 144.613 227.286 145.52C227.286 146.413 227.46 147.2 227.806 147.88C228.166 148.547 228.653 149.06 229.266 149.42C229.88 149.767 230.573 149.94 231.346 149.94C232.093 149.94 232.773 149.76 233.386 149.4C234.013 149.04 234.506 148.527 234.866 147.86C235.226 147.193 235.406 146.42 235.406 145.54Z" fill="#3D4753"/>
<path d="M151.644 64.5294C151.559 64.4154 151.473 64.3015 151.374 64.2018C151.274 64.1022 151.16 64.0167 151.046 63.9313C150.804 63.7889 150.548 63.6892 150.277 63.618C149.58 63.4756 148.854 63.7034 148.355 64.2018C148.256 64.3015 148.17 64.4154 148.085 64.5294C148.014 64.6433 147.942 64.7715 147.885 64.8996C147.843 65.0278 147.8 65.1702 147.772 65.2983C147.743 65.4407 147.729 65.5689 147.729 65.7113C147.729 65.9961 147.786 66.2667 147.885 66.5372C147.999 66.7936 148.156 67.0214 148.355 67.2208C148.555 67.4202 148.797 67.5768 149.053 67.6907C149.309 67.7904 149.58 67.8474 149.864 67.8474C150.434 67.8474 150.975 67.6338 151.374 67.2208C151.772 66.8221 152 66.2809 152 65.7113C152 65.5689 151.986 65.4407 151.957 65.2983C151.929 65.1702 151.886 65.0278 151.843 64.8996C151.786 64.7715 151.715 64.6433 151.644 64.5294Z" fill="#F5F5F5"/>
<path d="M136.616 37.6512H131.488V33.2558H135.151C139.605 33.2558 143.209 29.6516 143.209 25.1977C143.209 23.9816 142.228 23 141.012 23H129.291C128.075 23 127.093 23.9816 127.093 25.1977V37.6512H104.384C95.886 37.6512 89.0147 44.5372 89 53.0349V73.5465C89 74.7626 89.9816 75.7442 91.1977 75.7442H115.372V83.8023C115.372 85.0184 116.354 86 117.57 86H129.291C130.507 86 131.488 85.0184 131.488 83.8023V75.7442H149.802C151.018 75.7442 152 74.7626 152 73.5465C152 72.3305 151.018 71.3488 149.802 71.3488H119.767V53.0349C119.767 48.9033 118.097 44.9328 115.123 42.0465H127.093V51.5698C127.093 52.7858 128.075 53.7674 129.291 53.7674C130.507 53.7674 131.488 52.7858 131.488 51.5698V42.0465H136.616C142.682 42.0465 147.605 46.9693 147.605 53.0349V56.6977C147.605 57.9137 148.586 58.8953 149.802 58.8953C151.018 58.8953 152 57.9137 152 56.6977V53.0349C152 44.5372 145.114 37.6658 136.616 37.6512ZM131.488 27.3953H138.081C137.393 28.3184 136.309 28.8605 135.151 28.8605H131.488V27.3953ZM127.093 81.6047H119.767V75.7442H127.093V81.6047ZM115.372 53.0349V71.3488H93.3953V53.0349C93.3953 46.9693 98.3181 42.0465 104.384 42.0465C110.449 42.0465 115.372 46.9693 115.372 53.0349Z" fill="#F5F5F5"/>
<path d="M101.737 59.3051H107.229C108.368 59.3051 109.288 58.3512 109.288 57.1695C109.288 55.9878 108.368 55.0339 107.229 55.0339H101.737C100.598 55.0339 99.678 55.9878 99.678 57.1695C99.678 58.3512 100.598 59.3051 101.737 59.3051Z" fill="#F5F5F5"/>
<defs>
<filter id="filter0_d_553_4136" x="66" y="0" width="130" height="130" filterUnits="userSpaceOnUse" color-interpolation-filters="sRGB">
<feFlood flood-opacity="0" result="BackgroundImageFix"/>
<feColorMatrix in="SourceAlpha" type="matrix" values="0 0 0 0 0 0 0 0 0 0 0 0 0 0 0 0 0 0 127 0" result="hardAlpha"/>
<feOffset dx="10" dy="10"/>
<feGaussianBlur stdDeviation="7.5"/>
<feComposite in2="hardAlpha" operator="out"/>
<feColorMatrix type="matrix" values="0 0 0 0 0.239216 0 0 0 0 0.278431 0 0 0 0 0.32549 0 0 0 0.3 0"/>
<feBlend mode="normal" in2="BackgroundImageFix" result="effect1_dropShadow_553_4136"/>
<feBlend mode="normal" in="SourceGraphic" in2="effect1_dropShadow_553_4136" result="shape"/>
</filter>
<linearGradient id="paint0_linear_553_4136" x1="56" y1="-16.5" x2="191" y2="128.5" gradientUnits="userSpaceOnUse">
<stop offset="0.120204" stop-color="#E47A24"/>
<stop offset="0.962154" stop-color="#3D4753"/>
</linearGradient>
</defs>
</svg>
