<svg width="80" height="72" viewBox="0 0 80 72" fill="none" xmlns="http://www.w3.org/2000/svg">
<g clip-path="url(#clip0_710_994)">
<path fill-rule="evenodd" clip-rule="evenodd" d="M46.1604 70.9726C60.5965 67.0739 79.7094 52.3024 79.9933 30.2234C80.1149 20.6229 75.5394 19.752 73.8025 23.2901C73.0523 24.8074 72.9915 26.2907 72.6536 27.808C71.437 33.224 66.821 35.6054 61.9008 32.8361C59.0285 31.2236 55.5546 28.0393 51.236 23.0384C45.0587 15.935 31.1363 26.4948 44.4978 37.2724C47.3972 40.1096 49.222 42.4706 50.2087 44.3961C56.2575 54.9288 55.7709 67.0399 46.1671 70.9794L46.1604 70.9726ZM66.8345 12.1111C70.7071 14.1183 72.2278 18.9015 70.234 22.8002C68.2403 26.6989 63.4891 28.2298 59.6165 26.2226C55.7439 24.2155 54.2232 19.4322 56.217 15.5336C58.2107 11.6349 62.9619 10.104 66.8345 12.1111Z" fill="#3D4753"/>
<path fill-rule="evenodd" clip-rule="evenodd" d="M50.898 46.0903C54.426 56.8883 24.9793 58.7322 31.2377 68.7205C33.4274 72.2177 39.26 72.8369 46.1536 70.9726C55.7574 67.0331 56.244 54.9219 50.1952 44.3893C50.3574 44.7023 50.4993 45.0085 50.6142 45.3011C50.7223 45.5732 50.8169 45.8386 50.8913 46.0903H50.898Z" fill="url(#paint0_linear_710_994)"/>
<path fill-rule="evenodd" clip-rule="evenodd" d="M50.8981 46.0903C51.5334 48.0363 51.0941 49.6897 49.9857 51.1593C53.4663 58.8002 52.804 66.7405 46.1536 70.9726C55.7574 67.0331 56.244 54.9219 50.1952 44.3893C50.3574 44.7023 50.4993 45.0085 50.6142 45.3011C50.7223 45.5732 50.817 45.8386 50.8913 46.0903H50.8981Z" fill="url(#paint1_linear_710_994)"/>
<path fill-rule="evenodd" clip-rule="evenodd" d="M70.6125 20.2351C71.0518 17.1529 69.5447 13.9958 66.6453 12.4921C62.9822 10.5938 58.4878 12.0431 56.6022 15.7309C54.8788 19.1056 55.9399 23.1812 58.9406 25.3041C58.427 23.7256 58.5148 21.9429 59.3259 20.3508C60.9411 17.1937 64.7867 15.9554 67.9226 17.5747C69.1121 18.1939 70.0245 19.1329 70.6193 20.2351H70.6125Z" fill="url(#paint2_linear_710_994)"/>
<path fill-rule="evenodd" clip-rule="evenodd" d="M33.8397 1.02737C19.4036 4.92607 0.290613 19.6976 -7.13393e-07 41.7766C-0.121653 51.377 4.45383 52.2479 6.19076 48.7099C6.94095 47.1926 7.00177 45.7093 7.3397 44.192C8.55622 38.776 13.1723 36.3946 18.0924 39.1638C20.9648 40.7764 24.4386 43.9607 28.7573 48.9616C34.9345 56.065 48.857 45.5052 35.4955 34.7276C32.5961 31.8903 30.7713 29.5294 29.7846 27.6038C23.7357 17.0712 24.2224 4.96009 33.8261 1.02057L33.8397 1.02737ZM13.1655 59.8888C9.29289 57.8816 7.77224 53.0984 9.76599 49.1997C11.7597 45.301 16.5109 43.7701 20.3835 45.7773C24.2561 47.7845 25.7768 52.5677 23.7831 56.4664C21.7893 60.3651 17.0381 61.896 13.1655 59.8888Z" fill="url(#paint3_linear_710_994)"/>
<path fill-rule="evenodd" clip-rule="evenodd" d="M28.5275 25.9096C24.9996 15.1117 54.4462 13.2678 48.1879 3.27951C45.9981 -0.217753 40.1656 -0.836917 33.2719 1.02738C23.6682 4.9669 23.1816 17.078 29.2304 27.6106C29.0682 27.2977 28.9263 26.9915 28.8114 26.6989C28.7032 26.4267 28.6086 26.1614 28.5343 25.9096H28.5275Z" fill="url(#paint4_linear_710_994)"/>
<path fill-rule="evenodd" clip-rule="evenodd" d="M28.5275 25.9097C27.8922 23.9637 28.3315 22.3103 29.4399 20.8407C25.9593 13.1998 26.6216 5.2595 33.2719 1.0274C23.6682 4.96692 23.1816 17.0781 29.2304 27.6107C29.0682 27.2977 28.9263 26.9915 28.8114 26.6989C28.7032 26.4268 28.6086 26.1614 28.5343 25.9097H28.5275Z" fill="url(#paint5_linear_710_994)"/>
<path fill-rule="evenodd" clip-rule="evenodd" d="M8.81309 51.7649C8.37379 54.8471 9.88093 58.0041 12.7803 59.5078C16.4434 61.4061 20.9378 59.9569 22.8234 56.2691C24.5468 52.8943 23.4857 48.8187 20.485 46.6959C20.9986 48.2744 20.9108 50.057 20.0997 51.6492C18.4845 54.8062 14.6389 56.0446 11.503 54.4252C10.3135 53.806 9.40108 52.8671 8.80633 51.7649H8.81309Z" fill="url(#paint6_linear_710_994)"/>
</g>
<defs>
<linearGradient id="paint0_linear_710_994" x1="30.3658" y1="58.1947" x2="54.1759" y2="58.1947" gradientUnits="userSpaceOnUse">
<stop stop-color="#1C2A39"/>
<stop offset="1" stop-color="#BCCAD9"/>
</linearGradient>
<linearGradient id="paint1_linear_710_994" x1="46.1604" y1="57.6844" x2="54.1759" y2="57.6844" gradientUnits="userSpaceOnUse">
<stop stop-color="#1C2A39"/>
<stop offset="1" stop-color="#7C8A99"/>
</linearGradient>
<linearGradient id="paint2_linear_710_994" x1="55.7709" y1="18.4797" x2="70.6869" y2="18.4797" gradientUnits="userSpaceOnUse">
<stop stop-color="#1C2A39"/>
<stop offset="1" stop-color="#7C8A99"/>
</linearGradient>
<linearGradient id="paint3_linear_710_994" x1="-14.9291" y1="33.0908" x2="14.9951" y2="-8.01279" gradientUnits="userSpaceOnUse">
<stop stop-color="#1C2A39"/>
<stop offset="1" stop-color="#7C8A99"/>
</linearGradient>
<linearGradient id="paint4_linear_710_994" x1="7.60058" y1="-11.6109" x2="29.1882" y2="-25.4377" gradientUnits="userSpaceOnUse">
<stop stop-color="#1C2A39"/>
<stop offset="1" stop-color="#7C8A99"/>
</linearGradient>
<linearGradient id="paint5_linear_710_994" x1="25.2496" y1="14.3224" x2="33.2652" y2="14.3224" gradientUnits="userSpaceOnUse">
<stop stop-color="#7C8A99"/>
<stop offset="1" stop-color="#FEFEFE"/>
</linearGradient>
<linearGradient id="paint6_linear_710_994" x1="8.73875" y1="53.5203" x2="23.6547" y2="53.5203" gradientUnits="userSpaceOnUse">
<stop stop-color="#1C2A39"/>
<stop offset="1" stop-color="#7C8A99"/>
</linearGradient>
<clipPath id="clip0_710_994">
<rect width="80" height="72" fill="white"/>
</clipPath>
</defs>
</svg>
