<svg width="85" height="79" viewBox="0 0 85 79" fill="none" xmlns="http://www.w3.org/2000/svg">
<g clip-path="url(#clip0_216_1234)">
<path fill-rule="evenodd" clip-rule="evenodd" d="M43.2875 16.7309C45.6699 6.99138 31.4075 6.41055 24.7764 11.2346C17.1181 18.1884 15.822 28.4496 23.9912 39.7057C24.3031 40.1413 24.6258 40.5662 24.9593 40.9857C32.9241 34.5213 41.303 24.841 43.2875 16.7363V16.7309Z" fill="url(#paint0_linear_216_1234)"/>
<path opacity="0.5" fill-rule="evenodd" clip-rule="evenodd" d="M43.2874 16.7309C45.6699 6.99138 31.4074 6.41055 24.7764 11.2346C30.3534 9.87398 37.619 9.76105 38.6408 13.7569C40.2542 20.0922 27.6859 27.6644 21.8239 36.366C22.4531 37.4685 23.1737 38.5817 23.9912 39.7057C24.3031 40.1413 24.6258 40.5662 24.9592 40.9857C32.924 34.5213 41.303 24.841 43.2874 16.7363V16.7309Z" fill="url(#paint1_linear_216_1234)"/>
<path opacity="0.2" fill-rule="evenodd" clip-rule="evenodd" d="M24.3946 11.4713C29.7242 7.9003 44.2179 6.72252 41.7816 16.6933C39.7004 25.2013 29.7779 32.553 24.1311 42.3517C14.7572 58.6202 22.3563 71.28 38.7162 75.4587" fill="url(#paint2_linear_216_1234)"/>
<g opacity="0.5">
<mask id="mask0_216_1234" style="mask-type:luminance" maskUnits="userSpaceOnUse" x="20" y="8" width="24" height="68">
<path d="M42.8412 16.9514C43.3897 14.7142 43.2929 12.3533 41.7333 10.5301C41.6042 10.3795 41.4536 10.2343 41.2869 10.0945C40.6415 9.5567 39.7273 9.11571 38.6248 8.80916C35.0699 7.81961 29.5629 8.23372 24.8464 11.1809C24.8249 11.197 24.8033 11.2077 24.7872 11.2239C30.4018 7.85188 44.1641 6.95913 41.7817 16.6933C39.7972 24.8033 30.6976 31.8539 24.9593 40.9803C24.6743 41.4321 24.4 41.8892 24.1311 42.3517C14.7572 58.6202 22.351 71.2746 38.7108 75.4533C34.8548 74.254 26.051 71.0433 22.394 62.8849C19.4791 56.6142 21.8132 48.5633 25.0776 42.8949C25.6423 41.9107 26.25 40.9534 26.8954 40.0177C27.3256 39.3885 27.772 38.77 28.2238 38.1623C30.7245 34.8064 33.5426 31.7033 36.1886 28.455C38.9206 25.0991 41.7978 21.2162 42.8465 16.9461" fill="white"/>
</mask>
<g mask="url(#mask0_216_1234)">
<path d="M30.5042 -0.000849946L0 59.8928L37.0298 78.7522L67.5339 18.8586L30.5042 -0.000849946Z" fill="url(#paint3_linear_216_1234)"/>
</g>
</g>
<path fill-rule="evenodd" clip-rule="evenodd" d="M57.8188 45.6431C65.1167 32.1604 78.2821 11.3476 54.4683 3.43655C48.9774 2.46313 43.5348 2.76967 38.458 4.14106C33.279 5.54472 28.4764 8.05625 24.3892 11.4713C29.7241 7.90028 44.2178 6.7225 41.7762 16.6933C39.6949 25.2013 29.7725 32.553 24.1256 42.3517C14.4345 59.1741 22.8833 72.1351 40.3995 75.8513C43.9758 76.6096 47.5414 76.8193 51.0102 76.545C58.1199 75.975 64.8209 73.3505 70.3656 69.1449C58.3028 73.7431 49.499 61.008 57.8134 45.6431H57.8188Z" fill="#3D4753"/>
<path fill-rule="evenodd" clip-rule="evenodd" d="M38.7108 75.4533C39.2647 75.5931 39.8348 75.7275 40.4048 75.8512C43.9812 76.6095 47.5468 76.8193 51.0156 76.545C53.4357 76.3514 55.8128 75.9212 58.1146 75.265C46.1378 71.7909 41.5288 62.6644 45.9603 50.3111C49.2086 41.2546 56.442 31.9507 59.3945 26.2607C64.9339 15.58 61.7931 5.51243 48.3697 2.86646C44.9761 2.83419 41.6472 3.27519 38.4634 4.14104C48.5202 4.44759 57.4316 10.2451 51.86 19.9416L38.7161 75.4586L38.7108 75.4533Z" fill="#3D4753"/>
<path fill-rule="evenodd" clip-rule="evenodd" d="M84.9615 39.5874C84.9615 39.1464 84.9508 38.7108 84.9347 38.2752C84.9347 38.2537 84.9347 38.2268 84.9347 38.2053C84.9185 37.7535 84.8862 37.3071 84.854 36.8608C84.8486 36.7747 84.8432 36.6887 84.8325 36.6026C84.7948 36.167 84.7518 35.7314 84.698 35.3012C84.6873 35.2259 84.6765 35.1559 84.6711 35.0807C84.6174 34.6558 84.5582 34.2363 84.4883 33.8114C84.4883 33.7792 84.4775 33.7469 84.4721 33.72C84.3969 33.2844 84.3162 32.8488 84.2301 32.4185C84.214 32.3325 84.1979 32.2465 84.1764 32.1658C84.0849 31.7409 83.9881 31.3214 83.8859 30.902C83.8698 30.832 83.8537 30.7675 83.8322 30.6976C83.73 30.2942 83.617 29.8909 83.5041 29.4875C83.4934 29.4499 83.4826 29.4122 83.4718 29.3692C83.3481 28.9497 83.2137 28.5356 83.0792 28.1215C83.0524 28.0409 83.0255 27.9548 82.9986 27.8741C82.8587 27.4654 82.7135 27.0621 82.563 26.6587C82.5414 26.5996 82.5146 26.5404 82.493 26.4759C82.3425 26.0886 82.1865 25.7068 82.0252 25.3303C82.009 25.2873 81.9875 25.2443 81.9714 25.1959C81.7993 24.7979 81.6218 24.4053 81.4336 24.0127C81.3959 23.9321 81.3583 23.8568 81.3206 23.7761C81.1324 23.3889 80.9442 23.0071 80.7452 22.6252C80.7183 22.5714 80.686 22.5177 80.6591 22.4693C80.4655 22.1089 80.2666 21.7486 80.0622 21.3937C80.0353 21.3453 80.0084 21.2969 79.9815 21.2538C79.7664 20.8827 79.5405 20.517 79.3146 20.1513C79.2662 20.076 79.2232 20.0061 79.1748 19.9308C78.9436 19.5705 78.7069 19.2102 78.4649 18.8552C78.4327 18.8122 78.4004 18.7638 78.3681 18.7208C78.1369 18.3874 77.8949 18.0539 77.6528 17.7259C77.6152 17.6775 77.5829 17.6291 77.5453 17.5807C77.2871 17.2365 77.0236 16.903 76.7547 16.5696C76.7009 16.4997 76.6472 16.4351 76.588 16.3652C76.3137 16.0318 76.0341 15.7037 75.749 15.3757C75.7168 15.338 75.6845 15.3058 75.6522 15.2681C75.378 14.9616 75.0983 14.655 74.8186 14.3592C74.7756 14.3108 74.7272 14.2624 74.6842 14.214C74.3884 13.9021 74.0872 13.6009 73.7753 13.2998C73.7108 13.2406 73.6516 13.1761 73.5871 13.1169C73.2752 12.8157 72.9579 12.52 72.6298 12.2295C72.5975 12.2027 72.5653 12.1758 72.5384 12.1489C72.2264 11.8746 71.9091 11.6003 71.5918 11.3368C71.5381 11.2938 71.4843 11.2454 71.4305 11.2024C71.0971 10.9281 70.7582 10.6646 70.4141 10.401C70.3441 10.3472 70.2742 10.2988 70.2097 10.2451C69.8601 9.98154 69.4998 9.7234 69.1395 9.47064C69.1126 9.44912 69.0857 9.43299 69.0588 9.41686C68.7092 9.17485 68.3543 8.94359 67.9993 8.71234C67.9348 8.66931 67.8756 8.63167 67.8111 8.58864C67.4454 8.35739 67.0743 8.13151 66.6979 7.91102C66.6226 7.86799 66.5473 7.82497 66.472 7.78194C66.0848 7.56145 65.6922 7.34095 65.2942 7.13121C65.2942 7.13121 65.2835 7.13121 65.2781 7.12583C62.3363 5.57697 59.1418 4.40456 55.7268 3.67853C55.3073 3.58711 54.8878 3.50644 54.4683 3.43652C54.834 3.56022 55.1943 3.68391 55.5439 3.81298C55.6676 3.86139 55.7913 3.90979 55.915 3.95281C56.0978 4.02273 56.2753 4.09264 56.4528 4.16255C60.2497 6.09325 70.2689 12.8749 62.9817 28.2076C57.9748 38.7485 53.6831 44.5621 51.9084 49.5421C47.7135 61.3414 53.8337 73.1246 65.0038 72.5384C66.8861 71.565 68.6824 70.4302 70.371 69.1503C72.9525 67.1927 75.2758 64.8963 77.2764 62.3095C77.3033 62.2772 77.3248 62.2503 77.3517 62.218C77.6098 61.8792 77.8626 61.5404 78.11 61.1908C78.1691 61.1102 78.2229 61.0295 78.2821 60.9488C78.5617 60.5508 78.836 60.1529 79.0995 59.7441C79.0995 59.7334 79.1103 59.728 79.1157 59.7173C79.3738 59.3139 79.6266 58.8998 79.874 58.4803C79.9224 58.3996 79.9654 58.3244 80.0138 58.2437C80.2558 57.8296 80.4871 57.4047 80.7129 56.9799C80.7506 56.9099 80.7882 56.8347 80.8259 56.7647C81.041 56.3506 81.2453 55.9365 81.4443 55.5117C81.4605 55.474 81.482 55.431 81.5035 55.3933C81.7132 54.947 81.9068 54.4952 82.1005 54.0435C82.1381 53.952 82.1757 53.8606 82.2134 53.7692C82.4016 53.3121 82.5791 52.8549 82.7458 52.3871C82.7673 52.3333 82.7835 52.2795 82.7996 52.2311C82.9556 51.7955 83.1061 51.3491 83.246 50.9027C83.2729 50.8221 83.2997 50.7414 83.3213 50.6607C83.4665 50.1874 83.6009 49.7142 83.73 49.2302C83.7569 49.1334 83.7838 49.0312 83.8053 48.9344C83.9343 48.4396 84.0527 47.9394 84.1602 47.4339C84.257 46.9714 84.3431 46.5035 84.4237 46.041C84.4399 45.955 84.456 45.8689 84.4668 45.7775C84.5421 45.3311 84.6066 44.8847 84.6657 44.4384C84.6765 44.3523 84.6873 44.2717 84.698 44.1856C84.7518 43.7339 84.8002 43.2821 84.8378 42.8303C84.8378 42.8196 84.8378 42.8035 84.8378 42.7927C84.8755 42.3356 84.9024 41.8731 84.9239 41.4159C84.9239 41.3299 84.9347 41.2438 84.9347 41.1524C84.9508 40.706 84.9615 40.265 84.9615 39.8241C84.9615 39.7434 84.9615 39.6681 84.9615 39.5874ZM56.4797 4.16793C56.5066 4.17869 56.5388 4.18944 56.5711 4.2002C56.7163 4.25936 56.8561 4.31852 56.996 4.37767C57.0605 4.40456 57.125 4.43145 57.1949 4.46372C56.9637 4.36154 56.7271 4.26473 56.4851 4.16793H56.4797Z" fill="#3D4753"/>
</g>
<defs>
<linearGradient id="paint0_linear_216_1234" x1="43.8346" y1="13.1515" x2="11.0424" y2="35.529" gradientUnits="userSpaceOnUse">
<stop stop-color="#1C2A39"/>
<stop offset="1" stop-color="#7C8A99"/>
</linearGradient>
<linearGradient id="paint1_linear_216_1234" x1="43.355" y1="8.73686" x2="11.215" y2="39.1717" gradientUnits="userSpaceOnUse">
<stop/>
<stop offset="1" stop-color="#5C6A79"/>
</linearGradient>
<linearGradient id="paint2_linear_216_1234" x1="27.8413" y1="8.47031" x2="37.2185" y2="87.9998" gradientUnits="userSpaceOnUse">
<stop stop-color="#1C2A39"/>
<stop offset="1" stop-color="#ACBAC9"/>
</linearGradient>
<linearGradient id="paint3_linear_216_1234" x1="31.2637" y1="68.4826" x2="36.7026" y2="5.15372" gradientUnits="userSpaceOnUse">
<stop stop-color="white"/>
<stop offset="1" stop-color="#6C7A89"/>
</linearGradient>
<clipPath id="clip0_216_1234">
<rect width="84.9616" height="78.75" fill="white"/>
</clipPath>
</defs>
</svg>
