<svg width="80" height="80" viewBox="0 0 80 80" fill="none" xmlns="http://www.w3.org/2000/svg">
<g clip-path="url(#clip0_216_1274)">
<path d="M18.2276 39.9969C23.469 35.8186 30.0023 31.9308 33.6861 27.2209C42.0119 16.5835 33.5131 -0.00617981 33.5131 -0.00617981L4.55532 28.9577C-1.52055 35.0336 -1.52055 44.9726 4.55532 51.0423L12.8749 59.3618L33.5131 80C33.5131 80 42.0119 63.4103 33.6861 52.7729C30.0023 48.0692 23.469 44.1752 18.2276 39.9969Z" fill="#3D4753"/>
<path d="M75.0861 28.9577L46.1284 0C46.1284 0 37.6296 16.5897 45.9553 27.2271C49.6391 31.9308 56.1724 35.8248 61.4139 40.0031C56.1724 44.1814 49.6391 48.0692 45.9553 52.7791C37.6296 63.4165 46.1284 80.0062 46.1284 80.0062L66.7666 59.368L75.0861 51.0484C81.162 44.9726 81.162 35.0336 75.0861 28.9639V28.9577Z" fill="#3D4753"/>
<path d="M12.8749 59.3618C7.07096 50.9805 11.6263 45.2631 18.2276 39.9969C11.6263 34.7307 7.07714 29.0134 12.8749 20.632L4.55532 28.9516C-1.52055 35.0274 -1.52055 44.9664 4.55532 51.0361L12.8749 59.3556V59.3618Z" fill="url(#paint0_linear_216_1274)"/>
<path d="M66.7666 59.3618C72.5644 50.9805 68.0152 45.2631 61.4139 39.9969C68.0152 34.7307 72.5644 29.0134 66.7666 20.632L75.0862 28.9516C81.1621 35.0274 81.1621 44.9664 75.0862 51.0361L66.7666 59.3556V59.3618Z" fill="url(#paint1_linear_216_1274)"/>
<path d="M18.2276 39.9969C19.847 38.7051 21.5901 37.4442 23.3331 36.1709C16.0581 33.6862 10.6992 29.8849 12.8749 20.632C7.07721 29.0072 11.6264 34.7307 18.2276 39.9907V39.9969Z" fill="#01052D"/>
<path d="M61.4139 40.0031C59.7945 41.2949 58.0515 42.5558 56.3085 43.8291C63.5834 46.3138 68.9423 50.1151 66.7666 59.368C72.5644 50.9928 68.0152 45.2693 61.4139 40.0093V40.0031Z" fill="#01052D"/>
</g>
<defs>
<linearGradient id="paint0_linear_216_1274" x1="-4.16772e-05" y1="39.9969" x2="18.2276" y2="39.9969" gradientUnits="userSpaceOnUse">
<stop stop-color="#1C2A39"/>
<stop offset="1" stop-color="#7C8A99"/>
</linearGradient>
<linearGradient id="paint1_linear_216_1274" x1="61.4139" y1="9.8722e-07" x2="79.6416" y2="9.8722e-07" gradientUnits="userSpaceOnUse">
<stop stop-color="#1C2A39"/>
<stop offset="1" stop-color="#7C8A99"/>
</linearGradient>
<clipPath id="clip0_216_1274">
<rect width="79.6415" height="80" fill="white"/>
</clipPath>
</defs>
</svg>
