<svg width="59" height="79" viewBox="0 0 59 79" fill="none" xmlns="http://www.w3.org/2000/svg">
<path d="M30.5578 1.44909C28.776 0.507281 26.9688 0.055468 25.1806 0.0045595C25.1806 0.0045595 25.187 0.0045595 25.1933 0.0045595C13.2298 -0.326346 1.75634 17.428 0.279997 29.2324C0.229088 29.646 0.184543 30.0597 0.146362 30.4733C0.146362 30.4733 0.146362 30.4669 0.146362 30.4606C0.146362 30.5051 0.146362 30.5433 0.139998 30.5815C0.101817 31.0269 0.0699992 31.4724 0.0509085 31.9178C0.0509085 32.026 0.0381814 32.1342 0.0318178 32.2424C0.0127271 32.7451 0 33.2287 0 33.7187C0 33.7632 0 33.8078 0 33.8523C0 34.2978 0.0127271 34.7496 0.0318178 35.195C0.0318178 35.3032 0.0381814 35.4114 0.0445449 35.5196C0.0699992 36.0032 0.101817 36.4869 0.146362 36.9641C0.146362 37.0023 0.152725 37.0341 0.159089 37.0723C0.203634 37.5177 0.254542 37.9632 0.318178 38.4086C0.330905 38.5168 0.349996 38.625 0.362723 38.7268C0.432722 39.2041 0.509085 39.675 0.598175 40.1459C0.598175 40.1714 0.610902 40.2032 0.617265 40.2286C0.699992 40.6677 0.801809 41.1132 0.903626 41.5459C0.92908 41.6541 0.954534 41.7622 0.979988 41.8704C1.09453 42.335 1.21544 42.7931 1.34907 43.2513C1.35544 43.2768 1.3618 43.2959 1.36817 43.3213C1.49544 43.754 1.63543 44.1868 1.7818 44.6131C1.81998 44.7213 1.85816 44.8295 1.89634 44.9377C2.05543 45.3895 2.22088 45.8349 2.39906 46.274C2.40543 46.2931 2.41179 46.3122 2.42452 46.3249C2.59633 46.7513 2.78088 47.1713 2.97178 47.5913C3.02269 47.6994 3.06724 47.8076 3.11814 47.9158C3.32178 48.3485 3.53178 48.7812 3.7545 49.2076C3.76086 49.2203 3.76723 49.2331 3.77359 49.2458C3.98995 49.6594 4.21904 50.0731 4.45449 50.4803C4.51813 50.5885 4.5754 50.6903 4.63904 50.7985C4.88721 51.2121 5.13539 51.6321 5.40266 52.0394C5.40266 52.0394 5.40266 52.0458 5.40903 52.0521C5.66993 52.4594 5.94993 52.8603 6.22993 53.2548C6.30629 53.3567 6.37629 53.4648 6.45265 53.5666C6.73265 53.9548 7.01901 54.3366 7.31809 54.7121C7.33082 54.7248 7.33719 54.7375 7.34355 54.7503C7.40718 54.833 7.48355 54.9157 7.54718 54.9984C7.69991 55.1894 7.859 55.3803 8.01809 55.5712C8.11354 55.6857 8.21536 55.8003 8.31081 55.9084C8.45081 56.0675 8.58444 56.233 8.73081 56.3921C8.83262 56.5066 8.9408 56.6275 9.04898 56.7421C9.18898 56.8948 9.32898 57.0539 9.47534 57.2066C9.58352 57.3211 9.6917 57.4357 9.79988 57.5502C9.94625 57.703 10.099 57.8621 10.2517 58.0148C10.3599 58.123 10.4681 58.2311 10.5826 58.3393C10.7417 58.4984 10.9071 58.6575 11.0726 58.8102C11.1808 58.912 11.2826 59.0139 11.3908 59.1093C11.5753 59.2811 11.7662 59.4529 11.9571 59.6248C12.0462 59.7075 12.1417 59.7902 12.2308 59.8729C12.5171 60.1211 12.8035 60.3693 13.0962 60.6175C13.9744 61.3493 15.158 61.4002 16.0871 60.7511C17.0225 60.102 17.4234 58.9439 17.0989 57.8302C15.9598 53.8657 16.138 49.8503 17.6398 45.7776C22.1579 33.5469 35.4768 28.386 35.9732 12.7826C36.1387 7.5072 34.1278 3.35179 30.5387 1.45545L30.5578 1.44909Z" fill="#3D4753"/>
<path fill-rule="evenodd" clip-rule="evenodd" d="M15.578 75.5465C15.5652 77.3028 16.978 78.7346 18.7343 78.7473C20.3125 78.7601 21.5406 77.5955 21.8906 76.1065C22.6861 72.7147 21.1779 69.342 16.8825 67.2611C19.3261 71.162 15.6034 72.2692 15.5843 75.5465H15.578Z" fill="#3D4753"/>
<path d="M27.6306 66.5549C29.4124 67.4967 31.2132 67.9549 33.0078 67.9994C33.0078 67.9994 33.0014 67.9994 32.995 67.9994C44.9522 68.3367 56.4257 50.5823 57.902 38.7716C57.9529 38.3579 57.9975 37.9443 58.0357 37.5307C58.0357 37.5307 58.0357 37.537 58.0357 37.5434C58.0357 37.4989 58.0357 37.4607 58.042 37.4225C58.0802 36.977 58.112 36.5316 58.1311 36.0862C58.1311 35.978 58.1438 35.8698 58.1502 35.7616C58.1693 35.2716 58.182 34.7816 58.182 34.298C58.182 34.2534 58.182 34.2089 58.182 34.1644C58.182 33.7189 58.1693 33.2671 58.1502 32.8216C58.1502 32.7135 58.1438 32.6053 58.1375 32.4971C58.112 32.0135 58.0802 31.5298 58.0357 31.0526C58.0357 31.0144 58.0293 30.9826 58.0229 30.9444C57.9784 30.4989 57.9275 30.0535 57.8638 29.608C57.8511 29.4999 57.832 29.3917 57.8193 29.2899C57.7493 28.8126 57.6729 28.3417 57.5838 27.8708C57.5838 27.8453 57.5711 27.8135 57.5648 27.7881C57.482 27.349 57.3802 26.9035 57.2784 26.4708C57.2529 26.3626 57.2275 26.2544 57.202 26.1463C57.0875 25.6817 56.9666 25.2236 56.8329 24.7654C56.8266 24.7399 56.8202 24.7208 56.8139 24.6954C56.6866 24.2627 56.5466 23.8299 56.4002 23.4036C56.362 23.2954 56.3239 23.1872 56.2857 23.079C56.1266 22.6272 55.9611 22.1818 55.783 21.7427C55.7766 21.7236 55.7702 21.7045 55.7575 21.6918C55.5857 21.2654 55.4011 20.8454 55.2102 20.4254C55.1593 20.3172 55.1148 20.2091 55.0639 20.1009C54.8602 19.6682 54.6502 19.2354 54.4275 18.8091C54.4212 18.7964 54.4148 18.7836 54.4084 18.7709C54.1921 18.3573 53.963 17.9436 53.7275 17.5364C53.6639 17.4282 53.6066 17.3264 53.543 17.2182C53.2948 16.8046 53.0466 16.3846 52.7794 15.9773C52.7794 15.9773 52.7794 15.9709 52.773 15.9646C52.5121 15.5573 52.2321 15.1564 51.9521 14.7619C51.8757 14.66 51.8057 14.5519 51.7294 14.45C51.4494 14.0619 51.163 13.6801 50.8639 13.3046C50.8512 13.2919 50.8448 13.2791 50.8385 13.2664C50.7748 13.1837 50.6985 13.101 50.6348 13.0182C50.4821 12.8273 50.323 12.6364 50.1639 12.4455C50.0685 12.331 49.9667 12.2164 49.8712 12.1083C49.7312 11.9492 49.5976 11.7837 49.4512 11.6246C49.3494 11.5101 49.2412 11.3892 49.133 11.2746C48.993 11.1219 48.853 10.9628 48.7067 10.8101C48.5985 10.6955 48.4903 10.581 48.3821 10.4665C48.2358 10.3137 48.083 10.1546 47.9303 10.0019C47.8221 9.89374 47.714 9.78555 47.5994 9.67737C47.4403 9.51829 47.2749 9.3592 47.1094 9.20647C47.0012 9.10465 46.8994 9.00284 46.7912 8.90738C46.6067 8.73557 46.4158 8.56375 46.2249 8.39194C46.1358 8.30921 46.0403 8.22648 45.9513 8.14376C45.6649 7.89558 45.3785 7.6474 45.0858 7.39922C44.2076 6.66741 43.024 6.6165 42.0949 7.26558C41.1595 7.91467 40.7586 9.07284 41.0831 10.1865C42.2222 14.151 42.044 18.1664 40.5422 22.239C36.0241 34.4698 22.7052 39.6307 22.2088 55.2341C22.0434 60.5095 24.0542 64.6649 27.6433 66.5612L27.6306 66.5549Z" fill="#3D4753"/>
</svg>
