<svg width="153" height="141" viewBox="0 0 153 141" fill="none" xmlns="http://www.w3.org/2000/svg">
<path d="M41.7026 133L35.6426 126.54V133H34.2426V119.02H35.6426V125.56L41.7026 119.02H43.4826L36.9426 126L43.5426 133H41.7026ZM44.9698 127.52C44.9698 126.4 45.1898 125.42 45.6298 124.58C46.0831 123.727 46.7031 123.073 47.4898 122.62C48.2898 122.153 49.1898 121.92 50.1898 121.92C51.2298 121.92 52.1231 122.16 52.8698 122.64C53.6298 123.12 54.1764 123.733 54.5098 124.48V122.08H55.9098V133H54.5098V130.58C54.1631 131.327 53.6098 131.947 52.8498 132.44C52.1031 132.92 51.2098 133.16 50.1698 133.16C49.1831 133.16 48.2898 132.927 47.4898 132.46C46.7031 131.993 46.0831 131.333 45.6298 130.48C45.1898 129.627 44.9698 128.64 44.9698 127.52ZM54.5098 127.54C54.5098 126.66 54.3298 125.887 53.9698 125.22C53.6098 124.553 53.1164 124.04 52.4898 123.68C51.8764 123.32 51.1964 123.14 50.4498 123.14C49.6764 123.14 48.9831 123.313 48.3698 123.66C47.7564 124.007 47.2698 124.513 46.9098 125.18C46.5631 125.833 46.3898 126.613 46.3898 127.52C46.3898 128.413 46.5631 129.2 46.9098 129.88C47.2698 130.547 47.7564 131.06 48.3698 131.42C48.9831 131.767 49.6764 131.94 50.4498 131.94C51.1964 131.94 51.8764 131.76 52.4898 131.4C53.1164 131.04 53.6098 130.527 53.9698 129.86C54.3298 129.193 54.5098 128.42 54.5098 127.54ZM60.5059 118.2V133H59.1059V118.2H60.5059ZM73.5562 126.98C73.5562 127.46 73.5428 127.827 73.5162 128.08H64.4562C64.4962 128.907 64.6962 129.613 65.0562 130.2C65.4162 130.787 65.8895 131.233 66.4762 131.54C67.0628 131.833 67.7028 131.98 68.3962 131.98C69.3028 131.98 70.0628 131.76 70.6762 131.32C71.3028 130.88 71.7162 130.287 71.9162 129.54H73.3962C73.1295 130.607 72.5562 131.48 71.6762 132.16C70.8095 132.827 69.7162 133.16 68.3962 133.16C67.3695 133.16 66.4495 132.933 65.6362 132.48C64.8228 132.013 64.1828 131.36 63.7162 130.52C63.2628 129.667 63.0362 128.673 63.0362 127.54C63.0362 126.407 63.2628 125.413 63.7162 124.56C64.1695 123.707 64.8028 123.053 65.6162 122.6C66.4295 122.147 67.3562 121.92 68.3962 121.92C69.4362 121.92 70.3428 122.147 71.1162 122.6C71.9028 123.053 72.5028 123.667 72.9162 124.44C73.3428 125.2 73.5562 126.047 73.5562 126.98ZM72.1362 126.94C72.1495 126.127 71.9828 125.433 71.6362 124.86C71.3028 124.287 70.8428 123.853 70.2562 123.56C69.6695 123.267 69.0295 123.12 68.3362 123.12C67.2962 123.12 66.4095 123.453 65.6762 124.12C64.9428 124.787 64.5362 125.727 64.4562 126.94H72.1362ZM81.2376 121.88C82.5442 121.88 83.6109 122.287 84.4376 123.1C85.2642 123.9 85.6776 125.067 85.6776 126.6V133H84.2976V126.76C84.2976 125.573 83.9976 124.667 83.3976 124.04C82.8109 123.413 82.0042 123.1 80.9776 123.1C79.9242 123.1 79.0842 123.433 78.4576 124.1C77.8309 124.767 77.5176 125.747 77.5176 127.04V133H76.1176V122.08H77.5176V123.94C77.8642 123.273 78.3642 122.767 79.0176 122.42C79.6709 122.06 80.4109 121.88 81.2376 121.88ZM88.1338 127.52C88.1338 126.4 88.3605 125.42 88.8138 124.58C89.2672 123.727 89.8872 123.073 90.6738 122.62C91.4738 122.153 92.3738 121.92 93.3738 121.92C94.3338 121.92 95.2005 122.153 95.9738 122.62C96.7472 123.087 97.3138 123.693 97.6738 124.44V118.2H99.0738V133H97.6738V130.56C97.3405 131.32 96.7938 131.947 96.0338 132.44C95.2738 132.92 94.3805 133.16 93.3538 133.16C92.3538 133.16 91.4538 132.927 90.6538 132.46C89.8672 131.993 89.2472 131.333 88.7938 130.48C88.3538 129.627 88.1338 128.64 88.1338 127.52ZM97.6738 127.54C97.6738 126.66 97.4938 125.887 97.1338 125.22C96.7738 124.553 96.2805 124.04 95.6538 123.68C95.0405 123.32 94.3605 123.14 93.6138 123.14C92.8405 123.14 92.1472 123.313 91.5338 123.66C90.9205 124.007 90.4338 124.513 90.0738 125.18C89.7272 125.833 89.5538 126.613 89.5538 127.52C89.5538 128.413 89.7272 129.2 90.0738 129.88C90.4338 130.547 90.9205 131.06 91.5338 131.42C92.1472 131.767 92.8405 131.94 93.6138 131.94C94.3605 131.94 95.0405 131.76 95.6538 131.4C96.2805 131.04 96.7738 130.527 97.1338 129.86C97.4938 129.193 97.6738 128.42 97.6738 127.54ZM112.15 126.98C112.15 127.46 112.137 127.827 112.11 128.08H103.05C103.09 128.907 103.29 129.613 103.65 130.2C104.01 130.787 104.483 131.233 105.07 131.54C105.657 131.833 106.297 131.98 106.99 131.98C107.897 131.98 108.657 131.76 109.27 131.32C109.897 130.88 110.31 130.287 110.51 129.54H111.99C111.723 130.607 111.15 131.48 110.27 132.16C109.403 132.827 108.31 133.16 106.99 133.16C105.963 133.16 105.043 132.933 104.23 132.48C103.417 132.013 102.777 131.36 102.31 130.52C101.857 129.667 101.63 128.673 101.63 127.54C101.63 126.407 101.857 125.413 102.31 124.56C102.763 123.707 103.397 123.053 104.21 122.6C105.023 122.147 105.95 121.92 106.99 121.92C108.03 121.92 108.937 122.147 109.71 122.6C110.497 123.053 111.097 123.667 111.51 124.44C111.937 125.2 112.15 126.047 112.15 126.98ZM110.73 126.94C110.743 126.127 110.577 125.433 110.23 124.86C109.897 124.287 109.437 123.853 108.85 123.56C108.263 123.267 107.623 123.12 106.93 123.12C105.89 123.12 105.003 123.453 104.27 124.12C103.537 124.787 103.13 125.727 103.05 126.94H110.73ZM116.111 124.02C116.418 123.34 116.885 122.813 117.511 122.44C118.151 122.067 118.931 121.88 119.851 121.88V123.34H119.471C118.458 123.34 117.645 123.613 117.031 124.16C116.418 124.707 116.111 125.62 116.111 126.9V133H114.711V122.08H116.111V124.02Z" fill="#3D4753"/>
<g filter="url(#filter0_d_426_1240)">
<rect x="34" y="5" width="85" height="85" rx="18.7" fill="url(#paint0_linear_426_1240)"/>
</g>
<path d="M73.9764 65.979H56.1507C55.2978 65.979 54.6029 65.2841 54.6029 64.4312V30.3276C54.6029 29.4747 55.2978 28.7798 56.1507 28.7798H96.4455C97.2983 28.7798 97.9932 29.4747 97.9932 30.3276V47.3741" stroke="white" stroke-width="2.55" stroke-linecap="round" stroke-linejoin="round"/>
<path d="M90.2545 74.5076C97.1046 74.5076 102.658 68.9544 102.658 62.1043C102.658 55.2542 97.1046 49.701 90.2545 49.701C83.4043 49.701 77.8512 55.2542 77.8512 62.1043C77.8512 68.9544 83.4043 74.5076 90.2545 74.5076Z" stroke="white" stroke-width="2.55" stroke-linecap="round" stroke-linejoin="round"/>
<path d="M90.2544 55.1235V62.1043H97.2246" stroke="white" stroke-width="2.55" stroke-linecap="round" stroke-linejoin="round"/>
<path d="M62.3523 26.4529V31.1067" stroke="white" stroke-width="2.55" stroke-linecap="round" stroke-linejoin="round"/>
<path d="M69.3226 26.4529V31.1067" stroke="white" stroke-width="2.55" stroke-linecap="round" stroke-linejoin="round"/>
<path d="M76.3033 26.4529V31.1067" stroke="white" stroke-width="2.55" stroke-linecap="round" stroke-linejoin="round"/>
<path d="M83.2737 26.4529V31.1067" stroke="white" stroke-width="2.55" stroke-linecap="round" stroke-linejoin="round"/>
<path d="M90.2544 26.4529V31.1067" stroke="white" stroke-width="2.55" stroke-linecap="round" stroke-linejoin="round"/>
<path d="M59.2568 37.2979H93.35" stroke="white" stroke-width="2.55" stroke-linecap="square" stroke-linejoin="round"/>
<defs>
<filter id="filter0_d_426_1240" x="29.75" y="0.75" width="110.5" height="110.5" filterUnits="userSpaceOnUse" color-interpolation-filters="sRGB">
<feFlood flood-opacity="0" result="BackgroundImageFix"/>
<feColorMatrix in="SourceAlpha" type="matrix" values="0 0 0 0 0 0 0 0 0 0 0 0 0 0 0 0 0 0 127 0" result="hardAlpha"/>
<feOffset dx="8.5" dy="8.5"/>
<feGaussianBlur stdDeviation="6.375"/>
<feComposite in2="hardAlpha" operator="out"/>
<feColorMatrix type="matrix" values="0 0 0 0 0.239216 0 0 0 0 0.278431 0 0 0 0 0.32549 0 0 0 0.3 0"/>
<feBlend mode="normal" in2="BackgroundImageFix" result="effect1_dropShadow_426_1240"/>
<feBlend mode="normal" in="SourceGraphic" in2="effect1_dropShadow_426_1240" result="shape"/>
</filter>
<linearGradient id="paint0_linear_426_1240" x1="21.25" y1="-13.275" x2="136" y2="109.975" gradientUnits="userSpaceOnUse">
<stop offset="0.120204" stop-color="#E47A24"/>
<stop offset="0.962154" stop-color="#3D4753"/>
</linearGradient>
</defs>
</svg>
