<svg width="100" height="140" viewBox="0 0 100 140" fill="none" xmlns="http://www.w3.org/2000/svg">
<g id="coffee_icon" clip-path="url(#clip0_131_437)">
<path id="Vector" fill-rule="evenodd" clip-rule="evenodd" d="M21.4525 99.2098C5.10952 85.5774 -1.95673 67.2414 0.463913 47.8472C2.87731 28.5184 21.6554 -0.543821 41.2307 0.00698329C77.2721 15.0889 -11.4291 57.2399 21.4525 99.2098Z" fill="url(#paint0_linear_131_437)"/>
<g id="Group">
<path id="Vector_2" fill-rule="evenodd" clip-rule="evenodd" d="M21.4524 99.2101C17.8722 96.2242 14.734 93.0063 12.0452 89.6073C2.89174 78.0259 -1.0726 64.2775 0.24643 49.8624C0.768245 64.4877 10.2116 64.9515 15.2124 57.349V57.3635C29.8667 31.5699 62.828 11.1756 41.2306 0.00732422C77.2793 15.0892 -11.4292 57.2403 21.4524 99.2101Z" fill="#2D0100"/>
</g>
<path id="Vector_3" fill-rule="evenodd" clip-rule="evenodd" d="M21.4596 99.2173C-11.4437 57.2402 77.3083 15.0746 41.2161 0C44.1513 0.0797217 47.101 0.826207 50.0218 2.36991C55.8922 5.47181 59.1898 12.2771 58.9144 20.9161C58.1099 46.4633 36.3024 54.9065 28.9028 74.9311C26.4459 81.5915 26.1487 88.1649 28.0113 94.6586C28.5404 96.485 27.8809 98.3766 26.3517 99.442C24.8225 100.507 22.8874 100.42 21.4524 99.2245L21.4596 99.2173Z" fill="url(#paint1_linear_131_437)"/>
<g id="Group_2">
<path id="Vector_4" fill-rule="evenodd" clip-rule="evenodd" d="M21.4597 99.2174C-11.4437 57.2475 77.2793 15.0892 41.2306 0.00732422C51.1886 0.992974 56.2401 10.3204 54.9138 19.0536C51.2393 43.3107 21.0176 51.7974 20.7204 80.1856C20.6479 86.8315 22.5323 93.2527 26.3589 99.442C24.8297 100.507 22.8946 100.42 21.4597 99.2246V99.2174Z" fill="url(#paint2_linear_131_437)"/>
</g>
<path id="Vector_5" fill-rule="evenodd" clip-rule="evenodd" d="M78.5476 9.39258C94.8906 23.025 101.957 41.3537 99.5362 60.7478C97.1228 80.0767 78.3447 109.139 58.7694 108.588C22.7279 93.5062 111.429 51.3552 78.5476 9.39258Z" fill="url(#paint3_linear_131_437)"/>
<g id="Group_3">
<path id="Vector_6" fill-rule="evenodd" clip-rule="evenodd" d="M78.5476 9.39258C82.1278 12.3785 85.266 15.5964 87.9548 18.9954C97.1083 30.5696 101.073 44.3179 99.7536 58.7331C99.2318 44.1078 89.7884 43.6439 84.7877 51.2465V51.232C70.1334 77.0256 37.1721 97.4271 58.7694 108.588C22.7279 93.5062 111.429 51.3552 78.5476 9.39258Z" fill="#2D0100"/>
</g>
<path id="Vector_7" fill-rule="evenodd" clip-rule="evenodd" d="M78.5404 9.3854C111.444 51.3552 22.6917 93.5208 58.7839 108.595C55.8487 108.516 52.899 107.769 49.9783 106.226C44.1079 103.124 40.8103 96.3183 41.0857 87.6794C41.8901 62.1322 63.6977 53.6889 71.0973 33.6643C73.5542 27.0039 73.8513 20.4305 71.9887 13.9368C71.4597 12.1104 72.1192 10.2188 73.6484 9.15348C75.1776 8.08811 77.1126 8.17508 78.5476 9.3709L78.5404 9.3854Z" fill="url(#paint4_linear_131_437)"/>
<g id="Group_4">
<path id="Vector_8" fill-rule="evenodd" clip-rule="evenodd" d="M78.5404 9.38547C111.436 51.3481 22.7207 93.5136 58.7694 108.595C48.8114 107.61 43.7599 98.2824 45.0862 89.5493C48.7607 65.2921 78.9824 56.8054 79.2796 28.4172C79.3521 21.7713 77.4677 15.3501 73.6411 9.1608C75.1703 8.09543 77.1054 8.1824 78.5404 9.37822V9.38547Z" fill="url(#paint5_linear_131_437)"/>
</g>
<path id="Vector_9" fill-rule="evenodd" clip-rule="evenodd" d="M33.3962 132.606C33.3672 136.317 36.3532 139.346 40.0711 139.375C43.4121 139.397 46.0067 136.94 46.746 133.787C48.4274 126.612 45.2457 119.488 36.1502 115.082C41.3176 123.337 33.4469 125.67 33.4035 132.599L33.3962 132.606Z" fill="url(#paint6_linear_131_437)"/>
<path id="Vector_10" opacity="0.5" fill-rule="evenodd" clip-rule="evenodd" d="M34.8384 132.621C34.8167 135.534 37.1648 137.919 40.0783 137.94C41.2161 137.948 42.238 137.592 43.0787 136.976C40.9987 136.165 39.2159 134.599 38.165 132.432C37.1141 130.265 36.9836 127.743 37.7011 125.554C36.4256 127.794 34.8601 129.845 34.8384 132.613V132.621Z" fill="url(#paint7_linear_131_437)"/>
</g>
<defs>
<linearGradient id="paint0_linear_131_437" x1="-12.1867" y1="84.4803" x2="44.4535" y2="-30.4358" gradientUnits="userSpaceOnUse">
<stop stop-color="#1C2A39"/>
<stop offset="1" stop-color="#7C8A99"/>
</linearGradient>
<linearGradient id="paint1_linear_131_437" x1="8.61488" y1="63.0671" x2="55.0438" y2="-21.8588" gradientUnits="userSpaceOnUse">
<stop stop-color="#7C8A99"/>
<stop offset="1" stop-color="#FEFEFE"/>
</linearGradient>
<linearGradient id="paint2_linear_131_437" x1="13.9948" y1="50.0943" x2="55.124" y2="50.0943" gradientUnits="userSpaceOnUse">
<stop stop-color="#1C2A39"/>
<stop offset="1" stop-color="#BCCAD9"/>
</linearGradient>
<linearGradient id="paint3_linear_131_437" x1="116.309" y1="23.8834" x2="59.6682" y2="138.8" gradientUnits="userSpaceOnUse">
<stop stop-color="#1C2A39"/>
<stop offset="1" stop-color="#7C8A99"/>
</linearGradient>
<linearGradient id="paint4_linear_131_437" x1="95.5068" y1="45.297" x2="49.0784" y2="130.223" gradientUnits="userSpaceOnUse">
<stop stop-color="#7C8A99"/>
<stop offset="1" stop-color="#FEFEFE"/>
</linearGradient>
<linearGradient id="paint5_linear_131_437" x1="85.998" y1="58.5085" x2="44.876" y2="58.5085" gradientUnits="userSpaceOnUse">
<stop stop-color="#1C2A39"/>
<stop offset="1" stop-color="#BCCAD9"/>
</linearGradient>
<linearGradient id="paint6_linear_131_437" x1="48.0722" y1="134.467" x2="27.6347" y2="120.699" gradientUnits="userSpaceOnUse">
<stop stop-color="#1C2A39"/>
<stop offset="1" stop-color="#BCCAD9"/>
</linearGradient>
<linearGradient id="paint7_linear_131_437" x1="34.8384" y1="131.751" x2="43.0715" y2="131.751" gradientUnits="userSpaceOnUse">
<stop stop-color="#1C2A39"/>
<stop offset="1" stop-color="#BCCAD9"/>
</linearGradient>
<clipPath id="clip0_131_437">
<rect width="100" height="139.383" fill="white"/>
</clipPath>
</defs>
</svg>
