<?xml version="1.0" encoding="UTF-8" standalone="no"?>
<svg
   width="1199.999"
   height="600.70599"
   viewBox="0 0 1199.999 600.70599"
   fill="none"
   version="1.1"
   id="svg31"
   sodipodi:docname="dreammall-logo_social.svg"
   inkscape:version="1.3.2 (1:1.3.2+202311252150+091e20ef0f)"
   inkscape:export-filename="dreammall-logo_social.svg"
   inkscape:export-xdpi="96"
   inkscape:export-ydpi="96"
   xmlns:inkscape="http://www.inkscape.org/namespaces/inkscape"
   xmlns:sodipodi="http://sodipodi.sourceforge.net/DTD/sodipodi-0.dtd"
   xmlns="http://www.w3.org/2000/svg"
   xmlns:svg="http://www.w3.org/2000/svg">
  <sodipodi:namedview
     id="namedview31"
     pagecolor="#ffffff"
     bordercolor="#666666"
     borderopacity="1.0"
     inkscape:showpageshadow="2"
     inkscape:pageopacity="0.0"
     inkscape:pagecheckerboard="0"
     inkscape:deskcolor="#d1d1d1"
     inkscape:zoom="0.56270737"
     inkscape:cx="315.43927"
     inkscape:cy="291.44811"
     inkscape:window-width="1920"
     inkscape:window-height="1016"
     inkscape:window-x="1920"
     inkscape:window-y="27"
     inkscape:window-maximized="1"
     inkscape:current-layer="svg31"
     inkscape:export-bgcolor="#ffffff00" />
  <path
     d="m 526.33559,197.0383 c 0,10.56992 -1.38252,19.61774 -4.14563,27.12947 -2.76122,7.51173 -6.72302,13.64936 -11.895,18.39874 -5.16623,4.74939 -11.45267,8.23745 -18.84395,10.4713 -7.3932,2.22678 -16.20338,3.34006 -26.42097,3.34006 h -27.52775 c -1.95889,0 -3.60756,-0.57789 -4.94795,-1.74058 -1.33848,-1.15561 -2.00101,-3.04403 -2.00101,-5.65837 V 148.4801 c 0,-2.61429 0.67019,-4.5028 2.00101,-5.65843 1.34039,-1.15564 2.98141,-1.74051 4.94795,-1.74051 h 29.57855 c 10.27503,0 18.99138,1.20496 26.15289,3.60786 7.1596,2.4029 13.18559,5.96847 18.0895,10.68971 4.89816,4.72133 8.62635,10.55585 11.18458,17.50385 2.54482,6.96197 3.82778,15.00929 3.82778,24.15572 z m -24.23615,0.79638 c 0,-5.46112 -0.64147,-10.54177 -1.91676,-15.23485 -1.2772,-4.6931 -3.32799,-8.75887 -6.14663,-12.20482 -2.81865,-3.44575 -6.44728,-6.13056 -10.86673,-8.06129 -4.42519,-1.93073 -10.23291,-2.89614 -17.42122,-2.89614 h -11.85285 v 78.40061 h 12.20518 c 6.4128,0 11.8184,-0.83141 16.21679,-2.49446 4.39647,-1.66304 8.06148,-4.17167 11.00076,-7.52571 2.93928,-3.35422 5.13752,-7.5259 6.59663,-12.51482 1.45144,-4.99602 2.18483,-10.81656 2.18483,-17.46852 z"
     fill="#3d4753"
     id="path1"
     style="stroke-width:1.91484" />
  <path
     d="m 669.31483,253.08013 c 0,0.65527 -0.12063,1.20501 -0.35999,1.64888 -0.23936,0.44405 -0.80231,0.81744 -1.6908,1.11348 -0.88849,0.29583 -2.19825,0.50015 -3.91777,0.62003 -1.72718,0.11985 -4.06711,0.17616 -7.04087,0.17616 -2.49503,0 -4.48265,-0.0563 -5.96856,-0.17616 -1.48783,-0.11988 -2.6578,-0.34525 -3.51756,-0.66944 -0.85976,-0.32418 -1.47251,-0.73989 -1.82484,-1.24733 -0.35999,-0.50015 -0.65679,-1.11329 -0.88849,-1.82503 l -10.33823,-25.74829 c -1.24847,-2.91018 -2.4663,-5.49636 -3.6516,-7.75128 -1.19102,-2.25492 -2.50843,-4.14334 -3.96755,-5.65835 -1.4591,-1.51502 -3.13458,-2.65666 -5.0322,-3.43178 -1.90143,-0.76805 -4.10159,-1.15561 -6.59471,-1.15561 h -7.30895 v 43.92147 c 0,0.59188 -0.18957,1.12746 -0.57828,1.60675 -0.38679,0.47909 -1.02061,0.85957 -1.91675,1.15561 -0.88849,0.29583 -2.07952,0.53557 -3.56543,0.71174 -1.48784,0.17616 -3.38353,0.2677 -5.70241,0.2677 -2.25375,0 -4.14371,-0.0916 -5.65834,-0.2677 -1.51465,-0.17617 -2.72099,-0.41591 -3.60757,-0.71174 -0.88849,-0.29604 -1.51655,-0.68361 -1.86888,-1.15561 -0.35808,-0.47221 -0.53425,-1.00778 -0.53425,-1.60675 V 148.21947 c 0,-2.61429 0.66829,-4.50279 2.00102,-5.65843 1.33847,-1.15564 2.98141,-1.74051 4.94795,-1.74051 h 29.8447 c 3.0312,0 5.52624,0.0563 7.48511,0.17617 1.95888,0.11979 3.7416,0.26777 5.34816,0.44393 4.63008,0.65533 8.80252,1.78279 12.51731,3.38238 3.71288,1.60661 6.86279,3.69946 9.44208,6.27853 2.58695,2.5861 4.56116,5.64433 5.92835,9.17468 1.36719,3.53749 2.05079,7.58929 2.05079,12.16251 0,3.86145 -0.49402,7.37767 -1.47443,10.55573 -0.97847,3.17807 -2.42418,6.01089 -4.31987,8.50535 -1.90144,2.49447 -4.24903,4.66475 -7.03897,6.50395 -2.79182,1.8392 -5.97047,3.32607 -9.5359,4.45353 1.71952,0.83143 3.33948,1.83921 4.85603,3.03005 1.51465,1.19084 2.93737,2.62832 4.27777,4.3195 1.33846,1.69118 2.60035,3.62192 3.78372,5.79239 1.19104,2.17028 2.3476,4.61553 3.47543,7.34955 l 9.71016,22.71824 c 0.88849,2.25492 1.48783,3.90397 1.78272,4.9468 0.30446,1.05699 0.4519,1.87444 0.4519,2.46631 z m -30.20469,-78.21742 c 0,-3.79808 -0.85978,-7.00429 -2.58696,-9.61862 -1.72718,-2.61433 -4.54583,-4.45354 -8.4636,-5.52452 -1.19102,-0.29598 -2.53716,-0.53557 -4.05371,-0.71173 -1.51464,-0.17617 -3.60756,-0.26777 -6.27877,-0.26777 h -10.51439 v 32.69636 h 11.93904 c 3.32608,0 6.23664,-0.40174 8.73167,-1.20501 2.49503,-0.80328 4.57264,-1.93074 6.23663,-3.38237 1.66209,-1.45165 2.91056,-3.19224 3.7416,-5.2145 0.83105,-2.02245 1.24849,-4.27737 1.24849,-6.77184 z"
     fill="#3d4753"
     id="path2"
     style="stroke-width:1.91484" />
  <path
     d="m 795.10648,247.19965 c 0,1.72643 -0.0785,3.1639 -0.22596,4.3195 -0.14936,1.15561 -0.37339,2.09293 -0.67019,2.80467 -0.29489,0.71156 -0.6702,1.23316 -1.11253,1.55716 -0.44425,0.32418 -0.93827,0.49326 -1.47442,0.49326 h -57.91437 c -1.95888,0 -3.60947,-0.57771 -4.94795,-1.74041 -1.33847,-1.15561 -2.001,-3.04421 -2.001,-5.65853 V 148.4836 c 0,-2.61429 0.66828,-4.50279 2.001,-5.65844 1.33848,-1.15563 2.98141,-1.7405 4.94795,-1.7405 h 57.55629 c 0.53424,0 1.00721,0.14799 1.42273,0.44394 0.41552,0.29596 0.76785,0.81741 1.07231,1.55729 0.29488,0.7399 0.52084,1.69119 0.66828,2.85389 0.14936,1.15564 0.22595,2.62839 0.22595,4.41117 0,1.663 -0.0766,3.07233 -0.22595,4.23503 -0.14744,1.15563 -0.3734,2.09283 -0.66828,2.80454 -0.2968,0.7117 -0.65679,1.23316 -1.07231,1.5573 -0.41552,0.32415 -0.88849,0.49327 -1.42273,0.49327 h -41.16525 v 28.1513 h 34.8367 c 0.53424,0 1.02061,0.16199 1.47252,0.49326 0.44424,0.32398 0.81764,0.83143 1.11251,1.51502 0.29681,0.68341 0.52276,1.60656 0.67021,2.76217 0.14743,1.1556 0.22594,2.572 0.22594,4.23504 0,1.72643 -0.0785,3.14992 -0.22594,4.27738 -0.14745,1.12745 -0.3734,2.03643 -0.67021,2.71983 -0.29487,0.68361 -0.66827,1.16978 -1.11251,1.4729 -0.44425,0.29585 -0.93828,0.44387 -1.47252,0.44387 h -34.8367 v 32.52012 h 41.52333 c 0.53615,0 1.02252,0.16199 1.47442,0.49326 0.44233,0.32419 0.81764,0.84559 1.11253,1.55734 0.2968,0.71174 0.52083,1.64886 0.67019,2.80447 0.14744,1.14872 0.22596,2.58619 0.22596,4.3126 z"
     fill="#3d4753"
     id="path3"
     style="stroke-width:1.91484" />
  <path
     d="m 957.28583,247.63662 c 0.71232,2.13505 1.15656,3.83333 1.34039,5.08046 0.17616,1.24732 -0.0632,2.18446 -0.71231,2.80467 -0.65489,0.62002 -1.81145,1.00758 -3.47545,1.15561 -1.66208,0.14802 -3.95223,0.22557 -6.85704,0.22557 -3.02928,0 -5.39028,-0.0423 -7.08109,-0.13405 -1.69272,-0.0915 -2.98905,-0.26769 -3.87754,-0.53538 -0.88657,-0.2679 -1.51464,-0.6342 -1.86698,-1.11349 -0.35999,-0.472 -0.65488,-1.0993 -0.88848,-1.86735 l -7.75128,-23.1621 h -43.3003 l -7.30703,22.54208 c -0.23935,0.83142 -0.54956,1.529 -0.93827,2.09273 -0.3868,0.56373 -1.0072,1.00778 -1.86697,1.33886 -0.85976,0.32417 -2.07951,0.54975 -3.64968,0.66942 -1.57209,0.11987 -3.6382,0.17616 -6.19643,0.17616 -2.73439,0 -4.86944,-0.0915 -6.41281,-0.26769 -1.54336,-0.17617 -2.61375,-0.60604 -3.20544,-1.28945 -0.5936,-0.68361 -0.80423,-1.64906 -0.62806,-2.89619 0.17616,-1.24733 0.62806,-2.91038 1.33846,-4.98912 l 35.52606,-102.28153 c 0.35999,-1.00767 0.76976,-1.82509 1.24847,-2.45223 0.47105,-0.62011 1.23316,-1.09927 2.26909,-1.42341 1.03592,-0.32415 2.47972,-0.53554 4.31987,-0.62715 1.84016,-0.0916 4.27776,-0.13388 7.30896,-0.13388 3.50224,0 6.29216,0.0423 8.37167,0.13389 2.07952,0.0915 3.69948,0.29595 4.85604,0.62714 1.15466,0.32414 1.98761,0.8174 2.49504,1.47274 0.49977,0.65533 0.93635,1.54321 1.28869,2.67066 z m -52.9262,-84.54538 h -0.09 l -16.3087,49.00211 h 32.69973 z"
     fill="#3d4753"
     id="path4"
     style="stroke-width:1.91484" />
  <path
     d="m 1150.499,252.89688 c 0,0.59188 -0.1608,1.12746 -0.4921,1.60675 -0.3255,0.47909 -0.9229,0.85957 -1.7828,1.15561 -0.8596,0.29583 -2.0028,0.53557 -3.4333,0.71174 -1.4226,0.17616 -3.2341,0.2677 -5.4324,0.2677 -2.135,0 -3.9196,-0.0916 -5.35,-0.2677 -1.4228,-0.17617 -2.5506,-0.41591 -3.3816,-0.71174 -0.8329,-0.29604 -1.4246,-0.68361 -1.7827,-1.15561 -0.36,-0.47221 -0.5362,-1.00778 -0.5362,-1.60675 v -93.81153 h -0.1761 l -33.4121,93.72001 c -0.2394,0.77512 -0.6204,1.40932 -1.1566,1.91655 -0.5342,0.50744 -1.2599,0.90918 -2.1847,1.20502 -0.9231,0.29604 -2.093,0.49326 -3.5158,0.5779 -1.4246,0.0915 -3.1499,0.13385 -5.1662,0.13385 -2.0221,0 -3.7415,-0.0776 -5.1662,-0.22557 -1.4227,-0.14784 -2.6004,-0.38757 -3.5157,-0.71156 -0.923,-0.32418 -1.6486,-0.72592 -2.1848,-1.20501 -0.5362,-0.4722 -0.8885,-1.03593 -1.0724,-1.69118 l -32.2554,-93.72001 h -0.1761 v 93.81153 c 0,0.59188 -0.1609,1.12746 -0.4922,1.60675 -0.3255,0.47909 -0.9383,0.85957 -1.8267,1.15561 -0.8867,0.29583 -2.0355,0.53557 -3.4314,0.71174 -1.396,0.17616 -3.192,0.2677 -5.3922,0.2677 -2.1351,0 -3.9178,-0.0916 -5.3481,-0.2677 -1.4228,-0.17617 -2.5718,-0.41591 -3.4315,-0.71174 -0.8597,-0.29604 -1.4592,-0.68361 -1.7847,-1.15561 -0.3236,-0.47221 -0.492,-1.00778 -0.492,-1.60675 v -102.7255 c 0,-3.03005 0.8022,-5.34837 2.4031,-6.94796 1.6066,-1.60662 3.7416,-2.40289 6.4128,-2.40289 h 15.3283 c 2.7344,0 5.0819,0.22549 7.0409,0.66942 1.9589,0.44395 3.6496,1.19088 5.0801,2.22673 1.4246,1.0429 2.6156,2.40289 3.5673,4.10113 0.9497,1.69119 1.7827,3.78403 2.4931,6.27853 l 24.9484,68.69044 h 0.3601 l 25.835,-68.50723 c 0.7679,-2.49449 1.6219,-4.60143 2.5372,-6.32786 0.9229,-1.71937 1.9876,-3.12164 3.2073,-4.18568 1.2198,-1.07108 2.6558,-1.82507 4.32,-2.26901 1.662,-0.44393 3.5941,-0.66943 5.7923,-0.66943 h 15.7725 c 1.6066,0 2.9872,0.21141 4.1438,0.62011 1.1564,0.41574 2.1082,1.02175 2.8549,1.82506 0.7391,0.80332 1.3041,1.7828 1.6909,2.93844 0.3868,1.15564 0.5783,2.48041 0.5783,3.96724 v 102.71846 z"
     fill="#3d4753"
     id="path5"
     style="stroke-width:1.91484" />
  <path
     d="m 568.20932,438.40646 c 0,0.59169 -0.16276,1.12785 -0.49403,1.60655 -0.32361,0.48064 -0.92294,0.85978 -1.78272,1.15657 -0.85976,0.2949 -2.00101,0.53616 -3.4314,0.71233 -1.42463,0.17616 -3.23607,0.26615 -5.43431,0.26615 -2.13505,0 -3.91776,-0.09 -5.34815,-0.26615 -1.42464,-0.17617 -2.55247,-0.41743 -3.38352,-0.71233 -0.83104,-0.29679 -1.42464,-0.68359 -1.78272,-1.15657 -0.36,-0.47104 -0.53616,-1.0072 -0.53616,-1.60655 V 344.5965 h -0.17616 l -33.41205,93.71997 c -0.23936,0.7736 -0.62042,1.40933 -1.15466,1.91484 -0.53615,0.50745 -1.26187,0.90955 -2.18484,1.20636 -0.92294,0.29488 -2.09291,0.49211 -3.51755,0.57827 -1.42273,0.09 -3.14991,0.13212 -5.16624,0.13212 -2.02207,0 -3.7416,-0.0766 -5.16433,-0.22402 -1.42464,-0.14937 -2.60036,-0.38872 -3.51756,-0.71232 -0.92295,-0.32362 -1.64867,-0.72573 -2.18483,-1.20445 -0.53616,-0.47296 -0.88849,-1.03592 -1.07039,-1.6908 L 456.21027,344.5965 h -0.17616 v 93.80996 c 0,0.59169 -0.16084,1.12785 -0.49211,1.60655 -0.3236,0.48064 -0.93828,0.85978 -1.82485,1.15657 -0.88848,0.2949 -2.03738,0.53616 -3.4333,0.71233 -1.39591,0.17616 -3.19205,0.26615 -5.39028,0.26615 -2.13504,0 -3.91968,-0.09 -5.35006,-0.26615 -1.42273,-0.17617 -2.57164,-0.41743 -3.4314,-0.71233 -0.85976,-0.29679 -1.45911,-0.68359 -1.78272,-1.15657 -0.32552,-0.47104 -0.49403,-1.0072 -0.49403,-1.60655 V 335.681 c 0,-3.02928 0.80424,-5.34068 2.40313,-6.94742 1.60655,-1.60655 3.7416,-2.40274 6.4128,-2.40274 h 15.3283 c 2.7344,0 5.08199,0.22537 7.04087,0.66943 1.95889,0.44386 3.64969,1.19084 5.08199,2.22658 1.42272,1.04301 2.61376,2.40292 3.56544,4.10082 0.95168,1.6908 1.78271,3.78373 2.49503,6.27876 l 24.94654,68.69108 h 0.35999 l 25.83695,-68.50726 c 0.76786,-2.49504 1.61996,-4.60136 2.53526,-6.32855 0.92487,-1.71914 1.98761,-3.11429 3.20735,-4.18545 1.21976,-1.07117 2.6578,-1.82504 4.31989,-2.2691 1.66399,-0.44385 3.59415,-0.66942 5.79239,-0.66942 h 15.77255 c 1.60655,0 2.98905,0.2114 4.14371,0.62022 1.15656,0.41571 2.10825,1.02176 2.85502,1.82503 0.73913,0.80328 1.30401,1.78291 1.69081,2.93852 0.38871,1.15618 0.57828,2.48125 0.57828,3.96716 v 102.7178 z"
     fill="#3d4753"
     id="path6"
     style="stroke-width:1.91484" />
  <path
     d="m 730.38868,433.14066 c 0.71232,2.13505 1.15656,3.83159 1.34039,5.08007 0.17617,1.24656 -0.0632,2.18483 -0.71233,2.80333 -0.65487,0.62041 -1.81143,1.00912 -3.47542,1.15656 -1.66208,0.14744 -3.95224,0.22595 -6.85705,0.22595 -3.02927,0 -5.39028,-0.0421 -7.08109,-0.13404 -1.69272,-0.0919 -2.98906,-0.26807 -3.87756,-0.53615 -0.88656,-0.26808 -1.51463,-0.63382 -1.86696,-1.11253 -0.35998,-0.47296 -0.65487,-1.09911 -0.88848,-1.86888 l -7.75127,-23.16191 h -43.3003 l -7.30703,22.54341 c -0.23936,0.83104 -0.54956,1.52805 -0.93827,2.09293 -0.38681,0.56296 -1.00721,1.00721 -1.86697,1.33847 -0.85977,0.32361 -2.07953,0.54956 -3.65161,0.66827 -1.57017,0.12065 -3.63628,0.17617 -6.19451,0.17617 -2.7344,0 -4.86944,-0.09 -6.4128,-0.26615 -1.54336,-0.17617 -2.61376,-0.60701 -3.20544,-1.29061 -0.5936,-0.68359 -0.80424,-1.64868 -0.62808,-2.89524 0.17617,-1.24848 0.62808,-2.91055 1.33848,-4.99008 l 35.54711,-102.27412 c 0.35998,-1.00779 0.76976,-1.82524 1.24847,-2.45235 0.47106,-0.62003 1.23316,-1.09911 2.26909,-1.4233 1.03593,-0.32419 2.47972,-0.53558 4.31988,-0.62021 1.84016,-0.0915 4.27776,-0.13385 7.30894,-0.13385 3.50225,0 6.29217,0.0423 8.37168,0.13385 2.07953,0.0917 3.69949,0.29602 4.85605,0.62021 1.15465,0.32419 1.9876,0.81745 2.49503,1.4727 0.49978,0.65526 0.93636,1.54317 1.28869,2.67063 z m -52.9262,-84.54597 h -0.09 l -16.3087,48.99503 h 32.69975 z"
     fill="#3d4753"
     id="path7"
     style="stroke-width:1.91484" />
  <path
     d="m 852.5785,432.34791 c 0,1.78272 -0.0766,3.28204 -0.22595,4.49414 -0.14744,1.21974 -0.37339,2.22695 -0.66828,3.03119 -0.2968,0.80232 -0.67019,1.38059 -1.11444,1.74059 -0.44423,0.35807 -0.96507,0.53423 -1.55676,0.53423 h -52.83429 c -1.95888,0 -3.60948,-0.57635 -4.94795,-1.73292 -1.33847,-1.15464 -2.001,-3.04459 -2.001,-5.65836 V 330.07263 c 0,-0.59206 0.18957,-1.12747 0.57827,-1.60675 0.38681,-0.47201 1.02062,-0.85976 1.91677,-1.1556 0.88848,-0.29604 2.09291,-0.53558 3.60755,-0.71175 1.51656,-0.17616 3.39693,-0.26769 5.66028,-0.26769 2.31695,0 4.21265,0.0915 5.70047,0.26769 1.48783,0.17617 2.67121,0.41571 3.56544,0.71175 0.88848,0.29584 1.52996,0.68359 1.91675,1.1556 0.38872,0.47928 0.57828,1.00778 0.57828,1.60675 v 92.74129 h 36.26708 c 0.59169,0 1.11253,0.16085 1.55678,0.49211 0.44424,0.32362 0.81763,0.85978 1.11444,1.60655 0.29488,0.74105 0.52083,1.7272 0.66828,2.93929 0.14169,1.21209 0.21828,2.71333 0.21828,4.49604 z"
     fill="#3d4753"
     id="path8"
     style="stroke-width:1.91484" />
  <path
     d="m 973.37435,432.34791 c 0,1.78272 -0.0789,3.28204 -0.22597,4.49414 -0.14938,1.21974 -0.37342,2.22695 -0.67024,3.03119 -0.29488,0.80232 -0.67014,1.38059 -1.11246,1.74059 -0.44426,0.35807 -0.96706,0.53423 -1.55875,0.53423 h -52.83424 c -1.95888,0 -3.60757,-0.57635 -4.94795,-1.73292 -1.33848,-1.15464 -2.00101,-3.04459 -2.00101,-5.65836 V 330.07263 c 0,-0.59206 0.19148,-1.12747 0.57827,-1.60675 0.38681,-0.47201 1.02254,-0.85976 1.91677,-1.1556 0.88849,-0.29604 2.09291,-0.53558 3.60756,-0.71175 1.51656,-0.17616 3.39692,-0.26769 5.66027,-0.26769 2.31887,0 4.21456,0.0915 5.70048,0.26769 1.48783,0.17617 2.6712,0.41571 3.56734,0.71175 0.88657,0.29584 1.52805,0.68359 1.91676,1.1556 0.3868,0.47928 0.57636,1.00778 0.57636,1.60675 v 92.74129 h 36.26709 c 0.5917,0 1.11247,0.16085 1.55673,0.49211 0.44425,0.32362 0.81767,0.85978 1.11449,1.60655 0.29488,0.74105 0.52086,1.7272 0.6683,2.93929 0.14166,1.21209 0.2202,2.71333 0.2202,4.49604 z"
     fill="#3d4753"
     id="path9"
     style="stroke-width:1.91484" />
  <path
     d="m 180.21106,223.46501 h 31.09299 c 43.2237,0 78.89144,35.66621 78.89144,78.88819 0,43.22945 -35.66774,78.88761 -78.89144,78.88761 H 180.20417 132.41242 104.77955 77.139777 49.5 v 82.91643 h 161.80405 c 88.99798,0 161.80406,-72.8099 161.80406,-161.80404 0,-88.99452 -72.80608,-161.80404 -161.80406,-161.80404 H 49.5 v 121.20769 16.98521 h 27.639777 27.639773 27.63976 27.63977 27.63977 23.6052 c 12.71206,0 23.6121,10.89966 23.6121,23.61114 0,12.71167 -10.90004,23.61114 -23.6121,23.61114 H 187.69196 49.5 V 353.602 h 110.55908 51.24497 c 27.96798,0 51.25263,-23.27508 51.25263,-51.2488 0,-27.96682 -23.28465,-51.24976 -51.25263,-51.24976 H 160.05219 132.41242 104.77955 77.139777 v -82.91567 h 27.639773 106.5245 c 73.73478,0 134.17099,60.43296 134.17099,134.16543 0,73.73861 -60.42855,134.16523 -134.17099,134.16523 H 77.139777 v -27.63881 h 27.639773 75.43151 31.09299 c 58.47924,0 106.53218,-48.04144 106.53218,-106.52642 0,-58.47732 -48.05294,-106.5201 -106.53218,-106.5201 h -31.09988 -67.32829 v 27.63191 z"
     fill="url(#paint0_linear_131_554)"
     id="path10"
     style="fill:url(#paint0_linear_131_554);stroke-width:1.91484" />
  <path
     opacity="0.75"
     d="m 112.50592,278.41769 h 98.80867 8.60625 v -26.80107 h -8.60625 l -62.60285,-0.007 H 112.50592 76.307779 v 26.80777 z"
     fill="url(#paint1_linear_131_554)"
     id="path11"
     style="fill:url(#paint1_linear_131_554);stroke-width:1.91484" />
  <path
     opacity="0.75"
     d="m 108.16306,406.71203 h 86.95101 7.5732 v -24.88719 h -7.5732 l -55.08919,-0.006 H 108.16306 76.307779 v 24.89293 z"
     fill="url(#paint2_linear_131_554)"
     id="path12"
     style="fill:url(#paint2_linear_131_554);stroke-width:1.91484" />
  <defs
     id="defs31">
    <linearGradient
       id="paint0_linear_131_554"
       x1="124.63"
       y1="184.998"
       x2="4.1701899"
       y2="-23.6535"
       gradientUnits="userSpaceOnUse"
       gradientTransform="matrix(1.9148408,0,0,1.9148408,49.5,140.54915)">
      <stop
         offset="0.1721"
         stop-color="#2CA5B1"
         id="stop12" />
      <stop
         offset="0.804"
         stop-color="#F09630"
         id="stop13" />
    </linearGradient>
    <linearGradient
       id="paint1_linear_131_554"
       x1="88.998901"
       y1="65.000603"
       x2="13.9981"
       y2="65.000603"
       gradientUnits="userSpaceOnUse"
       gradientTransform="matrix(1.9148408,0,0,1.9148408,49.5,140.54915)">
      <stop
         stop-color="white"
         stop-opacity="0"
         id="stop14" />
      <stop
         offset="0.0405"
         stop-color="#EEEFF0"
         stop-opacity="0.0405"
         id="stop15" />
      <stop
         offset="0.1632"
         stop-color="#BFC3C7"
         stop-opacity="0.1632"
         id="stop16" />
      <stop
         offset="0.29"
         stop-color="#979DA3"
         stop-opacity="0.29"
         id="stop17" />
      <stop
         offset="0.4195"
         stop-color="#777E86"
         stop-opacity="0.4195"
         id="stop18" />
      <stop
         offset="0.5522"
         stop-color="#5D6670"
         stop-opacity="0.5522"
         id="stop19" />
      <stop
         offset="0.6896"
         stop-color="#4B5460"
         stop-opacity="0.6896"
         id="stop20" />
      <stop
         offset="0.8346"
         stop-color="#404A56"
         stop-opacity="0.8346"
         id="stop21" />
      <stop
         offset="1"
         stop-color="#3D4753"
         id="stop22" />
    </linearGradient>
    <linearGradient
       id="paint2_linear_131_554"
       x1="79.9991"
       y1="132.49899"
       x2="13.9984"
       y2="132.49899"
       gradientUnits="userSpaceOnUse"
       gradientTransform="matrix(1.9148408,0,0,1.9148408,49.5,140.54915)">
      <stop
         stop-color="white"
         stop-opacity="0"
         id="stop23" />
      <stop
         offset="0.0405"
         stop-color="#EEEFF0"
         stop-opacity="0.0405"
         id="stop24" />
      <stop
         offset="0.1632"
         stop-color="#BFC3C7"
         stop-opacity="0.1632"
         id="stop25" />
      <stop
         offset="0.29"
         stop-color="#979DA3"
         stop-opacity="0.29"
         id="stop26" />
      <stop
         offset="0.4195"
         stop-color="#777E86"
         stop-opacity="0.4195"
         id="stop27" />
      <stop
         offset="0.5522"
         stop-color="#5D6670"
         stop-opacity="0.5522"
         id="stop28" />
      <stop
         offset="0.6896"
         stop-color="#4B5460"
         stop-opacity="0.6896"
         id="stop29" />
      <stop
         offset="0.8346"
         stop-color="#404A56"
         stop-opacity="0.8346"
         id="stop30" />
      <stop
         offset="1"
         stop-color="#3D4753"
         id="stop31" />
    </linearGradient>
  </defs>
</svg>
