<svg width="130" height="129" viewBox="0 0 130 129" fill="none" xmlns="http://www.w3.org/2000/svg">
<g id="Ebene_1" clip-path="url(#clip0_421_2463)">
<g id="Layer_1">
<g id="2798634682128">
<path id="Vector" fill-rule="evenodd" clip-rule="evenodd" d="M75.4015 126.903C98.6903 119.937 129.528 93.5234 129.993 54.042C130.197 36.8768 122.812 35.3183 119.998 41.64C118.792 44.3545 118.693 47.0032 118.142 49.7177C116.175 59.3979 108.738 63.6562 100.796 58.7028C96.1653 55.8126 90.5513 50.1275 83.5864 41.179C73.6176 28.4771 51.1552 47.3544 72.7126 66.6342C77.3887 71.712 80.3269 75.9265 81.9271 79.3727C91.6859 98.2061 90.8989 119.864 75.4015 126.903ZM108.764 21.6578C115.008 25.2431 117.467 33.7964 114.253 40.762C111.04 47.7276 103.373 50.4714 97.1294 46.8861C90.8858 43.3009 88.4264 34.7476 91.64 27.782C94.8536 20.8164 102.52 18.0726 108.764 21.6578Z" fill="#3D4753"/>
<g id="Group">
<path id="Vector_2" fill-rule="evenodd" clip-rule="evenodd" d="M121.913 86.8432C126.78 77.2947 129.849 66.2976 129.993 54.042C130.197 36.8768 122.812 35.3183 119.998 41.64C118.792 44.3545 118.693 47.0032 118.142 49.7177C116.175 59.3979 108.738 63.6562 100.796 58.7028C96.1653 55.8126 90.5513 50.1275 83.5864 41.179C73.6176 28.4771 51.1552 47.3544 72.7126 66.6342C77.3887 71.712 80.3269 75.9265 81.9271 79.3727C83.3503 82.1092 84.5439 84.9115 85.5014 87.7212C97.5098 93.7722 110.856 93.0478 121.913 86.8432ZM108.764 21.6578C115.008 25.2431 117.467 33.7964 114.253 40.762C111.04 47.7276 103.373 50.4714 97.1294 46.8861C90.8858 43.3009 88.4264 34.7476 91.64 27.782C94.8536 20.8164 102.52 18.0726 108.764 21.6578Z" fill="url(#paint0_linear_421_2463)"/>
</g>
<g id="Group_2">
<path id="Vector_3" fill-rule="evenodd" clip-rule="evenodd" d="M107.99 60.7515C105.747 60.8979 103.301 60.254 100.802 58.6955C96.1719 55.8054 90.5579 50.1202 83.593 41.1718C73.6242 28.4699 51.1618 47.3472 72.7192 66.6269C77.3953 71.7048 80.3334 75.9193 81.9337 79.3655C91.6925 98.1989 90.9055 119.857 75.4081 126.895C99.8577 117.976 111.978 86.0164 107.997 60.7515H107.99Z" fill="url(#paint1_linear_421_2463)"/>
</g>
<path id="Vector_4" fill-rule="evenodd" clip-rule="evenodd" d="M83.0485 82.409C88.7346 101.718 41.2323 105.011 51.3322 122.871C54.8672 129.119 64.2719 130.224 75.4015 126.895C90.8989 119.856 91.6859 98.1987 81.927 79.3652C82.1894 79.9286 82.4123 80.4701 82.6025 80.9896C82.7796 81.4798 82.9305 81.9481 83.0485 82.4017V82.409Z" fill="#3D4753"/>
<g id="Group_3">
<path id="Vector_5" fill-rule="evenodd" clip-rule="evenodd" d="M83.0487 82.409C84.0718 85.8918 83.3635 88.8478 81.5796 91.4672C87.187 105.135 86.1311 119.322 75.4016 126.895C90.899 119.856 91.686 98.1987 81.9272 79.3652C82.1895 79.9286 82.4125 80.4701 82.6027 80.9896C82.7798 81.4798 82.9306 81.9481 83.0487 82.4017V82.409Z" fill="#0E215E"/>
</g>
<g id="Group_4">
<path id="Vector_6" fill-rule="evenodd" clip-rule="evenodd" d="M114.857 36.1816C115.565 30.672 113.139 25.0235 108.449 22.3309C102.54 18.9359 95.2868 21.5333 92.2437 28.1258C89.4629 34.1621 91.1747 41.4497 96.0147 45.2471C95.1818 42.4228 95.3261 39.24 96.6378 36.3938C99.2415 30.7525 105.452 28.5282 110.509 31.433C112.424 32.5378 113.906 34.2134 114.857 36.1816Z" fill="url(#paint2_linear_421_2463)"/>
</g>
<path id="Vector_7" fill-rule="evenodd" clip-rule="evenodd" d="M54.5984 1.84371C31.3096 8.81662 0.465609 35.2229 -3.51565e-05 74.7117C-0.203345 91.8696 7.18138 93.4353 9.99492 87.1136C11.2017 84.3991 11.3 81.7504 11.8509 79.0359C13.8184 69.3558 21.2556 65.0974 29.1978 70.0509C33.828 72.941 39.442 78.6262 46.407 87.5746C56.3757 100.277 78.8381 81.3992 57.2808 62.1195C52.6046 57.0416 49.6665 52.8271 48.0663 49.3809C38.3074 30.5475 39.0944 8.88979 54.5918 1.85103L54.5984 1.84371ZM21.236 107.088C14.9924 103.503 12.533 94.9499 15.7466 87.9843C18.9602 81.0187 26.6269 78.2749 32.8705 81.8602C39.1141 85.4454 41.5735 93.9987 38.3599 100.972C35.1463 107.937 27.4795 110.681 21.236 107.096V107.088Z" fill="url(#paint3_linear_421_2463)"/>
<g id="Group_5">
<path id="Vector_8" fill-rule="evenodd" clip-rule="evenodd" d="M8.08643 41.9033C3.22012 51.4444 0.150807 62.4416 -3.5156e-05 74.7045C-0.203345 91.8624 7.18138 93.4282 9.99492 87.1065C11.2017 84.392 11.3 81.7433 11.8509 79.0288C13.8184 69.3486 21.2556 65.0903 29.1978 70.0437C33.828 72.9339 39.442 78.619 46.407 87.5675C56.3757 100.269 78.8381 81.3921 57.2808 62.1123C52.6046 57.0345 49.6665 52.82 48.0663 49.3738C46.6431 46.6373 45.4495 43.835 44.4919 41.0253C32.4836 34.9743 19.1373 35.6987 8.07988 41.9033H8.08643ZM21.236 107.089C14.9924 103.503 12.533 94.9501 15.7466 87.9845C18.9602 81.0189 26.6269 78.2751 32.8705 81.8604C39.1141 85.4456 41.5735 93.9989 38.3599 100.972C35.1463 107.937 27.4795 110.681 21.236 107.096V107.089Z" fill="url(#paint4_linear_421_2463)"/>
</g>
<g id="Group_6">
<path id="Vector_9" fill-rule="evenodd" clip-rule="evenodd" d="M22.0099 67.9878C24.2529 67.8415 26.6992 68.4854 29.1979 70.0438C33.8281 72.934 39.4421 78.6191 46.4071 87.5676C56.3758 100.27 78.8382 81.3922 57.2808 62.1124C52.6047 57.0346 49.6666 52.8201 48.0663 49.3739C38.3075 30.5405 39.0945 8.88275 54.5919 1.84399C30.1489 10.7558 18.029 42.7156 22.0099 67.9878Z" fill="url(#paint5_linear_421_2463)"/>
</g>
<path id="Vector_10" fill-rule="evenodd" clip-rule="evenodd" d="M46.9447 46.3297C41.2585 27.0207 88.7608 23.7282 78.6609 5.86787C75.126 -0.380673 65.7213 -1.48551 54.5917 1.84363C39.0943 8.88239 38.3073 30.5401 48.0661 49.3735C47.8038 48.8101 47.5808 48.2687 47.3906 47.7492C47.2135 47.259 47.0627 46.7907 46.9447 46.3371V46.3297Z" fill="url(#paint6_linear_421_2463)"/>
<g id="Group_7">
<path id="Vector_11" fill-rule="evenodd" clip-rule="evenodd" d="M46.9447 46.3301C45.9215 42.8473 46.6298 39.8913 48.4137 37.2719C42.8063 23.6041 43.8622 9.41688 54.5917 1.84399C39.0943 8.88275 38.3073 30.5405 48.0661 49.3739C47.8038 48.8105 47.5808 48.2691 47.3906 47.7496C47.2135 47.2593 47.0627 46.7911 46.9447 46.3374V46.3301Z" fill="url(#paint7_linear_421_2463)"/>
</g>
<g id="Group_8">
<path id="Vector_12" fill-rule="evenodd" clip-rule="evenodd" d="M15.1433 92.5575C14.435 98.067 16.8616 103.716 21.5508 106.408C27.4599 109.803 34.7135 107.206 37.7565 100.613C40.5373 94.5769 38.8256 87.2894 33.9855 83.4919C34.8184 86.3162 34.6741 89.499 33.3624 92.3453C30.7588 97.9865 24.548 100.211 19.4915 97.3061C17.5764 96.2012 16.0943 94.5257 15.1433 92.5575Z" fill="url(#paint8_linear_421_2463)"/>
</g>
</g>
</g>
</g>
<defs>
<linearGradient id="paint0_linear_421_2463" x1="63.6686" y1="55.9882" x2="130" y2="55.9882" gradientUnits="userSpaceOnUse">
<stop stop-color="#1C2A39"/>
<stop offset="1" stop-color="#7C8A99"/>
</linearGradient>
<linearGradient id="paint1_linear_421_2463" x1="63.6686" y1="81.9776" x2="108.731" y2="81.9776" gradientUnits="userSpaceOnUse">
<stop stop-color="#1C2A39"/>
<stop offset="1" stop-color="#7C8A99"/>
</linearGradient>
<linearGradient id="paint2_linear_421_2463" x1="90.9058" y1="33.0427" x2="114.975" y2="33.0427" gradientUnits="userSpaceOnUse">
<stop stop-color="#1C2A39"/>
<stop offset="1" stop-color="#7C8A99"/>
</linearGradient>
<linearGradient id="paint3_linear_421_2463" x1="-14.333" y1="86.1876" x2="40.6178" y2="18.0759" gradientUnits="userSpaceOnUse">
<stop stop-color="#1C2A39"/>
<stop offset="1" stop-color="#BCCAD9"/>
</linearGradient>
<linearGradient id="paint4_linear_421_2463" x1="-3.51565e-05" y1="72.7509" x2="66.3313" y2="72.7509" gradientUnits="userSpaceOnUse">
<stop stop-color="#7C8A99"/>
<stop offset="1" stop-color="#FEFEFE"/>
</linearGradient>
<linearGradient id="paint5_linear_421_2463" x1="21.2623" y1="46.7691" x2="0.655867" y2="46.7691" gradientUnits="userSpaceOnUse">
<stop stop-color="#7C8A99"/>
<stop offset="1" stop-color="#FEFEFE"/>
</linearGradient>
<linearGradient id="paint6_linear_421_2463" x1="22.9141" y1="6.26693" x2="59.734" y2="-15.0139" gradientUnits="userSpaceOnUse">
<stop stop-color="#1C2A39"/>
<stop offset="1" stop-color="#BCCAD9"/>
</linearGradient>
<linearGradient id="paint7_linear_421_2463" x1="41.6652" y1="25.6016" x2="54.5983" y2="25.6016" gradientUnits="userSpaceOnUse">
<stop stop-color="#7C8A99"/>
<stop offset="1" stop-color="#FEFEFE"/>
</linearGradient>
<linearGradient id="paint8_linear_421_2463" x1="15.0187" y1="95.6964" x2="39.0945" y2="95.6964" gradientUnits="userSpaceOnUse">
<stop stop-color="#7C8A99"/>
<stop offset="1" stop-color="#FEFEFE"/>
</linearGradient>
<clipPath id="clip0_421_2463">
<rect width="130" height="128.739" fill="white"/>
</clipPath>
</defs>
</svg>
