<svg width="246" height="145" viewBox="0 0 246 145" fill="none" xmlns="http://www.w3.org/2000/svg">
<g id="Logo_Mall_neu" clip-path="url(#clip0_413_1391)">
<path id="Vector" d="M188.819 72.4956C188.819 78.8141 183.514 83.9478 176.974 83.9478C170.434 83.9478 165.12 78.8229 165.12 72.4956C165.12 70.5123 163.458 68.8976 161.396 68.8976C159.334 68.8976 157.672 70.5123 157.672 72.4956C157.672 87.2738 145.273 99.2613 129.967 99.2613C114.661 99.2613 102.262 87.2826 102.262 72.4956C102.262 69.0556 99.3738 66.2737 95.8221 66.2737C92.2704 66.2737 89.3819 69.0643 89.3819 72.4956C89.3819 81.087 82.1786 88.0548 73.2768 88.0548C64.3749 88.0548 57.4079 81.3064 57.1808 72.9081C57.4079 107.835 86.784 136.084 123 136.084C159.216 136.084 188.819 107.616 188.819 72.4956Z" fill="url(#paint0_linear_413_1391)"/>
<g id="Group">
<path id="Vector_2" d="M188.819 72.4956C188.819 78.8141 183.514 83.9478 176.974 83.9478C170.434 83.9478 165.12 78.8229 165.12 72.4956C165.12 70.5123 163.458 68.8976 161.396 68.8976C159.334 68.8976 157.672 70.5123 157.672 72.4956C157.672 87.2738 145.273 99.2613 129.967 99.2613C114.661 99.2613 102.262 87.2826 102.262 72.4956C102.262 69.0556 99.3738 66.2737 95.8221 66.2737C92.2704 66.2737 89.3819 69.0643 89.3819 72.4956C89.3819 81.087 82.1786 88.0548 73.2768 88.0548C64.3749 88.0548 57.4079 81.3064 57.1808 72.9081C57.208 77.1906 57.6804 81.3678 58.5342 85.4134C61.0231 90.8718 66.6731 94.698 73.2768 94.698C82.1696 94.698 89.3819 87.7301 89.3819 79.1388C89.3819 75.6987 92.2704 72.9168 95.8221 72.9168C99.3738 72.9168 102.262 75.6987 102.262 79.1388C102.262 93.917 114.661 105.904 129.967 105.904C145.273 105.904 157.672 93.917 157.672 79.1388C157.672 77.1555 159.343 75.5408 161.396 75.5408C163.449 75.5408 165.12 77.1555 165.12 79.1388C165.12 85.466 170.425 90.591 176.974 90.591C181.779 90.591 185.912 87.8267 187.775 83.8513C188.465 80.1655 188.819 76.3745 188.819 72.4956Z" fill="url(#paint1_linear_413_1391)"/>
</g>
<path id="Vector_3" d="M123 8.90723C159.352 8.90723 188.819 37.3754 188.819 72.4955C188.819 78.814 183.514 83.9478 176.974 83.9478C170.434 83.9478 165.12 78.8228 165.12 72.4955C165.12 70.5123 163.458 68.8975 161.396 68.8975C159.334 68.8975 157.672 70.5123 157.672 72.4955C157.672 87.2737 145.273 99.2613 129.967 99.2613C114.661 99.2613 102.262 87.2825 102.262 72.4955C102.262 69.0555 99.3738 66.2736 95.8221 66.2736C92.2705 66.2736 89.3819 69.0643 89.3819 72.4955C89.3819 81.0869 82.1787 88.0548 73.2768 88.0548C64.375 88.0548 57.1718 81.0694 57.1718 72.4955C57.1718 37.3754 86.6387 8.90723 122.991 8.90723H123Z" fill="url(#paint2_linear_413_1391)"/>
<path id="Vector_4" d="M161.632 21.0089C205.397 1.89557 239.16 -5.51985 245.083 4.39663C253.276 18.1042 205.251 59.7008 137.824 97.3132C70.3973 134.926 9.10168 154.302 0.908337 140.595C-5.0232 130.669 18.5122 106.133 57.5259 79.0774C57.8439 82.0172 58.3616 84.9044 59.0792 87.7126C37.851 104.141 26.0515 118.164 29.8212 124.465C36.0707 134.926 82.8599 120.139 134.318 91.4247C185.776 62.7196 222.437 30.9693 216.179 20.5087C212.409 14.2078 193.933 17.0687 168.59 26.6166C166.41 24.5894 164.085 22.7114 161.632 20.9914V21.0089Z" fill="url(#paint3_linear_413_1391)"/>
<g id="Group_2">
<path id="Vector_5" d="M32.9459 97.436C40.1764 91.5564 48.4333 85.3871 57.5259 79.0774C57.8439 82.0172 58.3616 84.9044 59.0792 87.7126C51.0403 93.9346 44.3548 99.8055 39.3498 105.053L32.9459 97.436Z" fill="url(#paint4_linear_413_1391)"/>
</g>
<g id="Group_3">
<path id="Vector_6" d="M230.803 12.3651C237.907 24.2474 195.396 60.8067 135.853 94.0137C76.3107 127.221 22.291 144.509 15.1877 132.627C10.4188 124.641 28.05 105.51 58.2073 83.7462C57.9257 82.2105 57.6986 80.6572 57.526 79.0776C18.5123 106.142 -5.01406 130.678 0.908396 140.595C9.10173 154.302 70.3973 134.926 137.824 97.3134C205.251 59.701 253.276 18.1044 245.083 4.39684C239.151 -5.52841 205.397 1.89578 161.632 21.0091C162.949 21.9306 164.221 22.8959 165.466 23.9139C200.056 9.56569 226.025 4.37929 230.803 12.3651Z" fill="url(#paint5_linear_413_1391)"/>
</g>
<path id="Vector_7" d="M206.296 124.096C215.918 124.096 223.718 116.561 223.718 107.265C223.718 97.9689 215.918 90.4331 206.296 90.4331C196.674 90.4331 188.874 97.9689 188.874 107.265C188.874 116.561 196.674 124.096 206.296 124.096Z" fill="url(#paint6_linear_413_1391)"/>
<g id="Group_4">
<path id="Vector_8" d="M223.473 104.448C223.636 105.369 223.718 106.308 223.718 107.265C223.718 116.558 215.915 124.096 206.296 124.096C196.677 124.096 188.874 116.558 188.874 107.265C188.874 106.308 188.956 105.369 189.119 104.448C190.509 112.407 197.676 118.462 206.296 118.462C214.916 118.462 222.092 112.398 223.473 104.448Z" fill="url(#paint7_linear_413_1391)"/>
</g>
<path id="Vector_9" d="M46.0626 51.4693C50.6228 51.4693 54.3195 47.8978 54.3195 43.4922C54.3195 39.0866 50.6228 35.5151 46.0626 35.5151C41.5024 35.5151 37.8057 39.0866 37.8057 43.4922C37.8057 47.8978 41.5024 51.4693 46.0626 51.4693Z" fill="url(#paint8_linear_413_1391)"/>
<g id="Group_5">
<path id="Vector_10" d="M54.2105 42.167C54.2831 42.597 54.3285 43.0446 54.3285 43.4921C54.3285 47.8975 50.6315 51.4692 46.0716 51.4692C41.5117 51.4692 37.8147 47.8975 37.8147 43.4921C37.8147 43.0358 37.851 42.597 37.9328 42.167C38.5868 45.9405 41.984 48.8189 46.0807 48.8189C50.1774 48.8189 53.5746 45.9405 54.2286 42.167H54.2105Z" fill="url(#paint9_linear_413_1391)"/>
</g>
<path id="Vector_11" d="M73.4676 114.347C81.1341 111.53 88.6552 108.37 96.0583 105.018C102.717 102.008 103.552 101.069 110.047 97.7344C111.509 99.1736 113.035 100.472 114.988 101.648C98.9923 110.003 90.7172 113.32 77.3916 118.34C76.02 117.067 74.6938 115.724 73.4403 114.347H73.4585H73.4676Z" fill="url(#paint10_linear_413_1391)"/>
<path id="Vector_12" d="M115.797 95.4964C121.138 92.7584 126.424 89.9239 131.657 87.0016C140.549 82.0434 149.306 76.8306 157.853 71.3371C157.735 71.6969 157.663 72.0742 157.663 72.4691C157.663 74.3383 157.463 76.1637 157.09 77.9188C149.924 82.4295 142.284 86.9577 134.3 91.4157C130.14 93.7413 126.007 95.9703 121.928 98.1028C119.757 97.4709 117.704 96.5934 115.806 95.4964H115.797ZM161.623 68.8799C162.958 68.0023 164.285 67.116 165.611 66.2209C172.314 61.7014 178.927 56.9713 185.295 51.9517C185.903 53.6805 186.439 55.4531 186.903 57.2521C180.444 62.2543 173.141 67.4582 165.111 72.7499C165.111 72.6534 165.111 72.5569 165.111 72.4603C165.111 70.5473 163.567 68.9852 161.623 68.8711V68.8799Z" fill="url(#paint11_linear_413_1391)"/>
</g>
<defs>
<linearGradient id="paint0_linear_413_1391" x1="123" y1="59.2883" x2="123" y2="179.067" gradientUnits="userSpaceOnUse">
<stop stop-color="#1C2A39"/>
<stop offset="1" stop-color="#7C8A99"/>
</linearGradient>
<linearGradient id="paint1_linear_413_1391" x1="57.1808" y1="86.0891" x2="181.489" y2="86.0891" gradientUnits="userSpaceOnUse">
<stop stop-color="#E6EAED"/>
<stop offset="1" stop-color="#828F9E"/>
</linearGradient>
<linearGradient id="paint2_linear_413_1391" x1="123" y1="103.07" x2="123" y2="-8.97754" gradientUnits="userSpaceOnUse">
<stop stop-color="#7C8A99"/>
<stop offset="1" stop-color="#FEFEFE"/>
</linearGradient>
<linearGradient id="paint3_linear_413_1391" x1="97.0756" y1="29.1176" x2="159.489" y2="141.02" gradientUnits="userSpaceOnUse">
<stop stop-color="#7C8A99"/>
<stop offset="1" stop-color="#FEFEFE"/>
</linearGradient>
<linearGradient id="paint4_linear_413_1391" x1="32.9459" y1="92.0653" x2="59.0792" y2="92.0653" gradientUnits="userSpaceOnUse">
<stop stop-color="#7C8A99"/>
<stop offset="1" stop-color="#FEFEFE"/>
</linearGradient>
<linearGradient id="paint5_linear_413_1391" x1="4.31785e-05" y1="72.4959" x2="246" y2="72.4959" gradientUnits="userSpaceOnUse">
<stop stop-color="#7C8A99"/>
<stop offset="1" stop-color="#D4D8DC"/>
</linearGradient>
<linearGradient id="paint6_linear_413_1391" x1="140.64" y1="107.265" x2="264.013" y2="107.265" gradientUnits="userSpaceOnUse">
<stop stop-color="#1C2A39"/>
<stop offset="1" stop-color="#BCCAD9"/>
</linearGradient>
<linearGradient id="paint7_linear_413_1391" x1="188.874" y1="114.276" x2="223.718" y2="114.276" gradientUnits="userSpaceOnUse">
<stop stop-color="#1C2A39"/>
<stop offset="1" stop-color="#7C8A99"/>
</linearGradient>
<linearGradient id="paint8_linear_413_1391" x1="46.0626" y1="103.079" x2="46.0626" y2="-8.96861" gradientUnits="userSpaceOnUse">
<stop stop-color="#1C2A39"/>
<stop offset="1" stop-color="#BCCAD9"/>
</linearGradient>
<linearGradient id="paint9_linear_413_1391" x1="37.8056" y1="46.8181" x2="54.3195" y2="46.8181" gradientUnits="userSpaceOnUse">
<stop stop-color="#1C2A39"/>
<stop offset="1" stop-color="#7C8A99"/>
</linearGradient>
<linearGradient id="paint10_linear_413_1391" x1="73.4403" y1="108.046" x2="114.988" y2="108.046" gradientUnits="userSpaceOnUse">
<stop offset="0.28" stop-color="#1A1A1A"/>
<stop offset="1" stop-color="#4D4D4D"/>
</linearGradient>
<linearGradient id="paint11_linear_413_1391" x1="115.797" y1="75.0316" x2="186.903" y2="75.0316" gradientUnits="userSpaceOnUse">
<stop stop-color="#1C2A39"/>
<stop offset="1" stop-color="#7C8A99"/>
</linearGradient>
<clipPath id="clip0_413_1391">
<rect width="246" height="145" fill="white"/>
</clipPath>
</defs>
</svg>
